<svg width="94" height="79" viewBox="0 0 94 79" fill="none" xmlns="http://www.w3.org/2000/svg">
<g clip-path="url(#clip0_587_1919)">
<path d="M7.55806 11.7729C6.72125 13.1575 6.09062 14.6566 5.68606 16.2229C4.22306 21.898 5.50706 28.857 9.83806 36.403C20.7791 55.3589 47.2131 70.683 68.9771 70.683C77.4591 70.683 83.9501 68.3429 88.0431 64.361C88.8396 63.6261 89.5478 62.8009 90.1531 61.902L86.9961 67.2879L85.9411 69.2179C82.1981 74.9529 74.7711 78.4579 64.4161 78.4579C42.7131 78.4579 16.2191 63.1359 5.27806 44.18C0.12206 35.2379 -0.63494 27.045 2.29006 20.962L3.69406 18.5029L7.55806 11.7729Z" fill="#00CFFF" fill-opacity="0.3"/>
<path d="M29.3729 2.12451C51.0769 2.12451 77.5199 17.4475 88.4529 36.4035C93.5399 45.2345 94.3569 53.2485 91.6089 59.3325L91.5489 59.5105L90.1449 61.9105C89.5398 62.8094 88.8317 63.6343 88.0349 64.3685C83.9429 68.3505 77.4429 70.6905 68.9689 70.6905C47.2059 70.6905 20.7719 55.3675 9.83087 36.4115C5.49987 28.8655 4.21487 21.9055 5.67887 16.2315C6.08467 14.6657 6.71487 13.1669 7.54987 11.7815L7.60987 11.6025C11.3539 5.74951 18.8489 2.12451 29.3729 2.12451Z" fill="white" stroke="#80F3FF" stroke-width="0.851" stroke-miterlimit="10"/>
<path d="M34.4446 10.9136C50.5846 10.9136 70.2366 22.3056 78.3706 36.4036C82.1566 42.9716 82.7606 48.9276 80.7186 53.4536L80.6766 53.5806L79.6296 55.3676C79.1956 56.0226 78.6766 56.6276 78.0646 57.1976C75.0186 60.1576 70.1946 61.8936 63.8816 61.8936C47.6996 61.8936 28.0466 50.5016 19.9126 36.4036C16.6966 30.7966 15.7356 25.6156 16.8246 21.3956C17.1266 20.2304 17.5965 19.1154 18.2196 18.0856L18.2626 17.9586C21.0446 13.6106 26.6086 10.9136 34.4446 10.9136Z" fill="#00CFFF"/>
<path d="M37.4806 16.1797C50.2856 16.1797 65.8806 25.2237 72.3376 36.4037C75.3416 41.6107 75.8266 46.3407 74.2016 49.9307L74.1666 50.0327L73.3416 51.4457C72.9872 51.9758 72.5702 52.4613 72.0996 52.8917C69.6836 55.2397 65.8546 56.6187 60.8526 56.6187C48.0136 56.6187 32.4186 47.5747 25.9616 36.3947C23.4086 31.9447 22.6516 27.8357 23.5116 24.4927C23.7489 23.5697 24.1212 22.6868 24.6166 21.8727L24.6506 21.7697C26.8636 18.3157 31.2786 16.1797 37.4896 16.1797H37.4806Z" fill="white"/>
<path d="M40.5349 21.481C49.9789 21.481 61.4899 28.151 66.2549 36.404C68.4659 40.249 68.8239 43.738 67.6319 46.384L67.6069 46.46L66.9939 47.507C66.7389 47.89 66.4329 48.247 66.0759 48.579C64.2969 50.314 61.4639 51.327 57.7719 51.327C48.3019 51.327 36.7919 44.657 32.0269 36.404C30.1469 33.12 29.5849 30.091 30.2229 27.624C30.4019 26.934 30.6829 26.271 31.0399 25.692L31.0659 25.616C32.6989 23.072 35.9579 21.489 40.5349 21.489V21.481Z" fill="#00CFFF"/>
<path d="M43.0791 25.8965C49.7321 25.8965 57.8401 30.5925 61.1921 36.4035C62.7491 39.1085 63.0041 41.5675 62.1621 43.4305L62.1451 43.4815L61.7111 44.2135C61.5268 44.491 61.3095 44.7452 61.0641 44.9705C59.8051 46.1875 57.8141 46.9105 55.2201 46.9105C48.5501 46.9105 40.4411 42.2145 37.0901 36.4035C35.7621 34.0895 35.3701 31.9535 35.8131 30.2185C35.9411 29.7335 36.1361 29.2655 36.3831 28.8565L36.4001 28.8065C37.5491 27.0105 39.8461 25.9045 43.0701 25.9045L43.0791 25.8965Z" fill="white"/>
<path d="M47.7237 33.9541C49.2727 33.9541 51.1697 35.0511 51.9527 36.4041C52.3187 37.0341 52.3777 37.6121 52.1827 38.0461L52.0797 38.2331C52.0377 38.2931 51.9867 38.3531 51.9267 38.4121C51.6377 38.6921 51.1697 38.8621 50.5657 38.8621C49.0087 38.8621 47.1197 37.7651 46.3377 36.4121C46.0307 35.8761 45.9377 35.3741 46.0397 34.9661C46.0647 34.8561 46.1157 34.7451 46.1757 34.6511C46.4397 34.2171 46.9757 33.9621 47.7327 33.9621L47.7237 33.9541Z" fill="#00CFFF"/>
<path d="M50.8199 30.8311C51.6619 30.8311 52.6829 31.4271 53.1089 32.1581C53.3039 32.4981 53.3389 32.8131 53.2279 33.0431L53.1769 33.1451C53.1529 33.1803 53.1239 33.212 53.0909 33.2391C52.9299 33.3921 52.6829 33.4861 52.3509 33.4861C51.5089 33.4861 50.4789 32.8901 50.0629 32.1581C49.8929 31.8691 49.8409 31.5971 49.9009 31.3761C49.9178 31.3158 49.9437 31.2584 49.9779 31.2061C50.1219 30.9761 50.4119 30.8311 50.8199 30.8311Z" fill="#80F3FF"/>
<path d="M63.0814 9.59521C63.9234 9.59521 64.9444 10.1912 65.3694 10.9232C65.5654 11.2632 65.5994 11.5782 65.4894 11.8072L65.4374 11.9102C65.4124 11.9442 65.3874 11.9782 65.3524 12.0032C65.1904 12.1562 64.9444 12.2502 64.6124 12.2502C63.7704 12.2502 62.7404 11.6542 62.3234 10.9232C62.1534 10.6332 62.1034 10.3612 62.1624 10.1402C62.179 10.08 62.2046 10.0227 62.2384 9.97021C62.3834 9.74021 62.6724 9.59521 63.0814 9.59521Z" fill="white"/>
<path d="M62.2385 9.96094L49.9785 31.1969L53.2285 33.0519L65.4375 11.9089L62.2385 9.96094Z" fill="#80F3FF"/>
<path d="M65.4379 11.9094H69.0369L67.2419 15.0314L61.8389 18.1454L65.4379 11.9094ZM62.2389 9.96036L60.4359 6.83936L58.6309 9.95936V16.1964L62.2379 9.95936L62.2389 9.96036Z" fill="#00CFFF"/>
<path d="M53.0908 33.239L49.1348 36.404L49.9008 31.376L53.0908 33.239Z" fill="#C9EEFD"/>
<path d="M49.17 36.02V36.038C49.17 36.055 49.17 36.081 49.186 36.106C49.22 36.166 49.306 36.216 49.382 36.216C49.407 36.216 49.433 36.216 49.442 36.2L49.084 36.531V36.131L49.169 36.038V36.021L49.17 36.02Z" fill="#0045F6"/>
</g>
<defs>
<clipPath id="clip0_587_1919">
<rect width="93" height="78" fill="white" transform="translate(0.589844 0.799805)"/>
</clipPath>
</defs>
</svg>
