<svg width="250" height="485" viewBox="0 0 250 485" fill="none" xmlns="http://www.w3.org/2000/svg">
<rect width="250" height="485" fill="url(#paint0_linear_135_21788)"/>
<rect x="31.9102" y="452.2" width="40" height="3" transform="rotate(-90 31.9102 452.2)" fill="#00CFFF"/>
<path d="M40.7352 389.7C40.7352 392.417 39.6685 394.292 37.5352 395.325L36.0852 392.85C37.3185 392.267 37.9352 391.209 37.9352 389.675C37.9352 388.675 37.6935 387.909 37.2102 387.375C36.7102 386.825 36.0102 386.55 35.1102 386.55H22.9102V383.675H35.1102C36.9102 383.675 38.3018 384.242 39.2852 385.375C40.2518 386.492 40.7352 387.934 40.7352 389.7ZM38.8352 370.239C40.1018 371.506 40.7352 373.064 40.7352 374.914C40.7352 376.764 40.1018 378.323 38.8352 379.589C37.5518 380.873 35.9935 381.514 34.1602 381.514C32.3268 381.514 30.7685 380.873 29.4852 379.589C28.2185 378.323 27.5852 376.764 27.5852 374.914C27.5852 373.064 28.2185 371.506 29.4852 370.239C30.7685 368.956 32.3268 368.314 34.1602 368.314C35.9935 368.314 37.5518 368.956 38.8352 370.239ZM34.1602 378.814C35.2935 378.814 36.2352 378.439 36.9852 377.689C37.7352 376.939 38.1102 376.014 38.1102 374.914C38.1102 373.814 37.7352 372.889 36.9852 372.139C36.2352 371.389 35.2935 371.014 34.1602 371.014C33.0268 371.014 32.0852 371.389 31.3352 372.139C30.5852 372.889 30.2102 373.814 30.2102 374.914C30.2102 376.014 30.5852 376.939 31.3352 377.689C32.0852 378.439 33.0268 378.814 34.1602 378.814ZM27.5852 359.452C27.5852 358.002 28.0518 356.844 28.9852 355.977C29.9018 355.094 31.1518 354.652 32.7352 354.652H40.4102V357.352H33.0102C32.0768 357.352 31.3602 357.602 30.8602 358.102C30.3602 358.602 30.1102 359.285 30.1102 360.152C30.1102 361.135 30.4185 361.91 31.0352 362.477C31.6352 363.044 32.5268 363.327 33.7102 363.327H40.4102V366.027H22.9102V363.327H29.5102C28.2268 362.494 27.5852 361.202 27.5852 359.452ZM27.5852 345.324C27.5852 343.874 28.0518 342.715 28.9852 341.849C29.9018 340.965 31.1518 340.524 32.7352 340.524H40.4102V343.224H33.0102C32.0768 343.224 31.3602 343.474 30.8602 343.974C30.3602 344.474 30.1102 345.157 30.1102 346.024C30.1102 347.007 30.4185 347.782 31.0352 348.349C31.6352 348.915 32.5268 349.199 33.7102 349.199H40.4102V351.899H27.9102V349.199H29.5102C28.2268 348.365 27.5852 347.074 27.5852 345.324ZM22.9102 331.499V324.624C22.9102 322.224 23.7518 320.233 25.4352 318.649C27.1185 317.049 29.1935 316.249 31.6602 316.249C34.1102 316.249 36.1852 317.049 37.8852 318.649C39.5685 320.233 40.4102 322.224 40.4102 324.624V331.499H22.9102ZM37.6602 328.624V324.624C37.6602 322.974 37.0935 321.633 35.9602 320.599C34.8268 319.549 33.3935 319.024 31.6602 319.024C29.9268 319.024 28.4935 319.549 27.3602 320.599C26.2268 321.633 25.6602 322.974 25.6602 324.624V328.624H37.6602ZM38.8352 303.382C40.1018 304.649 40.7352 306.207 40.7352 308.057C40.7352 309.907 40.1018 311.466 38.8352 312.732C37.5518 314.016 35.9935 314.657 34.1602 314.657C32.3268 314.657 30.7685 314.016 29.4852 312.732C28.2185 311.466 27.5852 309.907 27.5852 308.057C27.5852 306.207 28.2185 304.649 29.4852 303.382C30.7685 302.099 32.3268 301.457 34.1602 301.457C35.9935 301.457 37.5518 302.099 38.8352 303.382ZM34.1602 311.957C35.2935 311.957 36.2352 311.582 36.9852 310.832C37.7352 310.082 38.1102 309.157 38.1102 308.057C38.1102 306.957 37.7352 306.032 36.9852 305.282C36.2352 304.532 35.2935 304.157 34.1602 304.157C33.0268 304.157 32.0852 304.532 31.3352 305.282C30.5852 306.032 30.2102 306.957 30.2102 308.057C30.2102 309.157 30.5852 310.082 31.3352 310.832C32.0852 311.582 33.0268 311.957 34.1602 311.957ZM35.3102 287.095V297.045C36.2435 296.845 36.9685 296.395 37.4852 295.695C38.0018 294.978 38.2602 294.095 38.2602 293.045C38.2602 291.628 37.7435 290.553 36.7102 289.82L38.0102 287.595C39.8268 288.812 40.7352 290.637 40.7352 293.07C40.7352 295.087 40.1185 296.728 38.8852 297.995C37.6352 299.245 36.0602 299.87 34.1602 299.87C32.3102 299.87 30.7518 299.253 29.4852 298.02C28.2185 296.803 27.5852 295.22 27.5852 293.27C27.5852 291.453 28.2268 289.953 29.5102 288.77C30.7935 287.587 32.3518 286.995 34.1852 286.995C34.5185 286.995 34.8935 287.028 35.3102 287.095ZM33.1102 297.07V289.72C32.1268 289.903 31.3685 290.32 30.8352 290.97C30.3018 291.603 30.0352 292.378 30.0352 293.295C30.0352 294.295 30.3102 295.128 30.8602 295.795C31.4102 296.462 32.1602 296.887 33.1102 297.07Z" fill="white"/>
<path d="M75.4102 445.252V447.736L62.8102 452.11V449.842L72.9082 446.494L62.8102 443.128V440.878L75.4102 445.252ZM64.7002 438.328C64.9402 438.568 65.0602 438.856 65.0602 439.192C65.0602 439.528 64.9402 439.822 64.7002 440.074C64.4482 440.314 64.1542 440.434 63.8182 440.434C63.4822 440.434 63.1942 440.314 62.9542 440.074C62.7022 439.834 62.5762 439.54 62.5762 439.192C62.5762 438.844 62.7022 438.55 62.9542 438.31C63.1942 438.07 63.4822 437.95 63.8182 437.95C64.1542 437.95 64.4482 438.076 64.7002 438.328ZM75.4102 438.22V440.164H66.4102V438.22H75.4102ZM68.8942 434.423C69.1702 434.423 69.3982 434.279 69.5782 433.991C69.7462 433.703 69.9082 433.283 70.0642 432.731C70.1602 432.311 70.2622 431.945 70.3702 431.633C70.4782 431.321 70.6402 430.991 70.8562 430.643C71.0602 430.295 71.3362 430.031 71.6842 429.851C72.0202 429.659 72.4162 429.569 72.8722 429.581C73.7362 429.581 74.4142 429.917 74.9062 430.589C75.3982 431.261 75.6442 432.095 75.6442 433.091C75.6442 433.979 75.4582 434.741 75.0862 435.377C74.7142 436.013 74.1982 436.475 73.5382 436.763L72.5662 435.089C73.4302 434.789 73.8622 434.123 73.8622 433.091C73.8622 432.071 73.5262 431.561 72.8542 431.561C72.3622 431.561 71.9782 432.131 71.7022 433.271C71.5942 433.703 71.4862 434.069 71.3782 434.369C71.2702 434.657 71.1142 434.981 70.9102 435.341C70.7062 435.689 70.4362 435.959 70.1002 436.151C69.7642 436.331 69.3742 436.415 68.9302 436.403C68.1022 436.403 67.4362 436.091 66.9322 435.467C66.4282 434.831 66.1762 434.045 66.1762 433.109C66.1762 432.365 66.3442 431.705 66.6802 431.129C67.0042 430.541 67.4602 430.091 68.0482 429.779L68.9662 431.417C68.2822 431.717 67.9402 432.281 67.9402 433.109C67.9402 433.493 68.0242 433.811 68.1922 434.063C68.3602 434.303 68.5942 434.423 68.8942 434.423ZM64.7002 426.296C64.9402 426.536 65.0602 426.824 65.0602 427.16C65.0602 427.496 64.9402 427.79 64.7002 428.042C64.4482 428.282 64.1542 428.402 63.8182 428.402C63.4822 428.402 63.1942 428.282 62.9542 428.042C62.7022 427.802 62.5762 427.508 62.5762 427.16C62.5762 426.812 62.7022 426.518 62.9542 426.278C63.1942 426.038 63.4822 425.918 63.8182 425.918C64.1542 425.918 64.4482 426.044 64.7002 426.296ZM75.4102 426.188V428.132H66.4102V426.188H75.4102ZM74.2762 416.471C75.1882 417.383 75.6442 418.505 75.6442 419.837C75.6442 421.169 75.1882 422.291 74.2762 423.203C73.3522 424.127 72.2302 424.589 70.9102 424.589C69.5902 424.589 68.4682 424.127 67.5442 423.203C66.6322 422.291 66.1762 421.169 66.1762 419.837C66.1762 418.505 66.6322 417.383 67.5442 416.471C68.4682 415.547 69.5902 415.085 70.9102 415.085C72.2302 415.085 73.3522 415.547 74.2762 416.471ZM70.9102 422.645C71.7262 422.645 72.4042 422.375 72.9442 421.835C73.4842 421.295 73.7542 420.629 73.7542 419.837C73.7542 419.045 73.4842 418.379 72.9442 417.839C72.4042 417.299 71.7262 417.029 70.9102 417.029C70.0942 417.029 69.4162 417.299 68.8762 417.839C68.3362 418.379 68.0662 419.045 68.0662 419.837C68.0662 420.629 68.3362 421.295 68.8762 421.835C69.4162 422.375 70.0942 422.645 70.9102 422.645ZM66.1762 408.747C66.1762 407.703 66.5122 406.869 67.1842 406.245C67.8442 405.609 68.7442 405.291 69.8842 405.291H75.4102V407.235H70.0822C69.4102 407.235 68.8942 407.415 68.5342 407.775C68.1742 408.135 67.9942 408.627 67.9942 409.251C67.9942 409.959 68.2162 410.517 68.6602 410.925C69.0922 411.333 69.7342 411.537 70.5862 411.537H75.4102V413.481H66.4102V411.537H67.5622C66.6382 410.937 66.1762 410.007 66.1762 408.747ZM73.2502 402.812V400.652L77.9302 401.912V403.532L73.2502 402.812ZM68.8762 386.854C69.1642 386.302 69.5662 385.87 70.0822 385.558C70.5862 385.246 71.1622 385.09 71.8102 385.09C72.8422 385.09 73.7002 385.456 74.3842 386.188C75.0682 386.92 75.4102 387.814 75.4102 388.87V394.27H62.8102V389.266C62.8102 388.234 63.1462 387.364 63.8182 386.656C64.4902 385.936 65.3182 385.576 66.3022 385.576C67.3822 385.576 68.2402 386.002 68.8762 386.854ZM64.7542 389.266V392.2H68.0662V389.266C68.0662 388.81 67.9102 388.426 67.5982 388.114C67.2742 387.802 66.8782 387.646 66.4102 387.646C65.9422 387.646 65.5522 387.802 65.2402 388.114C64.9162 388.426 64.7542 388.81 64.7542 389.266ZM73.4662 392.2V388.87C73.4662 388.39 73.2982 387.988 72.9622 387.664C72.6142 387.328 72.1942 387.16 71.7022 387.16C71.2102 387.16 70.7962 387.328 70.4602 387.664C70.1122 387.988 69.9382 388.39 69.9382 388.87V392.2H73.4662ZM71.2342 377.322H66.4102V375.378H75.4102V377.322H74.2582C75.1822 377.922 75.6442 378.852 75.6442 380.112C75.6442 381.156 75.3142 381.996 74.6542 382.632C73.9822 383.256 73.0762 383.568 71.9362 383.568H66.4102V381.624H71.7382C72.4102 381.624 72.9262 381.444 73.2862 381.084C73.6462 380.724 73.8262 380.232 73.8262 379.608C73.8262 378.9 73.6102 378.342 73.1782 377.934C72.7342 377.526 72.0862 377.322 71.2342 377.322ZM68.8942 371.565C69.1702 371.565 69.3982 371.421 69.5782 371.133C69.7462 370.845 69.9082 370.425 70.0642 369.873C70.1602 369.453 70.2622 369.087 70.3702 368.775C70.4782 368.463 70.6402 368.133 70.8562 367.785C71.0602 367.437 71.3362 367.173 71.6842 366.993C72.0202 366.801 72.4162 366.711 72.8722 366.723C73.7362 366.723 74.4142 367.059 74.9062 367.731C75.3982 368.403 75.6442 369.237 75.6442 370.233C75.6442 371.121 75.4582 371.883 75.0862 372.519C74.7142 373.155 74.1982 373.617 73.5382 373.905L72.5662 372.231C73.4302 371.931 73.8622 371.265 73.8622 370.233C73.8622 369.213 73.5262 368.703 72.8542 368.703C72.3622 368.703 71.9782 369.273 71.7022 370.413C71.5942 370.845 71.4862 371.211 71.3782 371.511C71.2702 371.799 71.1142 372.123 70.9102 372.483C70.7062 372.831 70.4362 373.101 70.1002 373.293C69.7642 373.473 69.3742 373.557 68.9302 373.545C68.1022 373.545 67.4362 373.233 66.9322 372.609C66.4282 371.973 66.1762 371.187 66.1762 370.251C66.1762 369.507 66.3442 368.847 66.6802 368.271C67.0042 367.683 67.4602 367.233 68.0482 366.921L68.9662 368.559C68.2822 368.859 67.9402 369.423 67.9402 370.251C67.9402 370.635 68.0242 370.953 68.1922 371.205C68.3602 371.445 68.5942 371.565 68.8942 371.565ZM64.7002 363.438C64.9402 363.678 65.0602 363.966 65.0602 364.302C65.0602 364.638 64.9402 364.932 64.7002 365.184C64.4482 365.424 64.1542 365.544 63.8182 365.544C63.4822 365.544 63.1942 365.424 62.9542 365.184C62.7022 364.944 62.5762 364.65 62.5762 364.302C62.5762 363.954 62.7022 363.66 62.9542 363.42C63.1942 363.18 63.4822 363.06 63.8182 363.06C64.1542 363.06 64.4482 363.186 64.7002 363.438ZM75.4102 363.33V365.274H66.4102V363.33H75.4102ZM66.1762 356.493C66.1762 355.449 66.5122 354.615 67.1842 353.991C67.8442 353.355 68.7442 353.037 69.8842 353.037H75.4102V354.981H70.0822C69.4102 354.981 68.8942 355.161 68.5342 355.521C68.1742 355.881 67.9942 356.373 67.9942 356.997C67.9942 357.705 68.2162 358.263 68.6602 358.671C69.0922 359.079 69.7342 359.283 70.5862 359.283H75.4102V361.227H66.4102V359.283H67.5622C66.6382 358.683 66.1762 357.753 66.1762 356.493ZM71.7382 342.403V349.567C72.4102 349.423 72.9322 349.099 73.3042 348.595C73.6762 348.079 73.8622 347.443 73.8622 346.687C73.8622 345.667 73.4902 344.893 72.7462 344.365L73.6822 342.763C74.9902 343.639 75.6442 344.953 75.6442 346.705C75.6442 348.157 75.2002 349.339 74.3122 350.251C73.4122 351.151 72.2782 351.601 70.9102 351.601C69.5782 351.601 68.4562 351.157 67.5442 350.269C66.6322 349.393 66.1762 348.253 66.1762 346.849C66.1762 345.541 66.6382 344.461 67.5622 343.609C68.4862 342.757 69.6082 342.331 70.9282 342.331C71.1682 342.331 71.4382 342.355 71.7382 342.403ZM70.1542 349.585V344.293C69.4462 344.425 68.9002 344.725 68.5162 345.193C68.1322 345.649 67.9402 346.207 67.9402 346.867C67.9402 347.587 68.1382 348.187 68.5342 348.667C68.9302 349.147 69.4702 349.453 70.1542 349.585ZM68.8942 339.38C69.1702 339.38 69.3982 339.236 69.5782 338.948C69.7462 338.66 69.9082 338.24 70.0642 337.688C70.1602 337.268 70.2622 336.902 70.3702 336.59C70.4782 336.278 70.6402 335.948 70.8562 335.6C71.0602 335.252 71.3362 334.988 71.6842 334.808C72.0202 334.616 72.4162 334.526 72.8722 334.538C73.7362 334.538 74.4142 334.874 74.9062 335.546C75.3982 336.218 75.6442 337.052 75.6442 338.048C75.6442 338.936 75.4582 339.698 75.0862 340.334C74.7142 340.97 74.1982 341.432 73.5382 341.72L72.5662 340.046C73.4302 339.746 73.8622 339.08 73.8622 338.048C73.8622 337.028 73.5262 336.518 72.8542 336.518C72.3622 336.518 71.9782 337.088 71.7022 338.228C71.5942 338.66 71.4862 339.026 71.3782 339.326C71.2702 339.614 71.1142 339.938 70.9102 340.298C70.7062 340.646 70.4362 340.916 70.1002 341.108C69.7642 341.288 69.3742 341.372 68.9302 341.36C68.1022 341.36 67.4362 341.048 66.9322 340.424C66.4282 339.788 66.1762 339.002 66.1762 338.066C66.1762 337.322 66.3442 336.662 66.6802 336.086C67.0042 335.498 67.4602 335.048 68.0482 334.736L68.9662 336.374C68.2822 336.674 67.9402 337.238 67.9402 338.066C67.9402 338.45 68.0242 338.768 68.1922 339.02C68.3602 339.26 68.5942 339.38 68.8942 339.38ZM68.8942 331.783C69.1702 331.783 69.3982 331.639 69.5782 331.351C69.7462 331.063 69.9082 330.643 70.0642 330.091C70.1602 329.671 70.2622 329.305 70.3702 328.993C70.4782 328.681 70.6402 328.351 70.8562 328.003C71.0602 327.655 71.3362 327.391 71.6842 327.211C72.0202 327.019 72.4162 326.929 72.8722 326.941C73.7362 326.941 74.4142 327.277 74.9062 327.949C75.3982 328.621 75.6442 329.455 75.6442 330.451C75.6442 331.339 75.4582 332.101 75.0862 332.737C74.7142 333.373 74.1982 333.835 73.5382 334.123L72.5662 332.449C73.4302 332.149 73.8622 331.483 73.8622 330.451C73.8622 329.431 73.5262 328.921 72.8542 328.921C72.3622 328.921 71.9782 329.491 71.7022 330.631C71.5942 331.063 71.4862 331.429 71.3782 331.729C71.2702 332.017 71.1142 332.341 70.9102 332.701C70.7062 333.049 70.4362 333.319 70.1002 333.511C69.7642 333.691 69.3742 333.775 68.9302 333.763C68.1022 333.763 67.4362 333.451 66.9322 332.827C66.4282 332.191 66.1762 331.405 66.1762 330.469C66.1762 329.725 66.3442 329.065 66.6802 328.489C67.0042 327.901 67.4602 327.451 68.0482 327.139L68.9662 328.777C68.2822 329.077 67.9402 329.641 67.9402 330.469C67.9402 330.853 68.0242 331.171 68.1922 331.423C68.3602 331.663 68.5942 331.783 68.8942 331.783ZM72.9982 312.202L74.7802 310.564L75.7522 312.238L74.4562 313.444C75.2482 314.44 75.6442 315.61 75.6442 316.954C75.6442 318.238 75.3142 319.282 74.6542 320.086C73.9822 320.878 73.0822 321.274 71.9542 321.274C71.1862 321.274 70.4902 321.082 69.8662 320.698C69.2302 320.314 68.7202 319.768 68.3362 319.06C67.6762 319.54 66.9442 319.78 66.1402 319.78C65.0842 319.78 64.2262 319.414 63.5662 318.682C62.9062 317.95 62.5762 317.038 62.5762 315.946C62.5762 315.07 62.8102 314.284 63.2782 313.588C63.7342 312.892 64.3762 312.382 65.2042 312.058L66.2122 313.822C65.7082 313.99 65.3122 314.26 65.0242 314.632C64.7362 315.004 64.5922 315.436 64.5922 315.928C64.5922 316.444 64.7422 316.87 65.0422 317.206C65.3422 317.542 65.7262 317.71 66.1942 317.71C66.4462 317.71 66.6982 317.656 66.9502 317.548C67.3222 317.392 67.7422 317.086 68.2102 316.63L71.5222 313.57C70.9102 313.27 70.1782 313.054 69.3262 312.922L70.3342 311.158C71.3422 311.374 72.2302 311.722 72.9982 312.202ZM73.7182 316.846C73.7182 316.042 73.4962 315.346 73.0522 314.758L69.7222 317.854C70.1782 318.742 70.8682 319.186 71.7922 319.186C72.3802 319.186 72.8482 318.982 73.1962 318.574C73.5442 318.166 73.7182 317.59 73.7182 316.846ZM75.6442 300.504C75.6442 301.716 75.3742 302.748 74.8342 303.6C74.2822 304.44 73.5202 305.028 72.5482 305.364L71.5042 303.582C72.9202 303.078 73.6282 302.034 73.6282 300.45C73.6282 299.682 73.4782 299.1 73.1782 298.704C72.8782 298.308 72.4762 298.11 71.9722 298.11C71.4682 298.11 71.0782 298.32 70.8022 298.74C70.5262 299.16 70.2262 299.904 69.9022 300.972C69.5782 302.064 69.1942 302.946 68.7502 303.618C68.1742 304.434 67.3282 304.842 66.2122 304.842C65.0962 304.842 64.2142 304.446 63.5662 303.654C62.9062 302.874 62.5762 301.92 62.5762 300.792C62.5762 299.796 62.8222 298.92 63.3142 298.164C63.7942 297.396 64.4722 296.808 65.3482 296.4L66.3562 298.146C65.1802 298.674 64.5922 299.556 64.5922 300.792C64.5922 301.392 64.7362 301.872 65.0242 302.232C65.3002 302.592 65.6782 302.772 66.1582 302.772C66.6262 302.772 66.9982 302.592 67.2742 302.232C67.5382 301.872 67.8202 301.206 68.1202 300.234C68.3242 299.634 68.4442 299.286 68.4802 299.19C68.5282 299.034 68.6482 298.722 68.8402 298.254C68.9962 297.87 69.1642 297.564 69.3442 297.336C70.0762 296.4 70.9402 295.968 71.9362 296.04C73.0762 296.04 73.9822 296.454 74.6542 297.282C75.3142 298.086 75.6442 299.16 75.6442 300.504ZM66.4102 289.778H68.2822V292.01H72.6022C72.9742 292.01 73.2442 291.926 73.4122 291.758C73.5682 291.59 73.6582 291.344 73.6822 291.02C73.6942 290.684 73.6882 290.27 73.6642 289.778H75.4102C75.5902 291.266 75.4642 292.334 75.0322 292.982C74.5882 293.63 73.7782 293.954 72.6022 293.954H68.2822V295.61H66.4102V293.954H64.4662L63.8902 292.01H66.4102V289.778ZM66.4102 286.137H67.9222C66.8062 285.645 66.2482 284.721 66.2482 283.365H68.3542C68.3062 284.097 68.4862 284.745 68.8942 285.309C69.2902 285.861 69.9502 286.137 70.8742 286.137H75.4102V288.081H66.4102V286.137ZM67.6882 275.377H66.4102V273.433H75.4102V275.377H74.1142C75.1342 276.109 75.6442 277.159 75.6442 278.527C75.6442 279.763 75.1882 280.819 74.2762 281.695C73.3642 282.571 72.2422 283.009 70.9102 283.009C69.5782 283.009 68.4562 282.571 67.5442 281.695C66.6322 280.819 66.1762 279.763 66.1762 278.527C66.1762 277.159 66.6802 276.109 67.6882 275.377ZM72.9802 280.255C73.5202 279.715 73.7902 279.037 73.7902 278.221C73.7902 277.405 73.5202 276.727 72.9802 276.187C72.4282 275.647 71.7382 275.377 70.9102 275.377C70.0822 275.377 69.3982 275.647 68.8582 276.187C68.3062 276.727 68.0302 277.405 68.0302 278.221C68.0302 279.037 68.3062 279.715 68.8582 280.255C69.3982 280.795 70.0822 281.065 70.9102 281.065C71.7262 281.065 72.4162 280.795 72.9802 280.255ZM66.4102 266.299H68.2822V268.531H72.6022C72.9742 268.531 73.2442 268.447 73.4122 268.279C73.5682 268.111 73.6582 267.865 73.6822 267.541C73.6942 267.205 73.6882 266.791 73.6642 266.299H75.4102C75.5902 267.787 75.4642 268.855 75.0322 269.503C74.5882 270.151 73.7782 270.475 72.6022 270.475H68.2822V272.131H66.4102V270.475H64.4662L63.8902 268.531H66.4102V266.299ZM71.7382 256.365V263.529C72.4102 263.385 72.9322 263.061 73.3042 262.557C73.6762 262.041 73.8622 261.405 73.8622 260.649C73.8622 259.629 73.4902 258.855 72.7462 258.327L73.6822 256.725C74.9902 257.601 75.6442 258.915 75.6442 260.667C75.6442 262.119 75.2002 263.301 74.3122 264.213C73.4122 265.113 72.2782 265.563 70.9102 265.563C69.5782 265.563 68.4562 265.119 67.5442 264.231C66.6322 263.355 66.1762 262.215 66.1762 260.811C66.1762 259.503 66.6382 258.423 67.5622 257.571C68.4862 256.719 69.6082 256.293 70.9282 256.293C71.1682 256.293 71.4382 256.317 71.7382 256.365ZM70.1542 263.547V258.255C69.4462 258.387 68.9002 258.687 68.5162 259.155C68.1322 259.611 67.9402 260.169 67.9402 260.829C67.9402 261.549 68.1382 262.149 68.5342 262.629C68.9302 263.109 69.4702 263.415 70.1542 263.547ZM67.7422 247.625H66.4102V245.717H74.9962C76.3642 245.717 77.4142 246.167 78.1462 247.067C78.8782 247.955 79.2442 249.047 79.2442 250.343C79.2442 252.419 78.5182 253.841 77.0662 254.609L76.0942 252.935C77.0182 252.467 77.4802 251.591 77.4802 250.307C77.4802 249.467 77.2582 248.813 76.8142 248.345C76.3822 247.865 75.7762 247.625 74.9962 247.625H73.8982C74.9422 248.357 75.4642 249.401 75.4642 250.757C75.4642 252.017 75.0142 253.091 74.1142 253.979C73.2022 254.855 72.1042 255.293 70.8202 255.293C69.5242 255.293 68.4322 254.855 67.5442 253.979C66.6322 253.103 66.1762 252.029 66.1762 250.757C66.1762 249.401 66.6982 248.357 67.7422 247.625ZM72.8362 252.539C73.3762 251.987 73.6462 251.303 73.6462 250.487C73.6462 249.671 73.3762 248.993 72.8362 248.453C72.2962 247.901 71.6242 247.625 70.8202 247.625C70.0162 247.625 69.3442 247.901 68.8042 248.453C68.2642 248.993 67.9942 249.671 67.9942 250.487C67.9942 251.303 68.2642 251.987 68.8042 252.539C69.3442 253.079 70.0162 253.349 70.8202 253.349C71.6242 253.349 72.2962 253.079 72.8362 252.539ZM72.9442 239.843L66.4102 237.539V235.469L75.6982 238.925C78.0262 239.789 79.1302 241.253 79.0102 243.317H77.1922C77.2282 242.717 77.1022 242.231 76.8142 241.859C76.5262 241.487 76.0642 241.175 75.4282 240.923L75.2482 240.833L66.4102 244.649V242.525L72.9442 239.843Z" fill="white"/>
<defs>
<linearGradient id="paint0_linear_135_21788" x1="125" y1="0" x2="125" y2="485" gradientUnits="userSpaceOnUse">
<stop offset="0.45" stop-color="white" stop-opacity="0"/>
<stop offset="0.93"/>
</linearGradient>
</defs>
</svg>
