<svg width="227" height="219" viewBox="0 0 227 219" fill="none" xmlns="http://www.w3.org/2000/svg">
<g filter="url(#filter0_d_120_9233)">
<rect x="3" y="2" width="221" height="213" fill="white"/>
</g>
<path d="M105.693 63.7042C105.693 61.6584 104.032 59.988 101.991 60.1149C92.3206 60.7157 82.9218 63.6632 74.6178 68.7263C66.3138 73.7894 59.389 80.7945 54.4261 89.1156C53.3782 90.8726 54.1028 93.1134 55.9214 94.0504L75.8677 104.327C77.6863 105.264 79.9019 104.533 81.0568 102.844C83.4359 99.3653 86.5331 96.4179 90.1552 94.2095C93.7773 92.001 97.816 90.5976 101.998 90.0759C104.028 89.8226 105.693 88.1879 105.693 86.1421V63.7042Z" fill="black"/>
<path d="M77.678 79.021V84.9478H76.4249V80.2104H76.3902L75.033 81.0612V79.95L76.5002 79.021H77.678ZM81.6651 79.021V84.9478H80.412V80.2104H80.3773L79.0201 81.0612V79.95L80.4873 79.021H81.6651ZM86.3178 83.8365V83.524C86.3178 83.2867 86.3679 83.0686 86.4682 82.8699C86.5705 82.6693 86.7181 82.5092 86.911 82.3895C87.1059 82.268 87.3432 82.2072 87.6229 82.2072C87.9065 82.2072 88.1448 82.267 88.3377 82.3866C88.5326 82.5063 88.6792 82.6664 88.7776 82.867C88.8779 83.0657 88.9281 83.2847 88.9281 83.524V83.8365C88.9281 84.0738 88.8779 84.2928 88.7776 84.4934C88.6773 84.6921 88.5297 84.8513 88.3348 84.9709C88.14 85.0924 87.9027 85.1532 87.6229 85.1532C87.3393 85.1532 87.101 85.0924 86.9081 84.9709C86.7152 84.8513 86.5686 84.6921 86.4682 84.4934C86.3679 84.2928 86.3178 84.0738 86.3178 83.8365ZM87.1599 83.524V83.8365C87.1599 83.9735 87.1927 84.1027 87.2583 84.2243C87.3258 84.3458 87.4474 84.4066 87.6229 84.4066C87.7985 84.4066 87.9181 84.3468 87.9818 84.2272C88.0474 84.1076 88.0802 83.9773 88.0802 83.8365V83.524C88.0802 83.3831 88.0493 83.2519 87.9875 83.1304C87.9258 83.0088 87.8043 82.9481 87.6229 82.9481C87.4493 82.9481 87.3287 83.0088 87.2612 83.1304C87.1937 83.2519 87.1599 83.3831 87.1599 83.524ZM83.2763 80.4448V80.1323C83.2763 79.8931 83.3274 79.6741 83.4296 79.4754C83.5319 79.2747 83.6795 79.1146 83.8724 78.995C84.0673 78.8754 84.3026 78.8156 84.5785 78.8156C84.8641 78.8156 85.1033 78.8754 85.2962 78.995C85.4891 79.1146 85.6358 79.2747 85.7361 79.4754C85.8364 79.6741 85.8866 79.8931 85.8866 80.1323V80.4448C85.8866 80.6841 85.8354 80.903 85.7332 81.1018C85.6329 81.3005 85.4853 81.4596 85.2904 81.5792C85.0975 81.6969 84.8602 81.7558 84.5785 81.7558C84.2968 81.7558 84.0586 81.696 83.8637 81.5764C83.6708 81.4548 83.5242 81.2956 83.4239 81.0989C83.3255 80.9001 83.2763 80.6821 83.2763 80.4448ZM84.1242 80.1323V80.4448C84.1242 80.5857 84.157 80.7159 84.2226 80.8355C84.2901 80.9551 84.4087 81.0149 84.5785 81.0149C84.756 81.0149 84.8766 80.9551 84.9403 80.8355C85.0059 80.7159 85.0387 80.5857 85.0387 80.4448V80.1323C85.0387 79.9915 85.0078 79.8603 84.946 79.7387C84.8843 79.6172 84.7618 79.5564 84.5785 79.5564C84.4068 79.5564 84.2882 79.6181 84.2226 79.7416C84.157 79.8651 84.1242 79.9953 84.1242 80.1323ZM83.6583 84.9478L87.7329 79.021H88.4911L84.4165 84.9478H83.6583Z" fill="white"/>
<path d="M177.737 134.467C179.783 134.467 181.452 132.807 181.337 130.764C180.921 123.38 179.264 116.109 176.427 109.259C173.117 101.268 168.265 94.0062 162.148 87.8896C156.032 81.773 148.77 76.921 140.779 73.6107C133.929 70.7736 126.658 69.1165 119.274 68.7008C117.231 68.5858 115.571 70.2551 115.571 72.3009V90.5858C115.571 92.6316 117.233 94.2723 119.27 94.4607C123.278 94.8312 127.215 95.8027 130.946 97.3483C135.821 99.3674 140.25 102.327 143.98 106.058C147.711 109.788 150.671 114.217 152.69 119.092C154.235 122.823 155.207 126.76 155.577 130.768C155.766 132.805 157.406 134.467 159.452 134.467H177.737Z" fill="#00CFFF"/>
<path d="M147.713 101.729V100.826L149.822 98.8722C150.002 98.6986 150.152 98.5423 150.274 98.4034C150.397 98.2645 150.491 98.1285 150.555 97.9954C150.618 97.8603 150.65 97.7147 150.65 97.5584C150.65 97.3848 150.611 97.2352 150.531 97.1098C150.452 96.9825 150.344 96.8851 150.207 96.8176C150.07 96.7481 149.915 96.7134 149.741 96.7134C149.56 96.7134 149.402 96.75 149.267 96.8233C149.132 96.8967 149.028 97.0018 148.954 97.1388C148.881 97.2758 148.844 97.4388 148.844 97.6278H147.655C147.655 97.2401 147.743 96.9034 147.918 96.6179C148.094 96.3323 148.34 96.1114 148.656 95.9552C148.973 95.7989 149.337 95.7208 149.75 95.7208C150.175 95.7208 150.544 95.796 150.858 95.9465C151.175 96.095 151.421 96.3015 151.596 96.5658C151.772 96.8301 151.86 97.133 151.86 97.4745C151.86 97.6983 151.815 97.9192 151.727 98.1372C151.64 98.3552 151.485 98.5973 151.261 98.8635C151.037 99.1279 150.722 99.4452 150.314 99.8156L149.449 100.664V100.704H151.938V101.729H147.713ZM152.629 100.687V99.6999L155.103 95.8018H155.954V97.1677H155.45L153.891 99.6362V99.6825H157.407V100.687H152.629ZM155.474 101.729V100.386L155.497 99.9488V95.8018H156.672V101.729H155.474ZM161.486 100.617V100.305C161.486 100.067 161.536 99.8494 161.636 99.6507C161.738 99.45 161.886 99.2899 162.079 99.1703C162.274 99.0488 162.511 98.988 162.791 98.988C163.074 98.988 163.313 99.0478 163.506 99.1674C163.7 99.287 163.847 99.4472 163.945 99.6478C164.046 99.8465 164.096 100.065 164.096 100.305V100.617C164.096 100.855 164.046 101.074 163.945 101.274C163.845 101.473 163.698 101.632 163.503 101.752C163.308 101.873 163.071 101.934 162.791 101.934C162.507 101.934 162.269 101.873 162.076 101.752C161.883 101.632 161.736 101.473 161.636 101.274C161.536 101.074 161.486 100.855 161.486 100.617ZM162.328 100.305V100.617C162.328 100.754 162.361 100.883 162.426 101.005C162.494 101.127 162.615 101.187 162.791 101.187C162.966 101.187 163.086 101.128 163.15 101.008C163.215 100.888 163.248 100.758 163.248 100.617V100.305C163.248 100.164 163.217 100.033 163.155 99.9111C163.094 99.7896 162.972 99.7288 162.791 99.7288C162.617 99.7288 162.497 99.7896 162.429 99.9111C162.362 100.033 162.328 100.164 162.328 100.305ZM158.444 97.2256V96.9131C158.444 96.6738 158.495 96.4549 158.598 96.2561C158.7 96.0555 158.847 95.8954 159.04 95.7757C159.235 95.6561 159.471 95.5963 159.746 95.5963C160.032 95.5963 160.271 95.6561 160.464 95.7757C160.657 95.8954 160.804 96.0555 160.904 96.2561C161.004 96.4549 161.054 96.6738 161.054 96.9131V97.2256C161.054 97.4648 161.003 97.6838 160.901 97.8825C160.801 98.0812 160.653 98.2404 160.458 98.36C160.265 98.4777 160.028 98.5365 159.746 98.5365C159.465 98.5365 159.226 98.4767 159.032 98.3571C158.839 98.2356 158.692 98.0764 158.592 97.8796C158.493 97.6809 158.444 97.4629 158.444 97.2256ZM159.292 96.9131V97.2256C159.292 97.3664 159.325 97.4967 159.39 97.6163C159.458 97.7359 159.577 97.7957 159.746 97.7957C159.924 97.7957 160.044 97.7359 160.108 97.6163C160.174 97.4967 160.207 97.3664 160.207 97.2256V96.9131C160.207 96.7722 160.176 96.641 160.114 96.5195C160.052 96.3979 159.93 96.3372 159.746 96.3372C159.575 96.3372 159.456 96.3989 159.39 96.5224C159.325 96.6458 159.292 96.7761 159.292 96.9131ZM158.826 101.729L162.901 95.8018H163.659L159.584 101.729H158.826Z" fill="white"/>
<path d="M115.571 196.633C115.571 198.678 117.231 200.348 119.274 200.233C135.394 199.326 150.671 192.521 162.148 181.044C173.626 169.566 180.43 154.29 181.337 138.169C181.452 136.127 179.783 134.467 177.737 134.467H159.452C157.406 134.467 155.766 136.129 155.577 138.166C154.718 147.465 150.638 156.218 143.98 162.876C137.323 169.534 128.569 173.613 119.27 174.473C117.233 174.661 115.571 176.302 115.571 178.348V196.633Z" fill="#B8DFFF"/>
<path d="M144.871 174.271V173.369L146.981 171.415C147.16 171.242 147.311 171.085 147.432 170.946C147.556 170.807 147.649 170.671 147.713 170.538C147.776 170.403 147.808 170.258 147.808 170.101C147.808 169.928 147.769 169.778 147.69 169.653C147.611 169.525 147.503 169.428 147.366 169.361C147.229 169.291 147.073 169.256 146.9 169.256C146.718 169.256 146.56 169.293 146.425 169.366C146.29 169.44 146.186 169.545 146.113 169.682C146.039 169.819 146.003 169.982 146.003 170.171H144.813C144.813 169.783 144.901 169.446 145.076 169.161C145.252 168.875 145.498 168.654 145.814 168.498C146.131 168.342 146.495 168.264 146.908 168.264C147.333 168.264 147.702 168.339 148.017 168.489C148.333 168.638 148.579 168.844 148.755 169.109C148.93 169.373 149.018 169.676 149.018 170.017C149.018 170.241 148.974 170.462 148.885 170.68C148.798 170.898 148.643 171.14 148.419 171.407C148.195 171.671 147.88 171.988 147.473 172.359L146.607 173.207V173.247H149.096V174.271H144.871ZM152.279 174.353C151.974 174.351 151.68 174.299 151.396 174.199C151.114 174.099 150.862 173.936 150.638 173.71C150.414 173.484 150.237 173.185 150.105 172.813C149.976 172.441 149.911 171.983 149.911 171.441C149.913 170.943 149.97 170.499 150.082 170.107C150.196 169.714 150.358 169.38 150.568 169.106C150.781 168.832 151.034 168.624 151.329 168.481C151.625 168.336 151.956 168.264 152.322 168.264C152.718 168.264 153.067 168.341 153.37 168.495C153.673 168.648 153.916 168.855 154.099 169.117C154.284 169.38 154.396 169.674 154.435 170H153.199C153.151 169.794 153.049 169.632 152.895 169.514C152.741 169.396 152.55 169.337 152.322 169.337C151.936 169.337 151.643 169.505 151.442 169.841C151.244 170.177 151.142 170.633 151.138 171.21H151.179C151.268 171.034 151.387 170.885 151.538 170.761C151.69 170.636 151.863 170.54 152.056 170.475C152.251 170.407 152.456 170.373 152.672 170.373C153.023 170.373 153.336 170.456 153.61 170.622C153.884 170.786 154.1 171.012 154.258 171.299C154.416 171.587 154.495 171.916 154.495 172.286C154.495 172.688 154.402 173.044 154.215 173.357C154.03 173.67 153.77 173.915 153.436 174.092C153.104 174.268 152.719 174.354 152.279 174.353ZM152.273 173.369C152.466 173.369 152.639 173.322 152.791 173.23C152.943 173.137 153.063 173.012 153.15 172.853C153.237 172.695 153.28 172.518 153.28 172.321C153.28 172.124 153.237 171.948 153.15 171.791C153.065 171.635 152.947 171.511 152.797 171.418C152.646 171.325 152.475 171.279 152.282 171.279C152.137 171.279 152.003 171.306 151.879 171.36C151.758 171.414 151.651 171.489 151.558 171.586C151.467 171.682 151.396 171.794 151.344 171.922C151.292 172.047 151.266 172.181 151.266 172.324C151.266 172.515 151.309 172.689 151.396 172.848C151.485 173.006 151.604 173.132 151.755 173.227C151.907 173.321 152.08 173.369 152.273 173.369ZM158.628 173.16V172.848C158.628 172.61 158.678 172.392 158.778 172.194C158.881 171.993 159.028 171.833 159.221 171.713C159.416 171.592 159.653 171.531 159.933 171.531C160.217 171.531 160.455 171.591 160.648 171.71C160.843 171.83 160.989 171.99 161.088 172.191C161.188 172.389 161.238 172.608 161.238 172.848V173.16C161.238 173.398 161.188 173.616 161.088 173.817C160.987 174.016 160.84 174.175 160.645 174.295C160.45 174.416 160.213 174.477 159.933 174.477C159.649 174.477 159.411 174.416 159.218 174.295C159.025 174.175 158.879 174.016 158.778 173.817C158.678 173.616 158.628 173.398 158.628 173.16ZM159.47 172.848V173.16C159.47 173.297 159.503 173.426 159.568 173.548C159.636 173.67 159.758 173.73 159.933 173.73C160.109 173.73 160.228 173.671 160.292 173.551C160.358 173.431 160.39 173.301 160.39 173.16V172.848C160.39 172.707 160.359 172.576 160.298 172.454C160.236 172.333 160.114 172.272 159.933 172.272C159.759 172.272 159.639 172.333 159.571 172.454C159.504 172.576 159.47 172.707 159.47 172.848ZM155.586 169.769V169.456C155.586 169.217 155.638 168.998 155.74 168.799C155.842 168.598 155.99 168.438 156.183 168.319C156.377 168.199 156.613 168.139 156.889 168.139C157.174 168.139 157.413 168.199 157.606 168.319C157.799 168.438 157.946 168.598 158.046 168.799C158.147 168.998 158.197 169.217 158.197 169.456V169.769C158.197 170.008 158.146 170.227 158.043 170.425C157.943 170.624 157.795 170.783 157.601 170.903C157.408 171.021 157.17 171.08 156.889 171.08C156.607 171.08 156.369 171.02 156.174 170.9C155.981 170.779 155.834 170.619 155.734 170.423C155.636 170.224 155.586 170.006 155.586 169.769ZM156.434 169.456V169.769C156.434 169.909 156.467 170.04 156.533 170.159C156.6 170.279 156.719 170.339 156.889 170.339C157.066 170.339 157.187 170.279 157.25 170.159C157.316 170.04 157.349 169.909 157.349 169.769V169.456C157.349 169.315 157.318 169.184 157.256 169.062C157.194 168.941 157.072 168.88 156.889 168.88C156.717 168.88 156.598 168.942 156.533 169.065C156.467 169.189 156.434 169.319 156.434 169.456ZM155.968 174.271L160.043 168.345H160.801L156.727 174.271H155.968Z" fill="white"/>
<path d="M59.9605 107.828C58.1121 106.951 55.8926 107.736 55.1212 109.63C51.4262 118.707 49.7971 128.509 50.3728 138.323C51.0209 149.372 54.4426 160.08 60.3219 169.457C66.2011 178.834 74.3484 186.578 84.0113 191.975C92.5943 196.769 102.127 199.573 111.907 200.201C113.949 200.332 115.622 198.676 115.638 196.63L115.783 178.346C115.799 176.3 114.15 174.646 112.114 174.442C106.655 173.893 101.352 172.231 96.5395 169.543C90.6457 166.251 85.6764 161.528 82.0904 155.808C78.5044 150.089 76.4174 143.558 76.0221 136.819C75.6992 131.316 76.5131 125.818 78.3977 120.666C79.1004 118.744 78.3301 116.54 76.4817 115.663L59.9605 107.828Z" fill="#7BE6FF" fill-opacity="0.72"/>
<path d="M66.3625 166.202C65.9303 166.202 65.5454 166.128 65.2078 165.979C64.8721 165.829 64.6068 165.622 64.412 165.36C64.2191 165.096 64.1197 164.791 64.1139 164.446H65.3757C65.3834 164.59 65.4306 164.718 65.5175 164.828C65.6062 164.936 65.7239 165.019 65.8705 165.079C66.0171 165.139 66.1821 165.169 66.3654 165.169C66.5564 165.169 66.7252 165.135 66.8718 165.068C67.0184 165 67.1332 164.907 67.2162 164.787C67.2991 164.667 67.3406 164.529 67.3406 164.373C67.3406 164.215 67.2963 164.075 67.2075 163.954C67.1207 163.83 66.9953 163.734 66.8313 163.664C66.6692 163.595 66.4763 163.56 66.2525 163.56H65.6998V162.64H66.2525C66.4416 162.64 66.6085 162.607 66.7532 162.541C66.8998 162.476 67.0136 162.385 67.0946 162.269C67.1757 162.152 67.2162 162.015 67.2162 161.858C67.2162 161.71 67.1805 161.58 67.1091 161.468C67.0397 161.354 66.9413 161.265 66.8139 161.201C66.6885 161.138 66.5419 161.106 66.3741 161.106C66.2043 161.106 66.049 161.137 65.9081 161.199C65.7673 161.258 65.6544 161.344 65.5696 161.456C65.4847 161.568 65.4393 161.699 65.4335 161.85H64.2326C64.2384 161.508 64.3358 161.207 64.5249 160.947C64.7139 160.686 64.9686 160.483 65.2888 160.336C65.611 160.188 65.9747 160.113 66.3798 160.113C66.7889 160.113 67.1467 160.188 67.4535 160.336C67.7602 160.485 67.9985 160.685 68.1683 160.938C68.34 161.189 68.4249 161.471 68.4229 161.783C68.4249 162.115 68.3217 162.392 68.1133 162.614C67.9069 162.836 67.6377 162.976 67.3059 163.036V163.082C67.7419 163.138 68.0737 163.29 68.3014 163.537C68.531 163.782 68.6448 164.089 68.6429 164.457C68.6448 164.795 68.5474 165.095 68.3506 165.357C68.1557 165.619 67.8866 165.826 67.5432 165.976C67.1998 166.127 66.8062 166.202 66.3625 166.202ZM71.688 160.113C71.9928 160.113 72.2861 160.164 72.5677 160.267C72.8513 160.369 73.1041 160.532 73.3259 160.756C73.5497 160.98 73.7263 161.277 73.8555 161.647C73.9867 162.016 74.0533 162.468 74.0552 163.004C74.0552 163.508 73.9983 163.957 73.8845 164.353C73.7726 164.746 73.6115 165.081 73.4012 165.357C73.1909 165.633 72.9372 165.843 72.6401 165.988C72.343 166.131 72.0111 166.202 71.6446 166.202C71.2491 166.202 70.8999 166.126 70.597 165.974C70.2941 165.819 70.05 165.61 69.8648 165.346C69.6816 165.079 69.5706 164.78 69.532 164.448H70.7677C70.816 164.664 70.9173 164.832 71.0716 164.952C71.2259 165.07 71.4169 165.128 71.6446 165.128C72.0304 165.128 72.3237 164.961 72.5243 164.625C72.725 164.287 72.8263 163.825 72.8282 163.239H72.7877C72.6989 163.412 72.5793 163.562 72.4288 163.687C72.2784 163.811 72.1057 163.906 71.9108 163.974C71.7179 164.041 71.5124 164.075 71.2944 164.075C70.9452 164.075 70.6336 163.993 70.3597 163.829C70.0857 163.665 69.8697 163.439 69.7115 163.152C69.5533 162.864 69.4742 162.537 69.4742 162.168C69.4722 161.771 69.5639 161.417 69.7491 161.106C69.9343 160.795 70.1928 160.552 70.5246 160.377C70.8584 160.199 71.2462 160.111 71.688 160.113ZM71.6967 161.097C71.5018 161.097 71.3282 161.144 71.1758 161.236C71.0253 161.329 70.9057 161.453 70.8169 161.609C70.7301 161.766 70.6877 161.94 70.6896 162.133C70.6896 162.328 70.732 162.504 70.8169 162.66C70.9037 162.814 71.0214 162.938 71.17 163.03C71.3205 163.121 71.4922 163.166 71.6851 163.166C71.8298 163.166 71.9639 163.139 72.0874 163.085C72.2108 163.031 72.3179 162.957 72.4086 162.863C72.5012 162.766 72.5735 162.655 72.6256 162.53C72.6777 162.404 72.7038 162.271 72.7038 162.13C72.7018 161.943 72.6575 161.772 72.5706 161.615C72.4838 161.459 72.3642 161.334 72.2118 161.239C72.0594 161.145 71.8877 161.097 71.6967 161.097ZM78.1675 165.01V164.697C78.1675 164.46 78.2176 164.242 78.3179 164.043C78.4202 163.843 78.5678 163.682 78.7607 163.563C78.9556 163.441 79.1929 163.381 79.4726 163.381C79.7562 163.381 79.9945 163.44 80.1874 163.56C80.3823 163.68 80.5289 163.84 80.6273 164.04C80.7276 164.239 80.7778 164.458 80.7778 164.697V165.01C80.7778 165.247 80.7276 165.466 80.6273 165.667C80.527 165.865 80.3794 166.025 80.1845 166.144C79.9897 166.266 79.7524 166.327 79.4726 166.327C79.189 166.327 78.9507 166.266 78.7578 166.144C78.5649 166.025 78.4183 165.865 78.3179 165.667C78.2176 165.466 78.1675 165.247 78.1675 165.01ZM79.0096 164.697V165.01C79.0096 165.147 79.0424 165.276 79.108 165.398C79.1755 165.519 79.297 165.58 79.4726 165.58C79.6482 165.58 79.7678 165.52 79.8315 165.401C79.897 165.281 79.9298 165.151 79.9298 165.01V164.697C79.9298 164.556 79.899 164.425 79.8372 164.304C79.7755 164.182 79.654 164.121 79.4726 164.121C79.299 164.121 79.1784 164.182 79.1109 164.304C79.0433 164.425 79.0096 164.556 79.0096 164.697ZM75.126 161.618V161.306C75.126 161.066 75.1771 160.847 75.2793 160.649C75.3816 160.448 75.5292 160.288 75.7221 160.168C75.917 160.049 76.1523 159.989 76.4282 159.989C76.7137 159.989 76.953 160.049 77.1459 160.168C77.3388 160.288 77.4855 160.448 77.5858 160.649C77.6861 160.847 77.7363 161.066 77.7363 161.306V161.618C77.7363 161.857 77.6851 162.076 77.5829 162.275C77.4826 162.474 77.335 162.633 77.1401 162.753C76.9472 162.87 76.7099 162.929 76.4282 162.929C76.1465 162.929 75.9083 162.869 75.7134 162.75C75.5205 162.628 75.3739 162.469 75.2735 162.272C75.1752 162.073 75.126 161.855 75.126 161.618ZM75.9739 161.306V161.618C75.9739 161.759 76.0067 161.889 76.0723 162.009C76.1398 162.128 76.2584 162.188 76.4282 162.188C76.6057 162.188 76.7263 162.128 76.79 162.009C76.8556 161.889 76.8883 161.759 76.8883 161.618V161.306C76.8883 161.165 76.8575 161.034 76.7957 160.912C76.734 160.791 76.6115 160.73 76.4282 160.73C76.2565 160.73 76.1379 160.791 76.0723 160.915C76.0067 161.038 75.9739 161.169 75.9739 161.306ZM75.508 166.121L79.5826 160.194H80.3408L76.2662 166.121H75.508Z" fill="white"/>
<path d="M80.2883 31.9017H81.7413V40.1704H80.3828V34.276L77.8668 38.434H77.7014L75.1853 34.2642V40.1704H73.8269V31.9017H75.2916L77.7841 36.036L80.2883 31.9017ZM88.1499 39.4262C87.5514 40.0247 86.8151 40.324 85.941 40.324C85.0669 40.324 84.3305 40.0247 83.732 39.4262C83.1257 38.8198 82.8225 38.0835 82.8225 37.2173C82.8225 36.351 83.1257 35.6147 83.732 35.0083C84.3305 34.4098 85.0669 34.1106 85.941 34.1106C86.8151 34.1106 87.5514 34.4098 88.1499 35.0083C88.7563 35.6147 89.0595 36.351 89.0595 37.2173C89.0595 38.0835 88.7563 38.8198 88.1499 39.4262ZM84.0982 37.2173C84.0982 37.7528 84.2754 38.1977 84.6298 38.5521C84.9842 38.9065 85.4212 39.0837 85.941 39.0837C86.4607 39.0837 86.8978 38.9065 87.2522 38.5521C87.6065 38.1977 87.7837 37.7528 87.7837 37.2173C87.7837 36.6818 87.6065 36.2368 87.2522 35.8825C86.8978 35.5281 86.4607 35.3509 85.941 35.3509C85.4212 35.3509 84.9842 35.5281 84.6298 35.8825C84.2754 36.2368 84.0982 36.6818 84.0982 37.2173ZM93.1657 34.1106C93.8509 34.1106 94.3982 34.3311 94.8077 34.7721C95.2251 35.2052 95.4337 35.7958 95.4337 36.544V40.1704H94.158V36.6739C94.158 36.2329 94.0399 35.8943 93.8036 35.658C93.5674 35.4218 93.2445 35.3037 92.835 35.3037C92.3704 35.3037 92.0042 35.4493 91.7364 35.7407C91.4687 36.0242 91.3348 36.4455 91.3348 37.0047V40.1704H90.0591V34.2642H91.3348V35.0202C91.7286 34.4138 92.3389 34.1106 93.1657 34.1106ZM99.9491 34.2642V35.4927H98.4843V38.3277C98.4843 38.5718 98.5395 38.749 98.6497 38.8592C98.76 38.9616 98.9214 39.0207 99.134 39.0364C99.3545 39.0443 99.6262 39.0403 99.9491 39.0246V40.1704C98.9726 40.2885 98.2717 40.2058 97.8465 39.9223C97.4212 39.631 97.2086 39.0994 97.2086 38.3277V35.4927H96.1218V34.2642H97.2086V32.9884L98.4843 32.6104V34.2642H99.9491ZM104.059 34.1106C104.744 34.1106 105.291 34.3311 105.701 34.7721C106.118 35.2052 106.327 35.7958 106.327 36.544V40.1704H105.051V36.6739C105.051 36.2329 104.933 35.8943 104.697 35.658C104.46 35.4218 104.138 35.3037 103.728 35.3037C103.263 35.3037 102.897 35.4493 102.63 35.7407C102.362 36.0242 102.228 36.4455 102.228 37.0047V40.1704H100.952V31.9017H102.228V35.0202C102.622 34.4138 103.232 34.1106 104.059 34.1106ZM108.822 40.1704H107.547V31.5473H108.822V40.1704ZM112.618 38.5521L114.13 34.2642H115.489L113.221 40.3594C112.654 41.8872 111.693 42.6117 110.339 42.5329V41.3398C110.732 41.3635 111.051 41.2808 111.295 41.0918C111.539 40.9028 111.744 40.5996 111.91 40.1822L111.969 40.0641L109.464 34.2642H110.858L112.618 38.5521ZM123.609 35.1028V34.2642H124.885V40.1704H123.609V39.3199C123.129 39.9893 122.44 40.324 121.542 40.324C120.731 40.324 120.038 40.0247 119.463 39.4262C118.888 38.8277 118.601 38.0914 118.601 37.2173C118.601 36.3432 118.888 35.6068 119.463 35.0083C120.038 34.4098 120.731 34.1106 121.542 34.1106C122.44 34.1106 123.129 34.4413 123.609 35.1028ZM120.408 38.5757C120.763 38.9301 121.207 39.1073 121.743 39.1073C122.278 39.1073 122.723 38.9301 123.078 38.5757C123.432 38.2135 123.609 37.7607 123.609 37.2173C123.609 36.6739 123.432 36.225 123.078 35.8707C122.723 35.5084 122.278 35.3273 121.743 35.3273C121.207 35.3273 120.763 35.5084 120.408 35.8707C120.054 36.225 119.877 36.6739 119.877 37.2173C119.877 37.7528 120.054 38.2056 120.408 38.5757ZM129.006 40.324C128.116 40.324 127.372 40.0247 126.773 39.4262C126.183 38.8198 125.887 38.0835 125.887 37.2173C125.887 36.3353 126.183 35.599 126.773 35.0083C127.372 34.4098 128.116 34.1106 129.006 34.1106C129.581 34.1106 130.104 34.2484 130.577 34.524C131.049 34.7997 131.404 35.1698 131.64 35.6344L130.541 36.2723C130.408 35.9888 130.203 35.7683 129.927 35.6108C129.659 35.4454 129.348 35.3627 128.994 35.3627C128.474 35.3627 128.037 35.5399 127.683 35.8943C127.336 36.2565 127.163 36.6975 127.163 37.2173C127.163 37.737 127.336 38.178 127.683 38.5403C128.037 38.8947 128.474 39.0718 128.994 39.0718C129.341 39.0718 129.652 38.9931 129.927 38.8356C130.211 38.6702 130.423 38.4458 130.565 38.1623L131.664 38.7883C131.412 39.2608 131.045 39.6349 130.565 39.9105C130.093 40.1862 129.573 40.324 129.006 40.324ZM135.727 34.2642V35.4927H134.263V38.3277C134.263 38.5718 134.318 38.749 134.428 38.8592C134.538 38.9616 134.7 39.0207 134.912 39.0364C135.133 39.0443 135.405 39.0403 135.727 39.0246V40.1704C134.751 40.2885 134.05 40.2058 133.625 39.9223C133.2 39.631 132.987 39.0994 132.987 38.3277V35.4927H131.9V34.2642H132.987V32.9884L134.263 32.6104V34.2642H135.727ZM137.935 33.142C137.778 33.2995 137.589 33.3782 137.368 33.3782C137.148 33.3782 136.955 33.2995 136.79 33.142C136.632 32.9766 136.553 32.7837 136.553 32.5632C136.553 32.3427 136.632 32.1537 136.79 31.9962C136.947 31.8308 137.14 31.7481 137.368 31.7481C137.597 31.7481 137.79 31.8308 137.947 31.9962C138.105 32.1537 138.183 32.3427 138.183 32.5632C138.183 32.7837 138.101 32.9766 137.935 33.142ZM138.006 40.1704H136.731V34.2642H138.006V40.1704ZM141.696 38.7529L143.338 34.2642H144.732L142.428 40.1704H140.952L138.648 34.2642H140.042L141.696 38.7529ZM146.591 33.142C146.433 33.2995 146.244 33.3782 146.024 33.3782C145.803 33.3782 145.61 33.2995 145.445 33.142C145.287 32.9766 145.209 32.7837 145.209 32.5632C145.209 32.3427 145.287 32.1537 145.445 31.9962C145.602 31.8308 145.795 31.7481 146.024 31.7481C146.252 31.7481 146.445 31.8308 146.602 31.9962C146.76 32.1537 146.839 32.3427 146.839 32.5632C146.839 32.7837 146.756 32.9766 146.591 33.142ZM146.661 40.1704H145.386V34.2642H146.661V40.1704ZM151.284 34.2642V35.4927H149.82V38.3277C149.82 38.5718 149.875 38.749 149.985 38.8592C150.095 38.9616 150.257 39.0207 150.469 39.0364C150.69 39.0443 150.962 39.0403 151.284 39.0246V40.1704C150.308 40.2885 149.607 40.2058 149.182 39.9223C148.757 39.631 148.544 39.0994 148.544 38.3277V35.4927H147.457V34.2642H148.544V32.9884L149.82 32.6104V34.2642H151.284ZM154.872 38.5521L156.384 34.2642H157.742L155.474 40.3594C154.907 41.8872 153.946 42.6117 152.592 42.5329V41.3398C152.986 41.3635 153.305 41.2808 153.549 41.0918C153.793 40.9028 153.998 40.5996 154.163 40.1822L154.222 40.0641L151.718 34.2642H153.112L154.872 38.5521Z" fill="#1E1B39"/>
<path d="M90.2712 147.162H89.5525L91.6311 141.501H92.3388L94.4174 147.162H93.6987L92.0071 142.397H91.9628L90.2712 147.162ZM90.5366 144.951H93.4334V145.559H90.5366V144.951ZM98.1503 142.916L96.5803 147.162H95.9169L94.3469 142.916H95.0545L96.2265 146.3H96.2707L97.4427 142.916H98.1503ZM100.639 147.251C100.23 147.251 99.8774 147.16 99.5808 146.98C99.2859 146.797 99.0583 146.543 98.898 146.217C98.7395 145.889 98.6603 145.507 98.6603 145.072C98.6603 144.638 98.7395 144.254 98.898 143.923C99.0583 143.589 99.2813 143.329 99.5669 143.143C99.8544 142.955 100.19 142.861 100.573 142.861C100.794 142.861 101.013 142.898 101.228 142.972C101.444 143.045 101.64 143.165 101.817 143.331C101.994 143.495 102.135 143.712 102.24 143.983C102.345 144.254 102.397 144.588 102.397 144.984V145.26H99.1247V144.697H101.734C101.734 144.457 101.686 144.243 101.59 144.055C101.496 143.867 101.362 143.719 101.187 143.61C101.013 143.501 100.809 143.447 100.573 143.447C100.313 143.447 100.088 143.512 99.8986 143.641C99.7107 143.768 99.566 143.934 99.4647 144.138C99.3633 144.343 99.3126 144.562 99.3126 144.796V145.172C99.3126 145.493 99.3679 145.764 99.4785 145.987C99.5909 146.208 99.7466 146.377 99.9456 146.493C100.145 146.607 100.376 146.665 100.639 146.665C100.811 146.665 100.966 146.641 101.104 146.593C101.244 146.543 101.365 146.469 101.466 146.372C101.567 146.272 101.646 146.149 101.701 146.001L102.331 146.178C102.265 146.392 102.153 146.58 101.997 146.742C101.84 146.902 101.646 147.028 101.416 147.118C101.186 147.206 100.927 147.251 100.639 147.251ZM103.39 147.162V142.916H104.02V143.558H104.064C104.142 143.348 104.282 143.177 104.484 143.046C104.687 142.915 104.916 142.85 105.17 142.85C105.218 142.85 105.278 142.851 105.349 142.853C105.421 142.855 105.476 142.857 105.513 142.861V143.525C105.49 143.519 105.44 143.511 105.361 143.5C105.283 143.487 105.201 143.48 105.115 143.48C104.908 143.48 104.724 143.524 104.562 143.61C104.401 143.695 104.274 143.813 104.18 143.964C104.088 144.113 104.042 144.284 104.042 144.475V147.162H103.39ZM107.535 147.262C107.266 147.262 107.022 147.211 106.803 147.11C106.583 147.006 106.409 146.858 106.28 146.665C106.151 146.469 106.087 146.233 106.087 145.957C106.087 145.714 106.135 145.517 106.231 145.365C106.326 145.212 106.454 145.093 106.615 145.006C106.775 144.919 106.952 144.855 107.145 144.813C107.341 144.768 107.537 144.733 107.734 144.708C107.992 144.674 108.201 144.65 108.362 144.633C108.524 144.615 108.642 144.584 108.715 144.542C108.791 144.499 108.829 144.426 108.829 144.321V144.298C108.829 144.026 108.754 143.814 108.605 143.663C108.458 143.512 108.234 143.436 107.933 143.436C107.622 143.436 107.378 143.504 107.201 143.641C107.024 143.777 106.899 143.923 106.828 144.077L106.208 143.856C106.319 143.598 106.466 143.397 106.651 143.254C106.837 143.108 107.04 143.007 107.259 142.95C107.48 142.891 107.697 142.861 107.911 142.861C108.048 142.861 108.204 142.878 108.381 142.911C108.56 142.942 108.732 143.008 108.898 143.107C109.066 143.207 109.205 143.357 109.315 143.558C109.426 143.759 109.481 144.028 109.481 144.365V147.162H108.829V146.587H108.796C108.751 146.679 108.678 146.778 108.575 146.883C108.471 146.988 108.334 147.077 108.163 147.151C107.991 147.225 107.782 147.262 107.535 147.262ZM107.635 146.676C107.893 146.676 108.11 146.625 108.287 146.524C108.466 146.422 108.6 146.291 108.691 146.131C108.783 145.971 108.829 145.802 108.829 145.625V145.028C108.801 145.061 108.74 145.092 108.646 145.119C108.554 145.145 108.447 145.168 108.326 145.189C108.206 145.207 108.089 145.224 107.975 145.238C107.862 145.251 107.771 145.262 107.701 145.271C107.532 145.294 107.373 145.329 107.226 145.379C107.08 145.427 106.962 145.5 106.872 145.598C106.783 145.693 106.739 145.824 106.739 145.99C106.739 146.217 106.823 146.388 106.991 146.504C107.16 146.618 107.375 146.676 107.635 146.676ZM112.386 148.843C112.07 148.843 111.8 148.802 111.573 148.721C111.346 148.642 111.157 148.537 111.006 148.406C110.857 148.277 110.738 148.139 110.65 147.991L111.169 147.626C111.228 147.704 111.303 147.792 111.393 147.892C111.484 147.993 111.607 148.081 111.764 148.154C111.922 148.23 112.129 148.268 112.386 148.268C112.728 148.268 113.011 148.185 113.234 148.019C113.457 147.853 113.569 147.593 113.569 147.24V146.377H113.513C113.465 146.454 113.397 146.55 113.309 146.665C113.222 146.777 113.097 146.877 112.933 146.966C112.771 147.052 112.551 147.096 112.275 147.096C111.932 147.096 111.625 147.015 111.352 146.853C111.081 146.69 110.866 146.454 110.708 146.145C110.551 145.835 110.473 145.459 110.473 145.017C110.473 144.582 110.549 144.204 110.702 143.881C110.855 143.557 111.068 143.306 111.341 143.129C111.613 142.951 111.929 142.861 112.286 142.861C112.562 142.861 112.782 142.907 112.944 142.999C113.108 143.09 113.233 143.193 113.32 143.309C113.408 143.423 113.476 143.517 113.524 143.591H113.591V142.916H114.221V147.284C114.221 147.649 114.138 147.945 113.972 148.174C113.808 148.404 113.587 148.573 113.309 148.68C113.032 148.788 112.725 148.843 112.386 148.843ZM112.363 146.51C112.625 146.51 112.846 146.45 113.027 146.33C113.207 146.21 113.345 146.038 113.439 145.813C113.533 145.588 113.58 145.319 113.58 145.006C113.58 144.7 113.534 144.43 113.441 144.196C113.349 143.962 113.213 143.779 113.032 143.646C112.852 143.513 112.629 143.447 112.363 143.447C112.087 143.447 111.857 143.517 111.672 143.657C111.49 143.797 111.353 143.985 111.261 144.221C111.17 144.457 111.125 144.719 111.125 145.006C111.125 145.301 111.171 145.562 111.263 145.788C111.357 146.013 111.496 146.19 111.678 146.319C111.862 146.446 112.091 146.51 112.363 146.51ZM117.195 147.251C116.786 147.251 116.433 147.16 116.136 146.98C115.842 146.797 115.614 146.543 115.454 146.217C115.295 145.889 115.216 145.507 115.216 145.072C115.216 144.638 115.295 144.254 115.454 143.923C115.614 143.589 115.837 143.329 116.123 143.143C116.41 142.955 116.746 142.861 117.129 142.861C117.35 142.861 117.568 142.898 117.784 142.972C117.999 143.045 118.196 143.165 118.373 143.331C118.55 143.495 118.691 143.712 118.796 143.983C118.901 144.254 118.953 144.588 118.953 144.984V145.26H115.68V144.697H118.29C118.29 144.457 118.242 144.243 118.146 144.055C118.052 143.867 117.917 143.719 117.742 143.61C117.569 143.501 117.365 143.447 117.129 143.447C116.869 143.447 116.644 143.512 116.454 143.641C116.266 143.768 116.122 143.934 116.02 144.138C115.919 144.343 115.868 144.562 115.868 144.796V145.172C115.868 145.493 115.924 145.764 116.034 145.987C116.147 146.208 116.302 146.377 116.501 146.493C116.7 146.607 116.932 146.665 117.195 146.665C117.367 146.665 117.521 146.641 117.66 146.593C117.8 146.543 117.92 146.469 118.022 146.372C118.123 146.272 118.201 146.149 118.257 146.001L118.887 146.178C118.82 146.392 118.709 146.58 118.552 146.742C118.396 146.902 118.202 147.028 117.972 147.118C117.742 147.206 117.483 147.251 117.195 147.251ZM122.135 147.162V142.916H122.765V143.558H122.809C122.886 143.348 123.027 143.177 123.229 143.046C123.432 142.915 123.66 142.85 123.915 142.85C123.963 142.85 124.023 142.851 124.094 142.853C124.166 142.855 124.221 142.857 124.257 142.861V143.525C124.235 143.519 124.185 143.511 124.105 143.5C124.028 143.487 123.946 143.48 123.859 143.48C123.653 143.48 123.469 143.524 123.307 143.61C123.146 143.695 123.019 143.813 122.925 143.964C122.833 144.113 122.787 144.284 122.787 144.475V147.162H122.135ZM126.28 147.262C126.011 147.262 125.767 147.211 125.548 147.11C125.328 147.006 125.154 146.858 125.025 146.665C124.896 146.469 124.832 146.233 124.832 145.957C124.832 145.714 124.88 145.517 124.975 145.365C125.071 145.212 125.199 145.093 125.36 145.006C125.52 144.919 125.697 144.855 125.89 144.813C126.086 144.768 126.282 144.733 126.479 144.708C126.737 144.674 126.946 144.65 127.107 144.633C127.269 144.615 127.387 144.584 127.46 144.542C127.536 144.499 127.574 144.426 127.574 144.321V144.298C127.574 144.026 127.499 143.814 127.35 143.663C127.202 143.512 126.979 143.436 126.678 143.436C126.367 143.436 126.123 143.504 125.946 143.641C125.769 143.777 125.644 143.923 125.573 144.077L124.953 143.856C125.064 143.598 125.211 143.397 125.396 143.254C125.582 143.108 125.784 143.007 126.004 142.95C126.225 142.891 126.442 142.861 126.656 142.861C126.792 142.861 126.949 142.878 127.126 142.911C127.305 142.942 127.477 143.008 127.643 143.107C127.811 143.207 127.95 143.357 128.06 143.558C128.171 143.759 128.226 144.028 128.226 144.365V147.162H127.574V146.587H127.541C127.496 146.679 127.423 146.778 127.319 146.883C127.216 146.988 127.079 147.077 126.908 147.151C126.736 147.225 126.527 147.262 126.28 147.262ZM126.38 146.676C126.638 146.676 126.855 146.625 127.032 146.524C127.211 146.422 127.345 146.291 127.436 146.131C127.528 145.971 127.574 145.802 127.574 145.625V145.028C127.546 145.061 127.485 145.092 127.391 145.119C127.299 145.145 127.192 145.168 127.071 145.189C126.951 145.207 126.834 145.224 126.72 145.238C126.607 145.251 126.516 145.262 126.446 145.271C126.276 145.294 126.118 145.329 125.971 145.379C125.825 145.427 125.707 145.5 125.617 145.598C125.528 145.693 125.484 145.824 125.484 145.99C125.484 146.217 125.568 146.388 125.736 146.504C125.905 146.618 126.12 146.676 126.38 146.676ZM130.069 144.608V147.162H129.417V142.916H130.047V143.58H130.102C130.202 143.364 130.353 143.191 130.556 143.06C130.758 142.927 131.02 142.861 131.341 142.861C131.628 142.861 131.88 142.92 132.095 143.038C132.311 143.154 132.478 143.331 132.598 143.569C132.718 143.805 132.778 144.103 132.778 144.464V147.162H132.126V144.509C132.126 144.175 132.039 143.915 131.866 143.729C131.693 143.541 131.455 143.447 131.153 143.447C130.944 143.447 130.758 143.492 130.594 143.583C130.432 143.673 130.304 143.805 130.21 143.978C130.116 144.151 130.069 144.361 130.069 144.608ZM135.684 148.843C135.369 148.843 135.098 148.802 134.871 148.721C134.644 148.642 134.455 148.537 134.304 148.406C134.155 148.277 134.036 148.139 133.948 147.991L134.467 147.626C134.526 147.704 134.601 147.792 134.691 147.892C134.782 147.993 134.905 148.081 135.062 148.154C135.22 148.23 135.428 148.268 135.684 148.268C136.026 148.268 136.309 148.185 136.532 148.019C136.755 147.853 136.867 147.593 136.867 147.24V146.377H136.811C136.764 146.454 136.695 146.55 136.607 146.665C136.52 146.777 136.395 146.877 136.231 146.966C136.069 147.052 135.85 147.096 135.573 147.096C135.23 147.096 134.923 147.015 134.65 146.853C134.379 146.69 134.164 146.454 134.006 146.145C133.849 145.835 133.771 145.459 133.771 145.017C133.771 144.582 133.847 144.204 134 143.881C134.153 143.557 134.366 143.306 134.639 143.129C134.912 142.951 135.227 142.861 135.584 142.861C135.861 142.861 136.08 142.907 136.242 142.999C136.406 143.09 136.531 143.193 136.618 143.309C136.706 143.423 136.775 143.517 136.822 143.591H136.889V142.916H137.519V147.284C137.519 147.649 137.436 147.945 137.27 148.174C137.106 148.404 136.885 148.573 136.607 148.68C136.33 148.788 136.023 148.843 135.684 148.843ZM135.662 146.51C135.923 146.51 136.144 146.45 136.325 146.33C136.506 146.21 136.643 146.038 136.737 145.813C136.831 145.588 136.878 145.319 136.878 145.006C136.878 144.7 136.832 144.43 136.74 144.196C136.647 143.962 136.511 143.779 136.33 143.646C136.15 143.513 135.927 143.447 135.662 143.447C135.385 143.447 135.155 143.517 134.971 143.657C134.788 143.797 134.651 143.985 134.559 144.221C134.468 144.457 134.423 144.719 134.423 145.006C134.423 145.301 134.469 145.562 134.561 145.788C134.655 146.013 134.794 146.19 134.976 146.319C135.16 146.446 135.389 146.51 135.662 146.51ZM140.493 147.251C140.084 147.251 139.731 147.16 139.435 146.98C139.14 146.797 138.912 146.543 138.752 146.217C138.593 145.889 138.514 145.507 138.514 145.072C138.514 144.638 138.593 144.254 138.752 143.923C138.912 143.589 139.135 143.329 139.421 143.143C139.708 142.955 140.044 142.861 140.427 142.861C140.648 142.861 140.866 142.898 141.082 142.972C141.298 143.045 141.494 143.165 141.671 143.331C141.848 143.495 141.989 143.712 142.094 143.983C142.199 144.254 142.251 144.588 142.251 144.984V145.26H138.979V144.697H141.588C141.588 144.457 141.54 144.243 141.444 144.055C141.35 143.867 141.216 143.719 141.041 143.61C140.867 143.501 140.663 143.447 140.427 143.447C140.167 143.447 139.942 143.512 139.752 143.641C139.564 143.768 139.42 143.934 139.318 144.138C139.217 144.343 139.166 144.562 139.166 144.796V145.172C139.166 145.493 139.222 145.764 139.332 145.987C139.445 146.208 139.6 146.377 139.799 146.493C139.998 146.607 140.23 146.665 140.493 146.665C140.665 146.665 140.819 146.641 140.958 146.593C141.098 146.543 141.218 146.469 141.32 146.372C141.421 146.272 141.499 146.149 141.555 146.001L142.185 146.178C142.119 146.392 142.007 146.58 141.85 146.742C141.694 146.902 141.5 147.028 141.27 147.118C141.04 147.206 140.781 147.251 140.493 147.251Z" fill="#9291A5"/>
<path d="M103.974 123.162V137H101.048V125.939H100.967L97.7984 127.926V125.331L101.224 123.162H103.974ZM108.229 137.176C107.783 137.176 107.4 137.018 107.08 136.703C106.765 136.383 106.607 136 106.607 135.554C106.607 135.113 106.765 134.734 107.08 134.419C107.4 134.104 107.783 133.946 108.229 133.946C108.662 133.946 109.04 134.104 109.364 134.419C109.689 134.734 109.851 135.113 109.851 135.554C109.851 135.851 109.774 136.124 109.621 136.372C109.472 136.615 109.276 136.811 109.033 136.959C108.79 137.104 108.522 137.176 108.229 137.176ZM117.055 137.304C115.893 137.3 114.893 137.014 114.055 136.446C113.222 135.878 112.58 135.056 112.129 133.98C111.683 132.903 111.463 131.608 111.467 130.095C111.467 128.586 111.69 127.3 112.136 126.237C112.587 125.173 113.229 124.365 114.062 123.811C114.9 123.252 115.897 122.973 117.055 122.973C118.213 122.973 119.208 123.252 120.042 123.811C120.879 124.369 121.524 125.18 121.974 126.243C122.424 127.302 122.647 128.586 122.643 130.095C122.643 131.613 122.418 132.91 121.967 133.986C121.521 135.063 120.882 135.885 120.048 136.453C119.215 137.02 118.217 137.304 117.055 137.304ZM117.055 134.878C117.848 134.878 118.481 134.48 118.954 133.682C119.427 132.885 119.661 131.689 119.656 130.095C119.656 129.045 119.548 128.171 119.332 127.473C119.12 126.775 118.819 126.25 118.427 125.899C118.039 125.547 117.582 125.372 117.055 125.372C116.267 125.372 115.636 125.766 115.163 126.554C114.69 127.342 114.452 128.523 114.447 130.095C114.447 131.158 114.553 132.045 114.765 132.757C114.981 133.464 115.285 133.996 115.677 134.351C116.069 134.703 116.528 134.878 117.055 134.878ZM129.783 137.189C128.828 137.189 127.977 137.014 127.229 136.662C126.486 136.311 125.896 135.827 125.459 135.209C125.022 134.592 124.794 133.885 124.776 133.088H127.614C127.646 133.624 127.871 134.059 128.29 134.392C128.709 134.725 129.207 134.892 129.783 134.892C130.243 134.892 130.648 134.791 130.999 134.588C131.355 134.381 131.632 134.095 131.83 133.73C132.033 133.36 132.134 132.937 132.134 132.459C132.134 131.973 132.031 131.545 131.824 131.176C131.621 130.806 131.339 130.518 130.979 130.311C130.619 130.104 130.207 129.998 129.743 129.993C129.337 129.993 128.943 130.077 128.56 130.243C128.182 130.41 127.887 130.637 127.675 130.926L125.074 130.459L125.729 123.162H134.189V125.554H128.141L127.783 129.02H127.864C128.107 128.678 128.475 128.394 128.966 128.169C129.457 127.944 130.006 127.831 130.614 127.831C131.448 127.831 132.191 128.027 132.844 128.419C133.497 128.811 134.013 129.349 134.391 130.034C134.77 130.714 134.957 131.498 134.952 132.385C134.957 133.318 134.74 134.146 134.303 134.872C133.871 135.592 133.265 136.16 132.486 136.574C131.711 136.984 130.81 137.189 129.783 137.189Z" fill="#1E1B39"/>
<defs>
<filter id="filter0_d_120_9233" x="0.201519" y="0.134346" width="226.597" height="218.597" filterUnits="userSpaceOnUse" color-interpolation-filters="sRGB">
<feFlood flood-opacity="0" result="BackgroundImageFix"/>
<feColorMatrix in="SourceAlpha" type="matrix" values="0 0 0 0 0 0 0 0 0 0 0 0 0 0 0 0 0 0 127 0" result="hardAlpha"/>
<feOffset dy="0.932827"/>
<feGaussianBlur stdDeviation="1.39924"/>
<feComposite in2="hardAlpha" operator="out"/>
<feColorMatrix type="matrix" values="0 0 0 0 0.0509804 0 0 0 0 0.0392157 0 0 0 0 0.172549 0 0 0 0.08 0"/>
<feBlend mode="normal" in2="BackgroundImageFix" result="effect1_dropShadow_120_9233"/>
<feBlend mode="normal" in="SourceGraphic" in2="effect1_dropShadow_120_9233" result="shape"/>
</filter>
</defs>
</svg>
