<svg width="207" height="44" viewBox="0 0 207 44" fill="none" xmlns="http://www.w3.org/2000/svg">
<g clip-path="url(#clip0_122_9859)">
<g clip-path="url(#clip1_122_9859)">
<mask id="mask0_122_9859" style="mask-type:luminance" maskUnits="userSpaceOnUse" x="0" y="8" width="207" height="27">
<path d="M0.615234 8.67773H206.628V34.7001H0.615234V8.67773Z" fill="white"/>
</mask>
<g mask="url(#mask0_122_9859)">
<path d="M100.787 8.67773C99.1234 9.11976 97.6248 9.38646 95.7635 9.58602V10.1511C97.8579 10.1511 98.1256 10.3861 98.1256 12.1169V17.9369C96.8937 15.9412 95.9276 15.3444 94.1325 15.3444C90.5702 15.3444 88.0785 18.7015 88.0785 23.4929C88.0785 28.2843 90.6056 31.646 94.2332 31.646C96.129 31.646 97.4262 30.7825 98.3568 28.9193C98.4911 30.182 98.4921 30.3153 98.8241 31.5808C100.188 31.1471 100.753 31.0119 102.716 30.7816L103.214 30.7135V30.1475C100.986 30.0822 100.787 29.9143 100.787 27.8861V8.67773ZM11.0148 8.92019C9.96555 9.04196 8.90973 9.09802 7.8535 9.08805C6.92096 9.08805 6.42299 9.05634 5.12677 8.95563V9.78465C7.42173 9.918 7.88613 10.2509 7.88613 11.7821V11.9836L7.18673 28.3188C7.12146 30.1158 6.79041 30.3797 4.46094 30.5475V31.3467C6.19172 31.2124 6.85475 31.1807 7.78542 31.1807C8.71796 31.1807 9.38192 31.2124 11.0801 31.3467V30.5475C8.75059 30.3797 8.3179 30.0813 8.3179 28.6172V28.3188L8.98466 11.051L14.44 25.7907L14.84 26.9535L15.3072 28.2498L15.7726 29.5497L16.1391 30.6156H16.6398L17.0035 29.5171L17.4362 28.2507L17.9006 27.0216L18.3007 25.9212L23.7914 11.0846L24.0898 28.3178V28.4838C24.0898 30.0486 23.5919 30.4142 21.3286 30.5475V31.3467C23.4249 31.1462 24.2232 31.08 25.4877 31.08C26.7504 31.08 27.5505 31.1471 29.6468 31.3467V30.5475C27.2511 30.3797 26.9509 30.1158 26.9173 28.3188L26.5536 11.9836V11.7504C26.5536 10.2519 27.0516 9.918 29.3148 9.78465V8.9547C28.0503 9.05634 27.5178 9.08898 26.686 9.08898C25.6882 9.08898 24.9907 9.05355 23.4921 8.92019L17.2059 25.758L11.0139 8.92019H11.0148ZM140.44 9.05355V9.88816C142.836 10.0197 143.169 10.2845 143.169 12.0815V28.218C143.169 30.015 142.903 30.2463 140.44 30.4468V31.246H148.859C151.32 31.246 152.651 30.9476 154.048 30.0822C155.713 29.0182 156.81 26.9862 156.81 24.8908C156.81 23.0947 156.044 21.4665 154.747 20.4678C154.048 19.9353 153.315 19.635 152.118 19.4019C154.514 18.5048 155.779 16.8066 155.779 14.479C155.779 12.7482 155.047 11.2152 153.782 10.2519C152.651 9.42003 151.353 9.05355 149.19 9.05355H140.44ZM145.964 10.0859H148.791C151.587 10.0859 152.817 11.4492 152.817 14.5443C152.817 16.0737 152.454 17.1731 151.721 18.0376C150.989 18.8694 150.09 19.1361 148.225 19.1361H145.964V10.0859ZM69.4408 14.8446L68.5409 16.5409C67.4769 15.5085 66.5789 15.143 65.1484 15.143C61.2224 15.143 58.5591 18.5374 58.5591 23.4938C58.5591 28.3523 61.1888 31.6143 65.0486 31.6143C68.0439 31.6143 69.9397 29.6821 70.3706 26.1226H69.0063C68.6081 29.0508 67.3753 30.5149 65.3116 30.5149C62.7508 30.5149 61.4546 28.1528 61.4546 23.4938C61.4546 18.736 62.9206 16.0429 65.4151 16.0429C67.4452 16.0429 68.6743 17.4398 69.273 20.3325H70.0069V14.8446H69.4408ZM129.058 14.9453L128.493 16.3068C127.361 15.543 126.398 15.2437 125.1 15.2437C122.172 15.2437 120.109 17.0407 120.109 19.6695C120.109 21.5989 120.877 22.5305 123.303 23.6626L124.833 24.3583L126.098 24.9243C127.728 25.6564 128.362 26.422 128.362 27.5532C128.362 29.2504 126.897 30.5485 124.934 30.5485C122.605 30.5485 121.207 29.0844 120.606 26.0574L119.878 26.09V31.647H120.477L121.273 30.1484C122.537 31.1471 123.735 31.5463 125.266 31.5463C128.394 31.5463 130.623 29.5516 130.623 26.7558C130.623 24.7938 129.724 23.7279 127.196 22.6294L125.799 22.0326C122.77 20.7009 122.273 20.2691 122.273 18.9384C122.273 17.3745 123.637 16.1762 125.399 16.1762C127.496 16.1762 128.593 17.4417 128.892 20.1022H129.659V14.9453H129.058ZM178.241 14.9453C176.914 15.4116 175.78 15.6764 173.849 15.9431V16.5082C174.016 16.5082 174.185 16.5409 174.284 16.5409C175.948 16.5409 176.145 16.7423 176.179 18.1066V28.8848C176.179 30.3153 175.849 30.582 173.819 30.6818V31.3476C175.55 31.1798 176.246 31.149 177.41 31.149C178.609 31.149 179.276 31.1807 181.006 31.3476V30.6818C179.276 30.6156 178.842 30.2817 178.842 28.9529V20.8967C178.842 18.1691 180.039 16.7404 182.303 16.7404C184.431 16.7404 185.296 17.9042 185.296 20.7997V28.952C185.296 30.2808 184.864 30.6147 183.066 30.6809V31.3467C184.796 31.1788 185.461 31.1481 186.693 31.1481C187.89 31.1481 188.558 31.1798 190.322 31.3467V30.6809C188.292 30.5811 187.958 30.3144 187.958 28.8839V20.8967C187.958 19.6341 187.791 18.7025 187.457 17.9042C186.793 16.2742 185.062 15.2428 183.066 15.2428C181.139 15.2428 179.772 16.042 178.573 17.8389C178.505 16.5744 178.408 15.71 178.241 14.9453ZM50.1924 15.0106C48.8262 15.4088 47.696 15.6093 45.8002 15.7771V16.3739H46.2319C47.9608 16.4075 48.1287 16.5754 48.1623 18.0059V28.8848C48.1623 30.3153 47.7967 30.582 45.7666 30.6818V31.3476C47.5972 31.1798 48.2947 31.1462 49.4939 31.1462C50.6577 31.1462 51.3571 31.1807 53.1849 31.3476V30.6818C51.1566 30.582 50.8228 30.3153 50.8228 28.8848V21.9309C50.8228 18.6363 51.9204 16.5437 53.6502 16.5437C54.2489 16.5437 54.6508 16.8738 54.6508 17.34V17.6385L54.5828 17.9732C54.5492 18.1075 54.5175 18.239 54.5175 18.3052C54.5175 18.971 55.1162 19.4354 55.8818 19.4354C56.7136 19.4354 57.2787 18.8032 57.2787 17.8371C57.2787 16.2424 56.0478 15.143 54.3841 15.143C52.6543 15.143 51.2229 16.2434 50.4917 18.1392V17.7718C50.4237 16.774 50.3575 16.2424 50.1924 15.0106ZM37.7282 15.143C33.736 15.143 31.2424 18.3705 31.2424 23.4938C31.2424 28.6181 33.736 31.6143 38.0275 31.6143C41.2876 31.6143 43.4175 29.5833 43.8502 26.1553H42.5214C42.1204 28.9846 40.6563 30.5158 38.2942 30.5158C35.2663 30.5158 33.9365 28.1882 33.9038 22.9968H43.8176C43.7523 17.8735 41.6551 15.143 37.7282 15.143ZM79.2306 15.143C75.2375 15.143 72.7411 18.3705 72.7411 23.4938C72.7411 28.6181 75.2375 31.6143 79.5299 31.6143C82.7891 31.6143 84.92 29.5833 85.3517 26.1553H84.0201C83.6209 28.9846 82.1578 30.5158 79.7957 30.5158C76.7687 30.5158 75.4361 28.1882 75.4035 22.9968H85.3182C85.2501 17.8735 83.1556 15.143 79.2287 15.143H79.2306ZM110.965 15.143C106.972 15.143 104.476 18.3705 104.476 23.4938C104.476 28.6181 106.972 31.6143 111.263 31.6143C114.524 31.6143 116.653 29.5833 117.086 26.1553H115.754C115.354 28.9846 113.893 30.5158 111.53 30.5158C108.503 30.5158 107.17 28.1882 107.137 22.9968H117.053C116.986 17.8735 114.89 15.143 110.965 15.143ZM166.001 15.143C162.008 15.143 159.512 18.3705 159.512 23.4938C159.512 28.6181 162.008 31.6143 166.299 31.6143C169.56 31.6143 171.689 29.5833 172.123 26.1553H170.79C170.392 28.9846 168.93 30.5158 166.569 30.5158C163.54 30.5158 162.209 28.1882 162.176 22.9968H172.09C172.022 17.8735 169.928 15.143 166.001 15.143ZM192.747 15.543L191.978 19.8681H192.646C193.844 16.8738 194.375 16.4075 196.539 16.4075H200.628L191.613 31.2469H203.058L203.925 26.4574H203.227C202.226 29.4844 201.297 30.3834 199.032 30.3834H195.142L204.191 15.543H192.747ZM37.6955 16.0075C39.859 16.0075 40.9566 17.8716 41.1561 21.7985H33.9691C34.3011 17.9723 35.5665 16.0075 37.6955 16.0075ZM79.1951 16.0075C81.3577 16.0075 82.4553 17.8716 82.6548 21.7985H75.4678C75.7998 17.9723 77.0652 16.0075 79.1951 16.0075ZM110.932 16.0075C113.095 16.0075 114.192 17.8716 114.393 21.7985H107.205C107.538 17.9723 108.802 16.0075 110.932 16.0075ZM165.968 16.0075C168.131 16.0075 169.229 17.8716 169.429 21.7985H162.241C162.574 17.9723 163.838 16.0075 165.968 16.0075ZM94.4309 16.2742C96.8928 16.2742 98.1582 18.8051 98.1582 23.6953C98.1582 28.3197 96.9273 30.7144 94.5316 30.7144C92.1359 30.7144 90.8733 28.2199 90.8733 23.4612C90.8733 18.6372 92.0352 16.2742 94.4309 16.2742ZM145.964 20.1693H149.125C150.889 20.1693 151.885 20.4678 152.651 21.2324C153.416 21.9971 153.847 23.4276 153.847 25.0251C153.847 28.3514 152.184 30.2165 149.223 30.2165H148.027C146.263 30.2165 145.964 29.9479 145.964 28.4848V20.1693ZM132.619 21.488V23.2085H140.054V21.488H132.619Z" fill="white"/>
</g>
</g>
</g>
<defs>
<clipPath id="clip0_122_9859">
<rect width="206.09" height="43" fill="white" transform="translate(0.615234 0.189453)"/>
</clipPath>
<clipPath id="clip1_122_9859">
<rect width="206.09" height="27.0435" fill="white" transform="translate(0.615234 8.16797)"/>
</clipPath>
</defs>
</svg>
