<svg width="227" height="182" viewBox="0 0 227 182" fill="none" xmlns="http://www.w3.org/2000/svg">
<g filter="url(#filter0_d_113_9228)">
<rect x="3" y="2" width="221.08" height="175.371" fill="white"/>
</g>
<path d="M21 110.265C21 108.462 22.4617 107 24.2649 107H29.7351C31.5383 107 33 108.462 33 110.265V160H21V110.265Z" fill="#80F3FF"/>
<path d="M49.6387 78.9573C49.6387 77.1541 51.1004 75.6924 52.9036 75.6924H58.9669C60.7701 75.6924 62.2318 77.1541 62.2318 78.9573V160.113H49.6387V78.9573Z" fill="#00CFFF"/>
<path d="M79.0215 90.1511C79.0215 88.348 80.4832 86.8862 82.2864 86.8862H87.8833C89.6865 86.8862 91.1482 88.348 91.1482 90.1511V160.113H79.0215V90.1511Z" fill="#80DBFF"/>
<path d="M108 117.265C108 115.462 109.462 114 111.265 114H116.735C118.538 114 120 115.462 120 117.265V160H108V117.265Z" fill="#00CFFF"/>
<path d="M136.857 65.4314C136.857 63.6282 138.319 62.1665 140.122 62.1665H145.719C147.522 62.1665 148.984 63.6282 148.984 65.4314V160.113H136.857V65.4314Z" fill="#7BE6FF" fill-opacity="0.72"/>
<path d="M166 99.2649C166 97.4617 167.462 96 169.265 96H174.735C176.538 96 178 97.4617 178 99.2649V160H166V99.2649Z" fill="#C9EEFD"/>
<path d="M194 74.2649C194 72.4617 195.462 71 197.265 71H202.735C204.538 71 206 72.4617 206 74.2649V160H194V74.2649Z" fill="#00CFFF"/>
<path d="M75.1853 31.9017V38.871H78.5519V40.1704H73.8269V31.9017H75.1853ZM84.8443 37.7607H80.1429C80.2374 38.2017 80.45 38.5442 80.7808 38.7883C81.1194 39.0325 81.5368 39.1545 82.0329 39.1545C82.7023 39.1545 83.2102 38.9104 83.5567 38.4222L84.608 39.0364C84.0331 39.8948 83.1708 40.324 82.0211 40.324C81.0682 40.324 80.2925 40.0326 79.694 39.4498C79.1034 38.8592 78.8081 38.115 78.8081 37.2173C78.8081 36.3432 79.0995 35.6068 79.6822 35.0083C80.2571 34.4098 81.0052 34.1106 81.9266 34.1106C82.785 34.1106 83.4937 34.4138 84.0528 35.0202C84.612 35.6265 84.8915 36.3628 84.8915 37.2291C84.8915 37.3866 84.8758 37.5638 84.8443 37.7607ZM80.1311 36.7212H83.604C83.5173 36.2565 83.3205 35.8982 83.0133 35.6462C82.7141 35.3942 82.3479 35.2682 81.9148 35.2682C81.4423 35.2682 81.0485 35.3982 80.7335 35.658C80.4185 35.9179 80.2177 36.2723 80.1311 36.7212ZM90.5032 35.1028V34.2642H91.779V40.1704H90.5032V39.3199C90.0228 39.9893 89.3338 40.324 88.436 40.324C87.6249 40.324 86.9319 40.0247 86.357 39.4262C85.7822 38.8277 85.4947 38.0914 85.4947 37.2173C85.4947 36.3432 85.7822 35.6068 86.357 35.0083C86.9319 34.4098 87.6249 34.1106 88.436 34.1106C89.3338 34.1106 90.0228 34.4413 90.5032 35.1028ZM87.302 38.5757C87.6564 38.9301 88.1013 39.1073 88.6368 39.1073C89.1723 39.1073 89.6173 38.9301 89.9717 38.5757C90.326 38.2135 90.5032 37.7607 90.5032 37.2173C90.5032 36.6739 90.326 36.225 89.9717 35.8707C89.6173 35.5084 89.1723 35.3273 88.6368 35.3273C88.1013 35.3273 87.6564 35.5084 87.302 35.8707C86.9477 36.225 86.7705 36.6739 86.7705 37.2173C86.7705 37.7528 86.9477 38.2056 87.302 38.5757ZM94.3877 34.2642V35.2564C94.7106 34.524 95.317 34.1578 96.2068 34.1578V35.5399C95.7265 35.5084 95.3012 35.6265 94.9311 35.8943C94.5688 36.1542 94.3877 36.5873 94.3877 37.1937V40.1704H93.112V34.2642H94.3877ZM100.102 34.1106C100.787 34.1106 101.335 34.3311 101.744 34.7721C102.161 35.2052 102.37 35.7958 102.37 36.544V40.1704H101.094V36.6739C101.094 36.2329 100.976 35.8943 100.74 35.658C100.504 35.4218 100.181 35.3037 99.7714 35.3037C99.3067 35.3037 98.9406 35.4493 98.6728 35.7407C98.4051 36.0242 98.2712 36.4455 98.2712 37.0047V40.1704H96.9954V34.2642H98.2712V35.0202C98.6649 34.4138 99.2752 34.1106 100.102 34.1106ZM104.795 33.142C104.637 33.2995 104.448 33.3782 104.228 33.3782C104.007 33.3782 103.814 33.2995 103.649 33.142C103.491 32.9766 103.413 32.7837 103.413 32.5632C103.413 32.3427 103.491 32.1537 103.649 31.9962C103.806 31.8308 103.999 31.7481 104.228 31.7481C104.456 31.7481 104.649 31.8308 104.806 31.9962C104.964 32.1537 105.043 32.3427 105.043 32.5632C105.043 32.7837 104.96 32.9766 104.795 33.142ZM104.866 40.1704H103.59V34.2642H104.866V40.1704ZM109.299 34.1106C109.985 34.1106 110.532 34.3311 110.941 34.7721C111.359 35.2052 111.567 35.7958 111.567 36.544V40.1704H110.292V36.6739C110.292 36.2329 110.174 35.8943 109.937 35.658C109.701 35.4218 109.378 35.3037 108.969 35.3037C108.504 35.3037 108.138 35.4493 107.87 35.7407C107.602 36.0242 107.469 36.4455 107.469 37.0047V40.1704H106.193V34.2642H107.469V35.0202C107.862 34.4138 108.473 34.1106 109.299 34.1106ZM117.489 35.1383V34.2642H118.741V39.8987C118.741 40.7965 118.445 41.4855 117.855 41.9659C117.272 42.4463 116.555 42.6865 115.705 42.6865C114.342 42.6865 113.409 42.21 112.905 41.2572L114.004 40.6193C114.311 41.2257 114.886 41.5288 115.728 41.5288C116.28 41.5288 116.709 41.3832 117.016 41.0918C117.331 40.8083 117.489 40.4106 117.489 39.8987V39.1782C117.008 39.8633 116.323 40.2058 115.433 40.2058C114.606 40.2058 113.901 39.9105 113.319 39.3199C112.744 38.7214 112.456 38.0008 112.456 37.1582C112.456 36.3077 112.744 35.5911 113.319 35.0083C113.894 34.4098 114.598 34.1106 115.433 34.1106C116.323 34.1106 117.008 34.4532 117.489 35.1383ZM114.264 38.4812C114.626 38.8356 115.075 39.0128 115.61 39.0128C116.146 39.0128 116.591 38.8356 116.945 38.4812C117.307 38.1268 117.489 37.6858 117.489 37.1582C117.489 36.6306 117.307 36.1896 116.945 35.8352C116.591 35.4808 116.146 35.3037 115.61 35.3037C115.075 35.3037 114.626 35.4808 114.264 35.8352C113.909 36.1896 113.732 36.6306 113.732 37.1582C113.732 37.6858 113.909 38.1268 114.264 38.4812ZM126.865 40.324C125.621 40.324 124.59 39.9145 123.771 39.0955C122.952 38.2607 122.542 37.2409 122.542 36.036C122.542 34.8233 122.952 33.8074 123.771 32.9884C124.582 32.1615 125.613 31.7481 126.865 31.7481C127.614 31.7481 128.303 31.9253 128.933 32.2797C129.57 32.634 130.067 33.1144 130.421 33.7208L129.24 34.4059C129.019 33.9964 128.696 33.6735 128.271 33.4373C127.854 33.1932 127.385 33.0711 126.865 33.0711C125.991 33.0711 125.275 33.3507 124.716 33.9098C124.172 34.461 123.9 35.1698 123.9 36.036C123.9 36.9023 124.172 37.611 124.716 38.1623C125.275 38.7214 125.991 39.001 126.865 39.001C127.385 39.001 127.858 38.8828 128.283 38.6466C128.708 38.4025 129.027 38.0757 129.24 37.6662L130.421 38.3395C130.082 38.938 129.59 39.4223 128.944 39.7924C128.322 40.1468 127.629 40.324 126.865 40.324ZM134.477 34.1106C135.162 34.1106 135.71 34.3311 136.119 34.7721C136.537 35.2052 136.745 35.7958 136.745 36.544V40.1704H135.469V36.6739C135.469 36.2329 135.351 35.8943 135.115 35.658C134.879 35.4218 134.556 35.3037 134.146 35.3037C133.682 35.3037 133.316 35.4493 133.048 35.7407C132.78 36.0242 132.646 36.4455 132.646 37.0047V40.1704H131.371V31.9017H132.646V35.0202C133.04 34.4138 133.65 34.1106 134.477 34.1106ZM142.643 35.1028V34.2642H143.918V40.1704H142.643V39.3199C142.162 39.9893 141.473 40.324 140.575 40.324C139.764 40.324 139.071 40.0247 138.496 39.4262C137.922 38.8277 137.634 38.0914 137.634 37.2173C137.634 36.3432 137.922 35.6068 138.496 35.0083C139.071 34.4098 139.764 34.1106 140.575 34.1106C141.473 34.1106 142.162 34.4413 142.643 35.1028ZM139.441 38.5757C139.796 38.9301 140.241 39.1073 140.776 39.1073C141.312 39.1073 141.757 38.9301 142.111 38.5757C142.465 38.2135 142.643 37.7607 142.643 37.2173C142.643 36.6739 142.465 36.225 142.111 35.8707C141.757 35.5084 141.312 35.3273 140.776 35.3273C140.241 35.3273 139.796 35.5084 139.441 35.8707C139.087 36.225 138.91 36.6739 138.91 37.2173C138.91 37.7528 139.087 38.2056 139.441 38.5757ZM146.527 34.2642V35.2564C146.85 34.524 147.456 34.1578 148.346 34.1578V35.5399C147.866 35.5084 147.441 35.6265 147.07 35.8943C146.708 36.1542 146.527 36.5873 146.527 37.1937V40.1704H145.251V34.2642H146.527ZM152.58 34.2642V35.4927H151.116V38.3277C151.116 38.5718 151.171 38.749 151.281 38.8592C151.391 38.9616 151.553 39.0207 151.765 39.0364C151.986 39.0443 152.258 39.0403 152.58 39.0246V40.1704C151.604 40.2885 150.903 40.2058 150.478 39.9223C150.053 39.631 149.84 39.0994 149.84 38.3277V35.4927H148.753V34.2642H149.84V32.9884L151.116 32.6104V34.2642H152.58Z" fill="#1E1B39"/>
<defs>
<filter id="filter0_d_113_9228" x="0.201519" y="0.134346" width="226.677" height="180.969" filterUnits="userSpaceOnUse" color-interpolation-filters="sRGB">
<feFlood flood-opacity="0" result="BackgroundImageFix"/>
<feColorMatrix in="SourceAlpha" type="matrix" values="0 0 0 0 0 0 0 0 0 0 0 0 0 0 0 0 0 0 127 0" result="hardAlpha"/>
<feOffset dy="0.932827"/>
<feGaussianBlur stdDeviation="1.39924"/>
<feComposite in2="hardAlpha" operator="out"/>
<feColorMatrix type="matrix" values="0 0 0 0 0.0509804 0 0 0 0 0.0392157 0 0 0 0 0.172549 0 0 0 0.08 0"/>
<feBlend mode="normal" in2="BackgroundImageFix" result="effect1_dropShadow_113_9228"/>
<feBlend mode="normal" in="SourceGraphic" in2="effect1_dropShadow_113_9228" result="shape"/>
</filter>
</defs>
</svg>
