<svg width="169" height="44" viewBox="0 0 169 44" fill="none" xmlns="http://www.w3.org/2000/svg">
<g clip-path="url(#clip0_122_9862)">
<g clip-path="url(#clip1_122_9862)">
<mask id="mask0_122_9862" style="mask-type:luminance" maskUnits="userSpaceOnUse" x="0" y="10" width="169" height="22">
<path d="M0.699219 10.9648H168.559V31.8075H0.699219V10.9648Z" fill="white"/>
</mask>
<g mask="url(#mask0_122_9862)">
<path d="M28.6945 19.9155C28.1517 18.7368 27.871 18.125 27.4905 17.2064C27.1399 18.1241 27.0214 18.4057 26.3603 19.9855L25.0677 23.1627H30.1548L28.6945 19.9155ZM23.6074 27.0953L21.7917 31.1015H16.4873L25.7243 11.6456H30.1996L39.4319 31.1015H34.2059L32.2326 27.0953H23.6064H23.6074ZM52.6453 20.0787C53.727 20.0787 54.1747 20.0097 54.6195 19.7728C54.9667 19.5723 55.2558 19.2848 55.4582 18.9386C55.6606 18.5925 55.7695 18.1996 55.774 17.7986C55.7674 17.3982 55.6577 17.0063 55.4555 16.6606C55.2532 16.3149 54.9653 16.0273 54.6195 15.8253C54.1952 15.5885 53.7457 15.539 52.6453 15.539H46.1668V20.0386L52.6453 20.0787ZM46.1668 31.1015H41.2914V11.6456H53.9882C56.2477 11.6456 57.4712 11.9319 58.6258 12.6323C59.359 13.0975 59.962 13.7415 60.3779 14.5038C60.7939 15.2661 61.0093 16.1217 61.0038 16.9901C61.0038 19.2991 59.8054 21.0159 57.6149 21.9233C59.5434 22.6097 60.1356 23.6905 60.1803 26.7297C60.2736 29.1581 60.4172 29.8631 61.0047 31.1118H55.636C55.2807 30.0263 55.2117 29.5824 55.2611 27.7173C55.2611 24.8944 54.4815 24.0206 51.9841 24.0206H46.1668V31.1015ZM83.801 31.1015V11.6456H101.604V15.5931H88.6755V19.2459H100.098V23.1925H88.6755V27.1997H101.604V31.1472L83.801 31.1015ZM115.735 31.1015H110.861V15.5782H104.125V11.6307H122.446V15.5782H115.735V31.1015ZM146.328 23.4928C144.937 29.0294 141.148 31.8075 134.861 31.8075C127.701 31.8075 123.176 27.8254 123.176 21.5633C123.176 15.1492 127.839 10.9648 134.974 10.9648C138.394 10.9648 141.079 11.8582 143.195 13.7672C144.634 14.9643 145.637 16.6036 146.047 18.43H140.792C139.805 15.9633 137.876 14.7547 134.954 14.7547C131.041 14.7547 128.338 17.5123 128.338 21.4691C128.338 25.329 131.022 28.0176 134.861 28.0176C137.969 28.0176 139.83 26.6262 140.96 23.4928H146.328ZM163.687 11.6456V19.2301H153.661V11.6456H148.785V31.1015H153.661V23.1627H163.673V31.1015H168.542V11.6456H163.687ZM0.697266 31.1015V11.6456H17.7696V15.5931H5.57173V19.2459H16.7587V23.1925H5.57267V31.1024L0.697266 31.1015ZM64.2071 31.1015V11.6456H81.2841V15.5931H69.0816V19.2459H80.2927V23.1925H69.0816V31.1024L64.2071 31.1015Z" fill="white"/>
</g>
</g>
</g>
<defs>
<clipPath id="clip0_122_9862">
<rect width="167.86" height="43" fill="white" transform="translate(0.699219 0.189453)"/>
</clipPath>
<clipPath id="clip1_122_9862">
<rect width="167.86" height="21.4488" fill="white" transform="translate(0.699219 10.9648)"/>
</clipPath>
</defs>
</svg>
