<svg width="108" height="50" viewBox="0 0 108 50" fill="none" xmlns="http://www.w3.org/2000/svg">
<g clip-path="url(#clip0_587_55)">
<path d="M56.9101 40.2919L51.7587 31.3306H35.9826H29.4361H22.514H12.4796H0.191406L5.34278 40.2919C8.18676 45.2286 15.4845 49.2531 21.6554 49.2531C27.8263 49.2531 30.5093 45.2286 27.6653 40.2919H34.5875C37.4315 45.2286 44.7292 49.2531 50.9001 49.2531C57.071 49.2531 59.754 45.2286 56.9101 40.2919Z" fill="#0045F6"/>
<path d="M21.4944 0.853468L0.191406 31.2787L5.34277 40.24C6.36231 41.8498 9.47459 46.5182 15.4845 48.3963C18.2748 49.3085 20.5285 49.2548 21.6554 49.2012C27.558 49.0402 39.0413 49.0402 50.7928 49.1475C53.7441 49.1475 56.6417 48.5036 59.3247 47.2158C73.8666 40.1863 88.4085 33.1568 102.95 26.1273L93.3452 0.799805H21.4944V0.853468Z" fill="#00CFFF"/>
<path d="M105.527 14.1627L97.9079 0.85498H74.5658H64.8534H54.6043H39.7405H21.4961L29.1158 14.1627C33.355 21.5141 44.1406 27.4704 53.2628 27.4704C61.8484 27.4704 65.9266 22.158 62.8143 15.3968C62.546 14.8066 62.9753 14.1627 63.6192 14.1627H71.4536C72.0438 14.1627 72.5804 14.431 72.9024 14.9139C77.4098 21.8897 87.7662 27.4704 96.5664 27.4704C105.742 27.4704 109.713 21.5141 105.527 14.1627Z" fill="#80DBFF"/>
<path d="M96.6143 25.0545C88.4043 25.0545 78.3163 19.5275 74.56 12.981C74.1308 12.2298 73.3259 11.7468 72.4673 11.7468H62.2182C60.3938 11.7468 59.2133 13.7323 60.1255 15.3421C61.628 17.9177 61.8963 20.2788 60.9304 21.9959C59.8035 23.9277 57.0132 25.0545 53.3107 25.0545C45.1007 25.0545 35.0126 19.5275 31.2564 12.981L25.6758 3.26855H96.507L103.429 15.3421C104.931 17.9177 105.2 20.2788 104.234 21.9959C103.053 23.9813 100.316 25.0545 96.6143 25.0545Z" fill="white"/>
<path d="M21.4993 15.3956L8.19162 33.5864L7.38672 31.601L20.6944 13.4639L21.4993 15.3956Z" fill="white"/>
</g>
<defs>
<clipPath id="clip0_587_55">
<rect width="107" height="49" fill="white" transform="translate(0.191406 0.799805)"/>
</clipPath>
</defs>
</svg>
