<svg width="91" height="44" viewBox="0 0 91 44" fill="none" xmlns="http://www.w3.org/2000/svg">
<g clip-path="url(#clip0_587_1855)">
<path d="M0.193359 3.61569C0.193359 3.81486 0.213272 3.9941 0.253105 4.19326L6.84521 35.7995L6.9647 36.3571C7.12403 37.1936 7.602 37.9106 8.23931 38.4085L67.4488 41.5551L68.9026 40.2407L66.8115 38.986L3.5392 0.847411L3.18072 0.807579C2.12519 0.727917 1.12939 1.26564 0.571747 2.18176C0.312843 2.59999 0.193359 3.11781 0.193359 3.61569Z" fill="#80DBFF"/>
<path d="M66.8159 40.0834L9.99628 36.0206C9.29923 35.9608 8.72168 35.4629 8.56236 34.7858L1.89059 2.74138C1.67152 1.72569 2.50798 0.789646 3.54359 0.849394L60.3632 4.9122C61.0602 4.97194 61.6378 5.46984 61.7971 6.14697L68.4689 38.1914C68.6879 39.2071 67.8515 40.163 66.8159 40.0834Z" fill="#C0F0FF"/>
<path d="M6.84375 35.7837L6.96324 36.3413C7.12257 37.1778 7.60054 37.8947 8.23785 38.3926C8.79549 38.8308 9.49253 39.1096 10.2294 39.1494L88.0799 43.2919C89.3944 43.3716 90.4101 42.1766 90.1512 40.8821L90.0118 40.1851L66.81 38.9503L6.84375 35.7837Z" fill="black"/>
<path d="M53.1896 4.35449C48.1908 8.0389 41.7182 13.695 35.7833 21.8803C31.8599 27.2974 29.1115 32.4954 27.1797 36.8769C40.9216 37.6137 54.6634 38.3307 68.3853 39.0676C68.4252 38.968 68.4451 38.8485 68.465 38.7091C68.4849 38.5099 68.465 38.3307 68.4451 38.2112C66.2145 27.5364 63.984 16.8416 61.7534 6.16682C61.7335 6.02741 61.614 5.62909 61.2356 5.29053C60.9568 5.05154 60.658 4.97188 60.419 4.93204C59.7021 4.77272 56.9338 4.55364 53.1896 4.35449Z" fill="#00CFFF"/>
<path d="M26.1934 25.7998L42.5358 29.7953L37.1647 31.8914L43.1908 35.8869L41.848 37.7864L35.822 33.7909L35.6582 39.3257L26.1934 25.7998Z" fill="#009DFF" stroke="white" stroke-width="0.844224" stroke-miterlimit="10"/>
</g>
<defs>
<clipPath id="clip0_587_1855">
<rect width="90" height="43" fill="white" transform="translate(0.191406 0.799805)"/>
</clipPath>
</defs>
</svg>
