<svg width="144" height="44" viewBox="0 0 144 44" fill="none" xmlns="http://www.w3.org/2000/svg">
<g clip-path="url(#clip0_122_9855)">
<g clip-path="url(#clip1_122_9855)">
<g clip-path="url(#clip2_122_9855)">
<path d="M127.735 2.6377C129.631 2.64426 131.526 2.63769 133.421 2.64098C133.42 2.97146 133.42 3.30031 133.421 3.63038C132.678 3.62874 131.931 3.63038 131.186 3.63038C131.183 5.69786 131.185 7.7645 131.185 9.83198C130.779 9.83034 130.373 9.83034 129.967 9.83362C129.964 7.7645 129.969 5.69786 129.964 3.63038C129.222 3.63038 128.476 3.62751 127.733 3.63243C127.728 3.30101 127.729 2.9691 127.735 2.6377ZM134.84 2.63934C135.456 2.63934 136.077 2.64098 136.699 2.63934C137.397 4.44037 138.11 6.23648 138.808 8.03751C139.503 6.23935 140.202 4.44366 140.887 2.64262C141.502 2.63933 142.117 2.63769 142.733 2.64262C142.728 5.04017 142.741 7.43771 142.726 9.83526C142.322 9.83101 141.919 9.82992 141.516 9.83198C141.511 7.85934 141.522 5.88669 141.507 3.91611C140.704 5.87561 139.958 7.85934 139.176 9.82869C138.912 9.82869 138.65 9.82869 138.39 9.82705C137.614 7.86549 136.879 5.8867 136.066 3.93992C136.04 5.90436 136.062 7.86714 136.053 9.83157H134.84C134.835 7.43402 134.835 5.03688 134.84 2.63934ZM11.625 10.3061C14.1103 10.1735 16.6844 10.7508 18.7355 12.207C20.5074 13.4497 21.7825 15.3311 22.411 17.3961C23.0814 19.5999 23.168 21.9605 22.8421 24.2329C22.5408 26.1891 21.8018 28.1104 20.525 29.6388C19.1107 31.366 17.0548 32.5044 14.8834 32.9519C12.5421 33.4347 10.0501 33.2725 7.82746 32.3697C5.9829 31.6226 4.37934 30.2916 3.33205 28.5949C2.03967 26.5212 1.55195 24.0293 1.59875 21.6091C1.58562 19.0383 2.20471 16.3829 3.75408 14.2933C5.55471 11.7997 8.60009 10.4281 11.625 10.3061ZM11.3909 15.2154C10.2184 15.3693 9.12804 16.0221 8.46543 17.0066C7.61069 18.2735 7.3463 19.8352 7.2913 21.3365C7.2564 23.0074 7.44237 24.7555 8.2889 26.2277C8.87598 27.2446 9.8978 27.9934 11.0477 28.2274C12.4555 28.5177 14.0385 28.3604 15.2188 27.4819C16.2771 26.6785 16.8445 25.3922 17.1044 24.1175C17.3885 22.6659 17.398 21.1617 17.1619 19.7009C16.9394 18.402 16.4422 17.0722 15.4208 16.192C14.3333 15.238 12.7797 15.0085 11.3909 15.2154ZM32.3247 13.3745C33.9607 11.4676 36.4991 10.2105 39.0396 10.4474C39.0362 12.2422 39.0379 14.0384 39.0379 15.8345C37.4261 15.8488 35.7454 15.9096 34.2621 16.6154C33.6158 16.9507 32.9681 17.4623 32.7308 18.1692C32.7082 22.9754 32.7291 27.7848 32.7192 32.5927C30.779 32.5878 28.8384 32.596 26.8979 32.5878C26.895 25.3458 26.9028 18.1039 26.8933 10.8616C28.7038 10.8452 30.5143 10.855 32.3247 10.855C32.328 11.6938 32.328 12.5341 32.3247 13.3745ZM46.5721 11.0361C48.7882 10.3275 51.1714 10.2696 53.4609 10.5985C55.3872 10.9064 57.387 11.67 58.5947 13.2814C59.5229 14.4727 59.8022 16.0397 59.7012 17.5197C59.7077 22.5427 59.6675 27.5685 59.7299 32.591C58.0319 32.591 56.3335 32.5894 54.6351 32.591C54.4685 31.9626 54.3034 31.3369 54.1383 30.71C52.6513 31.6871 50.9706 32.3714 49.2163 32.6649C47.4572 32.9453 45.5695 32.9872 43.9196 32.2191C42.4794 31.5729 41.3599 30.2834 40.8947 28.7747C40.3225 26.9445 40.4267 24.8327 41.4548 23.1807C42.3751 21.7085 43.8954 20.7384 45.4542 20.0618C48.2155 18.886 51.2066 18.3987 54.1699 18.049C54.1461 17.1589 54.3321 16.1341 53.6937 15.4014C52.7925 14.3766 51.2801 14.3126 50.0182 14.4214C48.2541 14.561 46.623 15.5056 45.5199 16.8752C44.2258 16.1403 42.9286 15.4096 41.644 14.6574C42.8337 12.9508 44.5962 11.6675 46.5721 11.0361ZM48.8974 22.7204C48.0057 23.1088 47.1091 23.6458 46.6087 24.5104C45.937 25.6263 46.0618 27.1724 46.9297 28.149C47.3853 28.6347 48.0471 28.9204 48.7159 28.9027C50.7095 28.9397 52.5585 27.9162 54.0077 26.6144C54 24.9189 54.0098 23.2241 54.0036 21.5307C52.27 21.7503 50.5202 22.0484 48.8974 22.7204ZM74.9202 10.5697C76.7353 10.2249 78.6981 10.2873 80.403 11.062C81.6715 11.6358 82.6322 12.7666 83.0953 14.0737C83.4517 15.0454 83.5925 16.0861 83.6151 17.1191V32.5574C81.7069 32.5574 79.7983 32.5606 77.89 32.5574C77.89 27.7192 77.8917 22.8826 77.8885 18.0444C77.858 17.0932 77.7555 16.0492 77.1125 15.2971C76.461 14.5901 75.4125 14.5372 74.5191 14.6361C72.7456 14.8578 71.2073 15.8776 69.8636 16.9967V32.5574C67.9649 32.5574 66.0694 32.5591 64.1723 32.5574C64.1723 25.5207 64.169 18.4837 64.1723 11.445C65.7582 11.2221 67.3458 11.0024 68.9317 10.7861C69.0828 11.6375 69.2749 12.4844 69.442 13.3343C71.103 12.1347 72.8852 10.9897 74.9202 10.5697ZM89.7941 13.7321C91.1333 11.883 93.2562 10.5857 95.5469 10.4125C97.0205 10.3275 98.535 10.4605 99.9097 11.0234C100.955 11.4466 101.931 12.1667 102.431 13.2046C102.57 12.404 102.728 11.6071 102.852 10.807C104.466 10.7651 106.081 10.7988 107.695 10.7894V32.293C107.662 34.4065 107.194 36.6578 105.698 38.2392C104.028 40.0017 101.555 40.6688 99.214 40.9028C96.5131 41.1627 93.6347 41.0137 91.2133 39.6667C89.6627 38.823 88.4373 37.3315 88.0956 35.5736C89.9784 35.2706 91.8595 34.966 93.7422 34.663C93.8901 35.2181 94.1462 35.7825 94.647 36.1049C95.6505 36.7576 96.903 36.7974 98.0622 36.7814C99.1655 36.7781 100.356 36.4785 101.119 35.6299C101.956 34.6902 102.133 33.3719 102.169 32.1612C102.16 31.2473 102.192 30.3314 102.147 29.4175C101.574 30.3458 100.893 31.2535 99.9246 31.7942C98.5304 32.5878 96.8647 32.6534 95.3063 32.5044C93.1695 32.2798 91.1025 31.2248 89.776 29.5136C88.1039 27.4096 87.5181 24.6467 87.4943 22.0069C87.4384 19.1138 88.0493 16.0943 89.7941 13.7321ZM96.7733 14.5256C95.9321 14.6834 95.1711 15.1271 94.6199 15.7815C93.8338 16.6986 93.4696 17.895 93.303 19.072C93.1264 20.4112 93.1634 21.7693 93.2881 23.1117C93.4421 24.4299 93.7582 25.8315 94.7104 26.8147C95.4201 27.5862 96.4973 27.9117 97.5204 27.8797C98.619 27.9068 99.7577 27.5431 100.54 26.7458C101.4 25.8652 101.801 24.6467 102.004 23.4549C102.185 22.3243 102.234 21.1731 102.189 20.0294C102.093 18.4693 101.639 16.8448 100.522 15.7027C99.573 14.71 98.1135 14.279 96.7733 14.5256ZM113.602 13.5683C115.063 11.7898 117.269 10.7479 119.529 10.4749C122.054 10.1781 124.77 10.4831 126.944 11.8913C128.718 13.0182 129.946 14.8656 130.551 16.8608C131.101 18.7 131.284 20.6501 131.122 22.5632C126.327 22.5616 121.533 22.5649 116.742 22.5616C116.752 24.0161 116.97 25.5396 117.764 26.7873C118.406 27.8025 119.522 28.452 120.7 28.6236C121.918 28.8001 123.218 28.7279 124.332 28.1601C125.322 27.6612 126.085 26.8197 126.712 25.9198C128.109 26.7033 129.51 27.4811 130.914 28.2533C129.627 30.5433 127.249 32.0619 124.722 32.6153C122.14 33.1621 119.359 33.1715 116.881 32.1727C114.953 31.4058 113.358 29.8872 112.43 28.0336C111.232 25.6554 110.986 22.9192 111.155 20.2958C111.33 17.8917 112.031 15.44 113.602 13.5683ZM118.071 15.5471C117.267 16.4421 116.923 17.6561 116.828 18.833C119.741 18.8396 122.653 18.8347 125.566 18.8364C125.535 17.677 125.27 16.4552 124.477 15.5713C123.579 14.5499 122.143 14.1812 120.828 14.279C119.797 14.3414 118.764 14.763 118.071 15.5471Z" fill="white"/>
</g>
</g>
</g>
<defs>
<clipPath id="clip0_122_9855">
<rect width="142.69" height="43" fill="white" transform="translate(0.929688 0.189453)"/>
</clipPath>
<clipPath id="clip1_122_9855">
<rect width="142.69" height="43" fill="white" transform="translate(0.929688 0.189453)"/>
</clipPath>
<clipPath id="clip2_122_9855">
<rect width="142.69" height="39.1698" fill="white" transform="translate(0.929688 2.10449)"/>
</clipPath>
</defs>
</svg>
