<svg width="251" height="44" viewBox="0 0 251 44" fill="none" xmlns="http://www.w3.org/2000/svg">
<g clip-path="url(#clip0_122_9852)">
<g clip-path="url(#clip1_122_9852)">
<g clip-path="url(#clip2_122_9852)">
<path fill-rule="evenodd" clip-rule="evenodd" d="M37.7591 26.0502V17.4523C37.7591 14.7084 39.6945 13.0674 42.3637 13.0674H65.5602C68.2295 13.0674 70.1648 14.7084 70.1648 17.4523V26.0502C70.1648 28.7954 68.2295 30.4338 65.5602 30.4338H42.3637C39.6945 30.4338 37.7591 28.7954 37.7591 26.0502ZM1.36133 13.0687H29.7992C32.5178 13.0687 33.6939 15.6647 33.6939 18.065V20.0736C33.6939 23.1105 31.881 25.3163 28.7216 25.3163H5.33063V30.4338H1.36133V13.0687ZM74.4512 13.0687H103.01C105.042 13.0687 106.905 14.4153 106.905 16.5465V21.0539C106.905 22.9401 105.434 23.943 103.769 24.3852C106.169 25.5121 106.66 28.0095 106.905 30.4338H103.01C102.839 27.8138 101.712 25.3163 98.6999 25.3163H78.4193V30.4338H74.4512V13.0687ZM142.835 13.0687V16.5465H116.433C115.379 16.5465 114.938 17.3057 114.938 18.3101C114.938 19.2651 115.428 20.0004 116.433 20.0004H137.963C141.49 20.0004 143.4 21.6907 143.4 25.291C143.4 28.3039 141.784 30.4338 138.65 30.4338H111.584V26.956H137.964C138.87 26.956 139.263 26.1727 139.263 25.3642C139.263 24.4358 139.069 23.4542 137.964 23.4542H115.6C112.71 23.4542 111.045 21.2257 111.045 18.4579C111.045 15.0041 112.905 13.07 116.434 13.07L142.835 13.0687ZM178.401 13.0687V16.5465H152.339C151.728 16.5465 151.507 17.1339 151.507 17.6494V26.1008C151.507 26.6163 151.826 26.9573 152.339 26.9573H178.401V30.4351H152.339C149.498 30.4351 147.565 28.4757 147.565 25.6093V18.1649C147.565 14.8829 148.96 13.07 152.339 13.07L178.401 13.0687ZM182.661 13.0687H186.654V19.8285H209.704V13.0687H213.794V30.4338H209.704V23.3063H186.654V30.4338H182.661V13.0687ZM217.983 13.0687H250.559V16.5465H221.95V19.9031H250.559V23.3556H221.95V26.956H250.559V30.4338H217.983V13.0687Z" fill="white"/>
<path fill-rule="evenodd" clip-rule="evenodd" d="M44.0315 26.9567H64.1657C65.3897 26.9567 66.3941 26.4186 66.3941 25.0213V18.4826C66.3941 17.0867 65.4151 16.5472 64.1657 16.5472H44.0315C42.782 16.5472 41.7777 17.0867 41.7777 18.4826V25.0213C41.7777 26.4186 42.806 26.9567 44.0315 26.9567ZM5.33203 16.5472V21.8379H27.9638C28.9441 21.8379 29.8006 21.4462 29.8006 20.3434V18.3854C29.8006 17.2345 29.1146 16.5486 27.9638 16.5486L5.33203 16.5472ZM78.4204 16.5472V21.8379H102.032C102.816 21.8379 103.011 21.1759 103.011 20.5152V18.1629C103.011 17.0361 102.596 16.5459 101.444 16.5459L78.4204 16.5472Z" fill="#0045F6"/>
</g>
</g>
</g>
<defs>
<clipPath id="clip0_122_9852">
<rect width="250" height="43" fill="white" transform="translate(0.935547 0.189453)"/>
</clipPath>
<clipPath id="clip1_122_9852">
<rect width="250" height="43" fill="white" transform="translate(0.935547 0.189453)"/>
</clipPath>
<clipPath id="clip2_122_9852">
<rect width="250" height="17.9104" fill="white" transform="translate(0.935547 12.7344)"/>
</clipPath>
</defs>
</svg>
