<svg width="187" height="44" viewBox="0 0 187 44" fill="none" xmlns="http://www.w3.org/2000/svg">
<g clip-path="url(#clip0_122_9850)">
<path fill-rule="evenodd" clip-rule="evenodd" d="M146.543 19.1193C146.543 17.8778 146.489 16.4003 146.405 15.1071H148.77V17.4802C148.955 17.0971 148.889 17.2725 149.146 16.8896C149.394 16.5076 149.703 16.1693 150.084 15.8595C150.486 15.5184 150.998 15.228 151.585 15.0321C152.182 14.846 153.016 14.7193 153.83 14.7193C155.818 14.7394 157.405 15.4083 158.27 16.5767C159.095 17.715 159.561 19.3327 159.561 21.1542V31.7231H157.158V21.6551C157.158 20.1114 156.921 19.0112 156.353 18.1C155.733 17.2297 154.678 16.8496 153.531 16.8438C151.838 16.8338 150.703 17.3866 149.98 18.6086C149.608 19.1885 149.336 19.8171 149.181 20.4905C149.015 21.1941 148.943 21.8305 148.943 22.5556V31.7231H146.543V19.1193ZM173.597 21.8965C173.597 20.5478 173.309 19.3695 172.733 18.3598C172.13 17.3414 171.136 16.8133 169.756 16.7752C168.404 16.8134 167.335 17.3503 166.548 18.3882C165.742 19.4348 165.34 20.6043 165.34 21.8965H173.597ZM175 30.7765C173.48 31.3515 171.824 31.6848 170.211 31.7052C167.562 31.654 165.639 30.8418 164.491 29.2553C163.352 27.6989 162.782 25.6747 162.803 23.1965C162.823 20.6656 163.496 18.6171 164.747 17.0511C165.956 15.4958 167.596 14.7072 169.664 14.6869C171.928 14.729 173.583 15.5268 174.628 17.0823C175.619 18.6065 176.167 20.4941 176.167 22.7433V23.9645H165.317C165.414 25.7644 165.778 26.8569 166.699 27.9932C167.594 29.0964 168.636 29.5662 170.357 29.6227C171.144 29.6488 171.992 29.4814 172.861 29.1929C173.718 28.9074 174.505 28.5673 175.012 28.2651L175 30.7765ZM71.0604 17.156H67.4887V27.2221C67.4887 27.95 67.6535 28.5114 67.9867 29.0075C68.2898 29.5239 68.8629 29.6379 69.3852 29.635C70.3811 29.625 70.8655 29.3905 71.3606 29.1371L71.5194 31.208C71.2876 31.2873 70.7827 31.435 70.3695 31.5354C69.9368 31.6455 69.3657 31.6991 68.8531 31.6991C68.0072 31.6991 67.3026 31.5227 66.8095 31.2303C66.3359 30.937 65.9129 30.5122 65.6712 30.0366C65.4607 29.5415 65.296 28.9003 65.2356 28.2833C65.1753 27.6567 65.1492 26.9356 65.1492 26.2076V17.156H62.0376V15.09H65.1492V11.3205L67.4891 10.4891V15.09H71.0608L71.0604 17.156ZM49.2796 28.0111C50.5436 29.0189 52.2675 29.4487 54.2362 29.4487C55.6191 29.4487 56.6363 29.1377 57.5651 28.4097C58.4734 27.6808 58.8729 26.7121 58.8926 25.2044C58.8724 24.1422 58.4442 23.4191 57.4355 22.7009C56.9804 22.3267 56.4551 21.9738 55.85 21.6406C55.2546 21.3063 54.6532 20.9847 54.0276 20.6612C53.4117 20.3064 52.8085 19.9293 52.2334 19.5346C51.6273 19.1604 51.0621 18.7228 50.5884 18.2676C49.5135 17.3292 48.9951 16.0984 48.9746 14.732C48.9946 12.972 49.6636 11.4965 51.0211 10.4314C52.3026 9.42564 54.0821 8.88676 56.0186 8.86621C56.5829 8.86621 57.2435 8.90439 58.0008 8.98515C58.7668 9.11578 59.7637 9.36037 60.5004 9.64399L60.0736 12.0296C59.023 11.4936 57.5574 11.1214 55.9825 11.1214C55.4269 11.1214 54.9291 11.1676 54.394 11.2684C53.859 11.3894 53.4448 11.559 52.9605 11.8728C52.5258 12.1465 52.2149 12.4497 51.9333 12.9252C51.6399 13.4203 51.5064 13.9455 51.5064 14.6532C51.5064 15.1696 51.6293 15.5496 51.9225 15.9843C52.2052 16.42 52.5502 16.7601 53.0043 17.0943C53.4886 17.4383 54.0013 17.7454 54.5967 18.0592C55.1718 18.3924 55.7545 18.7228 56.3802 19.0766C57.6821 19.6934 58.8769 20.5403 59.8456 21.4914C60.3202 21.9466 60.7315 22.5508 61.0238 23.1774C61.2859 23.7953 61.4185 24.5593 61.4185 25.3682C61.3774 27.5238 60.6204 29.2362 59.0523 30.2429C57.5807 31.1882 55.9094 31.7056 54.125 31.7056C52.0278 31.6554 50.2385 31.3334 49.0262 30.6873L49.2796 28.0111ZM126.639 17.156H123.067V27.2221C123.067 27.95 123.232 28.5114 123.565 29.0075C123.868 29.5239 124.442 29.6379 124.964 29.635C125.96 29.625 126.444 29.3905 126.939 29.1371L127.096 31.208C126.866 31.2873 126.361 31.435 125.948 31.5354C125.515 31.6455 124.944 31.6991 124.431 31.6991C123.586 31.6991 122.881 31.5227 122.388 31.2303C121.914 30.937 121.491 30.5122 121.249 30.0366C121.04 29.5415 120.874 28.9003 120.814 28.2833C120.754 27.6567 120.727 26.9356 120.727 26.2076V17.156H117.616V15.09H120.727V11.3205L123.067 10.4891V15.09H126.639V17.156ZM104.858 28.0111C106.122 29.0189 107.846 29.4487 109.815 29.4487C111.198 29.4487 112.215 29.1377 113.144 28.4097C114.052 27.6808 114.451 26.7121 114.471 25.2044C114.452 24.1422 114.023 23.4191 113.014 22.7009C112.559 22.3267 112.034 21.9738 111.428 21.6406C110.833 21.3063 110.232 20.9847 109.606 20.6612C108.99 20.3064 108.387 19.9293 107.812 19.5346C107.206 19.1604 106.641 18.7228 106.167 18.2676C105.092 17.3292 104.573 16.0984 104.553 14.732C104.573 12.972 105.242 11.4965 106.599 10.4314C107.882 9.42564 109.661 8.88676 111.597 8.86621C112.161 8.86621 112.822 8.90439 113.579 8.98515C114.345 9.11578 115.342 9.36037 116.079 9.64399L115.652 12.0296C114.602 11.4936 113.136 11.1214 111.561 11.1214C111.006 11.1214 110.507 11.1676 109.972 11.2684C109.437 11.3894 109.024 11.559 108.539 11.8728C108.104 12.1465 107.793 12.4497 107.512 12.9252C107.218 13.4203 107.085 13.9455 107.085 14.6532C107.085 15.1696 107.207 15.5496 107.501 15.9843C107.783 16.42 108.128 16.7601 108.582 17.0943C109.067 17.4383 109.58 17.7454 110.175 18.0592C110.75 18.3924 111.333 18.7228 111.959 19.0766C113.261 19.6934 114.455 20.5403 115.424 21.4914C115.898 21.9466 116.31 22.5508 116.602 23.1774C116.864 23.7953 116.997 24.5593 116.997 25.3682C116.956 27.5238 116.199 29.2362 114.631 30.2429C113.159 31.1882 111.487 31.7056 109.704 31.7056C107.606 31.6554 105.817 31.3334 104.605 30.6873L104.858 28.0111ZM130.979 23.205C130.979 25.0293 131.42 26.5341 132.299 27.721C133.141 28.9665 134.394 29.599 136.058 29.6184C137.72 29.5993 138.992 28.9665 139.873 27.721C140.714 26.5341 141.135 25.0293 141.135 23.205C141.135 21.3709 140.714 19.8467 139.873 18.6305C138.992 17.4241 137.72 16.812 136.058 16.7915C134.394 16.8116 133.141 17.4241 132.299 18.6305C131.42 19.8467 130.979 21.3709 130.979 23.205ZM128.486 23.205C128.486 20.8885 129.102 18.9102 130.334 17.269C131.556 15.586 133.46 14.7236 136.049 14.6826C138.679 14.7238 140.61 15.586 141.843 17.269C143.032 18.9102 143.628 20.8885 143.628 23.205C143.628 25.4795 143.032 27.4481 141.843 29.1098C140.61 30.8035 138.679 31.6756 136.049 31.7274C133.46 31.6752 131.556 30.8035 130.334 29.1098C129.102 27.4481 128.486 25.4795 128.486 23.205ZM100.621 23.205C100.621 22.438 100.573 21.672 100.477 20.9051C100.332 20.1391 100.086 19.4559 99.739 18.8555C99.42 18.2075 98.9624 17.7057 98.3647 17.3518C97.7774 16.969 97.0395 16.7769 96.1528 16.7769C95.3238 16.7769 94.6298 16.969 94.0699 17.3518C93.501 17.7455 93.0391 18.266 92.6824 18.9151C92.3257 19.5642 92.0802 20.2472 91.9447 20.9645C91.7712 21.7305 91.6844 22.4779 91.6844 23.205C91.6543 24.6697 91.9875 26.0896 92.6824 27.4657C93.0391 28.104 93.501 28.6157 94.0699 28.9986C94.6298 29.4217 95.3238 29.6331 96.1528 29.6331C97.0395 29.6331 97.7774 29.4217 98.3647 28.9986C98.9624 28.6157 99.42 28.1245 99.739 27.5242C100.086 26.8761 100.332 26.1686 100.477 25.4016C100.572 24.6648 100.621 23.9319 100.621 23.205ZM89.3232 15.085H91.6758L91.5685 17.466C91.7029 17.2399 91.6227 17.4007 91.8696 16.9991C92.1065 16.6385 92.432 16.3179 92.8325 15.9573C93.234 15.5978 93.7225 15.3209 94.309 15.0539C94.8947 14.8171 95.6093 14.6982 96.453 14.6982C98.8171 14.7193 100.583 15.5451 101.633 17.1112C102.639 18.6451 103.164 20.6468 103.164 23.1592C103.164 25.5789 102.631 27.5992 101.542 29.1847C100.421 30.7597 98.7569 31.6914 96.3721 31.6942C94.1903 31.6942 92.7038 30.8659 91.6766 29.1847L91.6666 37.8534H89.3219V15.085H89.3232ZM83.6975 21.9058C83.6975 20.558 83.4101 19.3788 82.8352 18.3701C82.2309 17.3517 81.2388 16.8235 79.8589 16.7865C78.5072 16.8236 77.4381 17.3614 76.6527 18.3983C75.8467 19.4451 75.4442 20.6145 75.4442 21.9058H83.6975ZM85.102 30.7829C83.5807 31.3578 81.9269 31.6911 80.313 31.7116C77.6652 31.6604 75.7434 30.8482 74.5954 29.2616C73.4571 27.7072 72.887 25.6831 72.9085 23.2048C72.9286 20.6758 73.6013 18.6274 74.8517 17.0623C76.0611 15.5069 77.6993 14.7195 79.7663 14.698C82.0302 14.7402 83.6839 15.5381 84.7276 17.0925C85.7208 18.6167 86.2675 20.5034 86.2675 22.7525V23.9737H75.4218C75.5182 25.7717 75.8818 26.8642 76.8027 28.0006C77.6973 29.1037 78.7391 29.5724 80.4602 29.63C81.2456 29.6551 82.0945 29.4886 82.9618 29.1993C83.8195 28.9137 84.6049 28.5736 85.1126 28.2724L85.102 30.7829Z" fill="white"/>
<path fill-rule="evenodd" clip-rule="evenodd" d="M33.5992 18.6459C31.8411 16.6714 30.6815 14.5722 28.82 12.8367C24.8799 9.16266 18.5436 10.0504 15.6774 14.6112C13.4427 18.1674 11.8659 20.9214 10.7004 24.9511C10.3252 26.2492 10.4714 27.5454 10.9879 28.6534C19.6896 27.8211 27.5209 24.1716 33.5992 18.6459ZM12.267 30.3838C13.1411 31.1624 14.2853 31.6604 15.5775 31.7081C16.6007 31.7452 17.6319 31.7473 18.6707 31.7081C23.2618 31.5463 27.6579 30.6703 31.7607 29.1928C35.7368 27.7613 36.9706 22.9393 34.4983 19.6794C28.5935 25.3921 20.8868 29.2738 12.267 30.3818" fill="white"/>
</g>
<defs>
<clipPath id="clip0_122_9850">
<rect width="186.52" height="43" fill="white" transform="translate(0.419922 0.189453)"/>
</clipPath>
</defs>
</svg>
