<svg width="87" height="88" viewBox="0 0 87 88" fill="none" xmlns="http://www.w3.org/2000/svg">
<g clip-path="url(#clip0_113_9219)">
<g clip-path="url(#clip1_113_9219)">
<g clip-path="url(#clip2_113_9219)">
<path d="M43.945 87.1469C67.4233 87.1469 86.4563 67.7548 86.4563 43.8335C86.4563 19.9121 67.4233 0.52002 43.945 0.52002C20.4666 0.52002 1.43359 19.9121 1.43359 43.8335C1.43359 67.7548 20.4666 87.1469 43.945 87.1469Z" fill="white"/>
<path d="M43.945 87.1469C67.4233 87.1469 86.4563 67.7548 86.4563 43.8335C86.4563 19.9121 67.4233 0.52002 43.945 0.52002C20.4666 0.52002 1.43359 19.9121 1.43359 43.8335C1.43359 67.7548 20.4666 87.1469 43.945 87.1469Z" fill="#151515"/>
<path d="M27.4597 26.3252L26.0098 29.8394L32.854 43.2575H50.2287L51.6786 39.7433L45.1293 33.6978L27.4597 26.3252Z" fill="#00CFFF"/>
<path d="M51.6819 39.7433H34.3071L27.4629 26.3252H44.8253L51.6819 39.7433Z" fill="#80DBFF"/>
<path d="M38.566 33.4442H34.3512L32.459 29.8931H36.6736L38.566 33.4442Z" fill="white"/>
<path d="M45.9585 33.4442H41.7438L39.8516 29.8931H44.0539L45.9585 33.4442Z" fill="white"/>
<path d="M53.8911 60.0074H46.8381C41.923 60.0074 36.1233 56.6283 33.9115 52.4751L28.6523 42.645H53.5226L58.7693 52.4751C60.9934 56.6283 58.8062 60.0074 53.8911 60.0074Z" fill="#00CFFF"/>
<path d="M30.2342 38.7446L28.6367 42.6275L33.8958 52.4699L59.3558 57.1268L61.0269 53.0351L30.2342 38.7446Z" fill="#00CFFF"/>
<path d="M55.4673 56.1378H48.4142C43.4992 56.1378 37.6994 52.7588 35.4877 48.6055L30.2285 38.7754H55.1233L60.3702 48.6055C62.5942 52.7588 60.3947 56.1378 55.4673 56.1378Z" fill="#C0F0FF"/>
</g>
</g>
</g>
<defs>
<clipPath id="clip0_113_9219">
<rect width="86" height="87" fill="white" transform="translate(0.945312 0.52002)"/>
</clipPath>
<clipPath id="clip1_113_9219">
<rect width="86" height="87" fill="white" transform="translate(0.945312 0.52002)"/>
</clipPath>
<clipPath id="clip2_113_9219">
<rect width="85.0227" height="87" fill="white" transform="translate(1.43359 0.52002)"/>
</clipPath>
</defs>
</svg>
