<svg width="34" height="40" viewBox="0 0 34 40" fill="none" xmlns="http://www.w3.org/2000/svg">
<path d="M20.8119 11.0688C22.1116 10.5855 23.4573 10.2002 24.7748 10.3364L24.806 10.3394L24.8373 10.3403C27.1352 10.4112 29.3568 11.4641 30.8685 13.1519C28.5652 14.8906 27.1139 17.5962 26.9808 20.4751L26.972 20.7856V20.7983C26.976 24.294 28.9969 27.5356 32.0902 29.1519C31.5075 30.7811 30.7002 32.3254 29.6879 33.7397L29.681 33.7485L29.6752 33.7573C28.8548 34.9663 28.0721 36.0719 27.1869 36.8862C26.3742 37.6338 25.5235 38.0902 24.5316 38.1587L24.3314 38.1675H24.3256C23.2117 38.1928 22.4842 37.8833 21.5551 37.4937C20.6014 37.0937 19.4923 36.6392 17.8011 36.6392C16.1081 36.6392 14.9857 37.0598 14.0121 37.4604C13.1738 37.8054 12.5129 38.1006 11.6342 38.1987L11.2426 38.228C10.2819 38.2616 9.35914 37.7908 8.4115 36.9146C7.69835 36.2551 7.03234 35.4236 6.38513 34.5435L5.74255 33.6509C4.12745 31.3236 2.67756 28.0206 2.06189 24.5815C1.46374 21.2403 1.66906 17.8716 3.15564 15.1519L3.3031 14.8911L3.30994 14.8794C4.75128 12.3277 7.48318 10.6303 10.4437 10.438L10.7308 10.4243C11.832 10.4044 12.9331 10.7717 14.0482 11.2056C14.5826 11.4135 15.1517 11.649 15.6654 11.8228C16.1789 11.9964 16.7361 12.145 17.2787 12.145C17.8316 12.145 18.4333 11.9634 18.9828 11.7681C19.5154 11.5787 20.2164 11.2903 20.8119 11.0688ZM24.0394 1.02881C23.9614 2.73571 23.3239 4.38275 22.2006 5.71143L22.1947 5.71729L22.1908 5.72314C21.123 7.0316 19.5249 7.89103 17.8334 8.09912C17.9181 6.56307 18.4905 5.05749 19.4633 3.84814L19.7015 3.56689V3.56592C20.8428 2.28541 22.364 1.40151 24.0394 1.02881Z" fill="black" stroke="black" stroke-width="1.74228"/>
</svg>
