<svg width="590" height="600" viewBox="0 0 590 600" fill="none" xmlns="http://www.w3.org/2000/svg">
<g clip-path="url(#clip0_7638_5986)">
<rect width="590" height="600" rx="30" fill="#5A6E3B"/>
<path d="M116.719 227.915C116.719 226.97 117.486 226.203 118.431 226.203H120.998V252.731H118.431C117.486 252.731 116.719 251.965 116.719 251.02V227.915Z" fill="#2F3233"/>
<path opacity="0.4" d="M116.719 227.915C116.719 226.97 117.486 226.203 118.431 226.203H120.998V252.731H118.431C117.486 252.731 116.719 251.965 116.719 251.02V227.915Z" fill="url(#paint0_linear_7638_5986)"/>
<path opacity="0.4" d="M116.719 227.915C116.719 226.97 117.486 226.203 118.431 226.203H120.998V252.731H118.431C117.486 252.731 116.719 251.965 116.719 251.02V227.915Z" fill="url(#paint1_linear_7638_5986)"/>
<path opacity="0.4" d="M116.719 227.915C116.719 226.97 117.486 226.203 118.431 226.203H120.998V252.731H118.431C117.486 252.731 116.719 251.965 116.719 251.02V227.915Z" fill="url(#paint2_linear_7638_5986)"/>
<g filter="url(#filter0_f_7638_5986)">
<path d="M117.575 227.487C117.575 227.251 117.766 227.059 118.003 227.059C118.239 227.059 118.43 227.251 118.43 227.487V228.771H117.575V227.487Z" fill="#9E9E9E"/>
</g>
<g filter="url(#filter1_f_7638_5986)">
<path d="M117.575 228.771H118.43V250.592C118.43 250.828 118.239 251.02 118.003 251.02C117.766 251.02 117.575 250.828 117.575 250.592V228.771Z" fill="#8B8B8B" fill-opacity="0.8"/>
</g>
<path d="M116.72 280.115C116.72 279.17 117.486 278.404 118.431 278.404H120.998V333.171H118.431C117.486 333.171 116.72 332.405 116.72 331.46V280.115Z" fill="#2F3233"/>
<path opacity="0.4" d="M116.72 280.115C116.72 279.17 117.486 278.404 118.431 278.404H120.998V333.171H118.431C117.486 333.171 116.72 332.405 116.72 331.46V280.115Z" fill="url(#paint3_linear_7638_5986)"/>
<path opacity="0.4" d="M116.72 280.115C116.72 279.17 117.486 278.404 118.431 278.404H120.998V333.171H118.431C117.486 333.171 116.72 332.405 116.72 331.46V280.115Z" fill="url(#paint4_linear_7638_5986)"/>
<path opacity="0.4" d="M116.72 280.115C116.72 279.17 117.486 278.404 118.431 278.404H120.998V333.171H118.431C117.486 333.171 116.72 332.405 116.72 331.46V280.115Z" fill="url(#paint5_linear_7638_5986)"/>
<g filter="url(#filter2_f_7638_5986)">
<path d="M117.575 280.543C117.575 280.307 117.766 280.115 118.002 280.115C118.239 280.115 118.43 280.307 118.43 280.543V281.827H117.575V280.543Z" fill="#9E9E9E"/>
</g>
<g filter="url(#filter3_f_7638_5986)">
<path d="M117.575 281.827H118.43V331.032C118.43 331.268 118.239 331.46 118.002 331.46C117.766 331.46 117.575 331.268 117.575 331.032V281.827Z" fill="#8B8B8B" fill-opacity="0.8"/>
</g>
<path d="M116.72 348.575C116.72 347.63 117.486 346.864 118.431 346.864H120.998V401.631H118.431C117.486 401.631 116.72 400.865 116.72 399.92V348.575Z" fill="#2F3233"/>
<path opacity="0.4" d="M116.72 348.575C116.72 347.63 117.486 346.864 118.431 346.864H120.998V401.631H118.431C117.486 401.631 116.72 400.865 116.72 399.92V348.575Z" fill="url(#paint6_linear_7638_5986)"/>
<path opacity="0.4" d="M116.72 348.575C116.72 347.63 117.486 346.864 118.431 346.864H120.998V401.631H118.431C117.486 401.631 116.72 400.865 116.72 399.92V348.575Z" fill="url(#paint7_linear_7638_5986)"/>
<path opacity="0.4" d="M116.72 348.575C116.72 347.63 117.486 346.864 118.431 346.864H120.998V401.631H118.431C117.486 401.631 116.72 400.865 116.72 399.92V348.575Z" fill="url(#paint8_linear_7638_5986)"/>
<g filter="url(#filter4_f_7638_5986)">
<path d="M117.575 349.003C117.575 348.766 117.766 348.575 118.002 348.575C118.239 348.575 118.43 348.766 118.43 349.003V350.286H117.575V349.003Z" fill="#9E9E9E"/>
</g>
<g filter="url(#filter5_f_7638_5986)">
<path d="M117.575 350.286H118.43V399.492C118.43 399.728 118.239 399.92 118.002 399.92C117.766 399.92 117.575 399.728 117.575 399.492V350.286Z" fill="#8B8B8B" fill-opacity="0.8"/>
</g>
<path d="M471.852 298.942C471.852 297.996 471.086 297.23 470.141 297.23H467.574V381.949H470.141C471.086 381.949 471.852 381.183 471.852 380.238V298.942Z" fill="#2F3233"/>
<path opacity="0.4" d="M471.852 298.942C471.852 297.996 471.086 297.23 470.141 297.23H467.574V381.949H470.141C471.086 381.949 471.852 381.183 471.852 380.238V298.942Z" fill="url(#paint9_linear_7638_5986)"/>
<path opacity="0.4" d="M471.852 298.942C471.852 297.996 471.086 297.23 470.141 297.23H467.574V381.949H470.141C471.086 381.949 471.852 381.183 471.852 380.238V298.942Z" fill="url(#paint10_linear_7638_5986)"/>
<path opacity="0.4" d="M471.852 298.942C471.852 297.996 471.086 297.23 470.141 297.23H467.574V381.949H470.141C471.086 381.949 471.852 381.183 471.852 380.238V298.942Z" fill="url(#paint11_linear_7638_5986)"/>
<g filter="url(#filter6_f_7638_5986)">
<path d="M470.996 299.37C470.996 299.133 470.805 298.942 470.568 298.942C470.332 298.942 470.141 299.133 470.141 299.37V300.653H470.996V299.37Z" fill="#9E9E9E"/>
</g>
<g filter="url(#filter7_f_7638_5986)">
<path d="M470.996 300.653H470.141V379.81C470.141 380.046 470.332 380.238 470.568 380.238C470.805 380.238 470.996 380.046 470.996 379.81V300.653Z" fill="#8B8B8B" fill-opacity="0.8"/>
</g>
<g clip-path="url(#clip1_7638_5986)">
<rect x="119.285" y="77.3032" width="350" height="721.394" rx="58.1907" fill="#717576"/>
<g filter="url(#filter8_f_7638_5986)">
<rect x="120.569" y="78.5868" width="347.433" height="718.826" rx="56.9071" stroke="#252726" stroke-width="2.56724"/>
</g>
<g filter="url(#filter9_f_7638_5986)">
<rect x="119.713" y="77.7311" width="349.144" height="720.538" rx="57.7628" stroke="#1F2120" stroke-width="0.855746"/>
</g>
<g filter="url(#filter10_f_7638_5986)">
<rect x="123.992" y="82.0099" width="340.587" height="711.125" rx="53.4841" stroke="#313234" stroke-width="0.855746"/>
</g>
<rect x="124.249" y="82.2667" width="340.073" height="710.611" rx="53.2274" stroke="#343537" stroke-width="0.342298"/>
</g>
<g clip-path="url(#clip2_7638_5986)">
<rect x="124.42" y="82.4379" width="339.731" height="710.269" rx="53.0562" fill="#000100"/>
<g filter="url(#filter11_f_7638_5986)">
<rect x="126.132" y="84.1494" width="336.308" height="706.846" rx="51.3447" stroke="url(#paint12_radial_7638_5986)" stroke-width="3.42298"/>
</g>
</g>
<g clip-path="url(#clip3_7638_5986)">
<rect x="135.021" y="93.1816" width="317.019" height="688.554" rx="33.8153" fill="#FAFAFA"/>
<path d="M173.605 111.7C176.624 111.7 179.251 113.847 179.251 118.944V118.964C179.251 123.727 177.104 126.55 173.546 126.55C170.948 126.55 169.007 125.011 168.557 122.845L168.537 122.737H171.027L171.056 122.835C171.429 123.825 172.301 124.472 173.546 124.472C175.79 124.472 176.741 122.277 176.849 119.571C176.849 119.464 176.859 119.356 176.859 119.248H176.663C176.143 120.365 174.908 121.355 172.967 121.355C170.252 121.355 168.351 119.375 168.351 116.69V116.67C168.351 113.798 170.537 111.7 173.605 111.7ZM173.595 119.415C175.193 119.415 176.418 118.258 176.418 116.66V116.641C176.418 115.023 175.193 113.759 173.624 113.759C172.066 113.759 170.821 115.004 170.821 116.582V116.601C170.821 118.238 171.987 119.415 173.595 119.415ZM183.219 117.033C182.327 117.033 181.66 116.346 181.66 115.484C181.66 114.612 182.327 113.935 183.219 113.935C184.121 113.935 184.777 114.612 184.777 115.484C184.777 116.346 184.121 117.033 183.219 117.033ZM183.219 124.306C182.327 124.306 181.66 123.629 181.66 122.757C181.66 121.885 182.327 121.208 183.219 121.208C184.121 121.208 184.777 121.885 184.777 122.757C184.777 123.629 184.121 124.306 183.219 124.306ZM194.049 126.198V123.482H187.128V121.414C188.961 118.228 190.971 114.974 192.892 112.053H196.47V121.395H198.371V123.482H196.47V126.198H194.049ZM189.481 121.453H194.088V114.072H193.941C192.49 116.288 190.853 118.905 189.481 121.306V121.453ZM203.751 126.198V114.543H203.584L200.066 117.033V114.651L203.761 112.053H206.28V126.198H203.751Z" fill="black"/>
<path opacity="0.35" d="M412.186 109.69H426.557C428.178 109.69 429.492 111.004 429.492 112.626V116.852C429.492 118.473 428.178 119.788 426.557 119.788H412.186C410.565 119.788 409.25 118.473 409.25 116.852V112.626C409.25 111.004 410.565 109.69 412.186 109.69Z" stroke="black" stroke-width="0.891953"/>
<path opacity="0.4" d="M430.784 113.471V117.039C431.502 116.736 431.968 116.033 431.968 115.255C431.968 114.476 431.502 113.773 430.784 113.471Z" fill="black"/>
<path d="M410.495 112.625C410.495 111.692 411.252 110.935 412.186 110.935H426.557C427.491 110.935 428.248 111.692 428.248 112.625V116.852C428.248 117.786 427.491 118.543 426.557 118.543H412.186C411.252 118.543 410.495 117.786 410.495 116.852V112.625Z" fill="black"/>
<path d="M393.684 117.77C394.885 116.734 396.643 116.734 397.843 117.77C397.904 117.826 397.938 117.905 397.94 117.988C397.942 118.071 397.91 118.15 397.852 118.208L395.972 120.145C395.917 120.202 395.842 120.234 395.764 120.234C395.686 120.234 395.61 120.202 395.555 120.145L393.675 118.208C393.618 118.15 393.586 118.071 393.588 117.988C393.589 117.905 393.624 117.826 393.684 117.77ZM391.143 115.382C393.729 112.927 397.735 112.927 400.321 115.382C400.379 115.44 400.412 115.519 400.413 115.602C400.414 115.685 400.382 115.765 400.325 115.824L399.238 116.944C399.126 117.058 398.946 117.061 398.831 116.95C397.982 116.165 396.877 115.73 395.731 115.73C394.586 115.73 393.482 116.165 392.633 116.95C392.519 117.061 392.337 117.058 392.225 116.944L391.139 115.824C391.082 115.765 391.051 115.685 391.051 115.602C391.052 115.519 391.085 115.44 391.143 115.382ZM388.605 112.999C392.572 109.119 398.829 109.119 402.796 112.999C402.853 113.057 402.886 113.136 402.886 113.218C402.887 113.3 402.855 113.379 402.798 113.437L401.711 114.558C401.598 114.673 401.416 114.674 401.302 114.561C399.791 113.095 397.786 112.277 395.701 112.277C393.615 112.277 391.61 113.094 390.098 114.561C389.985 114.674 389.803 114.673 389.691 114.558L388.602 113.437C388.546 113.379 388.515 113.3 388.515 113.218C388.516 113.136 388.548 113.057 388.605 112.999Z" fill="black"/>
<path d="M374.989 112.625C374.989 112.158 375.367 111.78 375.834 111.78H376.679C377.146 111.78 377.525 112.158 377.525 112.625V119.388C377.525 119.855 377.146 120.234 376.679 120.234H375.834C375.367 120.234 374.989 119.855 374.989 119.388V112.625Z" fill="black"/>
<path d="M379.216 110.935C379.216 110.468 379.594 110.089 380.061 110.089H380.906C381.373 110.089 381.752 110.468 381.752 110.935V119.388C381.752 119.855 381.373 120.234 380.906 120.234H380.061C379.594 120.234 379.216 119.855 379.216 119.388V110.935Z" fill="black"/>
<path d="M370.762 115.584C370.762 115.117 371.14 114.739 371.607 114.739H372.452C372.919 114.739 373.298 115.117 373.298 115.584V119.388C373.298 119.855 372.919 120.234 372.452 120.234H371.607C371.14 120.234 370.762 119.855 370.762 119.388V115.584Z" fill="black"/>
<path d="M366.535 117.698C366.535 117.231 366.913 116.852 367.38 116.852H368.226C368.692 116.852 369.071 117.231 369.071 117.698V119.388C369.071 119.855 368.692 120.234 368.226 120.234H367.38C366.913 120.234 366.535 119.855 366.535 119.388V117.698Z" fill="black"/>
<path d="M237.626 189.356H239.815C239.974 190.773 241.351 191.704 243.233 191.704C245.036 191.704 246.334 190.773 246.334 189.495C246.334 188.385 245.551 187.721 243.699 187.265L241.846 186.82C239.221 186.186 238.002 184.957 238.002 182.966C238.002 180.499 240.152 178.805 243.203 178.805C246.225 178.805 248.295 180.499 248.365 182.966H246.205C246.076 181.539 244.897 180.677 243.174 180.677C241.45 180.677 240.271 181.549 240.271 182.817C240.271 183.828 241.024 184.422 242.866 184.878L244.442 185.264C247.374 185.958 248.593 187.137 248.593 189.227C248.593 191.902 246.463 193.576 243.074 193.576C239.904 193.576 237.764 191.942 237.626 189.356ZM264.077 182.916L261.224 193.338H258.995L256.805 185.532H256.756L254.586 193.338H252.377L249.514 182.916H251.654L253.556 191.119H253.596L255.765 182.916H257.826L260.005 191.119H260.055L261.957 182.916H264.077ZM268.852 191.823C270.348 191.823 271.517 190.792 271.517 189.435V188.613L268.951 188.771C267.673 188.86 266.95 189.425 266.95 190.317C266.95 191.228 267.703 191.823 268.852 191.823ZM268.258 193.517C266.217 193.517 264.79 192.249 264.79 190.376C264.79 188.553 266.187 187.434 268.664 187.295L271.517 187.127V186.324C271.517 185.165 270.734 184.472 269.427 184.472C268.188 184.472 267.416 185.066 267.227 185.997H265.206C265.325 184.115 266.93 182.728 269.506 182.728C272.032 182.728 273.647 184.066 273.647 186.156V193.338H271.596V191.624H271.547C270.942 192.784 269.625 193.517 268.258 193.517ZM281.156 182.748C283.801 182.748 285.545 184.828 285.545 188.127C285.545 191.426 283.811 193.517 281.196 193.517C279.7 193.517 278.511 192.784 277.917 191.624H277.867V196.786H275.727V182.916H277.798V184.71H277.838C278.452 183.511 279.651 182.748 281.156 182.748ZM280.592 191.704C282.286 191.704 283.346 190.317 283.346 188.127C283.346 185.948 282.286 184.551 280.592 184.551C278.957 184.551 277.857 185.978 277.857 188.127C277.857 190.297 278.947 191.704 280.592 191.704ZM297.612 193.576C293.599 193.576 291.063 190.743 291.063 186.186C291.063 181.658 293.619 178.805 297.612 178.805C300.851 178.805 303.298 180.796 303.675 183.778H301.475C301.079 181.946 299.553 180.747 297.612 180.747C295.016 180.747 293.332 182.877 293.332 186.186C293.332 189.524 294.996 191.634 297.622 191.634C299.613 191.634 301.029 190.614 301.475 188.89H303.685C303.14 191.842 300.901 193.576 297.612 193.576ZM305.428 193.338V182.916H307.469V184.69H307.518C307.865 183.471 308.796 182.748 310.025 182.748C310.332 182.748 310.599 182.798 310.758 182.827V184.818C310.59 184.749 310.213 184.7 309.797 184.7C308.42 184.7 307.568 185.621 307.568 187.097V193.338H305.428ZM313.116 197.222C312.947 197.222 312.403 197.202 312.244 197.172V195.439C312.403 195.478 312.759 195.478 312.938 195.478C313.938 195.478 314.463 195.062 314.79 193.992C314.79 193.972 314.978 193.358 314.978 193.348L311.214 182.916H313.532L316.177 191.397H316.207L318.852 182.916H321.111L317.197 193.883C316.306 196.409 315.285 197.222 313.116 197.222ZM327.798 182.748C330.443 182.748 332.186 184.828 332.186 188.127C332.186 191.426 330.453 193.517 327.837 193.517C326.341 193.517 325.153 192.784 324.558 191.624H324.509V196.786H322.369V182.916H324.439V184.71H324.479C325.093 183.511 326.292 182.748 327.798 182.748ZM327.233 191.704C328.927 191.704 329.987 190.317 329.987 188.127C329.987 185.948 328.927 184.551 327.233 184.551C325.598 184.551 324.499 185.978 324.499 188.127C324.499 190.297 325.589 191.704 327.233 191.704ZM334.465 180.45H336.615V182.916H338.596V184.61H336.615V190.356C336.615 191.258 337.011 191.664 337.883 191.664C338.101 191.664 338.448 191.644 338.586 191.615V193.309C338.349 193.368 337.873 193.408 337.397 193.408C335.287 193.408 334.465 192.605 334.465 190.594V184.61H332.949V182.916H334.465V180.45ZM344.58 193.537C341.598 193.537 339.636 191.486 339.636 188.127C339.636 184.779 341.608 182.728 344.58 182.728C347.552 182.728 349.523 184.779 349.523 188.127C349.523 191.486 347.562 193.537 344.58 193.537ZM344.58 191.773C346.264 191.773 347.344 190.446 347.344 188.127C347.344 185.819 346.254 184.492 344.58 184.492C342.906 184.492 341.816 185.819 341.816 188.127C341.816 190.446 342.906 191.773 344.58 191.773Z" fill="#292D50"/>
<path d="M161.928 149.822H172.218V151.513H161.928L166.463 156.048L165.267 157.243L158.692 150.668L165.267 144.092L166.463 145.288L161.928 149.822Z" fill="black"/>
<path d="M155.652 235.915H156.746C156.826 236.624 157.514 237.089 158.455 237.089C159.357 237.089 160.006 236.624 160.006 235.985C160.006 235.43 159.614 235.098 158.688 234.87L157.762 234.647C156.449 234.33 155.84 233.716 155.84 232.72C155.84 231.487 156.915 230.64 158.44 230.64C159.951 230.64 160.987 231.487 161.021 232.72H159.941C159.877 232.007 159.288 231.576 158.426 231.576C157.564 231.576 156.974 232.012 156.974 232.646C156.974 233.151 157.351 233.449 158.272 233.676L159.06 233.87C160.526 234.216 161.135 234.806 161.135 235.851C161.135 237.188 160.07 238.025 158.376 238.025C156.791 238.025 155.721 237.208 155.652 235.915ZM168.816 232.696L167.39 237.907H166.275L165.181 234.003H165.156L164.071 237.907H162.966L161.535 232.696H162.605L163.556 236.797H163.576L164.661 232.696H165.691L166.781 236.797H166.805L167.756 232.696H168.816ZM171.143 237.149C171.891 237.149 172.476 236.634 172.476 235.955V235.544L171.193 235.623C170.554 235.668 170.192 235.95 170.192 236.396C170.192 236.852 170.569 237.149 171.143 237.149ZM170.846 237.996C169.826 237.996 169.112 237.362 169.112 236.426C169.112 235.514 169.811 234.954 171.049 234.885L172.476 234.801V234.4C172.476 233.82 172.084 233.473 171.43 233.473C170.811 233.473 170.425 233.771 170.331 234.236H169.32C169.38 233.295 170.182 232.602 171.47 232.602C172.733 232.602 173.541 233.27 173.541 234.315V237.907H172.515V237.05H172.49C172.188 237.629 171.53 237.996 170.846 237.996ZM177.234 232.611C178.557 232.611 179.429 233.652 179.429 235.301C179.429 236.951 178.562 237.996 177.254 237.996C176.506 237.996 175.912 237.629 175.615 237.05H175.59V239.63H174.52V232.696H175.555V233.592H175.575C175.882 232.993 176.482 232.611 177.234 232.611ZM176.952 237.089C177.799 237.089 178.329 236.396 178.329 235.301C178.329 234.211 177.799 233.513 176.952 233.513C176.135 233.513 175.585 234.226 175.585 235.301C175.585 236.386 176.13 237.089 176.952 237.089ZM183.433 237.907H182.324V230.759H186.787V231.715H183.433V233.979H186.504V234.915H183.433V237.907ZM187.563 237.907V232.696H188.583V233.582H188.608C188.782 232.973 189.247 232.611 189.861 232.611C190.015 232.611 190.149 232.636 190.228 232.651V233.647C190.144 233.612 189.956 233.587 189.747 233.587C189.059 233.587 188.633 234.048 188.633 234.786V237.907H187.563ZM192.842 238.006C191.351 238.006 190.37 236.98 190.37 235.301C190.37 233.627 191.356 232.602 192.842 232.602C194.328 232.602 195.314 233.627 195.314 235.301C195.314 236.98 194.333 238.006 192.842 238.006ZM192.842 237.124C193.684 237.124 194.224 236.46 194.224 235.301C194.224 234.147 193.679 233.483 192.842 233.483C192.005 233.483 191.46 234.147 191.46 235.301C191.46 236.46 192.005 237.124 192.842 237.124ZM196.08 237.907V232.696H197.1V233.572H197.125C197.358 232.993 197.903 232.606 198.606 232.606C199.329 232.606 199.855 232.978 200.063 233.627H200.087C200.355 232.993 200.969 232.606 201.712 232.606C202.742 232.606 203.416 233.29 203.416 234.325V237.907H202.341V234.583C202.341 233.909 201.98 233.523 201.346 233.523C200.711 233.523 200.271 233.993 200.271 234.652V237.907H199.221V234.504C199.221 233.904 198.839 233.523 198.235 233.523C197.601 233.523 197.15 234.018 197.15 234.687V237.907H196.08ZM205.193 237.961C204.831 237.961 204.544 237.674 204.544 237.312C204.544 236.951 204.831 236.663 205.193 236.663C205.555 236.663 205.842 236.951 205.842 237.312C205.842 237.674 205.555 237.961 205.193 237.961ZM205.193 234.35C204.831 234.35 204.544 234.068 204.544 233.701C204.544 233.34 204.831 233.052 205.193 233.052C205.555 233.052 205.842 233.34 205.842 233.701C205.842 234.068 205.555 234.35 205.193 234.35Z" fill="#0A0D14"/>
<path d="M359.904 237.906H357.205V230.759H359.914C361.138 230.759 361.965 231.472 361.965 232.542C361.965 233.285 361.42 233.978 360.731 234.102V234.142C361.702 234.266 362.326 234.949 362.326 235.9C362.326 237.159 361.425 237.906 359.904 237.906ZM358.096 231.546V233.84H359.434C360.489 233.84 361.063 233.419 361.063 232.646C361.063 231.938 360.578 231.546 359.711 231.546H358.096ZM358.096 237.119H359.77C360.845 237.119 361.41 236.683 361.41 235.856C361.41 235.029 360.826 234.608 359.686 234.608H358.096V237.119ZM364.841 237.263C365.654 237.263 366.278 236.693 366.278 235.95V235.529L364.901 235.613C364.207 235.658 363.811 235.965 363.811 236.45C363.811 236.941 364.222 237.263 364.841 237.263ZM364.648 237.996C363.623 237.996 362.934 237.376 362.934 236.45C362.934 235.568 363.613 235.014 364.802 234.944L366.278 234.86V234.429C366.278 233.8 365.862 233.424 365.148 233.424C364.485 233.424 364.069 233.736 363.96 234.241H363.127C363.187 233.349 363.95 232.666 365.168 232.666C366.377 232.666 367.14 233.32 367.14 234.345V237.906H366.322V237.02H366.303C365.995 237.609 365.342 237.996 364.648 237.996ZM368.218 237.906V230.759H369.08V237.906H368.218ZM371.882 237.263C372.695 237.263 373.319 236.693 373.319 235.95V235.529L371.942 235.613C371.248 235.658 370.852 235.965 370.852 236.45C370.852 236.941 371.263 237.263 371.882 237.263ZM371.689 237.996C370.664 237.996 369.975 237.376 369.975 236.45C369.975 235.568 370.654 235.014 371.843 234.944L373.319 234.86V234.429C373.319 233.8 372.903 233.424 372.189 233.424C371.526 233.424 371.11 233.736 371.001 234.241H370.168C370.228 233.349 370.991 232.666 372.209 232.666C373.418 232.666 374.181 233.32 374.181 234.345V237.906H373.363V237.02H373.344C373.036 237.609 372.383 237.996 371.689 237.996ZM375.214 237.906V232.755H376.027V233.577H376.047C376.334 233.022 376.884 232.666 377.681 232.666C378.811 232.666 379.465 233.394 379.465 234.563V237.906H378.603V234.716C378.603 233.884 378.211 233.429 377.419 233.429C376.606 233.429 376.076 234.003 376.076 234.875V237.906H375.214ZM384.783 234.444H383.941C383.817 233.884 383.381 233.424 382.623 233.424C381.732 233.424 381.127 234.162 381.127 235.331C381.127 236.529 381.742 237.238 382.633 237.238C383.337 237.238 383.797 236.866 383.946 236.247H384.793C384.659 237.272 383.797 237.996 382.628 237.996C381.202 237.996 380.251 236.99 380.251 235.331C380.251 233.706 381.197 232.666 382.618 232.666C383.906 232.666 384.674 233.518 384.783 234.444ZM387.59 233.414C386.783 233.414 386.218 234.033 386.164 234.89H388.962C388.942 234.028 388.403 233.414 387.59 233.414ZM388.942 236.43H389.79C389.641 237.332 388.769 237.996 387.645 237.996C386.169 237.996 385.272 236.97 385.272 235.351C385.272 233.751 386.183 232.666 387.605 232.666C388.997 232.666 389.854 233.676 389.854 235.237V235.564H386.159V235.613C386.159 236.599 386.738 237.248 387.665 237.248C388.318 237.248 388.799 236.916 388.942 236.43ZM391.393 237.956C391.076 237.956 390.828 237.708 390.828 237.391C390.828 237.074 391.076 236.827 391.393 236.827C391.71 236.827 391.958 237.074 391.958 237.391C391.958 237.708 391.71 237.956 391.393 237.956ZM391.393 234.31C391.076 234.31 390.828 234.063 390.828 233.746C390.828 233.429 391.076 233.181 391.393 233.181C391.71 233.181 391.958 233.429 391.958 233.746C391.958 234.063 391.71 234.31 391.393 234.31ZM395.175 232.819C395.175 231.571 396.185 230.64 397.532 230.64C398.81 230.64 399.816 231.507 399.816 232.601C399.816 233.399 399.454 233.993 398.261 235.227L396.453 237.094V237.114H399.935V237.906H395.219V237.292L397.735 234.642C398.696 233.632 398.924 233.25 398.924 232.656C398.924 231.967 398.295 231.418 397.508 231.418C396.671 231.418 396.036 232.022 396.036 232.819V232.824H395.175V232.819ZM401.613 237.956C401.296 237.956 401.048 237.708 401.048 237.391C401.048 237.074 401.296 236.827 401.613 236.827C401.93 236.827 402.177 237.074 402.177 237.391C402.177 237.708 401.93 237.956 401.613 237.956ZM405.975 238.025C404.608 238.025 403.597 237.173 403.523 235.955H404.4C404.479 236.718 405.128 237.243 405.985 237.243C406.956 237.243 407.63 236.569 407.63 235.608C407.63 234.647 406.951 233.959 406 233.959C405.331 233.959 404.762 234.261 404.469 234.761H403.632L404.023 230.759H408.115V231.551H404.757L404.539 233.879H404.558C404.88 233.448 405.475 233.191 406.158 233.191C407.531 233.191 408.521 234.196 408.521 235.583C408.521 237.02 407.466 238.025 405.975 238.025ZM414.225 237.906H411.525V230.759H414.235C415.458 230.759 416.285 231.472 416.285 232.542C416.285 233.285 415.74 233.978 415.052 234.102V234.142C416.023 234.266 416.647 234.949 416.647 235.9C416.647 237.159 415.745 237.906 414.225 237.906ZM412.417 231.546V233.84H413.754C414.809 233.84 415.384 233.419 415.384 232.646C415.384 231.938 414.898 231.546 414.031 231.546H412.417ZM412.417 237.119H414.091C415.166 237.119 415.731 236.683 415.731 235.856C415.731 235.029 415.146 234.608 414.007 234.608H412.417V237.119ZM420.296 237.906H419.405V231.561H417.151V230.759H422.55V231.561H420.296V237.906ZM425.927 238.025C423.955 238.025 422.707 236.594 422.707 234.33C422.707 232.086 423.97 230.64 425.927 230.64C427.482 230.64 428.666 231.586 428.894 233.013H427.992C427.764 232.076 426.947 231.462 425.927 231.462C424.53 231.462 423.623 232.591 423.623 234.33C423.623 236.084 424.52 237.203 425.932 237.203C426.982 237.203 427.735 236.698 427.992 235.826H428.894C428.567 237.238 427.507 238.025 425.927 238.025Z" fill="#525866"/>
<g filter="url(#filter12_d_7638_5986)">
<rect x="155.31" y="246.288" width="276.44" height="50.723" rx="8.45384" fill="white"/>
<rect x="155.733" y="246.711" width="275.595" height="49.8776" rx="8.03115" stroke="#E2E4E9" stroke-width="0.845384"/>
<rect x="165.877" y="255.259" width="90.4007" height="32.7824" rx="6.34038" fill="#F7F7F7"/>
<rect x="165.877" y="255.259" width="90.4007" height="32.7824" rx="6.34038" stroke="#E2E4E9" stroke-width="0.845384"/>
<g clip-path="url(#clip4_7638_5986)">
<path d="M188.92 273.285C188.017 276.908 184.347 279.113 180.724 278.21C177.102 277.307 174.897 273.637 175.8 270.014C176.703 266.39 180.373 264.185 183.995 265.088C187.619 265.992 189.823 269.662 188.92 273.285L188.92 273.285H188.92Z" fill="#F7931A"/>
<path d="M185.342 270.686C185.477 269.786 184.792 269.302 183.855 268.979L184.159 267.76L183.417 267.575L183.121 268.762C182.926 268.713 182.725 268.668 182.526 268.622L182.824 267.427L182.083 267.242L181.778 268.461C181.617 268.424 181.458 268.388 181.305 268.35L181.305 268.346L180.282 268.09L180.085 268.883C180.085 268.883 180.635 269.009 180.624 269.017C180.924 269.092 180.978 269.291 180.969 269.449L180.623 270.837C180.644 270.843 180.671 270.85 180.7 270.862C180.676 270.856 180.649 270.849 180.622 270.843L180.137 272.788C180.1 272.88 180.007 273.017 179.797 272.965C179.804 272.976 179.257 272.83 179.257 272.83L178.889 273.68L179.854 273.92C180.034 273.965 180.21 274.013 180.384 274.057L180.076 275.29L180.818 275.475L181.122 274.255C181.324 274.31 181.521 274.361 181.713 274.408L181.41 275.623L182.152 275.808L182.459 274.577C183.725 274.816 184.676 274.72 185.077 273.575C185.4 272.654 185.061 272.122 184.395 271.775C184.88 271.664 185.245 271.345 185.343 270.686L185.342 270.686L185.342 270.686ZM183.647 273.063C183.417 273.985 181.866 273.487 181.363 273.362L181.77 271.728C182.273 271.854 183.887 272.102 183.647 273.063H183.647ZM183.876 270.672C183.667 271.511 182.376 271.085 181.957 270.98L182.326 269.499C182.745 269.603 184.094 269.798 183.876 270.672H183.876Z" fill="white"/>
</g>
<path d="M200.5 275.65H197.154V267.311H200.483C201.962 267.311 202.933 268.131 202.933 269.391C202.933 270.275 202.28 271.067 201.448 271.206V271.252C202.58 271.379 203.343 272.182 203.343 273.292C203.343 274.76 202.274 275.65 200.5 275.65ZM198.448 268.368V270.859H199.899C201.02 270.859 201.638 270.397 201.638 269.57C201.638 268.796 201.107 268.368 200.17 268.368H198.448ZM198.448 274.592H200.234C201.401 274.592 202.02 274.113 202.02 273.211C202.02 272.31 201.384 271.847 200.159 271.847H198.448V274.592ZM207.822 275.65H206.527V268.426H203.973V267.311H210.37V268.426H207.822V275.65ZM214.45 275.788C212.11 275.788 210.63 274.136 210.63 271.477C210.63 268.836 212.121 267.172 214.45 267.172C216.34 267.172 217.767 268.334 217.987 270.073H216.704C216.473 269.004 215.583 268.305 214.45 268.305C212.936 268.305 211.954 269.547 211.954 271.477C211.954 273.425 212.925 274.656 214.456 274.656C215.618 274.656 216.444 274.061 216.704 273.055H217.993C217.675 274.777 216.369 275.788 214.45 275.788Z" fill="#0A0D14"/>
<path d="M236.104 272.546L231.919 268.362L230.724 269.557L236.104 274.937L241.484 269.557L240.288 268.362L236.104 272.546Z" fill="#868C98"/>
<path d="M266.266 276.15V268.914H266.243L264.036 270.504V269.406L266.255 267.811H267.272V276.15H266.266Z" fill="#0A0D14"/>
<rect x="377.43" y="258.309" width="45.4438" height="26.6808" rx="6.34038" fill="#DE811D"/>
<rect x="377.43" y="258.309" width="45.4438" height="26.6808" rx="6.34038" stroke="#DE811D" stroke-width="0.845384"/>
<path d="M396.719 275.65H395.534V269.512H395.494L392.98 275.586H392.021L389.501 269.512H389.461V275.65H388.282V267.311H389.779L392.477 273.893H392.524L395.217 267.311H396.719V275.65ZM403.689 275.65L402.926 273.396H399.747L398.984 275.65H397.638L400.649 267.311H402.047L405.058 275.65H403.689ZM401.319 268.698L400.077 272.356H402.596L401.354 268.698H401.319ZM405.312 275.65L408.081 271.472V271.431L405.341 267.311H406.884L408.942 270.535H408.988L411.068 267.311H412.53L409.705 271.477V271.512L412.478 275.65H410.964L408.89 272.471H408.849L406.746 275.65H405.312Z" fill="white"/>
</g>
<g filter="url(#filter13_d_7638_5986)">
<circle cx="293.53" cy="320.682" r="16.485" fill="white" stroke="#E2E4E9" stroke-width="0.845384"/>
<g clip-path="url(#clip5_7638_5986)">
<path fill-rule="evenodd" clip-rule="evenodd" d="M292.464 327.326C292.548 327.4 292.658 327.437 292.77 327.43C292.882 327.423 292.986 327.372 293.06 327.287L299.641 319.798L299.883 323.552C299.89 323.664 299.941 323.768 300.026 323.842C300.11 323.917 300.22 323.954 300.332 323.947C300.444 323.94 300.549 323.888 300.623 323.804C300.697 323.72 300.735 323.609 300.727 323.497L300.419 318.725C300.415 318.67 300.401 318.615 300.376 318.565C300.352 318.515 300.318 318.471 300.276 318.434C300.234 318.397 300.186 318.369 300.133 318.351C300.08 318.334 300.025 318.326 299.969 318.33L295.197 318.638C295.085 318.646 294.98 318.697 294.906 318.781C294.832 318.866 294.795 318.976 294.802 319.088C294.809 319.2 294.861 319.304 294.945 319.379C295.029 319.453 295.14 319.49 295.252 319.483L299.006 319.24L292.425 326.729C292.351 326.814 292.314 326.924 292.321 327.036C292.328 327.147 292.38 327.252 292.464 327.326ZM295.83 314.529C295.914 314.603 295.966 314.707 295.973 314.819C295.98 314.931 295.943 315.041 295.869 315.125L289.288 322.615L293.042 322.372C293.154 322.364 293.264 322.402 293.349 322.476C293.433 322.55 293.485 322.655 293.492 322.767C293.499 322.879 293.461 322.989 293.387 323.073C293.313 323.158 293.209 323.209 293.097 323.216L288.325 323.525C288.269 323.528 288.213 323.521 288.161 323.503C288.108 323.485 288.059 323.457 288.018 323.42C287.976 323.384 287.942 323.339 287.917 323.289C287.893 323.239 287.878 323.185 287.875 323.13L287.567 318.357C287.559 318.245 287.597 318.135 287.671 318.051C287.745 317.966 287.85 317.915 287.962 317.908C288.074 317.901 288.184 317.938 288.268 318.012C288.353 318.086 288.404 318.191 288.411 318.303L288.653 322.057L295.234 314.567C295.308 314.483 295.412 314.432 295.524 314.425C295.636 314.417 295.746 314.455 295.83 314.529Z" fill="#292D50"/>
</g>
</g>
<path d="M155.652 354.361H156.746C156.826 355.07 157.514 355.535 158.455 355.535C159.357 355.535 160.006 355.07 160.006 354.431C160.006 353.876 159.614 353.544 158.688 353.316L157.762 353.093C156.449 352.776 155.84 352.162 155.84 351.166C155.84 349.933 156.915 349.086 158.44 349.086C159.951 349.086 160.987 349.933 161.021 351.166H159.941C159.877 350.453 159.288 350.022 158.426 350.022C157.564 350.022 156.974 350.458 156.974 351.092C156.974 351.597 157.351 351.895 158.272 352.122L159.06 352.316C160.526 352.662 161.135 353.252 161.135 354.297C161.135 355.634 160.07 356.472 158.376 356.472C156.791 356.472 155.721 355.654 155.652 354.361ZM168.816 351.142L167.39 356.353H166.275L165.181 352.449H165.156L164.071 356.353H162.966L161.535 351.142H162.605L163.556 355.243H163.576L164.661 351.142H165.691L166.781 355.243H166.805L167.756 351.142H168.816ZM171.143 355.595C171.891 355.595 172.476 355.08 172.476 354.401V353.99L171.193 354.069C170.554 354.114 170.192 354.396 170.192 354.842C170.192 355.298 170.569 355.595 171.143 355.595ZM170.846 356.442C169.826 356.442 169.112 355.808 169.112 354.872C169.112 353.96 169.811 353.4 171.049 353.331L172.476 353.247V352.846C172.476 352.266 172.084 351.919 171.43 351.919C170.811 351.919 170.425 352.217 170.331 352.682H169.32C169.38 351.741 170.182 351.048 171.47 351.048C172.733 351.048 173.541 351.716 173.541 352.761V356.353H172.515V355.496H172.49C172.188 356.075 171.53 356.442 170.846 356.442ZM177.234 351.057C178.557 351.057 179.429 352.098 179.429 353.747C179.429 355.397 178.562 356.442 177.254 356.442C176.506 356.442 175.912 356.075 175.615 355.496H175.59V358.076H174.52V351.142H175.555V352.038H175.575C175.882 351.439 176.482 351.057 177.234 351.057ZM176.952 355.535C177.799 355.535 178.329 354.842 178.329 353.747C178.329 352.657 177.799 351.959 176.952 351.959C176.135 351.959 175.585 352.672 175.585 353.747C175.585 354.832 176.13 355.535 176.952 355.535ZM185.207 356.353H184.097V350.161H181.908V349.205H187.391V350.161H185.207V356.353ZM189.069 356.452C187.578 356.452 186.597 355.426 186.597 353.747C186.597 352.073 187.583 351.048 189.069 351.048C190.555 351.048 191.541 352.073 191.541 353.747C191.541 355.426 190.56 356.452 189.069 356.452ZM189.069 355.57C189.911 355.57 190.451 354.906 190.451 353.747C190.451 352.593 189.906 351.929 189.069 351.929C188.232 351.929 187.687 352.593 187.687 353.747C187.687 354.906 188.232 355.57 189.069 355.57ZM193.109 356.407C192.748 356.407 192.461 356.12 192.461 355.758C192.461 355.397 192.748 355.109 193.109 355.109C193.471 355.109 193.758 355.397 193.758 355.758C193.758 356.12 193.471 356.407 193.109 356.407ZM193.109 352.796C192.748 352.796 192.461 352.514 192.461 352.147C192.461 351.786 192.748 351.498 193.109 351.498C193.471 351.498 193.758 351.786 193.758 352.147C193.758 352.514 193.471 352.796 193.109 352.796Z" fill="#0A0D14"/>
<path d="M351.45 356.353H348.751V349.205H351.46C352.684 349.205 353.511 349.918 353.511 350.988C353.511 351.731 352.966 352.425 352.278 352.548V352.588C353.249 352.712 353.873 353.395 353.873 354.347C353.873 355.605 352.971 356.353 351.45 356.353ZM349.642 349.992V352.286H350.98C352.035 352.286 352.61 351.865 352.61 351.092C352.61 350.384 352.124 349.992 351.257 349.992H349.642ZM349.642 355.565H351.317C352.392 355.565 352.956 355.129 352.956 354.302C352.956 353.475 352.372 353.054 351.233 353.054H349.642V355.565ZM356.388 355.709C357.2 355.709 357.824 355.139 357.824 354.396V353.975L356.447 354.059C355.754 354.104 355.357 354.411 355.357 354.896C355.357 355.387 355.768 355.709 356.388 355.709ZM356.194 356.442C355.169 356.442 354.481 355.823 354.481 354.896C354.481 354.015 355.159 353.46 356.348 353.391L357.824 353.306V352.875C357.824 352.246 357.408 351.87 356.695 351.87C356.031 351.87 355.615 352.182 355.506 352.687H354.674C354.733 351.796 355.496 351.112 356.715 351.112C357.923 351.112 358.686 351.766 358.686 352.791V356.353H357.869V355.466H357.849C357.542 356.055 356.888 356.442 356.194 356.442ZM359.764 356.353V349.205H360.626V356.353H359.764ZM363.429 355.709C364.241 355.709 364.865 355.139 364.865 354.396V353.975L363.488 354.059C362.794 354.104 362.398 354.411 362.398 354.896C362.398 355.387 362.809 355.709 363.429 355.709ZM363.235 356.442C362.21 356.442 361.521 355.823 361.521 354.896C361.521 354.015 362.2 353.46 363.389 353.391L364.865 353.306V352.875C364.865 352.246 364.449 351.87 363.736 351.87C363.072 351.87 362.656 352.182 362.547 352.687H361.715C361.774 351.796 362.537 351.112 363.755 351.112C364.964 351.112 365.727 351.766 365.727 352.791V356.353H364.91V355.466H364.89C364.583 356.055 363.929 356.442 363.235 356.442ZM366.761 356.353V351.201H367.573V352.023H367.593C367.88 351.469 368.43 351.112 369.228 351.112C370.357 351.112 371.011 351.84 371.011 353.009V356.353H370.149V353.163C370.149 352.33 369.758 351.875 368.965 351.875C368.153 351.875 367.623 352.449 367.623 353.321V356.353H366.761ZM376.329 352.89H375.487C375.363 352.33 374.927 351.87 374.17 351.87C373.278 351.87 372.674 352.608 372.674 353.777C372.674 354.976 373.288 355.684 374.18 355.684C374.883 355.684 375.344 355.312 375.492 354.693H376.339C376.205 355.719 375.344 356.442 374.175 356.442C372.748 356.442 371.797 355.436 371.797 353.777C371.797 352.152 372.743 351.112 374.165 351.112C375.453 351.112 376.22 351.964 376.329 352.89ZM379.136 351.86C378.329 351.86 377.764 352.479 377.71 353.336H380.509C380.489 352.474 379.949 351.86 379.136 351.86ZM380.489 354.877H381.336C381.187 355.778 380.315 356.442 379.191 356.442C377.715 356.442 376.818 355.416 376.818 353.797C376.818 352.197 377.73 351.112 379.151 351.112C380.543 351.112 381.4 352.122 381.4 353.683V354.01H377.705V354.059C377.705 355.045 378.284 355.694 379.211 355.694C379.865 355.694 380.345 355.362 380.489 354.877ZM382.939 356.402C382.622 356.402 382.375 356.155 382.375 355.838C382.375 355.52 382.622 355.273 382.939 355.273C383.256 355.273 383.504 355.52 383.504 355.838C383.504 356.155 383.256 356.402 382.939 356.402ZM382.939 352.756C382.622 352.756 382.375 352.509 382.375 352.192C382.375 351.875 382.622 351.627 382.939 351.627C383.256 351.627 383.504 351.875 383.504 352.192C383.504 352.509 383.256 352.756 382.939 352.756ZM389.222 356.472C387.855 356.472 386.845 355.62 386.77 354.401H387.647C387.726 355.164 388.375 355.689 389.232 355.689C390.203 355.689 390.877 355.015 390.877 354.054C390.877 353.093 390.198 352.405 389.247 352.405C388.578 352.405 388.009 352.707 387.716 353.207H386.879L387.271 349.205H391.362V349.997H388.004L387.786 352.326H387.806C388.128 351.895 388.722 351.637 389.406 351.637C390.778 351.637 391.768 352.643 391.768 354.03C391.768 355.466 390.713 356.472 389.222 356.472ZM395.14 356.472C393.471 356.472 392.505 355.035 392.505 352.776C392.505 350.537 393.481 349.086 395.14 349.086C396.8 349.086 397.766 350.527 397.766 352.771C397.766 355.03 396.805 356.472 395.14 356.472ZM395.14 355.694C396.255 355.694 396.869 354.56 396.869 352.776C396.869 351.018 396.245 349.869 395.14 349.869C394.036 349.869 393.402 351.028 393.402 352.771C393.402 354.555 394.021 355.694 395.14 355.694ZM401.232 356.472C399.562 356.472 398.596 355.035 398.596 352.776C398.596 350.537 399.572 349.086 401.232 349.086C402.891 349.086 403.857 350.527 403.857 352.771C403.857 355.03 402.896 356.472 401.232 356.472ZM401.232 355.694C402.346 355.694 402.96 354.56 402.96 352.776C402.96 351.018 402.336 349.869 401.232 349.869C400.127 349.869 399.493 351.028 399.493 352.771C399.493 354.555 400.112 355.694 401.232 355.694ZM407.846 349.205V353.787C407.846 354.867 408.555 355.649 409.793 355.649C411.031 355.649 411.74 354.867 411.74 353.787V349.205H412.631V353.846C412.631 355.372 411.566 356.472 409.793 356.472C408.02 356.472 406.955 355.372 406.955 353.846V349.205H407.846ZM413.616 354.386H414.512C414.597 355.159 415.33 355.669 416.35 355.669C417.316 355.669 418.019 355.159 418.019 354.456C418.019 353.851 417.598 353.48 416.637 353.232L415.721 352.994C414.403 352.657 413.819 352.078 413.819 351.107C413.819 349.918 414.859 349.086 416.345 349.086C417.767 349.086 418.797 349.928 418.837 351.127H417.945C417.866 350.359 417.247 349.888 416.315 349.888C415.389 349.888 414.745 350.369 414.745 351.067C414.745 351.607 415.141 351.929 416.112 352.182L416.86 352.38C418.341 352.752 418.941 353.321 418.941 354.347C418.941 355.654 417.91 356.472 416.266 356.472C414.75 356.472 413.7 355.649 413.616 354.386ZM419.92 349.205H422.322C424.442 349.205 425.696 350.527 425.696 352.776C425.696 355.03 424.447 356.353 422.322 356.353H419.92V349.205ZM420.812 350.007V355.55H422.263C423.883 355.55 424.784 354.56 424.784 352.786C424.784 350.998 423.888 350.007 422.263 350.007H420.812ZM428.998 356.353H428.107V350.007H425.853V349.205H431.252V350.007H428.998V356.353Z" fill="#868C98"/>
<g filter="url(#filter14_d_7638_5986)">
<rect x="155.31" y="364.734" width="276.44" height="50.723" rx="8.45384" fill="white"/>
<rect x="155.733" y="365.157" width="275.595" height="49.8776" rx="8.03115" stroke="#E2E4E9" stroke-width="0.845384"/>
<rect x="165.877" y="373.704" width="98.4007" height="32.7824" rx="6.34038" fill="#F7F7F7"/>
<rect x="165.877" y="373.704" width="98.4007" height="32.7824" rx="6.34038" stroke="#E2E4E9" stroke-width="0.845384"/>
<g clip-path="url(#clip6_7638_5986)">
<path d="M182.362 383.333C186.097 383.333 189.125 386.361 189.125 390.096C189.125 393.831 186.096 396.859 182.362 396.859C178.627 396.859 175.599 393.831 175.599 390.096C175.599 386.36 178.626 383.333 182.362 383.333Z" fill="#53AE94"/>
<path d="M183.196 389.195V388.189H185.497V386.656H179.232V388.189H181.533V389.194C179.663 389.28 178.257 389.65 178.257 390.094C178.257 390.537 179.664 390.908 181.533 390.994V394.217H183.197V390.994C185.063 390.908 186.467 390.538 186.467 390.094C186.467 389.651 185.063 389.281 183.197 389.195M183.197 390.721V390.72C183.15 390.723 182.909 390.738 182.372 390.738C181.942 390.738 181.64 390.725 181.534 390.72V390.721C179.882 390.648 178.649 390.36 178.649 390.016C178.649 389.672 179.882 389.385 181.534 389.311V390.435C181.642 390.442 181.951 390.46 182.379 390.46C182.892 390.46 183.15 390.439 183.197 390.435V389.311C184.846 389.385 186.076 389.673 186.076 390.016C186.076 390.359 184.845 390.647 183.197 390.72" fill="white"/>
</g>
<path d="M198.414 385.756V391.056C198.414 392.246 199.166 393.084 200.495 393.084C201.824 393.084 202.581 392.246 202.581 391.056V385.756H203.87V391.166C203.87 392.963 202.587 394.234 200.495 394.234C198.403 394.234 197.12 392.963 197.12 391.166V385.756H198.414ZM205.037 391.772H206.314C206.407 392.599 207.21 393.142 208.308 393.142C209.36 393.142 210.117 392.599 210.117 391.853C210.117 391.206 209.66 390.819 208.58 390.553L207.499 390.293C205.968 389.923 205.257 389.207 205.257 388.045C205.257 386.606 206.511 385.618 208.291 385.618C210.053 385.618 211.261 386.606 211.302 388.045H210.042C209.967 387.213 209.279 386.71 208.273 386.71C207.268 386.71 206.58 387.219 206.58 387.958C206.58 388.548 207.019 388.894 208.094 389.16L209.013 389.386C210.724 389.79 211.435 390.478 211.435 391.697C211.435 393.258 210.192 394.234 208.216 394.234C206.366 394.234 205.118 393.281 205.037 391.772ZM212.596 385.756H215.538C218.017 385.756 219.485 387.282 219.485 389.912C219.485 392.547 218.023 394.096 215.538 394.096H212.596V385.756ZM213.891 386.872V392.974H215.416C217.185 392.974 218.161 391.894 218.161 389.923C218.161 387.958 217.179 386.872 215.416 386.872H213.891ZM223.588 394.096H222.293V386.872H219.739V385.756H226.136V386.872H223.588V394.096Z" fill="#0A0D14"/>
<path d="M244.104 390.992L239.919 386.808L238.724 388.003L244.104 393.383L249.484 388.003L248.288 386.808L244.104 390.992Z" fill="#868C98"/>
<path d="M275.006 394.734C273.244 394.734 271.984 393.735 271.984 392.342C271.984 391.302 272.7 390.446 273.775 390.198V390.175C272.874 389.897 272.313 389.187 272.313 388.308C272.313 387.048 273.457 386.118 275.006 386.118C276.566 386.118 277.693 387.043 277.693 388.314C277.693 389.181 277.144 389.886 276.237 390.175V390.198C277.318 390.452 278.034 391.307 278.034 392.342C278.034 393.74 276.775 394.734 275.006 394.734ZM275.006 393.827C276.156 393.827 276.971 393.174 276.971 392.267C276.971 391.348 276.156 390.701 275.006 390.701C273.862 390.701 273.041 391.354 273.041 392.267C273.041 393.174 273.862 393.827 275.006 393.827ZM275.006 389.788C275.977 389.788 276.665 389.215 276.665 388.406C276.665 387.586 275.983 387.014 275.006 387.014C274.029 387.014 273.348 387.592 273.348 388.406C273.348 389.215 274.029 389.788 275.006 389.788ZM282.155 394.734C280.207 394.734 279.08 393.058 279.08 390.423C279.08 387.811 280.219 386.118 282.155 386.118C284.091 386.118 285.218 387.8 285.218 390.417C285.218 393.053 284.096 394.734 282.155 394.734ZM282.155 393.827C283.455 393.827 284.172 392.504 284.172 390.423C284.172 388.372 283.443 387.031 282.155 387.031C280.866 387.031 280.126 388.383 280.126 390.417C280.126 392.498 280.849 393.827 282.155 393.827ZM286.847 396.254H286.009L286.57 393.313H287.639L286.847 396.254ZM292.106 394.734C290.159 394.734 289.032 393.058 289.032 390.423C289.032 387.811 290.17 386.118 292.106 386.118C294.042 386.118 295.169 387.8 295.169 390.417C295.169 393.053 294.048 394.734 292.106 394.734ZM292.106 393.827C293.406 393.827 294.123 392.504 294.123 390.423C294.123 388.372 293.395 387.031 292.106 387.031C290.817 387.031 290.078 388.383 290.078 390.417C290.078 392.498 290.8 393.827 292.106 393.827ZM299.284 394.734C297.336 394.734 296.209 393.058 296.209 390.423C296.209 387.811 297.348 386.118 299.284 386.118C301.22 386.118 302.347 387.8 302.347 390.417C302.347 393.053 301.225 394.734 299.284 394.734ZM299.284 393.827C300.584 393.827 301.301 392.504 301.301 390.423C301.301 388.372 300.572 387.031 299.284 387.031C297.995 387.031 297.255 388.383 297.255 390.417C297.255 392.498 297.978 393.827 299.284 393.827ZM306.461 394.734C304.514 394.734 303.387 393.058 303.387 390.423C303.387 387.811 304.525 386.118 306.461 386.118C308.397 386.118 309.524 387.8 309.524 390.417C309.524 393.053 308.403 394.734 306.461 394.734ZM306.461 393.827C307.761 393.827 308.478 392.504 308.478 390.423C308.478 388.372 307.75 387.031 306.461 387.031C305.172 387.031 304.433 388.383 304.433 390.417C304.433 392.498 305.155 393.827 306.461 393.827Z" fill="#0A0D14"/>
</g>
<path d="M160.032 502.512H158.553V494.256H155.634V492.981H162.945V494.256H160.032V502.512ZM162.687 502.512V495.564H164.048V496.746H164.081C164.312 495.934 164.933 495.451 165.752 495.451C165.956 495.451 166.135 495.484 166.24 495.504V496.832C166.128 496.786 165.877 496.753 165.6 496.753C164.682 496.753 164.114 497.367 164.114 498.351V502.512H162.687ZM169.411 501.501C170.408 501.501 171.187 500.814 171.187 499.91V499.361L169.477 499.467C168.625 499.526 168.143 499.903 168.143 500.497C168.143 501.105 168.645 501.501 169.411 501.501ZM169.014 502.631C167.654 502.631 166.703 501.785 166.703 500.537C166.703 499.322 167.634 498.575 169.285 498.483L171.187 498.371V497.836C171.187 497.063 170.666 496.601 169.794 496.601C168.968 496.601 168.453 496.997 168.328 497.618H166.98C167.059 496.363 168.129 495.438 169.847 495.438C171.531 495.438 172.607 496.33 172.607 497.723V502.512H171.24V501.369H171.207C170.804 502.142 169.926 502.631 169.014 502.631ZM173.994 502.512V495.564H175.355V496.726H175.388C175.764 495.934 176.504 495.445 177.574 495.445C179.106 495.445 179.985 496.422 179.985 498.014V502.512H178.551V498.291C178.551 497.248 178.063 496.673 177.072 496.673C176.068 496.673 175.421 497.387 175.421 498.463V502.512H173.994ZM181.239 497.532C181.239 496.29 182.336 495.438 183.961 495.438C185.506 495.438 186.589 496.303 186.635 497.538H185.295C185.229 496.911 184.72 496.521 183.921 496.521C183.148 496.521 182.633 496.898 182.633 497.446C182.633 497.875 182.976 498.166 183.696 498.344L184.865 498.615C186.266 498.952 186.794 499.48 186.794 500.504C186.794 501.772 185.612 502.644 183.908 502.644C182.263 502.644 181.173 501.792 181.061 500.517H182.474C182.587 501.184 183.102 501.554 183.974 501.554C184.832 501.554 185.361 501.197 185.361 500.636C185.361 500.194 185.097 499.949 184.37 499.764L183.128 499.46C181.873 499.157 181.239 498.503 181.239 497.532ZM190.334 501.501C191.331 501.501 192.111 500.814 192.111 499.91V499.361L190.4 499.467C189.548 499.526 189.066 499.903 189.066 500.497C189.066 501.105 189.568 501.501 190.334 501.501ZM189.938 502.631C188.577 502.631 187.626 501.785 187.626 500.537C187.626 499.322 188.557 498.575 190.208 498.483L192.111 498.371V497.836C192.111 497.063 191.589 496.601 190.717 496.601C189.891 496.601 189.376 496.997 189.251 497.618H187.903C187.983 496.363 189.053 495.438 190.77 495.438C192.454 495.438 193.531 496.33 193.531 497.723V502.512H192.163V501.369H192.13C191.727 502.142 190.849 502.631 189.938 502.631ZM200.881 497.955H199.521C199.376 497.215 198.821 496.627 197.89 496.627C196.787 496.627 196.06 497.545 196.06 499.038C196.06 500.563 196.793 501.448 197.903 501.448C198.781 501.448 199.356 500.966 199.521 500.16H200.895C200.743 501.64 199.56 502.644 197.89 502.644C195.902 502.644 194.607 501.283 194.607 499.038C194.607 496.832 195.902 495.438 197.876 495.438C199.666 495.438 200.756 496.587 200.881 497.955ZM202.321 493.919H203.754V495.564H205.075V496.693H203.754V500.524C203.754 501.125 204.019 501.396 204.6 501.396C204.745 501.396 204.976 501.382 205.069 501.363V502.492C204.91 502.532 204.593 502.558 204.276 502.558C202.869 502.558 202.321 502.023 202.321 500.682V496.693H201.311V495.564H202.321V493.919ZM206.297 502.512V495.564H207.724V502.512H206.297ZM207.01 494.547C206.555 494.547 206.185 494.183 206.185 493.734C206.185 493.279 206.555 492.915 207.01 492.915C207.473 492.915 207.843 493.279 207.843 493.734C207.843 494.183 207.473 494.547 207.01 494.547ZM212.169 502.644C210.181 502.644 208.873 501.277 208.873 499.038C208.873 496.805 210.187 495.438 212.169 495.438C214.15 495.438 215.464 496.805 215.464 499.038C215.464 501.277 214.157 502.644 212.169 502.644ZM212.169 501.468C213.291 501.468 214.011 500.583 214.011 499.038C214.011 497.499 213.285 496.614 212.169 496.614C211.052 496.614 210.326 497.499 210.326 499.038C210.326 500.583 211.052 501.468 212.169 501.468ZM216.567 502.512V495.564H217.928V496.726H217.961C218.337 495.934 219.077 495.445 220.147 495.445C221.679 495.445 222.558 496.422 222.558 498.014V502.512H221.124V498.291C221.124 497.248 220.636 496.673 219.645 496.673C218.641 496.673 217.994 497.387 217.994 498.463V502.512H216.567ZM226.434 499.857H227.894C228 500.801 228.918 501.422 230.173 501.422C231.375 501.422 232.24 500.801 232.24 499.949C232.24 499.209 231.718 498.767 230.483 498.463L229.248 498.166C227.498 497.743 226.685 496.924 226.685 495.597C226.685 493.952 228.119 492.823 230.153 492.823C232.167 492.823 233.548 493.952 233.594 495.597H232.154C232.068 494.646 231.282 494.071 230.133 494.071C228.984 494.071 228.198 494.652 228.198 495.498C228.198 496.171 228.7 496.568 229.928 496.871L230.978 497.129C232.933 497.591 233.746 498.377 233.746 499.771C233.746 501.554 232.326 502.67 230.067 502.67C227.954 502.67 226.527 501.58 226.434 499.857ZM240.859 495.564V502.512H239.492V501.336H239.459C239.076 502.168 238.369 502.637 237.306 502.637C235.793 502.637 234.868 501.653 234.868 500.061V495.564H236.295V499.784C236.295 500.841 236.797 501.409 237.781 501.409C238.811 501.409 239.432 500.695 239.432 499.612V495.564H240.859ZM242.272 502.512V495.564H243.633V496.733H243.666C243.976 495.96 244.703 495.445 245.641 495.445C246.605 495.445 247.305 495.94 247.582 496.805H247.615C247.972 495.96 248.791 495.445 249.782 495.445C251.155 495.445 252.054 496.356 252.054 497.737V502.512H250.62V498.08C250.62 497.182 250.138 496.667 249.293 496.667C248.447 496.667 247.86 497.294 247.86 498.173V502.512H246.459V497.974C246.459 497.175 245.951 496.667 245.145 496.667C244.3 496.667 243.699 497.327 243.699 498.219V502.512H242.272ZM253.434 502.512V495.564H254.794V496.733H254.827C255.138 495.96 255.864 495.445 256.802 495.445C257.766 495.445 258.467 495.94 258.744 496.805H258.777C259.134 495.96 259.953 495.445 260.943 495.445C262.317 495.445 263.215 496.356 263.215 497.737V502.512H261.782V498.08C261.782 497.182 261.3 496.667 260.455 496.667C259.609 496.667 259.021 497.294 259.021 498.173V502.512H257.621V497.974C257.621 497.175 257.113 496.667 256.307 496.667C255.461 496.667 254.86 497.327 254.86 498.219V502.512H253.434ZM267.026 501.501C268.023 501.501 268.803 500.814 268.803 499.91V499.361L267.092 499.467C266.24 499.526 265.758 499.903 265.758 500.497C265.758 501.105 266.26 501.501 267.026 501.501ZM266.63 502.631C265.269 502.631 264.318 501.785 264.318 500.537C264.318 499.322 265.249 498.575 266.901 498.483L268.803 498.371V497.836C268.803 497.063 268.281 496.601 267.409 496.601C266.584 496.601 266.068 496.997 265.943 497.618H264.596C264.675 496.363 265.745 495.438 267.462 495.438C269.146 495.438 270.223 496.33 270.223 497.723V502.512H268.856V501.369H268.823C268.42 502.142 267.541 502.631 266.63 502.631ZM271.61 502.512V495.564H272.97V496.746H273.003C273.234 495.934 273.855 495.451 274.674 495.451C274.879 495.451 275.057 495.484 275.163 495.504V496.832C275.051 496.786 274.8 496.753 274.522 496.753C273.604 496.753 273.036 497.367 273.036 498.351V502.512H271.61ZM276.735 505.101C276.623 505.101 276.259 505.087 276.154 505.068V503.912C276.259 503.938 276.497 503.938 276.616 503.938C277.283 503.938 277.633 503.661 277.851 502.948C277.851 502.934 277.976 502.525 277.976 502.518L275.467 495.564H277.012L278.776 501.217H278.795L280.559 495.564H282.065L279.456 502.875C278.861 504.559 278.181 505.101 276.735 505.101Z" fill="#525866"/>
<rect x="155.733" y="522.842" width="276.44" height="130.785" rx="8.03115" fill="#F1F1F1"/>
<rect x="155.733" y="522.842" width="276.44" height="130.785" rx="8.03115" stroke="#E7E7E7" stroke-width="0.845384"/>
<path d="M169.235 545.622H170.512C170.604 546.449 171.408 546.992 172.506 546.992C173.557 546.992 174.314 546.449 174.314 545.703C174.314 545.056 173.858 544.669 172.777 544.403L171.697 544.143C170.165 543.773 169.454 543.057 169.454 541.895C169.454 540.456 170.708 539.468 172.488 539.468C174.251 539.468 175.459 540.456 175.499 541.895H174.239C174.164 541.063 173.476 540.56 172.471 540.56C171.465 540.56 170.778 541.069 170.778 541.808C170.778 542.398 171.217 542.744 172.292 543.01L173.211 543.236C174.921 543.64 175.632 544.328 175.632 545.547C175.632 547.108 174.39 548.084 172.413 548.084C170.564 548.084 169.316 547.131 169.235 545.622ZM184.665 541.866L183 547.946H181.7L180.423 543.392H180.394L179.128 547.946H177.84L176.169 541.866H177.418L178.527 546.651H178.55L179.816 541.866H181.018L182.289 546.651H182.318L183.428 541.866H184.665ZM187.45 547.061C188.323 547.061 189.005 546.46 189.005 545.669V545.189L187.508 545.281C186.762 545.333 186.341 545.663 186.341 546.183C186.341 546.715 186.78 547.061 187.45 547.061ZM187.103 548.05C185.913 548.05 185.081 547.31 185.081 546.218C185.081 545.154 185.896 544.501 187.34 544.42L189.005 544.322V543.854C189.005 543.178 188.548 542.773 187.785 542.773C187.063 542.773 186.612 543.12 186.502 543.663H185.323C185.393 542.565 186.329 541.756 187.831 541.756C189.305 541.756 190.247 542.536 190.247 543.756V547.946H189.051V546.946H189.022C188.669 547.622 187.901 548.05 187.103 548.05ZM194.628 541.768C196.171 541.768 197.188 542.981 197.188 544.906C197.188 546.83 196.176 548.05 194.651 548.05C193.778 548.05 193.085 547.622 192.738 546.946H192.709V549.957H191.461V541.866H192.668V542.912H192.692C193.05 542.213 193.749 541.768 194.628 541.768ZM194.298 546.992C195.286 546.992 195.905 546.183 195.905 544.906C195.905 543.634 195.286 542.82 194.298 542.82C193.345 542.82 192.703 543.652 192.703 544.906C192.703 546.171 193.339 546.992 194.298 546.992ZM204.053 547.946H200.707V539.606H204.036C205.515 539.606 206.486 540.427 206.486 541.687C206.486 542.571 205.833 543.363 205.001 543.502V543.548C206.134 543.675 206.896 544.478 206.896 545.588C206.896 547.056 205.827 547.946 204.053 547.946ZM202.002 540.664V543.155H203.452C204.573 543.155 205.192 542.692 205.192 541.866C205.192 541.092 204.66 540.664 203.724 540.664H202.002ZM202.002 546.888H203.787C204.955 546.888 205.573 546.408 205.573 545.507C205.573 544.605 204.937 544.143 203.712 544.143H202.002V546.888ZM211.375 547.946H210.081V540.722H207.526V539.606H213.924V540.722H211.375V547.946ZM218.004 548.084C215.663 548.084 214.184 546.431 214.184 543.773C214.184 541.132 215.675 539.468 218.004 539.468C219.893 539.468 221.321 540.629 221.54 542.369H220.257C220.026 541.3 219.136 540.6 218.004 540.6C216.489 540.6 215.507 541.843 215.507 543.773C215.507 545.721 216.478 546.952 218.009 546.952C219.171 546.952 219.997 546.356 220.257 545.351H221.546C221.228 547.073 219.922 548.084 218.004 548.084ZM223.499 548.009C223.078 548.009 222.742 547.674 222.742 547.252C222.742 546.83 223.078 546.495 223.499 546.495C223.921 546.495 224.256 546.83 224.256 547.252C224.256 547.674 223.921 548.009 223.499 548.009ZM223.499 543.796C223.078 543.796 222.742 543.467 222.742 543.039C222.742 542.617 223.078 542.282 223.499 542.282C223.921 542.282 224.256 542.617 224.256 543.039C224.256 543.467 223.921 543.796 223.499 543.796Z" fill="#868C98"/>
<path d="M414.577 547.946V540.889H414.548L412.369 542.438V541.167L414.565 539.606H415.842V547.946H414.577Z" fill="#0A0D14"/>
<path d="M169.605 569.133H172.731C174.349 569.133 175.476 570.248 175.476 571.872C175.476 573.502 174.326 574.623 172.691 574.623H170.899V577.472H169.605V569.133ZM170.899 570.225V573.536H172.384C173.511 573.536 174.153 572.929 174.153 571.878C174.153 570.826 173.511 570.225 172.39 570.225H170.899ZM176.459 577.472V571.392H177.649V572.427H177.678C177.88 571.716 178.423 571.294 179.14 571.294C179.319 571.294 179.475 571.323 179.568 571.34V572.502C179.469 572.461 179.25 572.432 179.007 572.432C178.204 572.432 177.707 572.97 177.707 573.831V577.472H176.459ZM180.382 577.472V571.392H181.631V577.472H180.382ZM181.007 570.502C180.608 570.502 180.284 570.184 180.284 569.791C180.284 569.393 180.608 569.075 181.007 569.075C181.411 569.075 181.735 569.393 181.735 569.791C181.735 570.184 181.411 570.502 181.007 570.502ZM188.126 573.484H186.936C186.809 572.837 186.323 572.323 185.508 572.323C184.543 572.323 183.908 573.126 183.908 574.432C183.908 575.767 184.549 576.541 185.52 576.541C186.289 576.541 186.791 576.119 186.936 575.414H188.138C188.005 576.709 186.971 577.587 185.508 577.587C183.769 577.587 182.636 576.397 182.636 574.432C182.636 572.502 183.769 571.282 185.497 571.282C187.063 571.282 188.017 572.288 188.126 573.484ZM191.565 572.288C190.692 572.288 190.08 572.953 190.016 573.871H193.056C193.027 572.941 192.437 572.288 191.565 572.288ZM193.05 575.686H194.235C194.061 576.796 193.01 577.587 191.617 577.587C189.831 577.587 188.75 576.379 188.75 574.461C188.75 572.554 189.848 571.282 191.565 571.282C193.252 571.282 194.304 572.473 194.304 574.316V574.744H190.01V574.819C190.01 575.877 190.646 576.576 191.646 576.576C192.357 576.576 192.882 576.218 193.05 575.686ZM196.211 577.535C195.789 577.535 195.454 577.2 195.454 576.778C195.454 576.356 195.789 576.021 196.211 576.021C196.633 576.021 196.968 576.356 196.968 576.778C196.968 577.2 196.633 577.535 196.211 577.535ZM196.211 573.322C195.789 573.322 195.454 572.993 195.454 572.565C195.454 572.143 195.789 571.808 196.211 571.808C196.633 571.808 196.968 572.143 196.968 572.565C196.968 572.993 196.633 573.322 196.211 573.322Z" fill="#868C98"/>
<path d="M382.406 577.628C380.545 577.628 379.251 576.628 379.251 575.218C379.251 574.155 380.002 573.305 381.106 573.074V573.045C380.181 572.791 379.586 572.068 379.586 571.173C379.586 569.907 380.771 568.977 382.406 568.977C384.048 568.977 385.221 569.901 385.221 571.178C385.221 572.063 384.631 572.779 383.707 573.045V573.074C384.816 573.305 385.562 574.16 385.562 575.218C385.562 576.634 384.256 577.628 382.406 577.628ZM382.406 576.587C383.47 576.587 384.221 575.975 384.221 575.125C384.221 574.264 383.47 573.652 382.406 573.652C381.343 573.652 380.586 574.27 380.586 575.125C380.586 575.975 381.343 576.587 382.406 576.587ZM382.406 572.612C383.302 572.612 383.943 572.068 383.943 571.311C383.943 570.548 383.308 570.005 382.406 570.005C381.499 570.005 380.869 570.548 380.869 571.311C380.869 572.068 381.499 572.612 382.406 572.612ZM389.751 577.628C387.752 577.628 386.567 575.952 386.567 573.293C386.567 570.652 387.763 568.977 389.751 568.977C391.745 568.977 392.924 570.647 392.924 573.288C392.924 575.946 391.751 577.628 389.751 577.628ZM389.751 576.541C390.942 576.541 391.618 575.31 391.618 573.293C391.618 571.305 390.93 570.063 389.751 570.063C388.572 570.063 387.879 571.311 387.879 573.293C387.879 575.305 388.561 576.541 389.751 576.541ZM394.687 579.188H393.693L394.213 576.137H395.473L394.687 579.188ZM399.911 577.628C397.911 577.628 396.727 575.952 396.727 573.293C396.727 570.652 397.923 568.977 399.911 568.977C401.905 568.977 403.083 570.647 403.083 573.288C403.083 575.946 401.91 577.628 399.911 577.628ZM399.911 576.541C401.101 576.541 401.777 575.31 401.777 573.293C401.777 571.305 401.09 570.063 399.911 570.063C398.732 570.063 398.038 571.311 398.038 573.293C398.038 575.305 398.72 576.541 399.911 576.541ZM407.285 577.628C405.285 577.628 404.101 575.952 404.101 573.293C404.101 570.652 405.297 568.977 407.285 568.977C409.279 568.977 410.457 570.647 410.457 573.288C410.457 575.946 409.284 577.628 407.285 577.628ZM407.285 576.541C408.475 576.541 409.151 575.31 409.151 573.293C409.151 571.305 408.464 570.063 407.285 570.063C406.106 570.063 405.412 571.311 405.412 573.293C405.412 575.305 406.094 576.541 407.285 576.541ZM414.659 577.628C412.659 577.628 411.475 575.952 411.475 573.293C411.475 570.652 412.671 568.977 414.659 568.977C416.653 568.977 417.831 570.647 417.831 573.288C417.831 575.946 416.658 577.628 414.659 577.628ZM414.659 576.541C415.849 576.541 416.525 575.31 416.525 573.293C416.525 571.305 415.838 570.063 414.659 570.063C413.48 570.063 412.786 571.311 412.786 573.293C412.786 575.305 413.468 576.541 414.659 576.541Z" fill="#0A0D14"/>
<path d="M170.899 599.745V602.744H172.714C173.714 602.744 174.286 602.195 174.286 601.242C174.286 600.312 173.679 599.745 172.679 599.745H170.899ZM170.899 603.79V606.998H169.605V598.659H172.835C174.551 598.659 175.621 599.653 175.621 601.207C175.621 602.334 175.02 603.247 174.002 603.588L175.869 606.998H174.378L172.679 603.79H170.899ZM179.244 601.814C178.371 601.814 177.759 602.479 177.695 603.397H180.735C180.706 602.467 180.117 601.814 179.244 601.814ZM180.729 605.212H181.914C181.741 606.322 180.689 607.113 179.296 607.113C177.51 607.113 176.43 605.906 176.43 603.987C176.43 602.08 177.528 600.809 179.244 600.809C180.931 600.809 181.983 601.999 181.983 603.842V604.27H177.689V604.345C177.689 605.403 178.325 606.102 179.325 606.102C180.036 606.102 180.562 605.744 180.729 605.212ZM188.173 603.01H186.982C186.855 602.363 186.37 601.849 185.555 601.849C184.59 601.849 183.954 602.652 183.954 603.958C183.954 605.293 184.595 606.067 185.566 606.067C186.335 606.067 186.838 605.646 186.982 604.94H188.184C188.051 606.235 187.017 607.113 185.555 607.113C183.815 607.113 182.683 605.923 182.683 603.958C182.683 602.028 183.815 600.809 185.543 600.809C187.109 600.809 188.063 601.814 188.173 603.01ZM191.611 601.814C190.738 601.814 190.126 602.479 190.062 603.397H193.102C193.073 602.467 192.484 601.814 191.611 601.814ZM193.096 605.212H194.281C194.108 606.322 193.056 607.113 191.663 607.113C189.877 607.113 188.797 605.906 188.797 603.987C188.797 602.08 189.895 600.809 191.611 600.809C193.299 600.809 194.35 601.999 194.35 603.842V604.27H190.057V604.345C190.057 605.403 190.692 606.102 191.692 606.102C192.403 606.102 192.929 605.744 193.096 605.212ZM195.362 606.998V600.918H196.61V606.998H195.362ZM195.986 600.028C195.587 600.028 195.263 599.71 195.263 599.318C195.263 598.919 195.587 598.601 195.986 598.601C196.39 598.601 196.714 598.919 196.714 599.318C196.714 599.71 196.39 600.028 195.986 600.028ZM203.077 600.918L200.898 606.998H199.557L197.367 600.918H198.696L200.222 605.778H200.245L201.771 600.918H203.077ZM206.163 601.814C205.29 601.814 204.677 602.479 204.614 603.397H207.654C207.625 602.467 207.035 601.814 206.163 601.814ZM207.648 605.212H208.832C208.659 606.322 207.607 607.113 206.215 607.113C204.429 607.113 203.348 605.906 203.348 603.987C203.348 602.08 204.446 600.809 206.163 600.809C207.85 600.809 208.902 601.999 208.902 603.842V604.27H204.608V604.345C204.608 605.403 205.244 606.102 206.243 606.102C206.954 606.102 207.48 605.744 207.648 605.212ZM213.721 598.659V603.958C213.721 605.149 214.473 605.986 215.802 605.986C217.131 605.986 217.888 605.149 217.888 603.958V598.659H219.177V604.068C219.177 605.865 217.894 607.136 215.802 607.136C213.71 607.136 212.427 605.865 212.427 604.068V598.659H213.721ZM220.344 604.675H221.621C221.714 605.501 222.517 606.044 223.615 606.044C224.667 606.044 225.424 605.501 225.424 604.756C225.424 604.108 224.967 603.721 223.887 603.455L222.806 603.195C221.275 602.825 220.564 602.109 220.564 600.947C220.564 599.508 221.818 598.52 223.598 598.52C225.36 598.52 226.568 599.508 226.609 600.947H225.349C225.274 600.115 224.586 599.612 223.58 599.612C222.575 599.612 221.887 600.121 221.887 600.861C221.887 601.45 222.326 601.797 223.401 602.063L224.32 602.288C226.031 602.692 226.742 603.38 226.742 604.6C226.742 606.16 225.499 607.136 223.523 607.136C221.673 607.136 220.425 606.183 220.344 604.675ZM227.903 598.659H230.845C233.324 598.659 234.792 600.184 234.792 602.814C234.792 605.449 233.33 606.998 230.845 606.998H227.903V598.659ZM229.198 599.774V605.877H230.723C232.492 605.877 233.468 604.796 233.468 602.825C233.468 600.861 232.486 599.774 230.723 599.774H229.198ZM238.895 606.998H237.6V599.774H235.046V598.659H241.443V599.774H238.895V606.998ZM242.547 607.061C242.125 607.061 241.79 606.726 241.79 606.304C241.79 605.882 242.125 605.547 242.547 605.547C242.969 605.547 243.304 605.882 243.304 606.304C243.304 606.726 242.969 607.061 242.547 607.061ZM242.547 602.848C242.125 602.848 241.79 602.519 241.79 602.091C241.79 601.67 242.125 601.334 242.547 601.334C242.969 601.334 243.304 601.67 243.304 602.091C243.304 602.519 242.969 602.848 242.547 602.848Z" fill="#868C98"/>
<path d="M383.756 607.154C381.895 607.154 380.6 606.154 380.6 604.744C380.6 603.681 381.351 602.831 382.455 602.6V602.571C381.531 602.317 380.935 601.594 380.935 600.699C380.935 599.433 382.12 598.503 383.756 598.503C385.397 598.503 386.57 599.427 386.57 600.704C386.57 601.589 385.98 602.305 385.056 602.571V602.6C386.165 602.831 386.911 603.686 386.911 604.744C386.911 606.16 385.605 607.154 383.756 607.154ZM383.756 606.114C384.819 606.114 385.57 605.501 385.57 604.652C385.57 603.79 384.819 603.178 383.756 603.178C382.692 603.178 381.935 603.796 381.935 604.652C381.935 605.501 382.692 606.114 383.756 606.114ZM383.756 602.138C384.651 602.138 385.293 601.594 385.293 600.837C385.293 600.075 384.657 599.531 383.756 599.531C382.848 599.531 382.218 600.075 382.218 600.837C382.218 601.594 382.848 602.138 383.756 602.138ZM391.101 607.154C389.101 607.154 387.916 605.478 387.916 602.82C387.916 600.179 389.113 598.503 391.101 598.503C393.094 598.503 394.273 600.173 394.273 602.814C394.273 605.472 393.1 607.154 391.101 607.154ZM391.101 606.067C392.291 606.067 392.967 604.836 392.967 602.82C392.967 600.832 392.28 599.589 391.101 599.589C389.922 599.589 389.228 600.837 389.228 602.82C389.228 604.831 389.91 606.067 391.101 606.067ZM396.036 608.714H395.042L395.562 605.663H396.822L396.036 608.714ZM401.26 607.154C399.261 607.154 398.076 605.478 398.076 602.82C398.076 600.179 399.272 598.503 401.26 598.503C403.254 598.503 404.433 600.173 404.433 602.814C404.433 605.472 403.26 607.154 401.26 607.154ZM401.26 606.067C402.451 606.067 403.127 604.836 403.127 602.82C403.127 600.832 402.439 599.589 401.26 599.589C400.081 599.589 399.388 600.837 399.388 602.82C399.388 604.831 400.07 606.067 401.26 606.067ZM408.634 607.154C406.635 607.154 405.45 605.478 405.45 602.82C405.45 600.179 406.646 598.503 408.634 598.503C410.628 598.503 411.807 600.173 411.807 602.814C411.807 605.472 410.634 607.154 408.634 607.154ZM408.634 606.067C409.825 606.067 410.501 604.836 410.501 602.82C410.501 600.832 409.813 599.589 408.634 599.589C407.455 599.589 406.762 600.837 406.762 602.82C406.762 604.831 407.444 606.067 408.634 606.067ZM416.008 607.154C414.009 607.154 412.824 605.478 412.824 602.82C412.824 600.179 414.02 598.503 416.008 598.503C418.002 598.503 419.181 600.173 419.181 602.814C419.181 605.472 418.008 607.154 416.008 607.154ZM416.008 606.067C417.199 606.067 417.875 604.836 417.875 602.82C417.875 600.832 417.187 599.589 416.008 599.589C414.829 599.589 414.136 600.837 414.136 602.82C414.136 604.831 414.818 606.067 416.008 606.067Z" fill="#0A0D14"/>
<rect x="155.31" y="428.799" width="276.44" height="34.2892" rx="10.1446" fill="#FFF9F3"/>
<rect x="155.733" y="429.222" width="275.595" height="33.4438" rx="9.72191" stroke="#E8AF72" stroke-opacity="0.3" stroke-width="0.845384"/>
<path d="M169.291 449.943H168.089V443.236H165.717V442.2H171.658V443.236H169.291V449.943ZM173.541 450.051C171.926 450.051 170.864 448.94 170.864 447.121C170.864 445.307 171.931 444.196 173.541 444.196C175.151 444.196 176.219 445.307 176.219 447.121C176.219 448.94 175.157 450.051 173.541 450.051ZM173.541 449.096C174.454 449.096 175.039 448.377 175.039 447.121C175.039 445.871 174.448 445.151 173.541 445.151C172.634 445.151 172.044 445.871 172.044 447.121C172.044 448.377 172.634 449.096 173.541 449.096ZM178.328 446.718L180.609 444.298H181.972L179.632 446.729L182.063 449.943H180.716L178.8 447.437L178.317 447.915V449.943H177.158V442.2H178.317V446.718H178.328ZM184.757 445.13C183.946 445.13 183.378 445.747 183.319 446.6H186.141C186.114 445.736 185.567 445.13 184.757 445.13ZM186.136 448.285H187.236C187.075 449.316 186.098 450.051 184.805 450.051C183.147 450.051 182.143 448.929 182.143 447.148C182.143 445.377 183.163 444.196 184.757 444.196C186.324 444.196 187.3 445.302 187.3 447.014V447.411H183.313V447.48C183.313 448.462 183.903 449.112 184.832 449.112C185.492 449.112 185.98 448.779 186.136 448.285ZM188.202 449.943V444.298H189.307V445.243H189.334C189.64 444.599 190.241 444.202 191.11 444.202C192.355 444.202 193.069 444.996 193.069 446.289V449.943H191.904V446.514C191.904 445.667 191.507 445.2 190.702 445.2C189.887 445.2 189.361 445.779 189.361 446.654V449.943H188.202ZM196.562 442.2H199.465C200.968 442.2 202.014 443.236 202.014 444.744C202.014 446.257 200.947 447.298 199.428 447.298H197.764V449.943H196.562V442.2ZM197.764 443.214V446.289H199.144C200.19 446.289 200.786 445.726 200.786 444.749C200.786 443.772 200.19 443.214 199.149 443.214H197.764ZM202.927 449.943V444.298H204.032V445.259H204.059C204.247 444.599 204.751 444.207 205.417 444.207C205.583 444.207 205.728 444.234 205.814 444.25V445.329C205.722 445.291 205.519 445.264 205.293 445.264C204.547 445.264 204.086 445.763 204.086 446.563V449.943H202.927ZM206.57 449.943V444.298H207.729V449.943H206.57ZM207.15 443.472C206.78 443.472 206.479 443.177 206.479 442.812C206.479 442.442 206.78 442.146 207.15 442.146C207.526 442.146 207.826 442.442 207.826 442.812C207.826 443.177 207.526 443.472 207.15 443.472ZM213.761 446.241H212.656C212.538 445.64 212.087 445.162 211.33 445.162C210.434 445.162 209.844 445.908 209.844 447.121C209.844 448.36 210.439 449.08 211.341 449.08C212.055 449.08 212.521 448.688 212.656 448.033H213.772C213.648 449.235 212.688 450.051 211.33 450.051C209.715 450.051 208.663 448.945 208.663 447.121C208.663 445.329 209.715 444.196 211.319 444.196C212.774 444.196 213.659 445.13 213.761 446.241ZM216.954 445.13C216.144 445.13 215.575 445.747 215.516 446.6H218.338C218.312 445.736 217.764 445.13 216.954 445.13ZM218.333 448.285H219.433C219.272 449.316 218.295 450.051 217.002 450.051C215.344 450.051 214.341 448.929 214.341 447.148C214.341 445.377 215.36 444.196 216.954 444.196C218.521 444.196 219.498 445.302 219.498 447.014V447.411H215.51V447.48C215.51 448.462 216.101 449.112 217.029 449.112C217.689 449.112 218.177 448.779 218.333 448.285ZM221.268 450.003C220.877 450.003 220.565 449.691 220.565 449.3C220.565 448.908 220.877 448.597 221.268 448.597C221.66 448.597 221.971 448.908 221.971 449.3C221.971 449.691 221.66 450.003 221.268 450.003ZM221.268 446.091C220.877 446.091 220.565 445.785 220.565 445.388C220.565 444.996 220.877 444.685 221.268 444.685C221.66 444.685 221.971 444.996 221.971 445.388C221.971 445.785 221.66 446.091 221.268 446.091Z" fill="#0A0D14"/>
<path d="M229.736 449.943V443.391H229.709L227.686 444.829V443.649L229.726 442.2H230.911V449.943H229.736ZM238.252 449.943H235.145V442.2H238.236C239.61 442.2 240.512 442.962 240.512 444.132C240.512 444.953 239.905 445.688 239.132 445.817V445.86C240.184 445.978 240.893 446.724 240.893 447.754C240.893 449.117 239.9 449.943 238.252 449.943ZM236.347 443.182V445.495H237.694C238.735 445.495 239.31 445.066 239.31 444.298C239.31 443.579 238.816 443.182 237.947 443.182H236.347ZM236.347 448.961H238.006C239.09 448.961 239.664 448.516 239.664 447.679C239.664 446.842 239.073 446.413 237.936 446.413H236.347V448.961ZM245.051 449.943H243.849V443.236H241.477V442.2H247.418V443.236H245.051V449.943ZM251.206 450.072C249.033 450.072 247.659 448.538 247.659 446.069C247.659 443.617 249.044 442.071 251.206 442.071C252.961 442.071 254.287 443.15 254.491 444.765H253.299C253.085 443.772 252.258 443.123 251.206 443.123C249.8 443.123 248.888 444.277 248.888 446.069C248.888 447.877 249.79 449.02 251.212 449.02C252.29 449.02 253.058 448.468 253.299 447.534H254.496C254.201 449.133 252.988 450.072 251.206 450.072ZM263.195 448.484H257.818V447.47H263.195V448.484ZM263.195 446.268H257.818V445.253H263.195V446.268ZM269.543 450.088C267.815 450.088 266.613 449.16 266.613 447.851C266.613 446.863 267.31 446.074 268.335 445.86V445.833C267.477 445.597 266.924 444.926 266.924 444.094C266.924 442.919 268.024 442.055 269.543 442.055C271.067 442.055 272.156 442.914 272.156 444.1C272.156 444.921 271.609 445.586 270.75 445.833V445.86C271.78 446.074 272.473 446.869 272.473 447.851C272.473 449.165 271.26 450.088 269.543 450.088ZM269.543 449.122C270.53 449.122 271.228 448.554 271.228 447.765C271.228 446.965 270.53 446.396 269.543 446.396C268.555 446.396 267.852 446.971 267.852 447.765C267.852 448.554 268.555 449.122 269.543 449.122ZM269.543 445.431C270.375 445.431 270.97 444.926 270.97 444.223C270.97 443.515 270.38 443.01 269.543 443.01C268.7 443.01 268.115 443.515 268.115 444.223C268.115 444.926 268.7 445.431 269.543 445.431ZM276.363 450.088C274.506 450.088 273.406 448.532 273.406 446.064C273.406 443.611 274.517 442.055 276.363 442.055C278.215 442.055 279.309 443.606 279.309 446.058C279.309 448.527 278.22 450.088 276.363 450.088ZM276.363 449.08C277.469 449.08 278.096 447.937 278.096 446.064C278.096 444.218 277.458 443.064 276.363 443.064C275.268 443.064 274.625 444.223 274.625 446.064C274.625 447.931 275.258 449.08 276.363 449.08ZM280.946 451.537H280.023L280.506 448.704H281.676L280.946 451.537ZM285.797 450.088C283.94 450.088 282.84 448.532 282.84 446.064C282.84 443.611 283.951 442.055 285.797 442.055C287.648 442.055 288.743 443.606 288.743 446.058C288.743 448.527 287.654 450.088 285.797 450.088ZM285.797 449.08C286.902 449.08 287.53 447.937 287.53 446.064C287.53 444.218 286.892 443.064 285.797 443.064C284.702 443.064 284.058 444.223 284.058 446.064C284.058 447.931 284.692 449.08 285.797 449.08ZM292.644 450.088C290.788 450.088 289.687 448.532 289.687 446.064C289.687 443.611 290.798 442.055 292.644 442.055C294.496 442.055 295.59 443.606 295.59 446.058C295.59 448.527 294.501 450.088 292.644 450.088ZM292.644 449.08C293.75 449.08 294.378 447.937 294.378 446.064C294.378 444.218 293.739 443.064 292.644 443.064C291.55 443.064 290.906 444.223 290.906 446.064C290.906 447.931 291.539 449.08 292.644 449.08ZM299.492 450.088C297.635 450.088 296.535 448.532 296.535 446.064C296.535 443.611 297.646 442.055 299.492 442.055C301.343 442.055 302.438 443.606 302.438 446.058C302.438 448.527 301.348 450.088 299.492 450.088ZM299.492 449.08C300.597 449.08 301.225 447.937 301.225 446.064C301.225 444.218 300.586 443.064 299.492 443.064C298.397 443.064 297.753 444.223 297.753 446.064C297.753 447.931 298.386 449.08 299.492 449.08ZM307.063 442.2V447.121C307.063 448.226 307.761 449.004 308.995 449.004C310.229 449.004 310.932 448.226 310.932 447.121V442.2H312.129V447.223C312.129 448.892 310.938 450.072 308.995 450.072C307.053 450.072 305.861 448.892 305.861 447.223V442.2H307.063ZM313.213 447.786H314.399C314.485 448.554 315.231 449.058 316.25 449.058C317.227 449.058 317.93 448.554 317.93 447.861C317.93 447.26 317.506 446.901 316.502 446.654L315.499 446.413C314.077 446.069 313.417 445.404 313.417 444.325C313.417 442.989 314.581 442.071 316.234 442.071C317.871 442.071 318.992 442.989 319.03 444.325H317.86C317.79 443.552 317.152 443.085 316.218 443.085C315.284 443.085 314.646 443.558 314.646 444.245C314.646 444.792 315.054 445.114 316.052 445.361L316.905 445.57C318.493 445.946 319.153 446.584 319.153 447.717C319.153 449.165 318 450.072 316.164 450.072C314.447 450.072 313.288 449.187 313.213 447.786ZM320.232 442.2H322.963C325.265 442.2 326.628 443.617 326.628 446.058C326.628 448.505 325.271 449.943 322.963 449.943H320.232V442.2ZM321.434 443.236V448.902H322.851C324.493 448.902 325.4 447.899 325.4 446.069C325.4 444.245 324.487 443.236 322.851 443.236H321.434ZM330.438 449.943H329.236V443.236H326.865V442.2H332.805V443.236H330.438V449.943Z" fill="#9B5100"/>
</g>
<rect x="243.15" y="102.293" width="101.534" height="30.1857" rx="15.0928" fill="#030303"/>
<circle cx="326.388" cy="116.928" r="8.23246" fill="#0E0B0F"/>
<circle cx="326.389" cy="116.928" r="4.57359" fill="#161424"/>
<circle cx="326.389" cy="116.929" r="2.74415" fill="#0F0F2A"/>
<circle cx="326.39" cy="116.014" r="0.914717" fill="#393752"/>
<circle cx="309.01" cy="116.928" r="1.82943" fill="#30B94D"/>
</g>
<defs>
<filter id="filter0_f_7638_5986" x="116.719" y="226.203" width="2.5672" height="3.42304" filterUnits="userSpaceOnUse" color-interpolation-filters="sRGB">
<feFlood flood-opacity="0" result="BackgroundImageFix"/>
<feBlend mode="normal" in="SourceGraphic" in2="BackgroundImageFix" result="shape"/>
<feGaussianBlur stdDeviation="0.427873" result="effect1_foregroundBlur_7638_5986"/>
</filter>
<filter id="filter1_f_7638_5986" x="116.719" y="227.915" width="2.5672" height="23.9609" filterUnits="userSpaceOnUse" color-interpolation-filters="sRGB">
<feFlood flood-opacity="0" result="BackgroundImageFix"/>
<feBlend mode="normal" in="SourceGraphic" in2="BackgroundImageFix" result="shape"/>
<feGaussianBlur stdDeviation="0.427873" result="effect1_foregroundBlur_7638_5986"/>
</filter>
<filter id="filter2_f_7638_5986" x="116.719" y="279.26" width="2.5672" height="3.42304" filterUnits="userSpaceOnUse" color-interpolation-filters="sRGB">
<feFlood flood-opacity="0" result="BackgroundImageFix"/>
<feBlend mode="normal" in="SourceGraphic" in2="BackgroundImageFix" result="shape"/>
<feGaussianBlur stdDeviation="0.427873" result="effect1_foregroundBlur_7638_5986"/>
</filter>
<filter id="filter3_f_7638_5986" x="116.719" y="280.971" width="2.5672" height="51.3448" filterUnits="userSpaceOnUse" color-interpolation-filters="sRGB">
<feFlood flood-opacity="0" result="BackgroundImageFix"/>
<feBlend mode="normal" in="SourceGraphic" in2="BackgroundImageFix" result="shape"/>
<feGaussianBlur stdDeviation="0.427873" result="effect1_foregroundBlur_7638_5986"/>
</filter>
<filter id="filter4_f_7638_5986" x="116.719" y="347.719" width="2.5672" height="3.42304" filterUnits="userSpaceOnUse" color-interpolation-filters="sRGB">
<feFlood flood-opacity="0" result="BackgroundImageFix"/>
<feBlend mode="normal" in="SourceGraphic" in2="BackgroundImageFix" result="shape"/>
<feGaussianBlur stdDeviation="0.427873" result="effect1_foregroundBlur_7638_5986"/>
</filter>
<filter id="filter5_f_7638_5986" x="116.719" y="349.431" width="2.5672" height="51.3448" filterUnits="userSpaceOnUse" color-interpolation-filters="sRGB">
<feFlood flood-opacity="0" result="BackgroundImageFix"/>
<feBlend mode="normal" in="SourceGraphic" in2="BackgroundImageFix" result="shape"/>
<feGaussianBlur stdDeviation="0.427873" result="effect1_foregroundBlur_7638_5986"/>
</filter>
<filter id="filter6_f_7638_5986" x="469.285" y="298.086" width="2.56727" height="3.42304" filterUnits="userSpaceOnUse" color-interpolation-filters="sRGB">
<feFlood flood-opacity="0" result="BackgroundImageFix"/>
<feBlend mode="normal" in="SourceGraphic" in2="BackgroundImageFix" result="shape"/>
<feGaussianBlur stdDeviation="0.427873" result="effect1_foregroundBlur_7638_5986"/>
</filter>
<filter id="filter7_f_7638_5986" x="469.285" y="299.797" width="2.56727" height="81.2958" filterUnits="userSpaceOnUse" color-interpolation-filters="sRGB">
<feFlood flood-opacity="0" result="BackgroundImageFix"/>
<feBlend mode="normal" in="SourceGraphic" in2="BackgroundImageFix" result="shape"/>
<feGaussianBlur stdDeviation="0.427873" result="effect1_foregroundBlur_7638_5986"/>
</filter>
<filter id="filter8_f_7638_5986" x="115.862" y="73.8802" width="356.846" height="728.24" filterUnits="userSpaceOnUse" color-interpolation-filters="sRGB">
<feFlood flood-opacity="0" result="BackgroundImageFix"/>
<feBlend mode="normal" in="SourceGraphic" in2="BackgroundImageFix" result="shape"/>
<feGaussianBlur stdDeviation="1.71149" result="effect1_foregroundBlur_7638_5986"/>
</filter>
<filter id="filter9_f_7638_5986" x="117.574" y="75.5917" width="353.423" height="724.817" filterUnits="userSpaceOnUse" color-interpolation-filters="sRGB">
<feFlood flood-opacity="0" result="BackgroundImageFix"/>
<feBlend mode="normal" in="SourceGraphic" in2="BackgroundImageFix" result="shape"/>
<feGaussianBlur stdDeviation="0.855746" result="effect1_foregroundBlur_7638_5986"/>
</filter>
<filter id="filter10_f_7638_5986" x="121.852" y="79.8705" width="344.866" height="715.403" filterUnits="userSpaceOnUse" color-interpolation-filters="sRGB">
<feFlood flood-opacity="0" result="BackgroundImageFix"/>
<feBlend mode="normal" in="SourceGraphic" in2="BackgroundImageFix" result="shape"/>
<feGaussianBlur stdDeviation="0.855746" result="effect1_foregroundBlur_7638_5986"/>
</filter>
<filter id="filter11_f_7638_5986" x="118.43" y="76.4476" width="351.712" height="722.249" filterUnits="userSpaceOnUse" color-interpolation-filters="sRGB">
<feFlood flood-opacity="0" result="BackgroundImageFix"/>
<feBlend mode="normal" in="SourceGraphic" in2="BackgroundImageFix" result="shape"/>
<feGaussianBlur stdDeviation="2.99511" result="effect1_foregroundBlur_7638_5986"/>
</filter>
<filter id="filter12_d_7638_5986" x="153.619" y="245.443" width="279.822" height="54.1046" filterUnits="userSpaceOnUse" color-interpolation-filters="sRGB">
<feFlood flood-opacity="0" result="BackgroundImageFix"/>
<feColorMatrix in="SourceAlpha" type="matrix" values="0 0 0 0 0 0 0 0 0 0 0 0 0 0 0 0 0 0 127 0" result="hardAlpha"/>
<feOffset dy="0.845384"/>
<feGaussianBlur stdDeviation="0.845384"/>
<feComposite in2="hardAlpha" operator="out"/>
<feColorMatrix type="matrix" values="0 0 0 0 0.894118 0 0 0 0 0.898039 0 0 0 0 0.905882 0 0 0 0.24 0"/>
<feBlend mode="normal" in2="BackgroundImageFix" result="effect1_dropShadow_7638_5986"/>
<feBlend mode="normal" in="SourceGraphic" in2="effect1_dropShadow_7638_5986" result="shape"/>
</filter>
<filter id="filter13_d_7638_5986" x="275.27" y="303.098" width="36.5205" height="36.5205" filterUnits="userSpaceOnUse" color-interpolation-filters="sRGB">
<feFlood flood-opacity="0" result="BackgroundImageFix"/>
<feColorMatrix in="SourceAlpha" type="matrix" values="0 0 0 0 0 0 0 0 0 0 0 0 0 0 0 0 0 0 127 0" result="hardAlpha"/>
<feOffset dy="0.676307"/>
<feGaussianBlur stdDeviation="0.676307"/>
<feColorMatrix type="matrix" values="0 0 0 0 0.0627451 0 0 0 0 0.0941176 0 0 0 0 0.156863 0 0 0 0.06 0"/>
<feBlend mode="normal" in2="BackgroundImageFix" result="effect1_dropShadow_7638_5986"/>
<feBlend mode="normal" in="SourceGraphic" in2="effect1_dropShadow_7638_5986" result="shape"/>
</filter>
<filter id="filter14_d_7638_5986" x="153.619" y="363.889" width="279.822" height="54.1046" filterUnits="userSpaceOnUse" color-interpolation-filters="sRGB">
<feFlood flood-opacity="0" result="BackgroundImageFix"/>
<feColorMatrix in="SourceAlpha" type="matrix" values="0 0 0 0 0 0 0 0 0 0 0 0 0 0 0 0 0 0 127 0" result="hardAlpha"/>
<feOffset dy="0.845384"/>
<feGaussianBlur stdDeviation="0.845384"/>
<feComposite in2="hardAlpha" operator="out"/>
<feColorMatrix type="matrix" values="0 0 0 0 0.894118 0 0 0 0 0.898039 0 0 0 0 0.905882 0 0 0 0.24 0"/>
<feBlend mode="normal" in2="BackgroundImageFix" result="effect1_dropShadow_7638_5986"/>
<feBlend mode="normal" in="SourceGraphic" in2="effect1_dropShadow_7638_5986" result="shape"/>
</filter>
<linearGradient id="paint0_linear_7638_5986" x1="118.859" y1="226.203" x2="118.859" y2="228.996" gradientUnits="userSpaceOnUse">
<stop/>
<stop offset="1" stop-opacity="0"/>
</linearGradient>
<linearGradient id="paint1_linear_7638_5986" x1="120.998" y1="226.203" x2="118.003" y2="226.203" gradientUnits="userSpaceOnUse">
<stop/>
<stop offset="1" stop-color="#AEAEAE" stop-opacity="0"/>
</linearGradient>
<linearGradient id="paint2_linear_7638_5986" x1="118.859" y1="248.194" x2="118.859" y2="252.731" gradientUnits="userSpaceOnUse">
<stop stop-opacity="0"/>
<stop offset="1"/>
</linearGradient>
<linearGradient id="paint3_linear_7638_5986" x1="118.859" y1="278.404" x2="118.859" y2="281.827" gradientUnits="userSpaceOnUse">
<stop/>
<stop offset="1" stop-opacity="0"/>
</linearGradient>
<linearGradient id="paint4_linear_7638_5986" x1="120.998" y1="278.404" x2="118.003" y2="278.404" gradientUnits="userSpaceOnUse">
<stop/>
<stop offset="1" stop-color="#AEAEAE" stop-opacity="0"/>
</linearGradient>
<linearGradient id="paint5_linear_7638_5986" x1="118.859" y1="328.465" x2="118.859" y2="333.171" gradientUnits="userSpaceOnUse">
<stop stop-opacity="0"/>
<stop offset="1"/>
</linearGradient>
<linearGradient id="paint6_linear_7638_5986" x1="118.859" y1="346.864" x2="118.859" y2="350.287" gradientUnits="userSpaceOnUse">
<stop/>
<stop offset="1" stop-opacity="0"/>
</linearGradient>
<linearGradient id="paint7_linear_7638_5986" x1="120.998" y1="346.864" x2="118.003" y2="346.864" gradientUnits="userSpaceOnUse">
<stop/>
<stop offset="1" stop-color="#AEAEAE" stop-opacity="0"/>
</linearGradient>
<linearGradient id="paint8_linear_7638_5986" x1="118.859" y1="396.925" x2="118.859" y2="401.631" gradientUnits="userSpaceOnUse">
<stop stop-opacity="0"/>
<stop offset="1"/>
</linearGradient>
<linearGradient id="paint9_linear_7638_5986" x1="469.713" y1="297.23" x2="469.713" y2="300.653" gradientUnits="userSpaceOnUse">
<stop/>
<stop offset="1" stop-opacity="0"/>
</linearGradient>
<linearGradient id="paint10_linear_7638_5986" x1="467.574" y1="297.23" x2="470.569" y2="297.23" gradientUnits="userSpaceOnUse">
<stop/>
<stop offset="1" stop-color="#AEAEAE" stop-opacity="0"/>
</linearGradient>
<linearGradient id="paint11_linear_7638_5986" x1="469.713" y1="378.098" x2="469.713" y2="381.949" gradientUnits="userSpaceOnUse">
<stop stop-opacity="0"/>
<stop offset="1"/>
</linearGradient>
<radialGradient id="paint12_radial_7638_5986" cx="0" cy="0" r="1" gradientUnits="userSpaceOnUse" gradientTransform="translate(294.714 246.313) rotate(90) scale(290.954 324.602)">
<stop stop-color="#879194"/>
<stop offset="1"/>
</radialGradient>
<clipPath id="clip0_7638_5986">
<rect width="590" height="600" rx="30" fill="white"/>
</clipPath>
<clipPath id="clip1_7638_5986">
<rect x="119.285" y="77.3031" width="350" height="721.394" rx="58.1907" fill="white"/>
</clipPath>
<clipPath id="clip2_7638_5986">
<rect x="124.42" y="82.4379" width="339.731" height="710.269" rx="53.0562" fill="white"/>
</clipPath>
<clipPath id="clip3_7638_5986">
<rect x="135.021" y="93.1816" width="317.019" height="688.554" rx="33.8153" fill="white"/>
</clipPath>
<clipPath id="clip4_7638_5986">
<rect width="13.5261" height="13.5261" fill="white" transform="translate(175.599 264.886)"/>
</clipPath>
<clipPath id="clip5_7638_5986">
<rect width="13.5261" height="13.5261" fill="white" transform="translate(293.53 311.383) rotate(41.303)"/>
</clipPath>
<clipPath id="clip6_7638_5986">
<rect width="13.5261" height="13.5261" fill="white" transform="translate(175.599 383.333)"/>
</clipPath>
</defs>
</svg>
