<svg width="592" height="601" viewBox="0 0 592 601" fill="none" xmlns="http://www.w3.org/2000/svg">
<g clip-path="url(#clip0_7642_10680)">
<rect y="0.666504" width="592" height="600" rx="30" fill="#DE811D"/>
<path d="M134.67 190.332C134.67 189.474 135.366 188.779 136.223 188.779H138.553V212.851H136.223C135.366 212.851 134.67 212.156 134.67 211.298V190.332Z" fill="#2F3233"/>
<path opacity="0.4" d="M134.67 190.332C134.67 189.474 135.366 188.779 136.223 188.779H138.553V212.851H136.223C135.366 212.851 134.67 212.156 134.67 211.298V190.332Z" fill="url(#paint0_linear_7642_10680)"/>
<path opacity="0.4" d="M134.67 190.332C134.67 189.474 135.366 188.779 136.223 188.779H138.553V212.851H136.223C135.366 212.851 134.67 212.156 134.67 211.298V190.332Z" fill="url(#paint1_linear_7642_10680)"/>
<path opacity="0.4" d="M134.67 190.332C134.67 189.474 135.366 188.779 136.223 188.779H138.553V212.851H136.223C135.366 212.851 134.67 212.156 134.67 211.298V190.332Z" fill="url(#paint2_linear_7642_10680)"/>
<g filter="url(#filter0_f_7642_10680)">
<path d="M135.448 189.944C135.448 189.729 135.622 189.555 135.836 189.555C136.051 189.555 136.224 189.729 136.224 189.944V191.108H135.448V189.944Z" fill="#9E9E9E"/>
</g>
<g filter="url(#filter1_f_7642_10680)">
<path d="M135.448 191.108H136.224V210.909C136.224 211.124 136.051 211.298 135.836 211.298C135.622 211.298 135.448 211.124 135.448 210.909V191.108Z" fill="#8B8B8B" fill-opacity="0.8"/>
</g>
<path d="M134.671 237.699C134.671 236.841 135.366 236.146 136.224 236.146H138.553V285.843H136.224C135.366 285.843 134.671 285.147 134.671 284.29V237.699Z" fill="#2F3233"/>
<path opacity="0.4" d="M134.671 237.699C134.671 236.841 135.366 236.146 136.224 236.146H138.553V285.843H136.224C135.366 285.843 134.671 285.147 134.671 284.29V237.699Z" fill="url(#paint3_linear_7642_10680)"/>
<path opacity="0.4" d="M134.671 237.699C134.671 236.841 135.366 236.146 136.224 236.146H138.553V285.843H136.224C135.366 285.843 134.671 285.147 134.671 284.29V237.699Z" fill="url(#paint4_linear_7642_10680)"/>
<path opacity="0.4" d="M134.671 237.699C134.671 236.841 135.366 236.146 136.224 236.146H138.553V285.843H136.224C135.366 285.843 134.671 285.147 134.671 284.29V237.699Z" fill="url(#paint5_linear_7642_10680)"/>
<g filter="url(#filter2_f_7642_10680)">
<path d="M135.448 238.088C135.448 237.873 135.622 237.699 135.836 237.699C136.051 237.699 136.224 237.873 136.224 238.088V239.252H135.448V238.088Z" fill="#9E9E9E"/>
</g>
<g filter="url(#filter3_f_7642_10680)">
<path d="M135.448 239.252H136.224V283.902C136.224 284.116 136.051 284.29 135.836 284.29C135.622 284.29 135.448 284.116 135.448 283.902V239.252Z" fill="#8B8B8B" fill-opacity="0.8"/>
</g>
<path d="M134.671 299.82C134.671 298.962 135.366 298.267 136.224 298.267H138.553V347.963H136.224C135.366 347.963 134.671 347.268 134.671 346.41V299.82Z" fill="#2F3233"/>
<path opacity="0.4" d="M134.671 299.82C134.671 298.962 135.366 298.267 136.224 298.267H138.553V347.963H136.224C135.366 347.963 134.671 347.268 134.671 346.41V299.82Z" fill="url(#paint6_linear_7642_10680)"/>
<path opacity="0.4" d="M134.671 299.82C134.671 298.962 135.366 298.267 136.224 298.267H138.553V347.963H136.224C135.366 347.963 134.671 347.268 134.671 346.41V299.82Z" fill="url(#paint7_linear_7642_10680)"/>
<path opacity="0.4" d="M134.671 299.82C134.671 298.962 135.366 298.267 136.224 298.267H138.553V347.963H136.224C135.366 347.963 134.671 347.268 134.671 346.41V299.82Z" fill="url(#paint8_linear_7642_10680)"/>
<g filter="url(#filter4_f_7642_10680)">
<path d="M135.448 300.208C135.448 299.994 135.622 299.82 135.836 299.82C136.051 299.82 136.224 299.994 136.224 300.208V301.373H135.448V300.208Z" fill="#9E9E9E"/>
</g>
<g filter="url(#filter5_f_7642_10680)">
<path d="M135.448 301.373H136.224V346.022C136.224 346.236 136.051 346.41 135.836 346.41C135.622 346.41 135.448 346.236 135.448 346.022V301.373Z" fill="#8B8B8B" fill-opacity="0.8"/>
</g>
<path d="M456.922 254.783C456.922 253.925 456.226 253.229 455.369 253.229H453.039V330.104H455.369C456.226 330.104 456.922 329.409 456.922 328.551V254.783Z" fill="#2F3233"/>
<path opacity="0.4" d="M456.922 254.783C456.922 253.925 456.226 253.229 455.369 253.229H453.039V330.104H455.369C456.226 330.104 456.922 329.409 456.922 328.551V254.783Z" fill="url(#paint9_linear_7642_10680)"/>
<path opacity="0.4" d="M456.922 254.783C456.922 253.925 456.226 253.229 455.369 253.229H453.039V330.104H455.369C456.226 330.104 456.922 329.409 456.922 328.551V254.783Z" fill="url(#paint10_linear_7642_10680)"/>
<path opacity="0.4" d="M456.922 254.783C456.922 253.925 456.226 253.229 455.369 253.229H453.039V330.104H455.369C456.226 330.104 456.922 329.409 456.922 328.551V254.783Z" fill="url(#paint11_linear_7642_10680)"/>
<g filter="url(#filter6_f_7642_10680)">
<path d="M456.145 255.171C456.145 254.956 455.971 254.782 455.757 254.782C455.542 254.782 455.368 254.956 455.368 255.171V256.335H456.145V255.171Z" fill="#9E9E9E"/>
</g>
<g filter="url(#filter7_f_7642_10680)">
<path d="M456.145 256.335H455.368V328.162C455.368 328.377 455.542 328.551 455.757 328.551C455.971 328.551 456.145 328.377 456.145 328.162V256.335Z" fill="#8B8B8B" fill-opacity="0.8"/>
</g>
<g clip-path="url(#clip1_7642_10680)">
<rect x="136.999" y="53.6665" width="317.593" height="654.598" rx="52.8027" fill="#717576"/>
<g filter="url(#filter8_f_7642_10680)">
<rect x="138.164" y="54.8313" width="315.263" height="652.268" rx="51.6379" stroke="#252726" stroke-width="2.32953"/>
</g>
<g filter="url(#filter9_f_7642_10680)">
<rect x="137.388" y="54.0548" width="316.816" height="653.821" rx="52.4144" stroke="#1F2120" stroke-width="0.77651"/>
</g>
<g filter="url(#filter10_f_7642_10680)">
<rect x="141.27" y="57.9368" width="309.051" height="645.28" rx="48.5319" stroke="#313234" stroke-width="0.77651"/>
</g>
<rect x="141.502" y="58.1701" width="308.585" height="644.814" rx="48.2989" stroke="#343537" stroke-width="0.310604"/>
</g>
<g clip-path="url(#clip2_7642_10680)">
<rect x="141.658" y="58.3254" width="308.274" height="644.503" rx="48.1436" fill="#000100"/>
<g filter="url(#filter11_f_7642_10680)">
<rect x="143.211" y="59.8785" width="305.168" height="641.397" rx="46.5906" stroke="url(#paint12_radial_7642_10680)" stroke-width="3.10604"/>
</g>
</g>
<g clip-path="url(#clip3_7642_10680)">
<rect x="151.665" y="67.894" width="287.67" height="624.8" rx="30.6848" fill="white"/>
<path d="M182.012 83.0033C183.968 83.0033 185.671 84.3946 185.671 87.6981V87.7108C185.671 90.7982 184.28 92.6279 181.973 92.6279C180.29 92.6279 179.032 91.6305 178.74 90.2265L178.727 90.1566H180.341L180.36 90.2201C180.601 90.8618 181.167 91.2811 181.973 91.2811C183.428 91.2811 184.045 89.858 184.114 88.1046C184.114 88.0348 184.121 87.9649 184.121 87.895H183.994C183.657 88.6192 182.857 89.2609 181.599 89.2609C179.839 89.2609 178.606 87.9776 178.606 86.2369V86.2242C178.606 84.3628 180.023 83.0033 182.012 83.0033ZM182.005 88.003C183.041 88.003 183.835 87.2533 183.835 86.2178V86.2051C183.835 85.1569 183.041 84.3374 182.024 84.3374C181.014 84.3374 180.207 85.1442 180.207 86.167V86.1797C180.207 87.2406 180.963 88.003 182.005 88.003ZM188.243 86.4592C187.665 86.4592 187.233 86.0145 187.233 85.4555C187.233 84.8901 187.665 84.4517 188.243 84.4517C188.827 84.4517 189.253 84.8901 189.253 85.4555C189.253 86.0145 188.827 86.4592 188.243 86.4592ZM188.243 91.1731C187.665 91.1731 187.233 90.7347 187.233 90.1693C187.233 89.6039 187.665 89.1656 188.243 89.1656C188.827 89.1656 189.253 89.6039 189.253 90.1693C189.253 90.7347 188.827 91.1731 188.243 91.1731ZM195.262 92.3992V90.6394H190.777V89.299C191.965 87.2343 193.267 85.1251 194.512 83.232H196.831V89.2863H198.063V90.6394H196.831V92.3992H195.262ZM192.301 89.3244H195.287V84.5407H195.192C194.252 85.9764 193.191 87.6726 192.301 89.2291V89.3244ZM201.55 92.3992V84.8456H201.442L199.161 86.4592V84.9155L201.556 83.232H203.189V92.3992H201.55Z" fill="#0A0D14"/>
<path opacity="0.35" d="M403.062 82.8735H416.103C417.574 82.8735 418.767 84.0665 418.767 85.5376V89.3735C418.767 90.8446 417.574 92.0366 416.103 92.0366H403.062C401.591 92.0366 400.398 90.8446 400.398 89.3735V85.5376C400.398 84.0665 401.591 82.8736 403.062 82.8735Z" stroke="#0A0D14" stroke-width="0.809378"/>
<path opacity="0.4" d="M419.938 86.3049V89.5424C420.59 89.2682 421.013 88.6304 421.013 87.9237C421.013 87.217 420.59 86.5791 419.938 86.3049Z" fill="#0A0D14"/>
<path d="M401.528 85.5379C401.528 84.6906 402.214 84.0037 403.062 84.0037H416.103C416.95 84.0037 417.637 84.6906 417.637 85.5379V89.3735C417.637 90.2208 416.95 90.9077 416.103 90.9077H403.062C402.214 90.9077 401.528 90.2208 401.528 89.3735V85.5379Z" fill="#0A0D14"/>
<path d="M386.274 90.2063C387.363 89.2659 388.958 89.266 390.047 90.2063C390.102 90.2568 390.134 90.3282 390.136 90.4035C390.138 90.4789 390.108 90.5519 390.055 90.6047L388.35 92.3615C388.3 92.4132 388.232 92.4426 388.16 92.4426C388.089 92.4426 388.021 92.4132 387.971 92.3615L386.265 90.6047C386.212 90.5519 386.183 90.4789 386.185 90.4035C386.186 90.3282 386.219 90.2568 386.274 90.2063ZM383.968 88.0403C386.315 85.8121 389.948 85.8121 392.295 88.0403C392.348 88.0925 392.378 88.1643 392.379 88.2395C392.38 88.3145 392.351 88.3864 392.299 88.4397L391.314 89.4572C391.212 89.561 391.048 89.5629 390.944 89.4621C390.173 88.7498 389.17 88.3546 388.13 88.3547C387.091 88.3553 386.09 88.7504 385.32 89.4621C385.215 89.563 385.051 89.561 384.949 89.4572L383.964 88.4397C383.912 88.3865 383.883 88.3145 383.884 88.2395C383.885 88.1643 383.915 88.0925 383.968 88.0403ZM381.664 85.8772C385.264 82.3563 390.942 82.3564 394.541 85.8772C394.593 85.9294 394.623 86.0009 394.623 86.0754C394.624 86.1499 394.595 86.2217 394.544 86.2746L393.557 87.2912C393.455 87.3956 393.29 87.3969 393.187 87.2942C391.816 85.9636 389.996 85.2221 388.104 85.2219C386.212 85.2219 384.391 85.9635 383.02 87.2942C382.917 87.3971 382.751 87.3957 382.65 87.2912L381.662 86.2746C381.611 86.2217 381.582 86.15 381.582 86.0754C381.583 86.0009 381.612 85.9294 381.664 85.8772Z" fill="#0A0D14"/>
<path d="M369.309 85.5377C369.309 85.114 369.652 84.7706 370.076 84.7706H370.843C371.266 84.7706 371.61 85.114 371.61 85.5377V91.6746C371.61 92.0983 371.266 92.4418 370.843 92.4418H370.076C369.652 92.4418 369.309 92.0983 369.309 91.6746V85.5377Z" fill="#0A0D14"/>
<path d="M373.144 84.0034C373.144 83.5798 373.488 83.2363 373.911 83.2363H374.678C375.102 83.2363 375.445 83.5798 375.445 84.0034V91.6746C375.445 92.0983 375.102 92.4418 374.678 92.4418H373.911C373.488 92.4418 373.144 92.0983 373.144 91.6746V84.0034Z" fill="#0A0D14"/>
<path d="M365.473 88.2226C365.473 87.7989 365.816 87.4555 366.24 87.4555H367.007C367.431 87.4555 367.774 87.7989 367.774 88.2226V91.6746C367.774 92.0983 367.431 92.4418 367.007 92.4418H366.24C365.816 92.4418 365.473 92.0983 365.473 91.6746V88.2226Z" fill="#0A0D14"/>
<path d="M361.637 90.1404C361.637 89.7167 361.981 89.3733 362.404 89.3733H363.172C363.595 89.3733 363.939 89.7167 363.939 90.1404V91.6746C363.939 92.0983 363.595 92.4418 363.172 92.4418H362.404C361.981 92.4418 361.637 92.0983 361.637 91.6746V90.1404Z" fill="#0A0D14"/>
<rect x="170.459" y="154.195" width="250.081" height="36.0546" rx="18.0273" fill="#EFEFEF"/>
<rect x="170.459" y="154.195" width="250.081" height="36.0546" rx="18.0273" stroke="#EFEFEF" stroke-width="0.76712"/>
<path d="M217.141 169.141V171.863H218.787C219.695 171.863 220.214 171.365 220.214 170.499C220.214 169.655 219.663 169.141 218.756 169.141H217.141ZM217.141 172.812V175.722H215.966V168.155H218.897C220.455 168.155 221.425 169.057 221.425 170.468C221.425 171.491 220.88 172.319 219.957 172.628L221.651 175.722H220.298L218.756 172.812H217.141ZM224.713 171.019C223.921 171.019 223.365 171.622 223.308 172.455H226.066C226.04 171.611 225.505 171.019 224.713 171.019ZM226.061 174.102H227.136C226.978 175.109 226.024 175.827 224.76 175.827C223.14 175.827 222.159 174.731 222.159 172.99C222.159 171.26 223.156 170.106 224.713 170.106C226.244 170.106 227.199 171.186 227.199 172.859V173.247H223.302V173.315C223.302 174.275 223.879 174.91 224.786 174.91C225.431 174.91 225.909 174.584 226.061 174.102ZM230.151 170.117C230.948 170.117 231.577 170.52 231.903 171.155H231.929V170.206H233.03V177.547H231.892V174.794H231.871C231.556 175.413 230.911 175.817 230.125 175.817C228.74 175.817 227.833 174.705 227.833 172.964C227.833 171.223 228.74 170.117 230.151 170.117ZM230.429 174.857C231.299 174.857 231.897 174.113 231.897 172.964C231.897 171.821 231.299 171.071 230.429 171.071C229.543 171.071 228.992 171.795 228.992 172.964C228.992 174.133 229.543 174.857 230.429 174.857ZM238.882 170.206V175.722H237.797V174.789H237.771C237.466 175.45 236.905 175.822 236.061 175.822C234.86 175.822 234.126 175.041 234.126 173.777V170.206H235.259V173.557C235.259 174.396 235.657 174.847 236.439 174.847C237.257 174.847 237.75 174.28 237.75 173.42V170.206H238.882ZM242.312 171.019C241.52 171.019 240.964 171.622 240.906 172.455H243.665C243.639 171.611 243.104 171.019 242.312 171.019ZM243.66 174.102H244.735C244.577 175.109 243.623 175.827 242.359 175.827C240.739 175.827 239.758 174.731 239.758 172.99C239.758 171.26 240.754 170.106 242.312 170.106C243.843 170.106 244.797 171.186 244.797 172.859V173.247H240.901V173.315C240.901 174.275 241.478 174.91 242.385 174.91C243.03 174.91 243.507 174.584 243.66 174.102ZM245.579 171.768C245.579 170.783 246.449 170.106 247.739 170.106C248.966 170.106 249.826 170.793 249.863 171.774H248.799C248.746 171.276 248.342 170.966 247.708 170.966C247.094 170.966 246.685 171.265 246.685 171.7C246.685 172.041 246.958 172.272 247.53 172.413L248.458 172.628C249.57 172.896 249.989 173.315 249.989 174.128C249.989 175.135 249.05 175.827 247.697 175.827C246.392 175.827 245.526 175.151 245.437 174.139H246.559C246.649 174.668 247.058 174.962 247.75 174.962C248.432 174.962 248.851 174.679 248.851 174.233C248.851 173.882 248.641 173.688 248.064 173.541L247.079 173.3C246.082 173.058 245.579 172.539 245.579 171.768ZM251.2 168.9H252.338V170.206H253.387V171.102H252.338V174.144C252.338 174.621 252.548 174.836 253.01 174.836C253.125 174.836 253.308 174.826 253.382 174.81V175.707C253.256 175.738 253.004 175.759 252.753 175.759C251.636 175.759 251.2 175.334 251.2 174.27V171.102H250.398V170.206H251.2V168.9Z" fill="#868C98"/>
<g filter="url(#filter12_dd_7642_10680)">
<rect x="295.884" y="156.585" width="125.424" height="31.2739" rx="15.637" fill="#292D50" shape-rendering="crispEdges"/>
<rect x="296.267" y="156.969" width="124.657" height="30.5068" rx="15.2534" stroke="#292D50" stroke-width="0.76712" shape-rendering="crispEdges"/>
<path d="M331.752 168.03C333.928 168.03 335.297 169.535 335.297 171.942C335.297 174.349 333.928 175.849 331.752 175.849C329.57 175.849 328.207 174.349 328.207 171.942C328.207 169.535 329.57 168.03 331.752 168.03ZM331.752 169.063C330.315 169.063 329.408 170.175 329.408 171.942C329.408 173.704 330.315 174.815 331.752 174.815C333.188 174.815 334.09 173.704 334.09 171.942C334.09 170.175 333.188 169.063 331.752 169.063ZM336.282 175.723V170.206H337.363V171.129H337.389C337.688 170.5 338.275 170.112 339.125 170.112C340.341 170.112 341.039 170.888 341.039 172.152V175.723H339.901V172.372C339.901 171.543 339.513 171.087 338.726 171.087C337.929 171.087 337.415 171.653 337.415 172.508V175.723H336.282ZM342.58 177.338H341.574L344.259 168.156H345.265L342.58 177.338ZM349.235 168.03C351.411 168.03 352.78 169.535 352.78 171.942C352.78 174.349 351.411 175.849 349.235 175.849C347.054 175.849 345.69 174.349 345.69 171.942C345.69 169.535 347.054 168.03 349.235 168.03ZM349.235 169.063C347.798 169.063 346.891 170.175 346.891 171.942C346.891 173.704 347.798 174.815 349.235 174.815C350.672 174.815 351.574 173.704 351.574 171.942C351.574 170.175 350.672 169.063 349.235 169.063ZM354.096 175.723V171.103H353.336V170.216H354.096V169.676C354.096 168.607 354.6 168.103 355.722 168.103C355.953 168.103 356.21 168.129 356.356 168.156V168.995C356.246 168.974 356.094 168.963 355.942 168.963C355.449 168.963 355.218 169.21 355.218 169.697V170.216H356.335V171.103H355.234V175.723H354.096ZM357.557 175.723V171.103H356.797V170.216H357.557V169.676C357.557 168.607 358.061 168.103 359.183 168.103C359.414 168.103 359.671 168.129 359.817 168.156V168.995C359.707 168.974 359.555 168.963 359.403 168.963C358.91 168.963 358.679 169.21 358.679 169.697V170.216H359.796V171.103H358.695V175.723H357.557ZM364.18 169.141V171.863H365.827C366.734 171.863 367.253 171.365 367.253 170.5C367.253 169.655 366.703 169.141 365.796 169.141H364.18ZM364.18 172.812V175.723H363.006V168.156H365.937C367.495 168.156 368.465 169.058 368.465 170.468C368.465 171.491 367.919 172.319 366.996 172.629L368.69 175.723H367.337L365.796 172.812H364.18ZM371.396 174.92C372.188 174.92 372.807 174.375 372.807 173.657V173.221L371.449 173.305C370.772 173.352 370.389 173.651 370.389 174.123C370.389 174.606 370.788 174.92 371.396 174.92ZM371.082 175.817C370.001 175.817 369.246 175.146 369.246 174.155C369.246 173.19 369.986 172.597 371.297 172.524L372.807 172.435V172.01C372.807 171.396 372.393 171.029 371.7 171.029C371.045 171.029 370.636 171.344 370.536 171.837H369.466C369.529 170.841 370.379 170.106 371.742 170.106C373.079 170.106 373.934 170.814 373.934 171.921V175.723H372.849V174.815H372.823C372.503 175.429 371.805 175.817 371.082 175.817ZM375.035 175.723V170.206H376.116V171.134H376.142C376.388 170.521 376.965 170.112 377.71 170.112C378.476 170.112 379.031 170.505 379.252 171.192H379.278C379.561 170.521 380.211 170.112 380.998 170.112C382.089 170.112 382.802 170.835 382.802 171.931V175.723H381.664V172.204C381.664 171.491 381.281 171.082 380.61 171.082C379.939 171.082 379.472 171.58 379.472 172.277V175.723H378.36V172.12C378.36 171.486 377.956 171.082 377.317 171.082C376.645 171.082 376.168 171.606 376.168 172.314V175.723H375.035ZM386.772 170.117C388.172 170.117 389.095 171.218 389.095 172.964C389.095 174.711 388.177 175.817 386.792 175.817C386.001 175.817 385.371 175.429 385.057 174.815H385.031V177.548H383.898V170.206H384.994V171.155H385.015C385.34 170.521 385.974 170.117 386.772 170.117ZM386.473 174.857C387.369 174.857 387.93 174.123 387.93 172.964C387.93 171.811 387.369 171.071 386.473 171.071C385.607 171.071 385.025 171.826 385.025 172.964C385.025 174.113 385.602 174.857 386.473 174.857Z" fill="white"/>
</g>
<path d="M176.081 119.291H185.418V120.825H176.081L180.196 124.94L179.111 126.025L173.144 120.058L179.111 114.091L180.196 115.176L176.081 119.291Z" fill="black"/>
<path d="M171.948 226.181H170.773V218.614H175.498V219.626H171.948V222.023H175.199V223.014H171.948V226.181ZM181.05 220.664V226.181H179.965V225.248H179.938C179.634 225.908 179.073 226.281 178.229 226.281C177.028 226.281 176.294 225.499 176.294 224.236V220.664H177.426V224.015C177.426 224.854 177.825 225.305 178.606 225.305C179.424 225.305 179.917 224.739 179.917 223.879V220.664H181.05ZM182.15 226.181V218.614H183.283V226.181H182.15ZM184.424 226.181V218.614H185.557V226.181H184.424ZM190.053 226.181H188.91V218.614H189.975L193.897 224.194H193.939V218.614H195.082V226.181H194.023L190.1 220.607H190.053V226.181ZM198.064 225.379C198.856 225.379 199.475 224.833 199.475 224.115V223.68L198.117 223.764C197.44 223.811 197.058 224.11 197.058 224.582C197.058 225.064 197.456 225.379 198.064 225.379ZM197.75 226.276C196.67 226.276 195.914 225.604 195.914 224.613C195.914 223.648 196.654 223.056 197.965 222.982L199.475 222.893V222.468C199.475 221.855 199.061 221.488 198.369 221.488C197.713 221.488 197.304 221.802 197.204 222.295H196.135C196.198 221.299 197.047 220.565 198.411 220.565C199.748 220.565 200.603 221.273 200.603 222.379V226.181H199.517V225.274H199.491C199.171 225.887 198.474 226.276 197.75 226.276ZM201.639 226.181V220.664H202.72V221.593H202.746C202.992 220.979 203.569 220.57 204.314 220.57C205.079 220.57 205.635 220.963 205.856 221.65H205.882C206.165 220.979 206.815 220.57 207.602 220.57C208.693 220.57 209.406 221.294 209.406 222.39V226.181H208.268V222.662C208.268 221.949 207.885 221.54 207.214 221.54C206.543 221.54 206.076 222.038 206.076 222.736V226.181H204.964V222.579C204.964 221.944 204.56 221.54 203.921 221.54C203.249 221.54 202.772 222.065 202.772 222.773V226.181H201.639ZM212.745 221.477C211.953 221.477 211.397 222.08 211.339 222.914H214.098C214.071 222.07 213.536 221.477 212.745 221.477ZM214.092 224.561H215.167C215.01 225.568 214.056 226.286 212.792 226.286C211.171 226.286 210.191 225.19 210.191 223.449C210.191 221.719 211.187 220.565 212.745 220.565C214.276 220.565 215.23 221.645 215.23 223.318V223.706H211.334V223.774C211.334 224.734 211.911 225.368 212.818 225.368C213.463 225.368 213.94 225.043 214.092 224.561Z" fill="#0A0D14"/>
<g filter="url(#filter13_d_7642_10680)">
<rect x="170.076" y="234.25" width="250.848" height="31.3424" rx="7.6712" fill="white"/>
<rect x="170.459" y="234.633" width="250.081" height="30.5753" rx="7.28764" stroke="#E2E4E9" stroke-width="0.76712"/>
<path d="M181.327 255.035C181.327 252.775 183.159 250.944 185.418 250.944C187.678 250.944 189.51 252.775 189.51 255.035H188.487C188.487 253.34 187.113 251.966 185.418 251.966C183.724 251.966 182.35 253.34 182.35 255.035H181.327ZM185.418 250.432C183.723 250.432 182.35 249.059 182.35 247.364C182.35 245.668 183.723 244.295 185.418 244.295C187.114 244.295 188.487 245.668 188.487 247.364C188.487 249.059 187.114 250.432 185.418 250.432ZM185.418 249.409C186.549 249.409 187.464 248.494 187.464 247.364C187.464 246.233 186.549 245.318 185.418 245.318C184.288 245.318 183.373 246.233 183.373 247.364C183.373 248.494 184.288 249.409 185.418 249.409Z" fill="#0A0D14"/>
<path d="M198.426 245.354H200.97C203.214 245.354 204.541 246.754 204.541 249.134C204.541 251.521 203.219 252.921 200.97 252.921H198.426V245.354ZM199.37 246.203V252.071H200.907C202.622 252.071 203.576 251.022 203.576 249.145C203.576 247.252 202.627 246.203 200.907 246.203H199.37ZM207.373 252.239C208.233 252.239 208.893 251.636 208.893 250.849V250.404L207.436 250.493C206.701 250.54 206.282 250.865 206.282 251.379C206.282 251.898 206.717 252.239 207.373 252.239ZM207.168 253.015C206.083 253.015 205.354 252.36 205.354 251.379C205.354 250.445 206.072 249.858 207.331 249.785L208.893 249.696V249.239C208.893 248.573 208.453 248.175 207.698 248.175C206.995 248.175 206.555 248.505 206.439 249.04H205.558C205.621 248.096 206.429 247.373 207.719 247.373C208.998 247.373 209.806 248.065 209.806 249.15V252.921H208.941V251.982H208.92C208.595 252.606 207.902 253.015 207.168 253.015ZM210.965 252.921V247.467H211.825V248.337H211.846C212.15 247.75 212.732 247.373 213.576 247.373C214.772 247.373 215.464 248.143 215.464 249.381V252.921H214.552V249.544C214.552 248.663 214.137 248.18 213.298 248.18C212.438 248.18 211.877 248.788 211.877 249.711V252.921H210.965ZM216.675 252.921V247.467H217.588V252.921H216.675ZM217.132 246.549C216.822 246.549 216.565 246.292 216.565 245.983C216.565 245.668 216.822 245.417 217.132 245.417C217.446 245.417 217.703 245.668 217.703 245.983C217.703 246.292 217.446 246.549 217.132 246.549ZM221.007 248.164C220.152 248.164 219.554 248.82 219.497 249.727H222.46C222.439 248.815 221.867 248.164 221.007 248.164ZM222.439 251.358H223.335C223.178 252.312 222.255 253.015 221.065 253.015C219.502 253.015 218.553 251.93 218.553 250.215C218.553 248.521 219.518 247.373 221.023 247.373C222.496 247.373 223.404 248.442 223.404 250.094V250.44H219.492V250.493C219.492 251.536 220.105 252.223 221.086 252.223C221.778 252.223 222.287 251.872 222.439 251.358ZM224.374 252.921V245.354H225.286V252.921H224.374ZM233.551 252.071V252.921H228.863V245.354H233.551V246.203H229.806V248.631H233.357V249.47H229.806V252.071H233.551ZM236.723 253.015C235.334 253.015 234.39 251.903 234.39 250.194C234.39 248.484 235.328 247.373 236.702 247.373C237.484 247.373 238.113 247.755 238.438 248.353H238.459V245.354H239.371V252.921H238.501V251.998H238.485C238.134 252.627 237.51 253.015 236.723 253.015ZM236.896 248.175C235.931 248.175 235.323 248.961 235.323 250.194C235.323 251.431 235.931 252.213 236.896 252.213C237.835 252.213 238.464 251.416 238.464 250.194C238.464 248.977 237.835 248.175 236.896 248.175ZM242.791 248.164C241.936 248.164 241.338 248.82 241.28 249.727H244.243C244.222 248.815 243.651 248.164 242.791 248.164ZM244.222 251.358H245.119C244.962 252.312 244.039 253.015 242.848 253.015C241.285 253.015 240.336 251.93 240.336 250.215C240.336 248.521 241.301 247.373 242.806 247.373C244.28 247.373 245.187 248.442 245.187 250.094V250.44H241.275V250.493C241.275 251.536 241.889 252.223 242.869 252.223C243.561 252.223 244.07 251.872 244.222 251.358ZM248.821 253.015C248.024 253.015 247.4 252.627 247.049 251.998H247.028V252.921H246.157V245.354H247.07V248.379H247.091C247.431 247.755 248.066 247.373 248.837 247.373C250.211 247.373 251.139 248.484 251.139 250.194C251.139 251.909 250.216 253.015 248.821 253.015ZM248.643 248.175C247.72 248.175 247.064 248.982 247.064 250.194C247.064 251.41 247.72 252.213 248.643 252.213C249.608 252.213 250.206 251.442 250.206 250.194C250.206 248.956 249.608 248.175 248.643 248.175ZM254.254 248.164C253.399 248.164 252.801 248.82 252.744 249.727H255.706C255.685 248.815 255.114 248.164 254.254 248.164ZM255.685 251.358H256.582C256.425 252.312 255.502 253.015 254.312 253.015C252.749 253.015 251.8 251.93 251.8 250.215C251.8 248.521 252.765 247.373 254.27 247.373C255.743 247.373 256.65 248.442 256.65 250.094V250.44H252.738V250.493C252.738 251.536 253.352 252.223 254.333 252.223C255.025 252.223 255.533 251.872 255.685 251.358ZM259.372 252.239C260.232 252.239 260.893 251.636 260.893 250.849V250.404L259.435 250.493C258.701 250.54 258.281 250.865 258.281 251.379C258.281 251.898 258.717 252.239 259.372 252.239ZM259.167 253.015C258.082 253.015 257.353 252.36 257.353 251.379C257.353 250.445 258.071 249.858 259.33 249.785L260.893 249.696V249.239C260.893 248.573 260.452 248.175 259.697 248.175C258.994 248.175 258.554 248.505 258.439 249.04H257.558C257.621 248.096 258.428 247.373 259.718 247.373C260.998 247.373 261.805 248.065 261.805 249.15V252.921H260.94V251.982H260.919C260.594 252.606 259.902 253.015 259.167 253.015ZM263.258 246.151H264.17V247.467H265.23V248.217H264.17V251.458C264.17 251.956 264.38 252.181 264.847 252.181C264.952 252.181 265.161 252.166 265.224 252.155V252.921C265.114 252.947 264.862 252.963 264.647 252.963C263.646 252.963 263.258 252.554 263.258 251.505V248.217H262.445V247.467H263.258V246.151ZM270.683 247.467V252.921H269.818V252.034H269.797C269.472 252.664 268.906 253.015 268.067 253.015C266.876 253.015 266.179 252.244 266.179 251.007V247.467H267.091V250.844C267.091 251.73 267.505 252.207 268.35 252.207C269.236 252.207 269.771 251.599 269.771 250.671V247.467H270.683Z" fill="#0A0D14"/>
</g>
<path d="M175.577 287.849V288.866H170.773V281.299H175.577V282.311H171.948V284.524H175.383V285.499H171.948V287.849H175.577ZM176.582 288.866V283.349H177.662V284.277H177.689C177.935 283.664 178.512 283.255 179.257 283.255C180.022 283.255 180.578 283.648 180.798 284.335H180.825C181.108 283.664 181.758 283.255 182.545 283.255C183.635 283.255 184.349 283.979 184.349 285.075V288.866H183.211V285.347C183.211 284.634 182.828 284.225 182.157 284.225C181.485 284.225 181.019 284.723 181.019 285.421V288.866H179.907V285.263C179.907 284.629 179.503 284.225 178.863 284.225C178.192 284.225 177.715 284.749 177.715 285.457V288.866H176.582ZM187.31 288.064C188.102 288.064 188.721 287.518 188.721 286.8V286.365L187.362 286.448C186.686 286.496 186.303 286.795 186.303 287.267C186.303 287.749 186.702 288.064 187.31 288.064ZM186.995 288.96C185.915 288.96 185.16 288.289 185.16 287.298C185.16 286.333 185.899 285.741 187.21 285.667L188.721 285.578V285.153C188.721 284.54 188.306 284.173 187.614 284.173C186.959 284.173 186.55 284.487 186.45 284.98H185.38C185.443 283.984 186.293 283.25 187.656 283.25C188.993 283.25 189.848 283.958 189.848 285.064V288.866H188.762V287.959H188.736C188.416 288.572 187.719 288.96 186.995 288.96ZM190.921 288.866V283.349H192.054V288.866H190.921ZM191.488 282.542C191.126 282.542 190.832 282.253 190.832 281.897C190.832 281.535 191.126 281.246 191.488 281.246C191.855 281.246 192.149 281.535 192.149 281.897C192.149 282.253 191.855 282.542 191.488 282.542ZM193.191 288.866V281.299H194.323V288.866H193.191ZM202.606 288.866L201.914 286.821H199.029L198.337 288.866H197.115L199.847 281.299H201.116L203.849 288.866H202.606ZM200.456 282.557L199.328 285.877H201.615L200.487 282.557H200.456ZM206.406 288.96C205.011 288.96 204.088 287.849 204.088 286.108C204.088 284.367 205.011 283.26 206.396 283.26C207.188 283.26 207.817 283.659 208.126 284.267H208.147V281.299H209.285V288.866H208.184V287.927H208.163C207.838 288.557 207.208 288.96 206.406 288.96ZM206.705 284.215C205.808 284.215 205.247 284.949 205.247 286.108C205.247 287.272 205.808 288.001 206.705 288.001C207.576 288.001 208.158 287.261 208.158 286.108C208.158 284.964 207.576 284.215 206.705 284.215ZM212.456 288.96C211.061 288.96 210.138 287.849 210.138 286.108C210.138 284.367 211.061 283.26 212.446 283.26C213.238 283.26 213.867 283.659 214.176 284.267H214.197V281.299H215.335V288.866H214.234V287.927H214.213C213.888 288.557 213.259 288.96 212.456 288.96ZM212.755 284.215C211.858 284.215 211.297 284.949 211.297 286.108C211.297 287.272 211.858 288.001 212.755 288.001C213.626 288.001 214.208 287.261 214.208 286.108C214.208 284.964 213.626 284.215 212.755 284.215ZM216.435 288.866V283.349H217.515V284.288H217.541C217.725 283.643 218.218 283.26 218.868 283.26C219.031 283.26 219.172 283.286 219.256 283.302V284.356C219.167 284.319 218.968 284.293 218.747 284.293C218.019 284.293 217.568 284.781 217.568 285.562V288.866H216.435ZM221.961 284.162C221.169 284.162 220.613 284.765 220.555 285.599H223.313C223.287 284.755 222.752 284.162 221.961 284.162ZM223.308 287.246H224.383C224.226 288.252 223.272 288.971 222.008 288.971C220.387 288.971 219.407 287.875 219.407 286.134C219.407 284.403 220.403 283.25 221.961 283.25C223.492 283.25 224.446 284.33 224.446 286.003V286.391H220.55V286.459C220.55 287.419 221.127 288.053 222.034 288.053C222.679 288.053 223.156 287.728 223.308 287.246ZM225.163 284.912C225.163 283.926 226.034 283.25 227.324 283.25C228.551 283.25 229.411 283.937 229.447 284.917H228.383C228.33 284.419 227.927 284.11 227.292 284.11C226.679 284.11 226.27 284.409 226.27 284.844C226.27 285.185 226.542 285.415 227.114 285.557L228.042 285.772C229.154 286.039 229.573 286.459 229.573 287.272C229.573 288.279 228.635 288.971 227.282 288.971C225.976 288.971 225.111 288.294 225.022 287.282H226.144C226.233 287.812 226.642 288.106 227.334 288.106C228.016 288.106 228.435 287.822 228.435 287.377C228.435 287.025 228.226 286.831 227.649 286.684L226.663 286.443C225.667 286.202 225.163 285.683 225.163 284.912ZM230.29 284.912C230.29 283.926 231.161 283.25 232.451 283.25C233.678 283.25 234.538 283.937 234.575 284.917H233.51C233.458 284.419 233.054 284.11 232.419 284.11C231.806 284.11 231.397 284.409 231.397 284.844C231.397 285.185 231.669 285.415 232.241 285.557L233.169 285.772C234.281 286.039 234.7 286.459 234.7 287.272C234.7 288.279 233.762 288.971 232.409 288.971C231.103 288.971 230.238 288.294 230.149 287.282H231.271C231.36 287.812 231.769 288.106 232.461 288.106C233.143 288.106 233.562 287.822 233.562 287.377C233.562 287.025 233.353 286.831 232.776 286.684L231.79 286.443C230.794 286.202 230.29 285.683 230.29 284.912Z" fill="#0A0D14"/>
<g filter="url(#filter14_d_7642_10680)">
<rect x="170.076" y="296.934" width="250.848" height="31.3424" rx="7.6712" fill="white"/>
<rect x="170.459" y="297.318" width="250.081" height="30.5753" rx="7.28764" stroke="#E2E4E9" stroke-width="0.76712"/>
<path d="M180.816 308.003H190.021C190.304 308.003 190.532 308.232 190.532 308.514V316.697C190.532 316.979 190.304 317.208 190.021 317.208H180.816C180.533 317.208 180.304 316.979 180.304 316.697V308.514C180.304 308.232 180.533 308.003 180.816 308.003ZM189.51 310.17L185.455 313.801L181.327 310.159V316.185H189.51V310.17ZM181.589 309.026L185.45 312.433L189.254 309.026H181.589Z" fill="#0A0D14"/>
<path d="M200.351 315.7C198.961 315.7 198.017 314.588 198.017 312.879C198.017 311.169 198.956 310.058 200.33 310.058C201.111 310.058 201.741 310.44 202.066 311.038H202.087V308.039H202.999V315.606H202.129V314.683H202.113C201.762 315.312 201.138 315.7 200.351 315.7ZM200.524 310.86C199.559 310.86 198.951 311.647 198.951 312.879C198.951 314.116 199.559 314.898 200.524 314.898C201.463 314.898 202.092 314.101 202.092 312.879C202.092 311.662 201.463 310.86 200.524 310.86ZM206.03 314.924C206.89 314.924 207.551 314.321 207.551 313.534V313.089L206.093 313.178C205.359 313.225 204.939 313.55 204.939 314.064C204.939 314.583 205.375 314.924 206.03 314.924ZM205.826 315.7C204.74 315.7 204.011 315.045 204.011 314.064C204.011 313.131 204.73 312.543 205.988 312.47L207.551 312.381V311.924C207.551 311.258 207.11 310.86 206.355 310.86C205.653 310.86 205.212 311.19 205.097 311.725H204.216C204.279 310.781 205.086 310.058 206.376 310.058C207.656 310.058 208.463 310.75 208.463 311.835V315.606H207.598V314.667H207.577C207.252 315.291 206.56 315.7 205.826 315.7ZM209.622 315.606V310.152H210.482V311.022H210.503C210.807 310.435 211.39 310.058 212.234 310.058C213.429 310.058 214.122 310.828 214.122 312.066V315.606H213.209V312.229C213.209 311.348 212.795 310.865 211.956 310.865C211.096 310.865 210.535 311.473 210.535 312.396V315.606H209.622ZM215.333 315.606V310.152H216.245V315.606H215.333ZM215.789 309.234C215.48 309.234 215.223 308.977 215.223 308.668C215.223 308.353 215.48 308.102 215.789 308.102C216.104 308.102 216.361 308.353 216.361 308.668C216.361 308.977 216.104 309.234 215.789 309.234ZM219.665 310.849C218.81 310.849 218.212 311.505 218.154 312.412H221.117C221.096 311.5 220.525 310.849 219.665 310.849ZM221.096 314.043H221.993C221.836 314.997 220.913 315.7 219.722 315.7C218.16 315.7 217.21 314.615 217.21 312.9C217.21 311.206 218.175 310.058 219.68 310.058C221.154 310.058 222.061 311.127 222.061 312.779V313.125H218.149V313.178C218.149 314.221 218.763 314.908 219.743 314.908C220.435 314.908 220.944 314.557 221.096 314.043ZM223.031 315.606V308.039H223.944V315.606H223.031ZM227.363 310.849C226.508 310.849 225.91 311.505 225.852 312.412H228.815C228.794 311.5 228.223 310.849 227.363 310.849ZM228.794 314.043H229.691C229.534 314.997 228.611 315.7 227.42 315.7C225.858 315.7 224.909 314.615 224.909 312.9C224.909 311.206 225.873 310.058 227.378 310.058C228.852 310.058 229.759 311.127 229.759 312.779V313.125H225.847V313.178C225.847 314.221 226.461 314.908 227.441 314.908C228.134 314.908 228.642 314.557 228.794 314.043ZM233.393 315.7C232.596 315.7 231.972 315.312 231.621 314.683H231.6V315.606H230.729V308.039H231.642V311.064H231.663C232.004 310.44 232.638 310.058 233.409 310.058C234.783 310.058 235.711 311.169 235.711 312.879C235.711 314.594 234.788 315.7 233.393 315.7ZM233.215 310.86C232.292 310.86 231.637 311.667 231.637 312.879C231.637 314.095 232.292 314.898 233.215 314.898C234.18 314.898 234.778 314.127 234.778 312.879C234.778 311.641 234.18 310.86 233.215 310.86ZM241.118 310.152V315.606H240.252V314.719H240.231C239.906 315.349 239.34 315.7 238.501 315.7C237.311 315.7 236.613 314.929 236.613 313.692V310.152H237.526V313.529C237.526 314.415 237.94 314.893 238.784 314.893C239.67 314.893 240.205 314.284 240.205 313.356V310.152H241.118ZM245.014 315.7C244.217 315.7 243.593 315.312 243.242 314.683H243.221V315.606H242.35V308.039H243.262V311.064H243.283C243.624 310.44 244.259 310.058 245.03 310.058C246.404 310.058 247.332 311.169 247.332 312.879C247.332 314.594 246.409 315.7 245.014 315.7ZM244.836 310.86C243.913 310.86 243.257 311.667 243.257 312.879C243.257 314.095 243.913 314.898 244.836 314.898C245.801 314.898 246.398 314.127 246.398 312.879C246.398 311.641 245.801 310.86 244.836 310.86ZM250.447 310.849C249.592 310.849 248.994 311.505 248.936 312.412H251.899C251.878 311.5 251.307 310.849 250.447 310.849ZM251.878 314.043H252.775C252.618 314.997 251.695 315.7 250.504 315.7C248.942 315.7 247.993 314.615 247.993 312.9C247.993 311.206 248.957 310.058 250.462 310.058C251.936 310.058 252.843 311.127 252.843 312.779V313.125H248.931V313.178C248.931 314.221 249.545 314.908 250.525 314.908C251.218 314.908 251.726 314.557 251.878 314.043ZM254.222 315.606L257.647 308.899V308.878H253.572V308.039H258.58V308.914L255.214 315.606H254.222ZM262.067 315.732C260.777 315.732 259.786 314.955 259.556 313.77H260.515C260.714 314.457 261.328 314.908 262.078 314.908C263.336 314.908 264.06 313.765 264.086 311.757H264.081C264.076 311.757 264.076 311.757 264.071 311.757C263.751 312.507 262.922 312.994 261.957 312.994C260.515 312.994 259.445 311.93 259.445 310.493C259.445 308.998 260.573 307.908 262.125 307.908C263.263 307.908 264.165 308.521 264.626 309.607C264.878 310.189 264.999 310.87 264.999 311.694C264.999 314.242 263.919 315.732 262.067 315.732ZM262.12 312.166C263.121 312.166 263.866 311.452 263.866 310.488C263.866 309.517 263.111 308.757 262.136 308.757C261.165 308.757 260.4 309.512 260.4 310.461C260.4 311.447 261.129 312.166 262.12 312.166ZM270.138 311.017C269.435 311.017 269.021 311.563 269.021 312.48C269.021 313.393 269.44 313.949 270.127 313.949C270.846 313.949 271.307 313.377 271.307 312.48C271.307 311.584 270.851 311.017 270.138 311.017ZM270.321 308.081C272.76 308.081 274.527 309.628 274.527 311.94C274.527 313.618 273.782 314.735 272.555 314.735C271.958 314.735 271.444 314.379 271.381 313.854H271.339C271.113 314.384 270.626 314.688 270.007 314.688C268.916 314.688 268.182 313.791 268.182 312.459C268.182 311.185 268.932 310.294 270.007 310.294C270.568 310.294 271.077 310.587 271.276 311.033H271.318V310.393H272.11V313.471C272.11 313.812 272.298 314.053 272.702 314.053C273.326 314.053 273.788 313.288 273.788 311.93C273.788 310.026 272.34 308.741 270.253 308.741C268.213 308.741 266.729 310.294 266.729 312.486C266.729 314.861 268.313 316.167 270.421 316.167C271.124 316.167 271.837 316.067 272.178 315.915V316.576C271.716 316.738 271.087 316.833 270.411 316.833C267.852 316.833 265.99 315.275 265.99 312.454C265.99 309.837 267.773 308.081 270.321 308.081ZM277.684 314.845C278.633 314.845 279.268 314.059 279.268 312.858C279.268 311.657 278.633 310.86 277.684 310.86C276.745 310.86 276.132 311.636 276.132 312.858C276.132 314.08 276.745 314.845 277.684 314.845ZM277.715 317.661C276.515 317.661 275.565 316.985 275.413 316.057H276.352C276.53 316.555 277.07 316.885 277.752 316.885C278.696 316.885 279.268 316.34 279.268 315.527V314.667H279.247C278.911 315.26 278.266 315.648 277.5 315.648C276.111 315.648 275.198 314.552 275.198 312.858C275.198 311.148 276.111 310.058 277.521 310.058C278.292 310.058 278.932 310.435 279.294 311.07H279.31V310.152H280.18V315.496C280.18 316.796 279.22 317.661 277.715 317.661ZM281.371 315.606V310.152H282.231V311.022H282.252C282.508 310.446 283.064 310.058 283.798 310.058C284.543 310.058 285.094 310.435 285.33 311.096H285.351C285.655 310.446 286.295 310.058 287.06 310.058C288.141 310.058 288.838 310.76 288.838 311.841V315.606H287.925V312.05C287.925 311.306 287.511 310.865 286.793 310.865C286.069 310.865 285.56 311.4 285.56 312.139V315.606H284.648V311.951C284.648 311.295 284.208 310.865 283.531 310.865C282.807 310.865 282.283 311.432 282.283 312.187V315.606H281.371ZM291.801 314.924C292.661 314.924 293.322 314.321 293.322 313.534V313.089L291.864 313.178C291.13 313.225 290.71 313.55 290.71 314.064C290.71 314.583 291.145 314.924 291.801 314.924ZM291.596 315.7C290.511 315.7 289.782 315.045 289.782 314.064C289.782 313.131 290.5 312.543 291.759 312.47L293.322 312.381V311.924C293.322 311.258 292.881 310.86 292.126 310.86C291.423 310.86 290.983 311.19 290.867 311.725H289.986C290.049 310.781 290.857 310.058 292.147 310.058C293.426 310.058 294.234 310.75 294.234 311.835V315.606H293.369V314.667H293.348C293.023 315.291 292.33 315.7 291.596 315.7ZM295.44 315.606V310.152H296.353V315.606H295.44ZM295.896 309.234C295.587 309.234 295.33 308.977 295.33 308.668C295.33 308.353 295.587 308.102 295.896 308.102C296.211 308.102 296.468 308.353 296.468 308.668C296.468 308.977 296.211 309.234 295.896 309.234ZM297.632 315.606V308.039H298.545V315.606H297.632ZM300.548 315.658C300.212 315.658 299.95 315.396 299.95 315.06C299.95 314.725 300.212 314.463 300.548 314.463C300.883 314.463 301.146 314.725 301.146 315.06C301.146 315.396 300.883 315.658 300.548 315.658ZM306.72 311.94H305.828C305.697 311.348 305.236 310.86 304.434 310.86C303.49 310.86 302.85 311.641 302.85 312.879C302.85 314.148 303.5 314.898 304.444 314.898C305.189 314.898 305.676 314.504 305.834 313.849H306.73C306.589 314.934 305.676 315.7 304.439 315.7C302.929 315.7 301.922 314.636 301.922 312.879C301.922 311.159 302.923 310.058 304.428 310.058C305.792 310.058 306.605 310.96 306.72 311.94ZM309.83 315.7C308.319 315.7 307.302 314.615 307.302 312.879C307.302 311.138 308.319 310.058 309.83 310.058C311.335 310.058 312.352 311.138 312.352 312.879C312.352 314.615 311.335 315.7 309.83 315.7ZM309.83 314.898C310.795 314.898 311.424 314.164 311.424 312.879C311.424 311.594 310.795 310.86 309.83 310.86C308.865 310.86 308.23 311.594 308.23 312.879C308.23 314.164 308.865 314.898 309.83 314.898ZM313.275 315.606V310.152H314.135V311.022H314.156C314.413 310.446 314.969 310.058 315.703 310.058C316.448 310.058 316.998 310.435 317.234 311.096H317.255C317.559 310.446 318.199 310.058 318.965 310.058C320.045 310.058 320.742 310.76 320.742 311.841V315.606H319.83V312.05C319.83 311.306 319.416 310.865 318.697 310.865C317.974 310.865 317.465 311.4 317.465 312.139V315.606H316.552V311.951C316.552 311.295 316.112 310.865 315.435 310.865C314.712 310.865 314.187 311.432 314.187 312.187V315.606H313.275Z" fill="#0A0D14"/>
</g>
<path d="M170.773 343.984H173.61C175.079 343.984 176.101 344.996 176.101 346.469C176.101 347.948 175.058 348.965 173.574 348.965H171.948V351.551H170.773V343.984ZM171.948 344.975V347.98H173.296C174.318 347.98 174.9 347.429 174.9 346.475C174.9 345.52 174.318 344.975 173.301 344.975H171.948ZM176.97 351.551V343.984H178.092V346.957H178.119C178.423 346.312 179.026 345.94 179.865 345.94C181.076 345.94 181.8 346.747 181.8 347.995V351.551H180.662V348.216C180.662 347.403 180.253 346.915 179.456 346.915C178.617 346.915 178.103 347.492 178.103 348.362V351.551H176.97ZM185.202 351.656C183.623 351.656 182.585 350.57 182.585 348.792C182.585 347.02 183.629 345.934 185.202 345.934C186.775 345.934 187.819 347.02 187.819 348.792C187.819 350.57 186.78 351.656 185.202 351.656ZM185.202 350.722C186.093 350.722 186.665 350.02 186.665 348.792C186.665 347.571 186.088 346.868 185.202 346.868C184.316 346.868 183.739 347.571 183.739 348.792C183.739 350.02 184.316 350.722 185.202 350.722ZM188.63 351.551V346.034H189.71V346.957H189.736C190.035 346.328 190.623 345.94 191.472 345.94C192.689 345.94 193.386 346.716 193.386 347.98V351.551H192.248V348.2C192.248 347.371 191.86 346.915 191.074 346.915C190.276 346.915 189.763 347.481 189.763 348.336V351.551H188.63ZM196.725 346.847C195.933 346.847 195.377 347.45 195.32 348.284H198.078C198.052 347.439 197.517 346.847 196.725 346.847ZM198.073 349.93H199.148C198.99 350.937 198.036 351.656 196.772 351.656C195.152 351.656 194.171 350.56 194.171 348.819C194.171 347.088 195.168 345.934 196.725 345.934C198.256 345.934 199.211 347.015 199.211 348.688V349.076H195.314V349.144C195.314 350.103 195.891 350.738 196.798 350.738C197.443 350.738 197.921 350.413 198.073 349.93ZM203.424 351.551H202.281V343.984H203.345L207.268 349.563H207.31V343.984H208.453V351.551H207.394L203.471 345.976H203.424V351.551ZM214.382 346.034V351.551H213.297V350.617H213.271C212.966 351.278 212.405 351.65 211.561 351.65C210.36 351.65 209.626 350.869 209.626 349.605V346.034H210.759V349.385C210.759 350.224 211.157 350.675 211.939 350.675C212.757 350.675 213.25 350.109 213.25 349.249V346.034H214.382ZM215.44 351.551V346.034H216.52V346.962H216.547C216.793 346.349 217.37 345.94 218.114 345.94C218.88 345.94 219.436 346.333 219.656 347.02H219.682C219.966 346.349 220.616 345.94 221.402 345.94C222.493 345.94 223.206 346.663 223.206 347.759V351.551H222.068V348.032C222.068 347.319 221.686 346.91 221.014 346.91C220.343 346.91 219.876 347.408 219.876 348.105V351.551H218.765V347.948C218.765 347.314 218.361 346.91 217.721 346.91C217.05 346.91 216.573 347.434 216.573 348.142V351.551H215.44ZM227.175 351.645C226.367 351.645 225.743 351.252 225.402 350.612H225.381V351.551H224.28V343.984H225.413V346.973H225.439C225.769 346.333 226.398 345.945 227.18 345.945C228.569 345.945 229.477 347.046 229.477 348.792C229.477 350.544 228.575 351.645 227.175 351.645ZM226.87 346.899C226.01 346.899 225.407 347.655 225.407 348.792C225.407 349.941 226.01 350.686 226.87 350.686C227.762 350.686 228.313 349.962 228.313 348.792C228.313 347.634 227.762 346.899 226.87 346.899ZM232.606 346.847C231.814 346.847 231.258 347.45 231.2 348.284H233.959C233.933 347.439 233.398 346.847 232.606 346.847ZM233.954 349.93H235.029C234.871 350.937 233.917 351.656 232.653 351.656C231.033 351.656 230.052 350.56 230.052 348.819C230.052 347.088 231.048 345.934 232.606 345.934C234.137 345.934 235.091 347.015 235.091 348.688V349.076H231.195V349.144C231.195 350.103 231.772 350.738 232.679 350.738C233.324 350.738 233.801 350.413 233.954 349.93ZM235.908 351.551V346.034H236.988V346.973H237.015C237.198 346.328 237.691 345.945 238.341 345.945C238.504 345.945 238.645 345.971 238.729 345.987V347.041C238.64 347.004 238.441 346.978 238.221 346.978C237.492 346.978 237.041 347.466 237.041 348.247V351.551H235.908Z" fill="#0A0D14"/>
<g filter="url(#filter15_d_7642_10680)">
<rect x="170.076" y="359.619" width="250.848" height="31.3424" rx="7.6712" fill="white"/>
<rect x="170.459" y="360.003" width="250.081" height="30.5753" rx="7.28764" stroke="#E2E4E9" stroke-width="0.76712"/>
<path d="M184.071 374.616C184.55 375.459 185.25 376.159 186.092 376.638L186.545 376.004C186.695 375.794 186.979 375.729 187.206 375.853C187.925 376.246 188.721 376.485 189.55 376.55C189.816 376.572 190.021 376.793 190.021 377.06V379.343C190.021 379.605 189.823 379.825 189.562 379.851C189.291 379.879 189.017 379.893 188.742 379.893C184.365 379.893 180.816 376.344 180.816 371.966C180.816 371.691 180.83 371.418 180.857 371.147C180.884 370.886 181.104 370.688 181.366 370.688H183.648C183.915 370.688 184.137 370.893 184.158 371.159C184.224 371.988 184.463 372.783 184.856 373.503C184.98 373.73 184.915 374.014 184.704 374.164L184.071 374.616ZM182.782 374.281L183.753 373.586C183.478 372.992 183.289 372.361 183.192 371.711H181.843C181.84 371.796 181.838 371.881 181.838 371.966C181.838 375.779 184.929 378.87 188.742 378.87C188.828 378.87 188.913 378.869 188.998 378.866V377.516C188.348 377.42 187.717 377.231 187.122 376.956L186.428 377.927C186.147 377.818 185.876 377.69 185.616 377.544L185.587 377.527C184.585 376.957 183.752 376.124 183.182 375.122L183.165 375.092C183.019 374.832 182.891 374.561 182.782 374.281Z" fill="#0A0D14"/>
<path d="M200.954 378.416C199.187 378.416 198.164 376.895 198.164 374.504C198.164 372.134 199.197 370.597 200.954 370.597C202.711 370.597 203.733 372.123 203.733 374.499C203.733 376.89 202.716 378.416 200.954 378.416ZM200.954 377.593C202.134 377.593 202.784 376.392 202.784 374.504C202.784 372.643 202.123 371.426 200.954 371.426C199.785 371.426 199.113 372.653 199.113 374.499C199.113 376.387 199.769 377.593 200.954 377.593ZM207.226 378.416C205.936 378.416 204.945 377.64 204.714 376.455H205.674C205.873 377.142 206.486 377.593 207.236 377.593C208.495 377.593 209.219 376.45 209.245 374.441H209.24C209.234 374.441 209.234 374.441 209.229 374.441C208.909 375.191 208.081 375.679 207.116 375.679C205.674 375.679 204.604 374.614 204.604 373.177C204.604 371.683 205.731 370.592 207.284 370.592C208.421 370.592 209.323 371.206 209.785 372.291C210.037 372.873 210.157 373.555 210.157 374.378C210.157 376.927 209.077 378.416 207.226 378.416ZM207.278 374.85C208.28 374.85 209.025 374.137 209.025 373.172C209.025 372.202 208.269 371.442 207.294 371.442C206.324 371.442 205.558 372.197 205.558 373.146C205.558 374.132 206.287 374.85 207.278 374.85ZM213.896 378.416C212.129 378.416 211.106 376.895 211.106 374.504C211.106 372.134 212.139 370.597 213.896 370.597C215.653 370.597 216.675 372.123 216.675 374.499C216.675 376.89 215.658 378.416 213.896 378.416ZM213.896 377.593C215.076 377.593 215.726 376.392 215.726 374.504C215.726 372.643 215.066 371.426 213.896 371.426C212.727 371.426 212.056 372.653 212.056 374.499C212.056 376.387 212.711 377.593 213.896 377.593ZM219.586 378.29V371.725H219.565L217.562 373.167V372.171L219.575 370.723H220.498V378.29H219.586ZM225.019 378.416C223.571 378.416 222.502 377.514 222.423 376.224H223.351C223.435 377.032 224.122 377.588 225.029 377.588C226.057 377.588 226.77 376.874 226.77 375.857C226.77 374.84 226.052 374.111 225.045 374.111C224.337 374.111 223.734 374.431 223.424 374.96H222.538L222.953 370.723H227.284V371.562H223.729L223.498 374.027H223.519C223.86 373.571 224.489 373.298 225.213 373.298C226.665 373.298 227.714 374.363 227.714 375.831C227.714 377.352 226.597 378.416 225.019 378.416ZM231.437 378.421C230.305 378.421 229.403 377.808 228.936 376.717C228.684 376.135 228.564 375.453 228.564 374.635C228.564 372.087 229.649 370.592 231.5 370.592C232.785 370.592 233.771 371.363 234.012 372.553H233.052C232.848 371.866 232.24 371.426 231.49 371.426C230.226 371.426 229.508 372.548 229.476 374.562H229.492C229.833 373.822 230.666 373.335 231.605 373.335C233.047 373.335 234.117 374.399 234.117 375.836C234.117 377.331 232.99 378.421 231.437 378.421ZM231.427 377.582C232.392 377.582 233.157 376.822 233.157 375.868C233.157 374.876 232.444 374.163 231.443 374.163C230.441 374.163 229.702 374.876 229.702 375.841C229.702 376.811 230.457 377.582 231.427 377.582ZM237.73 378.416C236.131 378.416 234.987 377.509 234.987 376.245C234.987 375.301 235.638 374.525 236.613 374.3V374.279C235.795 374.027 235.286 373.382 235.286 372.585C235.286 371.442 236.325 370.597 237.73 370.597C239.146 370.597 240.169 371.436 240.169 372.59C240.169 373.377 239.67 374.016 238.847 374.279V374.3C239.828 374.53 240.478 375.306 240.478 376.245C240.478 377.514 239.335 378.416 237.73 378.416ZM237.73 377.593C238.774 377.593 239.513 377 239.513 376.177C239.513 375.343 238.774 374.756 237.73 374.756C236.692 374.756 235.947 375.348 235.947 376.177C235.947 377 236.692 377.593 237.73 377.593ZM237.73 373.927C238.611 373.927 239.235 373.408 239.235 372.674C239.235 371.929 238.616 371.41 237.73 371.41C236.844 371.41 236.225 371.935 236.225 372.674C236.225 373.408 236.844 373.927 237.73 373.927ZM244.17 378.416C242.57 378.416 241.427 377.509 241.427 376.245C241.427 375.301 242.077 374.525 243.053 374.3V374.279C242.235 374.027 241.726 373.382 241.726 372.585C241.726 371.442 242.764 370.597 244.17 370.597C245.586 370.597 246.608 371.436 246.608 372.59C246.608 373.377 246.11 374.016 245.287 374.279V374.3C246.267 374.53 246.918 375.306 246.918 376.245C246.918 377.514 245.774 378.416 244.17 378.416ZM244.17 377.593C245.213 377.593 245.953 377 245.953 376.177C245.953 375.343 245.213 374.756 244.17 374.756C243.131 374.756 242.387 375.348 242.387 376.177C242.387 377 243.131 377.593 244.17 377.593ZM244.17 373.927C245.051 373.927 245.675 373.408 245.675 372.674C245.675 371.929 245.056 371.41 244.17 371.41C243.283 371.41 242.665 371.935 242.665 372.674C242.665 373.408 243.283 373.927 244.17 373.927ZM250.656 378.416C248.889 378.416 247.867 376.895 247.867 374.504C247.867 372.134 248.9 370.597 250.656 370.597C252.413 370.597 253.436 372.123 253.436 374.499C253.436 376.89 252.418 378.416 250.656 378.416ZM250.656 377.593C251.836 377.593 252.487 376.392 252.487 374.504C252.487 372.643 251.826 371.426 250.656 371.426C249.487 371.426 248.816 372.653 248.816 374.499C248.816 376.387 249.471 377.593 250.656 377.593ZM256.063 374.798V374.001H256.97C257.841 374.001 258.449 373.44 258.449 372.674C258.449 371.924 257.94 371.415 256.981 371.415C256.11 371.415 255.533 371.914 255.449 372.705H254.542C254.647 371.421 255.602 370.597 257.023 370.597C258.376 370.597 259.398 371.41 259.398 372.548C259.398 373.497 258.79 374.179 257.846 374.347V374.368C258.989 374.436 259.723 375.144 259.723 376.208C259.723 377.509 258.538 378.416 257.054 378.416C255.47 378.416 254.458 377.54 254.39 376.287H255.297C255.381 377.063 256.026 377.598 257.044 377.598C258.045 377.598 258.764 377.032 258.764 376.24C258.764 375.348 258.092 374.798 257.012 374.798H256.063ZM263.614 378.421C262.482 378.421 261.58 377.808 261.113 376.717C260.861 376.135 260.741 375.453 260.741 374.635C260.741 372.087 261.826 370.592 263.677 370.592C264.962 370.592 265.948 371.363 266.189 372.553H265.23C265.025 371.866 264.417 371.426 263.667 371.426C262.403 371.426 261.685 372.548 261.653 374.562H261.669C262.01 373.822 262.844 373.335 263.782 373.335C265.224 373.335 266.294 374.399 266.294 375.836C266.294 377.331 265.167 378.421 263.614 378.421ZM263.604 377.582C264.569 377.582 265.334 376.822 265.334 375.868C265.334 374.876 264.621 374.163 263.62 374.163C262.618 374.163 261.879 374.876 261.879 375.841C261.879 376.811 262.634 377.582 263.604 377.582Z" fill="#0A0D14"/>
</g>
<path d="M173.967 414.361C171.843 414.361 170.501 412.862 170.501 410.449C170.501 408.053 171.854 406.543 173.967 406.543C175.682 406.543 176.977 407.597 177.176 409.175H176.012C175.802 408.205 174.995 407.57 173.967 407.57C172.593 407.57 171.702 408.698 171.702 410.449C171.702 412.217 172.583 413.334 173.972 413.334C175.026 413.334 175.776 412.794 176.012 411.881H177.182C176.893 413.444 175.708 414.361 173.967 414.361ZM182.77 408.719V414.236H181.685V413.302H181.658C181.354 413.963 180.793 414.335 179.949 414.335C178.748 414.335 178.014 413.554 178.014 412.29V408.719H179.147V412.07C179.147 412.909 179.545 413.36 180.326 413.36C181.144 413.36 181.637 412.794 181.637 411.933V408.719H182.77ZM183.828 414.236V408.719H184.908V409.658H184.934C185.118 409.013 185.611 408.63 186.261 408.63C186.424 408.63 186.565 408.656 186.649 408.672V409.726C186.56 409.689 186.361 409.663 186.14 409.663C185.412 409.663 184.961 410.151 184.961 410.932V414.236H183.828ZM187.287 414.236V408.719H188.368V409.658H188.394C188.577 409.013 189.07 408.63 189.721 408.63C189.883 408.63 190.025 408.656 190.109 408.672V409.726C190.02 409.689 189.82 409.663 189.6 409.663C188.871 409.663 188.42 410.151 188.42 410.932V414.236H187.287ZM192.813 409.532C192.021 409.532 191.465 410.135 191.408 410.969H194.166C194.14 410.124 193.605 409.532 192.813 409.532ZM194.161 412.615H195.236C195.078 413.622 194.124 414.34 192.86 414.34C191.24 414.34 190.259 413.244 190.259 411.503C190.259 409.773 191.256 408.619 192.813 408.619C194.344 408.619 195.299 409.7 195.299 411.372V411.76H191.402V411.829C191.402 412.788 191.979 413.423 192.886 413.423C193.531 413.423 194.009 413.098 194.161 412.615ZM196.115 414.236V408.719H197.196V409.642H197.222C197.521 409.013 198.108 408.625 198.957 408.625C200.174 408.625 200.872 409.401 200.872 410.664V414.236H199.734V410.885C199.734 410.056 199.346 409.6 198.559 409.6C197.762 409.6 197.248 410.166 197.248 411.021V414.236H196.115ZM206.638 410.617H205.558C205.443 410.03 205.002 409.563 204.263 409.563C203.387 409.563 202.81 410.292 202.81 411.477C202.81 412.689 203.392 413.391 204.273 413.391C204.971 413.391 205.427 413.009 205.558 412.369H206.649C206.528 413.543 205.59 414.34 204.263 414.34C202.684 414.34 201.657 413.26 201.657 411.477C201.657 409.726 202.684 408.619 204.252 408.619C205.674 408.619 206.539 409.532 206.638 410.617ZM207.932 416.291C207.843 416.291 207.555 416.281 207.471 416.265V415.347C207.555 415.368 207.743 415.368 207.838 415.368C208.367 415.368 208.645 415.148 208.818 414.582C208.818 414.571 208.918 414.246 208.918 414.241L206.925 408.719H208.152L209.553 413.208H209.568L210.968 408.719H212.164L210.093 414.524C209.621 415.861 209.081 416.291 207.932 416.291ZM216.162 414.236H215.019V406.669H216.084L220.006 412.248H220.048V406.669H221.191V414.236H220.132L216.209 408.661H216.162V414.236ZM224.698 409.532C223.906 409.532 223.35 410.135 223.293 410.969H226.051C226.025 410.124 225.49 409.532 224.698 409.532ZM226.046 412.615H227.121C226.963 413.622 226.009 414.34 224.745 414.34C223.125 414.34 222.144 413.244 222.144 411.503C222.144 409.773 223.14 408.619 224.698 408.619C226.229 408.619 227.184 409.7 227.184 411.372V411.76H223.287V411.829C223.287 412.788 223.864 413.423 224.771 413.423C225.416 413.423 225.894 413.098 226.046 412.615ZM230.307 409.532C229.516 409.532 228.96 410.135 228.902 410.969H231.66C231.634 410.124 231.099 409.532 230.307 409.532ZM231.655 412.615H232.73C232.573 413.622 231.618 414.34 230.355 414.34C228.734 414.34 227.754 413.244 227.754 411.503C227.754 409.773 228.75 408.619 230.307 408.619C231.839 408.619 232.793 409.7 232.793 411.372V411.76H228.897V411.829C228.897 412.788 229.474 413.423 230.381 413.423C231.026 413.423 231.503 413.098 231.655 412.615ZM235.681 414.33C234.286 414.33 233.363 413.218 233.363 411.477C233.363 409.736 234.286 408.63 235.671 408.63C236.462 408.63 237.092 409.028 237.401 409.637H237.422V406.669H238.56V414.236H237.459V413.297H237.438C237.113 413.926 236.483 414.33 235.681 414.33ZM235.98 409.584C235.083 409.584 234.522 410.318 234.522 411.477C234.522 412.641 235.083 413.37 235.98 413.37C236.85 413.37 237.433 412.631 237.433 411.477C237.433 410.334 236.85 409.584 235.98 409.584ZM241.967 409.532C241.175 409.532 240.619 410.135 240.562 410.969H243.32C243.294 410.124 242.759 409.532 241.967 409.532ZM243.315 412.615H244.39C244.232 413.622 243.278 414.34 242.014 414.34C240.394 414.34 239.413 413.244 239.413 411.503C239.413 409.773 240.41 408.619 241.967 408.619C243.498 408.619 244.453 409.7 244.453 411.372V411.76H240.556V411.829C240.556 412.788 241.133 413.423 242.04 413.423C242.685 413.423 243.163 413.098 243.315 412.615ZM247.341 414.33C245.946 414.33 245.023 413.218 245.023 411.477C245.023 409.736 245.946 408.63 247.33 408.63C248.122 408.63 248.751 409.028 249.061 409.637H249.082V406.669H250.22V414.236H249.118V413.297H249.097C248.772 413.926 248.143 414.33 247.341 414.33ZM247.64 409.584C246.743 409.584 246.182 410.318 246.182 411.477C246.182 412.641 246.743 413.37 247.64 413.37C248.51 413.37 249.092 412.631 249.092 411.477C249.092 410.334 248.51 409.584 247.64 409.584Z" fill="#0A0D14"/>
<g filter="url(#filter16_d_7642_10680)">
<rect x="170.076" y="422.304" width="250.848" height="46.0272" rx="7.6712" fill="white"/>
<rect x="170.459" y="422.688" width="250.081" height="45.2601" rx="7.28764" stroke="#E2E4E9" stroke-width="0.76712"/>
<rect x="179.665" y="430.444" width="117.75" height="29.7475" rx="5.7534" fill="#F7F7F7"/>
<rect x="179.665" y="430.444" width="117.75" height="29.7475" rx="5.7534" stroke="#E2E4E9" stroke-width="0.76712"/>
<path d="M189.331 446.71H190.49C190.574 447.459 191.303 447.952 192.299 447.952C193.254 447.952 193.941 447.459 193.941 446.783C193.941 446.196 193.527 445.844 192.546 445.603L191.565 445.367C190.176 445.031 189.531 444.381 189.531 443.327C189.531 442.021 190.669 441.125 192.284 441.125C193.883 441.125 194.979 442.021 195.016 443.327H193.873C193.804 442.572 193.18 442.116 192.268 442.116C191.356 442.116 190.732 442.577 190.732 443.249C190.732 443.783 191.13 444.098 192.105 444.339L192.939 444.544C194.491 444.911 195.136 445.535 195.136 446.641C195.136 448.057 194.009 448.943 192.216 448.943C190.537 448.943 189.405 448.078 189.331 446.71ZM198.362 444.114C197.57 444.114 197.014 444.717 196.956 445.551H199.714C199.688 444.706 199.153 444.114 198.362 444.114ZM199.709 447.197H200.784C200.627 448.204 199.673 448.923 198.409 448.923C196.788 448.923 195.808 447.827 195.808 446.086C195.808 444.355 196.804 443.201 198.362 443.201C199.893 443.201 200.847 444.282 200.847 445.954V446.342H196.951V446.411C196.951 447.37 197.528 448.005 198.435 448.005C199.08 448.005 199.557 447.68 199.709 447.197ZM201.77 448.818V441.251H202.903V448.818H201.77ZM206.374 444.114C205.582 444.114 205.027 444.717 204.969 445.551H207.727C207.701 444.706 207.166 444.114 206.374 444.114ZM207.722 447.197H208.797C208.64 448.204 207.685 448.923 206.422 448.923C204.801 448.923 203.82 447.827 203.82 446.086C203.82 444.355 204.817 443.201 206.374 443.201C207.906 443.201 208.86 444.282 208.86 445.954V446.342H204.964V446.411C204.964 447.37 205.541 448.005 206.448 448.005C207.093 448.005 207.57 447.68 207.722 447.197ZM214.476 445.199H213.396C213.281 444.612 212.84 444.145 212.101 444.145C211.225 444.145 210.648 444.874 210.648 446.059C210.648 447.271 211.23 447.973 212.111 447.973C212.809 447.973 213.265 447.591 213.396 446.951H214.487C214.366 448.125 213.427 448.923 212.101 448.923C210.522 448.923 209.494 447.842 209.494 446.059C209.494 444.308 210.522 443.201 212.09 443.201C213.511 443.201 214.377 444.114 214.476 445.199ZM215.619 441.995H216.757V443.301H217.806V444.198H216.757V447.239C216.757 447.716 216.967 447.931 217.429 447.931C217.544 447.931 217.728 447.921 217.801 447.905V448.802C217.675 448.833 217.423 448.854 217.172 448.854C216.055 448.854 215.619 448.43 215.619 447.365V444.198H214.817V443.301H215.619V441.995ZM224.251 448.943C222.127 448.943 220.785 447.444 220.785 445.031C220.785 442.635 222.138 441.125 224.251 441.125C225.966 441.125 227.261 442.179 227.46 443.757H226.296C226.086 442.787 225.279 442.153 224.251 442.153C222.877 442.153 221.986 443.28 221.986 445.031C221.986 446.799 222.867 447.916 224.256 447.916C225.31 447.916 226.06 447.376 226.296 446.463H227.466C227.177 448.026 225.992 448.943 224.251 448.943ZM233.119 443.301V448.818H232.033V447.884H232.007C231.703 448.545 231.142 448.917 230.297 448.917C229.096 448.917 228.362 448.136 228.362 446.872V443.301H229.495V446.652C229.495 447.491 229.894 447.942 230.675 447.942C231.493 447.942 231.986 447.376 231.986 446.516V443.301H233.119ZM234.241 448.818V443.301H235.321V444.24H235.347C235.531 443.595 236.024 443.212 236.674 443.212C236.837 443.212 236.978 443.238 237.062 443.254V444.308C236.973 444.271 236.774 444.245 236.553 444.245C235.825 444.245 235.374 444.733 235.374 445.514V448.818H234.241ZM237.765 448.818V443.301H238.845V444.24H238.871C239.055 443.595 239.548 443.212 240.198 443.212C240.361 443.212 240.502 443.238 240.586 443.254V444.308C240.497 444.271 240.298 444.245 240.077 444.245C239.348 444.245 238.898 444.733 238.898 445.514V448.818H237.765ZM243.355 444.114C242.563 444.114 242.007 444.717 241.95 445.551H244.708C244.682 444.706 244.147 444.114 243.355 444.114ZM244.703 447.197H245.778C245.62 448.204 244.666 448.923 243.402 448.923C241.782 448.923 240.801 447.827 240.801 446.086C240.801 444.355 241.797 443.201 243.355 443.201C244.886 443.201 245.841 444.282 245.841 445.954V446.342H241.944V446.411C241.944 447.37 242.521 448.005 243.428 448.005C244.073 448.005 244.551 447.68 244.703 447.197ZM246.722 448.818V443.301H247.802V444.224H247.828C248.127 443.595 248.714 443.207 249.564 443.207C250.78 443.207 251.478 443.983 251.478 445.246V448.818H250.34V445.467C250.34 444.638 249.952 444.182 249.165 444.182C248.368 444.182 247.854 444.748 247.854 445.603V448.818H246.722ZM257.309 445.199H256.229C256.114 444.612 255.673 444.145 254.934 444.145C254.058 444.145 253.481 444.874 253.481 446.059C253.481 447.271 254.063 447.973 254.944 447.973C255.642 447.973 256.098 447.591 256.229 446.951H257.32C257.199 448.125 256.26 448.923 254.934 448.923C253.355 448.923 252.327 447.842 252.327 446.059C252.327 444.308 253.355 443.201 254.923 443.201C256.344 443.201 257.209 444.114 257.309 445.199ZM258.667 450.873C258.578 450.873 258.29 450.863 258.206 450.847V449.929C258.29 449.95 258.479 449.95 258.573 449.95C259.103 449.95 259.38 449.73 259.554 449.164C259.554 449.153 259.653 448.828 259.653 448.823L257.66 443.301H258.888L260.288 447.79H260.303L261.704 443.301H262.899L260.828 449.106C260.356 450.443 259.816 450.873 258.667 450.873Z" fill="#525866"/>
<path d="M279.108 446.131L275.311 442.334L274.226 443.419L279.108 448.301L283.99 443.419L282.905 442.334L279.108 446.131Z" fill="#868C98"/>
</g>
<path d="M175.703 491.605L175.011 489.56H172.126L171.434 491.605H170.212L172.944 484.038H174.213L176.946 491.605H175.703ZM173.553 485.297L172.425 488.616H174.712L173.584 485.297H173.553ZM177.579 491.605V486.089H178.659V487.017H178.685C178.932 486.403 179.508 485.994 180.253 485.994C181.019 485.994 181.574 486.387 181.795 487.074H181.821C182.104 486.403 182.754 485.994 183.541 485.994C184.632 485.994 185.345 486.718 185.345 487.814V491.605H184.207V488.087C184.207 487.373 183.824 486.964 183.153 486.964C182.482 486.964 182.015 487.462 182.015 488.16V491.605H180.903V488.003C180.903 487.368 180.499 486.964 179.86 486.964C179.188 486.964 178.711 487.489 178.711 488.197V491.605H177.579ZM188.747 491.71C187.168 491.71 186.13 490.625 186.13 488.847C186.13 487.074 187.174 485.989 188.747 485.989C190.32 485.989 191.363 487.074 191.363 488.847C191.363 490.625 190.325 491.71 188.747 491.71ZM188.747 490.777C189.638 490.777 190.21 490.074 190.21 488.847C190.21 487.625 189.633 486.922 188.747 486.922C187.861 486.922 187.284 487.625 187.284 488.847C187.284 490.074 187.861 490.777 188.747 490.777ZM196.905 486.089V491.605H195.819V490.672H195.793C195.489 491.333 194.928 491.705 194.084 491.705C192.883 491.705 192.149 490.924 192.149 489.66V486.089H193.281V489.439C193.281 490.278 193.68 490.729 194.461 490.729C195.279 490.729 195.772 490.163 195.772 489.303V486.089H196.905ZM197.963 491.605V486.089H199.043V487.011H199.069C199.368 486.382 199.955 485.994 200.805 485.994C202.021 485.994 202.719 486.77 202.719 488.034V491.605H201.581V488.254C201.581 487.426 201.193 486.97 200.406 486.97C199.609 486.97 199.095 487.536 199.095 488.391V491.605H197.963ZM204.081 484.783H205.219V486.089H206.268V486.985H205.219V490.027C205.219 490.504 205.429 490.719 205.89 490.719C206.005 490.719 206.189 490.709 206.262 490.693V491.589C206.136 491.621 205.885 491.642 205.633 491.642C204.516 491.642 204.081 491.217 204.081 490.153V486.985H203.279V486.089H204.081V484.783Z" fill="#0A0D14"/>
<g filter="url(#filter17_d_7642_10680)">
<rect x="170.076" y="499.674" width="250.848" height="46.0272" rx="7.6712" fill="white"/>
<rect x="170.459" y="500.057" width="250.081" height="45.2601" rx="7.28764" stroke="#E2E4E9" stroke-width="0.76712"/>
<rect x="179.665" y="507.813" width="65.75" height="29.7475" rx="5.7534" fill="#F7F7F7"/>
<rect x="179.665" y="507.813" width="65.75" height="29.7475" rx="5.7534" stroke="#E2E4E9" stroke-width="0.76712"/>
<path d="M192.032 526.329C190.217 526.329 189.142 524.808 189.142 522.396C189.142 519.999 190.228 518.478 192.032 518.478C193.841 518.478 194.911 519.994 194.911 522.39C194.911 524.803 193.846 526.329 192.032 526.329ZM192.032 525.343C193.112 525.343 193.725 524.226 193.725 522.396C193.725 520.592 193.101 519.464 192.032 519.464C190.962 519.464 190.333 520.597 190.333 522.396C190.333 524.221 190.951 525.343 192.032 525.343ZM196.557 526.245C196.174 526.245 195.87 525.941 195.87 525.558C195.87 525.175 196.174 524.871 196.557 524.871C196.94 524.871 197.244 525.175 197.244 525.558C197.244 525.941 196.94 526.245 196.557 526.245ZM201.251 526.329C199.436 526.329 198.361 524.808 198.361 522.396C198.361 519.999 199.447 518.478 201.251 518.478C203.06 518.478 204.13 519.994 204.13 522.39C204.13 524.803 203.065 526.329 201.251 526.329ZM201.251 525.343C202.331 525.343 202.944 524.226 202.944 522.396C202.944 520.592 202.32 519.464 201.251 519.464C200.181 519.464 199.552 520.597 199.552 522.396C199.552 524.221 200.17 525.343 201.251 525.343ZM207.942 526.329C206.128 526.329 205.053 524.808 205.053 522.396C205.053 519.999 206.138 518.478 207.942 518.478C209.751 518.478 210.821 519.994 210.821 522.39C210.821 524.803 209.756 526.329 207.942 526.329ZM207.942 525.343C209.022 525.343 209.636 524.226 209.636 522.396C209.636 520.592 209.012 519.464 207.942 519.464C206.872 519.464 206.243 520.597 206.243 522.396C206.243 524.221 206.862 525.343 207.942 525.343Z" fill="#525866"/>
<path d="M227.108 523.5L223.311 519.703L222.226 520.788L227.108 525.67L231.99 520.788L230.905 519.703L227.108 523.5Z" fill="#868C98"/>
</g>
<path d="M174.046 561.282C176.222 561.282 177.591 562.787 177.591 565.194C177.591 567.601 176.222 569.101 174.046 569.101C171.864 569.101 170.501 567.601 170.501 565.194C170.501 562.787 171.864 561.282 174.046 561.282ZM174.046 562.315C172.609 562.315 171.702 563.427 171.702 565.194C171.702 566.956 172.609 568.068 174.046 568.068C175.482 568.068 176.384 566.956 176.384 565.194C176.384 563.427 175.482 562.315 174.046 562.315ZM178.842 568.975V564.355H178.082V563.469H178.842V562.929C178.842 561.859 179.346 561.355 180.468 561.355C180.699 561.355 180.956 561.382 181.103 561.408V562.247C180.992 562.226 180.84 562.215 180.688 562.215C180.195 562.215 179.965 562.462 179.965 562.95V563.469H181.082V564.355H179.98V568.975H178.842ZM182.239 568.975V564.355H181.479V563.469H182.239V562.929C182.239 561.859 182.742 561.355 183.865 561.355C184.095 561.355 184.352 561.382 184.499 561.408V562.247C184.389 562.226 184.237 562.215 184.085 562.215C183.592 562.215 183.361 562.462 183.361 562.95V563.469H184.478V564.355H183.377V568.975H182.239ZM188.733 562.394V565.115H190.38C191.287 565.115 191.806 564.617 191.806 563.752C191.806 562.908 191.256 562.394 190.348 562.394H188.733ZM188.733 566.064V568.975H187.559V561.408H190.49C192.047 561.408 193.018 562.31 193.018 563.72C193.018 564.743 192.472 565.572 191.549 565.881L193.243 568.975H191.89L190.348 566.064H188.733ZM195.885 568.173C196.676 568.173 197.295 567.627 197.295 566.909V566.473L195.937 566.557C195.26 566.605 194.878 566.903 194.878 567.375C194.878 567.858 195.276 568.173 195.885 568.173ZM195.57 569.069C194.49 569.069 193.734 568.398 193.734 567.407C193.734 566.442 194.474 565.849 195.785 565.776L197.295 565.687V565.262C197.295 564.649 196.881 564.281 196.189 564.281C195.533 564.281 195.124 564.596 195.024 565.089H193.955C194.018 564.093 194.867 563.359 196.231 563.359C197.568 563.359 198.423 564.066 198.423 565.173V568.975H197.337V568.068H197.311C196.991 568.681 196.294 569.069 195.57 569.069ZM199.459 568.975V563.458H200.54V564.386H200.566C200.812 563.773 201.389 563.364 202.134 563.364C202.899 563.364 203.455 563.757 203.676 564.444H203.702C203.985 563.773 204.635 563.364 205.422 563.364C206.513 563.364 207.226 564.087 207.226 565.183V568.975H206.088V565.456C206.088 564.743 205.705 564.334 205.034 564.334C204.363 564.334 203.896 564.832 203.896 565.53V568.975H202.784V565.372C202.784 564.738 202.38 564.334 201.741 564.334C201.069 564.334 200.592 564.858 200.592 565.566V568.975H199.459ZM211.131 563.369C212.531 563.369 213.454 564.47 213.454 566.217C213.454 567.963 212.536 569.069 211.152 569.069C210.36 569.069 209.731 568.681 209.416 568.068H209.39V570.8H208.257V563.458H209.353V564.407H209.374C209.699 563.773 210.334 563.369 211.131 563.369ZM210.832 568.11C211.729 568.11 212.29 567.375 212.29 566.217C212.29 565.063 211.729 564.323 210.832 564.323C209.967 564.323 209.385 565.079 209.385 566.217C209.385 567.365 209.962 568.11 210.832 568.11ZM219.571 568.975H218.396V562.42H216.078V561.408H221.883V562.42H219.571V568.975ZM223.66 569.08C222.081 569.08 221.043 567.994 221.043 566.217C221.043 564.444 222.086 563.359 223.66 563.359C225.233 563.359 226.276 564.444 226.276 566.217C226.276 567.994 225.238 569.08 223.66 569.08ZM223.66 568.146C224.551 568.146 225.123 567.444 225.123 566.217C225.123 564.995 224.546 564.292 223.66 564.292C222.773 564.292 222.197 564.995 222.197 566.217C222.197 567.444 222.773 568.146 223.66 568.146ZM228.273 565.823L230.501 563.458H231.833L229.547 565.834L231.923 568.975H230.606L228.734 566.526L228.262 566.993V568.975H227.13V561.408H228.262V565.823H228.273ZM234.491 564.271C233.699 564.271 233.143 564.874 233.085 565.708H235.844C235.817 564.864 235.282 564.271 234.491 564.271ZM235.838 567.354H236.913C236.756 568.361 235.802 569.08 234.538 569.08C232.917 569.08 231.937 567.984 231.937 566.243C231.937 564.512 232.933 563.359 234.491 563.359C236.022 563.359 236.976 564.439 236.976 566.112V566.5H233.08V566.568C233.08 567.528 233.657 568.162 234.564 568.162C235.209 568.162 235.686 567.837 235.838 567.354ZM237.793 568.975V563.458H238.873V564.381H238.899C239.198 563.752 239.786 563.364 240.635 563.364C241.852 563.364 242.549 564.14 242.549 565.404V568.975H241.411V565.624C241.411 564.795 241.023 564.339 240.237 564.339C239.439 564.339 238.926 564.906 238.926 565.76V568.975H237.793Z" fill="#0A0D14"/>
<g filter="url(#filter18_d_7642_10680)">
<rect x="170.076" y="577.043" width="250.848" height="46.0272" rx="7.6712" fill="white"/>
<rect x="170.459" y="577.427" width="250.081" height="45.2601" rx="7.28764" stroke="#E2E4E9" stroke-width="0.76712"/>
<rect x="179.665" y="585.183" width="101.75" height="29.7475" rx="5.7534" fill="#F7F7F7"/>
<rect x="179.665" y="585.183" width="101.75" height="29.7475" rx="5.7534" stroke="#E2E4E9" stroke-width="0.76712"/>
<path d="M188.893 601.449H190.052C190.136 602.199 190.865 602.692 191.861 602.692C192.816 602.692 193.503 602.199 193.503 601.522C193.503 600.935 193.088 600.584 192.108 600.342L191.127 600.106C189.737 599.771 189.092 599.12 189.092 598.066C189.092 596.761 190.23 595.864 191.846 595.864C193.445 595.864 194.541 596.761 194.578 598.066H193.434C193.366 597.311 192.742 596.855 191.83 596.855C190.917 596.855 190.293 597.317 190.293 597.988C190.293 598.523 190.692 598.837 191.667 599.079L192.501 599.283C194.053 599.65 194.698 600.274 194.698 601.381C194.698 602.797 193.571 603.683 191.777 603.683C190.099 603.683 188.967 602.817 188.893 601.449ZM197.923 598.853C197.131 598.853 196.576 599.456 196.518 600.29H199.276C199.25 599.446 198.715 598.853 197.923 598.853ZM199.271 601.936H200.346C200.189 602.943 199.234 603.662 197.971 603.662C196.35 603.662 195.37 602.566 195.37 600.825C195.37 599.094 196.366 597.941 197.923 597.941C199.455 597.941 200.409 599.021 200.409 600.694V601.082H196.513V601.15C196.513 602.11 197.09 602.744 197.997 602.744C198.642 602.744 199.119 602.419 199.271 601.936ZM201.332 603.557V595.99H202.465V603.557H201.332ZM205.936 598.853C205.144 598.853 204.588 599.456 204.531 600.29H207.289C207.263 599.446 206.728 598.853 205.936 598.853ZM207.284 601.936H208.359C208.202 602.943 207.247 603.662 205.983 603.662C204.363 603.662 203.382 602.566 203.382 600.825C203.382 599.094 204.379 597.941 205.936 597.941C207.467 597.941 208.422 599.021 208.422 600.694V601.082H204.526V601.15C204.526 602.11 205.102 602.744 206.01 602.744C206.655 602.744 207.132 602.419 207.284 601.936ZM214.038 599.939H212.958C212.842 599.351 212.402 598.884 211.663 598.884C210.787 598.884 210.21 599.613 210.21 600.799C210.21 602.01 210.792 602.713 211.673 602.713C212.371 602.713 212.827 602.33 212.958 601.69H214.049C213.928 602.865 212.989 603.662 211.663 603.662C210.084 603.662 209.056 602.582 209.056 600.799C209.056 599.047 210.084 597.941 211.652 597.941C213.073 597.941 213.938 598.853 214.038 599.939ZM215.181 596.734H216.319V598.04H217.368V598.937H216.319V601.978C216.319 602.456 216.529 602.671 216.99 602.671C217.106 602.671 217.289 602.66 217.363 602.644V603.541C217.237 603.573 216.985 603.594 216.734 603.594C215.617 603.594 215.181 603.169 215.181 602.104V598.937H214.379V598.04H215.181V596.734ZM223.671 603.557H222.497V597.002H220.179V595.99H225.984V597.002H223.671V603.557ZM227.825 603.662C226.246 603.662 225.208 602.576 225.208 600.799C225.208 599.026 226.251 597.941 227.825 597.941C229.398 597.941 230.441 599.026 230.441 600.799C230.441 602.576 229.403 603.662 227.825 603.662ZM227.825 602.728C228.716 602.728 229.288 602.026 229.288 600.799C229.288 599.577 228.711 598.874 227.825 598.874C226.938 598.874 226.361 599.577 226.361 600.799C226.361 602.026 226.938 602.728 227.825 602.728ZM232.502 600.405L234.731 598.04H236.063L233.776 600.416L236.152 603.557H234.836L232.964 601.108L232.492 601.575V603.557H231.359V595.99H232.492V600.405H232.502ZM238.784 598.853C237.993 598.853 237.437 599.456 237.379 600.29H240.137C240.111 599.446 239.576 598.853 238.784 598.853ZM240.132 601.936H241.207C241.05 602.943 240.095 603.662 238.832 603.662C237.211 603.662 236.231 602.566 236.231 600.825C236.231 599.094 237.227 597.941 238.784 597.941C240.316 597.941 241.27 599.021 241.27 600.694V601.082H237.374V601.15C237.374 602.11 237.951 602.744 238.858 602.744C239.503 602.744 239.98 602.419 240.132 601.936ZM242.151 603.557V598.04H243.231V598.963H243.258C243.556 598.334 244.144 597.946 244.993 597.946C246.21 597.946 246.907 598.722 246.907 599.986V603.557H245.769V600.206C245.769 599.377 245.381 598.921 244.595 598.921C243.798 598.921 243.284 599.488 243.284 600.342V603.557H242.151Z" fill="#525866"/>
<path d="M263.108 600.871L259.311 597.074L258.227 598.159L263.108 603.041L267.99 598.159L266.906 597.074L263.108 600.871Z" fill="#868C98"/>
</g>
</g>
<rect x="249.394" y="76.342" width="92.1324" height="27.3907" rx="13.6954" fill="#030303"/>
<circle cx="324.925" cy="89.622" r="7.47019" fill="#0E0B0F"/>
<circle cx="324.927" cy="89.6218" r="4.15011" fill="#161424"/>
<circle cx="324.926" cy="89.6221" r="2.49006" fill="#0F0F2A"/>
<circle cx="324.927" cy="88.7922" r="0.830021" fill="#393752"/>
<circle cx="309.156" cy="89.6222" r="1.66004" fill="#30B94D"/>
</g>
<defs>
<filter id="filter0_f_7642_10680" x="134.671" y="188.779" width="2.32951" height="3.106" filterUnits="userSpaceOnUse" color-interpolation-filters="sRGB">
<feFlood flood-opacity="0" result="BackgroundImageFix"/>
<feBlend mode="normal" in="SourceGraphic" in2="BackgroundImageFix" result="shape"/>
<feGaussianBlur stdDeviation="0.388255" result="effect1_foregroundBlur_7642_10680"/>
</filter>
<filter id="filter1_f_7642_10680" x="134.671" y="190.332" width="2.32951" height="21.7422" filterUnits="userSpaceOnUse" color-interpolation-filters="sRGB">
<feFlood flood-opacity="0" result="BackgroundImageFix"/>
<feBlend mode="normal" in="SourceGraphic" in2="BackgroundImageFix" result="shape"/>
<feGaussianBlur stdDeviation="0.388255" result="effect1_foregroundBlur_7642_10680"/>
</filter>
<filter id="filter2_f_7642_10680" x="134.671" y="236.923" width="2.32951" height="3.106" filterUnits="userSpaceOnUse" color-interpolation-filters="sRGB">
<feFlood flood-opacity="0" result="BackgroundImageFix"/>
<feBlend mode="normal" in="SourceGraphic" in2="BackgroundImageFix" result="shape"/>
<feGaussianBlur stdDeviation="0.388255" result="effect1_foregroundBlur_7642_10680"/>
</filter>
<filter id="filter3_f_7642_10680" x="134.671" y="238.476" width="2.32951" height="46.5906" filterUnits="userSpaceOnUse" color-interpolation-filters="sRGB">
<feFlood flood-opacity="0" result="BackgroundImageFix"/>
<feBlend mode="normal" in="SourceGraphic" in2="BackgroundImageFix" result="shape"/>
<feGaussianBlur stdDeviation="0.388255" result="effect1_foregroundBlur_7642_10680"/>
</filter>
<filter id="filter4_f_7642_10680" x="134.671" y="299.043" width="2.32951" height="3.106" filterUnits="userSpaceOnUse" color-interpolation-filters="sRGB">
<feFlood flood-opacity="0" result="BackgroundImageFix"/>
<feBlend mode="normal" in="SourceGraphic" in2="BackgroundImageFix" result="shape"/>
<feGaussianBlur stdDeviation="0.388255" result="effect1_foregroundBlur_7642_10680"/>
</filter>
<filter id="filter5_f_7642_10680" x="134.671" y="300.596" width="2.32951" height="46.5906" filterUnits="userSpaceOnUse" color-interpolation-filters="sRGB">
<feFlood flood-opacity="0" result="BackgroundImageFix"/>
<feBlend mode="normal" in="SourceGraphic" in2="BackgroundImageFix" result="shape"/>
<feGaussianBlur stdDeviation="0.388255" result="effect1_foregroundBlur_7642_10680"/>
</filter>
<filter id="filter6_f_7642_10680" x="454.592" y="254.006" width="2.32951" height="3.106" filterUnits="userSpaceOnUse" color-interpolation-filters="sRGB">
<feFlood flood-opacity="0" result="BackgroundImageFix"/>
<feBlend mode="normal" in="SourceGraphic" in2="BackgroundImageFix" result="shape"/>
<feGaussianBlur stdDeviation="0.388255" result="effect1_foregroundBlur_7642_10680"/>
</filter>
<filter id="filter7_f_7642_10680" x="454.592" y="255.559" width="2.32951" height="73.7684" filterUnits="userSpaceOnUse" color-interpolation-filters="sRGB">
<feFlood flood-opacity="0" result="BackgroundImageFix"/>
<feBlend mode="normal" in="SourceGraphic" in2="BackgroundImageFix" result="shape"/>
<feGaussianBlur stdDeviation="0.388255" result="effect1_foregroundBlur_7642_10680"/>
</filter>
<filter id="filter8_f_7642_10680" x="133.893" y="50.5605" width="323.805" height="660.81" filterUnits="userSpaceOnUse" color-interpolation-filters="sRGB">
<feFlood flood-opacity="0" result="BackgroundImageFix"/>
<feBlend mode="normal" in="SourceGraphic" in2="BackgroundImageFix" result="shape"/>
<feGaussianBlur stdDeviation="1.55302" result="effect1_foregroundBlur_7642_10680"/>
</filter>
<filter id="filter9_f_7642_10680" x="135.446" y="52.1135" width="320.699" height="657.704" filterUnits="userSpaceOnUse" color-interpolation-filters="sRGB">
<feFlood flood-opacity="0" result="BackgroundImageFix"/>
<feBlend mode="normal" in="SourceGraphic" in2="BackgroundImageFix" result="shape"/>
<feGaussianBlur stdDeviation="0.77651" result="effect1_foregroundBlur_7642_10680"/>
</filter>
<filter id="filter10_f_7642_10680" x="139.329" y="55.9956" width="312.934" height="649.162" filterUnits="userSpaceOnUse" color-interpolation-filters="sRGB">
<feFlood flood-opacity="0" result="BackgroundImageFix"/>
<feBlend mode="normal" in="SourceGraphic" in2="BackgroundImageFix" result="shape"/>
<feGaussianBlur stdDeviation="0.77651" result="effect1_foregroundBlur_7642_10680"/>
</filter>
<filter id="filter11_f_7642_10680" x="136.222" y="52.8899" width="319.146" height="655.374" filterUnits="userSpaceOnUse" color-interpolation-filters="sRGB">
<feFlood flood-opacity="0" result="BackgroundImageFix"/>
<feBlend mode="normal" in="SourceGraphic" in2="BackgroundImageFix" result="shape"/>
<feGaussianBlur stdDeviation="2.71779" result="effect1_foregroundBlur_7642_10680"/>
</filter>
<filter id="filter12_dd_7642_10680" x="294.349" y="155.818" width="128.493" height="34.3424" filterUnits="userSpaceOnUse" color-interpolation-filters="sRGB">
<feFlood flood-opacity="0" result="BackgroundImageFix"/>
<feColorMatrix in="SourceAlpha" type="matrix" values="0 0 0 0 0 0 0 0 0 0 0 0 0 0 0 0 0 0 127 0" result="hardAlpha"/>
<feMorphology radius="0.76712" operator="dilate" in="SourceAlpha" result="effect1_dropShadow_7642_10680"/>
<feOffset/>
<feComposite in2="hardAlpha" operator="out"/>
<feColorMatrix type="matrix" values="0 0 0 0 0.160784 0 0 0 0 0.176471 0 0 0 0 0.313726 0 0 0 1 0"/>
<feBlend mode="normal" in2="BackgroundImageFix" result="effect1_dropShadow_7642_10680"/>
<feColorMatrix in="SourceAlpha" type="matrix" values="0 0 0 0 0 0 0 0 0 0 0 0 0 0 0 0 0 0 127 0" result="hardAlpha"/>
<feOffset dy="0.76712"/>
<feGaussianBlur stdDeviation="0.76712"/>
<feComposite in2="hardAlpha" operator="out"/>
<feColorMatrix type="matrix" values="0 0 0 0 0.160784 0 0 0 0 0.176471 0 0 0 0 0.313726 0 0 0 0.48 0"/>
<feBlend mode="normal" in2="effect1_dropShadow_7642_10680" result="effect2_dropShadow_7642_10680"/>
<feBlend mode="normal" in="SourceGraphic" in2="effect2_dropShadow_7642_10680" result="shape"/>
</filter>
<filter id="filter13_d_7642_10680" x="168.542" y="233.482" width="253.917" height="34.4108" filterUnits="userSpaceOnUse" color-interpolation-filters="sRGB">
<feFlood flood-opacity="0" result="BackgroundImageFix"/>
<feColorMatrix in="SourceAlpha" type="matrix" values="0 0 0 0 0 0 0 0 0 0 0 0 0 0 0 0 0 0 127 0" result="hardAlpha"/>
<feOffset dy="0.76712"/>
<feGaussianBlur stdDeviation="0.76712"/>
<feComposite in2="hardAlpha" operator="out"/>
<feColorMatrix type="matrix" values="0 0 0 0 0.894118 0 0 0 0 0.898039 0 0 0 0 0.905882 0 0 0 0.24 0"/>
<feBlend mode="normal" in2="BackgroundImageFix" result="effect1_dropShadow_7642_10680"/>
<feBlend mode="normal" in="SourceGraphic" in2="effect1_dropShadow_7642_10680" result="shape"/>
</filter>
<filter id="filter14_d_7642_10680" x="168.542" y="296.167" width="253.917" height="34.4108" filterUnits="userSpaceOnUse" color-interpolation-filters="sRGB">
<feFlood flood-opacity="0" result="BackgroundImageFix"/>
<feColorMatrix in="SourceAlpha" type="matrix" values="0 0 0 0 0 0 0 0 0 0 0 0 0 0 0 0 0 0 127 0" result="hardAlpha"/>
<feOffset dy="0.76712"/>
<feGaussianBlur stdDeviation="0.76712"/>
<feComposite in2="hardAlpha" operator="out"/>
<feColorMatrix type="matrix" values="0 0 0 0 0.894118 0 0 0 0 0.898039 0 0 0 0 0.905882 0 0 0 0.24 0"/>
<feBlend mode="normal" in2="BackgroundImageFix" result="effect1_dropShadow_7642_10680"/>
<feBlend mode="normal" in="SourceGraphic" in2="effect1_dropShadow_7642_10680" result="shape"/>
</filter>
<filter id="filter15_d_7642_10680" x="168.542" y="358.852" width="253.917" height="34.4108" filterUnits="userSpaceOnUse" color-interpolation-filters="sRGB">
<feFlood flood-opacity="0" result="BackgroundImageFix"/>
<feColorMatrix in="SourceAlpha" type="matrix" values="0 0 0 0 0 0 0 0 0 0 0 0 0 0 0 0 0 0 127 0" result="hardAlpha"/>
<feOffset dy="0.76712"/>
<feGaussianBlur stdDeviation="0.76712"/>
<feComposite in2="hardAlpha" operator="out"/>
<feColorMatrix type="matrix" values="0 0 0 0 0.894118 0 0 0 0 0.898039 0 0 0 0 0.905882 0 0 0 0.24 0"/>
<feBlend mode="normal" in2="BackgroundImageFix" result="effect1_dropShadow_7642_10680"/>
<feBlend mode="normal" in="SourceGraphic" in2="effect1_dropShadow_7642_10680" result="shape"/>
</filter>
<filter id="filter16_d_7642_10680" x="168.542" y="421.537" width="253.917" height="49.0956" filterUnits="userSpaceOnUse" color-interpolation-filters="sRGB">
<feFlood flood-opacity="0" result="BackgroundImageFix"/>
<feColorMatrix in="SourceAlpha" type="matrix" values="0 0 0 0 0 0 0 0 0 0 0 0 0 0 0 0 0 0 127 0" result="hardAlpha"/>
<feOffset dy="0.76712"/>
<feGaussianBlur stdDeviation="0.76712"/>
<feComposite in2="hardAlpha" operator="out"/>
<feColorMatrix type="matrix" values="0 0 0 0 0.894118 0 0 0 0 0.898039 0 0 0 0 0.905882 0 0 0 0.24 0"/>
<feBlend mode="normal" in2="BackgroundImageFix" result="effect1_dropShadow_7642_10680"/>
<feBlend mode="normal" in="SourceGraphic" in2="effect1_dropShadow_7642_10680" result="shape"/>
</filter>
<filter id="filter17_d_7642_10680" x="168.542" y="498.906" width="253.917" height="49.0956" filterUnits="userSpaceOnUse" color-interpolation-filters="sRGB">
<feFlood flood-opacity="0" result="BackgroundImageFix"/>
<feColorMatrix in="SourceAlpha" type="matrix" values="0 0 0 0 0 0 0 0 0 0 0 0 0 0 0 0 0 0 127 0" result="hardAlpha"/>
<feOffset dy="0.76712"/>
<feGaussianBlur stdDeviation="0.76712"/>
<feComposite in2="hardAlpha" operator="out"/>
<feColorMatrix type="matrix" values="0 0 0 0 0.894118 0 0 0 0 0.898039 0 0 0 0 0.905882 0 0 0 0.24 0"/>
<feBlend mode="normal" in2="BackgroundImageFix" result="effect1_dropShadow_7642_10680"/>
<feBlend mode="normal" in="SourceGraphic" in2="effect1_dropShadow_7642_10680" result="shape"/>
</filter>
<filter id="filter18_d_7642_10680" x="168.542" y="576.276" width="253.917" height="49.0956" filterUnits="userSpaceOnUse" color-interpolation-filters="sRGB">
<feFlood flood-opacity="0" result="BackgroundImageFix"/>
<feColorMatrix in="SourceAlpha" type="matrix" values="0 0 0 0 0 0 0 0 0 0 0 0 0 0 0 0 0 0 127 0" result="hardAlpha"/>
<feOffset dy="0.76712"/>
<feGaussianBlur stdDeviation="0.76712"/>
<feComposite in2="hardAlpha" operator="out"/>
<feColorMatrix type="matrix" values="0 0 0 0 0.894118 0 0 0 0 0.898039 0 0 0 0 0.905882 0 0 0 0.24 0"/>
<feBlend mode="normal" in2="BackgroundImageFix" result="effect1_dropShadow_7642_10680"/>
<feBlend mode="normal" in="SourceGraphic" in2="effect1_dropShadow_7642_10680" result="shape"/>
</filter>
<linearGradient id="paint0_linear_7642_10680" x1="136.612" y1="188.779" x2="136.612" y2="191.313" gradientUnits="userSpaceOnUse">
<stop/>
<stop offset="1" stop-opacity="0"/>
</linearGradient>
<linearGradient id="paint1_linear_7642_10680" x1="138.553" y1="188.779" x2="135.835" y2="188.779" gradientUnits="userSpaceOnUse">
<stop/>
<stop offset="1" stop-color="#AEAEAE" stop-opacity="0"/>
</linearGradient>
<linearGradient id="paint2_linear_7642_10680" x1="136.612" y1="208.733" x2="136.612" y2="212.851" gradientUnits="userSpaceOnUse">
<stop stop-opacity="0"/>
<stop offset="1"/>
</linearGradient>
<linearGradient id="paint3_linear_7642_10680" x1="136.612" y1="236.146" x2="136.612" y2="239.252" gradientUnits="userSpaceOnUse">
<stop/>
<stop offset="1" stop-opacity="0"/>
</linearGradient>
<linearGradient id="paint4_linear_7642_10680" x1="138.553" y1="236.146" x2="135.836" y2="236.146" gradientUnits="userSpaceOnUse">
<stop/>
<stop offset="1" stop-color="#AEAEAE" stop-opacity="0"/>
</linearGradient>
<linearGradient id="paint5_linear_7642_10680" x1="136.612" y1="281.572" x2="136.612" y2="285.843" gradientUnits="userSpaceOnUse">
<stop stop-opacity="0"/>
<stop offset="1"/>
</linearGradient>
<linearGradient id="paint6_linear_7642_10680" x1="136.612" y1="298.267" x2="136.612" y2="301.373" gradientUnits="userSpaceOnUse">
<stop/>
<stop offset="1" stop-opacity="0"/>
</linearGradient>
<linearGradient id="paint7_linear_7642_10680" x1="138.553" y1="298.267" x2="135.836" y2="298.267" gradientUnits="userSpaceOnUse">
<stop/>
<stop offset="1" stop-color="#AEAEAE" stop-opacity="0"/>
</linearGradient>
<linearGradient id="paint8_linear_7642_10680" x1="136.612" y1="343.692" x2="136.612" y2="347.963" gradientUnits="userSpaceOnUse">
<stop stop-opacity="0"/>
<stop offset="1"/>
</linearGradient>
<linearGradient id="paint9_linear_7642_10680" x1="454.98" y1="253.229" x2="454.98" y2="256.336" gradientUnits="userSpaceOnUse">
<stop/>
<stop offset="1" stop-opacity="0"/>
</linearGradient>
<linearGradient id="paint10_linear_7642_10680" x1="453.039" y1="253.229" x2="455.757" y2="253.229" gradientUnits="userSpaceOnUse">
<stop/>
<stop offset="1" stop-color="#AEAEAE" stop-opacity="0"/>
</linearGradient>
<linearGradient id="paint11_linear_7642_10680" x1="454.98" y1="326.61" x2="454.98" y2="330.104" gradientUnits="userSpaceOnUse">
<stop stop-opacity="0"/>
<stop offset="1"/>
</linearGradient>
<radialGradient id="paint12_radial_7642_10680" cx="0" cy="0" r="1" gradientUnits="userSpaceOnUse" gradientTransform="translate(296.183 207.027) rotate(90) scale(264.013 294.546)">
<stop stop-color="#879194"/>
<stop offset="1"/>
</radialGradient>
<clipPath id="clip0_7642_10680">
<rect y="0.666504" width="592" height="600" rx="30" fill="white"/>
</clipPath>
<clipPath id="clip1_7642_10680">
<rect x="137" y="53.6665" width="317.593" height="654.598" rx="52.8027" fill="white"/>
</clipPath>
<clipPath id="clip2_7642_10680">
<rect x="141.658" y="58.3254" width="308.274" height="644.503" rx="48.1436" fill="white"/>
</clipPath>
<clipPath id="clip3_7642_10680">
<rect x="151.665" y="67.894" width="287.67" height="624.8" rx="30.6848" fill="white"/>
</clipPath>
</defs>
</svg>
