<svg width="592" height="600" viewBox="0 0 592 600" fill="none" xmlns="http://www.w3.org/2000/svg">
<g clip-path="url(#clip0_7638_7081)">
<rect width="592" height="600" rx="30" fill="#DE811D"/>
<path d="M118.433 229.08C118.433 228.135 119.199 227.369 120.144 227.369H122.712V253.897H120.144C119.199 253.897 118.433 253.131 118.433 252.185V229.08Z" fill="#2F3233"/>
<path opacity="0.4" d="M118.433 229.08C118.433 228.135 119.199 227.369 120.144 227.369H122.712V253.897H120.144C119.199 253.897 118.433 253.131 118.433 252.185V229.08Z" fill="url(#paint0_linear_7638_7081)"/>
<path opacity="0.4" d="M118.433 229.08C118.433 228.135 119.199 227.369 120.144 227.369H122.712V253.897H120.144C119.199 253.897 118.433 253.131 118.433 252.185V229.08Z" fill="url(#paint1_linear_7638_7081)"/>
<path opacity="0.4" d="M118.433 229.08C118.433 228.135 119.199 227.369 120.144 227.369H122.712V253.897H120.144C119.199 253.897 118.433 253.131 118.433 252.185V229.08Z" fill="url(#paint2_linear_7638_7081)"/>
<g filter="url(#filter0_f_7638_7081)">
<path d="M119.289 228.652C119.289 228.416 119.481 228.224 119.717 228.224C119.954 228.224 120.145 228.416 120.145 228.652V229.936H119.289V228.652Z" fill="#9E9E9E"/>
</g>
<g filter="url(#filter1_f_7638_7081)">
<path d="M119.289 229.936H120.145V251.757C120.145 251.994 119.954 252.185 119.717 252.185C119.481 252.185 119.289 251.994 119.289 251.757V229.936Z" fill="#8B8B8B" fill-opacity="0.8"/>
</g>
<path d="M118.433 281.28C118.433 280.335 119.199 279.569 120.145 279.569H122.712V334.337H120.145C119.199 334.337 118.433 333.57 118.433 332.625V281.28Z" fill="#2F3233"/>
<path opacity="0.4" d="M118.433 281.28C118.433 280.335 119.199 279.569 120.145 279.569H122.712V334.337H120.145C119.199 334.337 118.433 333.57 118.433 332.625V281.28Z" fill="url(#paint3_linear_7638_7081)"/>
<path opacity="0.4" d="M118.433 281.28C118.433 280.335 119.199 279.569 120.145 279.569H122.712V334.337H120.145C119.199 334.337 118.433 333.57 118.433 332.625V281.28Z" fill="url(#paint4_linear_7638_7081)"/>
<path opacity="0.4" d="M118.433 281.28C118.433 280.335 119.199 279.569 120.145 279.569H122.712V334.337H120.145C119.199 334.337 118.433 333.57 118.433 332.625V281.28Z" fill="url(#paint5_linear_7638_7081)"/>
<g filter="url(#filter2_f_7638_7081)">
<path d="M119.29 281.709C119.29 281.472 119.481 281.281 119.717 281.281C119.954 281.281 120.145 281.472 120.145 281.709V282.992H119.29V281.709Z" fill="#9E9E9E"/>
</g>
<g filter="url(#filter3_f_7638_7081)">
<path d="M119.29 282.992H120.145V332.198C120.145 332.434 119.954 332.625 119.717 332.625C119.481 332.625 119.29 332.434 119.29 332.198V282.992Z" fill="#8B8B8B" fill-opacity="0.8"/>
</g>
<path d="M118.433 349.74C118.433 348.795 119.199 348.028 120.145 348.028H122.712V402.796H120.145C119.199 402.796 118.433 402.03 118.433 401.085V349.74Z" fill="#2F3233"/>
<path opacity="0.4" d="M118.433 349.74C118.433 348.795 119.199 348.028 120.145 348.028H122.712V402.796H120.145C119.199 402.796 118.433 402.03 118.433 401.085V349.74Z" fill="url(#paint6_linear_7638_7081)"/>
<path opacity="0.4" d="M118.433 349.74C118.433 348.795 119.199 348.028 120.145 348.028H122.712V402.796H120.145C119.199 402.796 118.433 402.03 118.433 401.085V349.74Z" fill="url(#paint7_linear_7638_7081)"/>
<path opacity="0.4" d="M118.433 349.74C118.433 348.795 119.199 348.028 120.145 348.028H122.712V402.796H120.145C119.199 402.796 118.433 402.03 118.433 401.085V349.74Z" fill="url(#paint8_linear_7638_7081)"/>
<g filter="url(#filter4_f_7638_7081)">
<path d="M119.29 350.168C119.29 349.932 119.481 349.74 119.717 349.74C119.954 349.74 120.145 349.932 120.145 350.168V351.451H119.29V350.168Z" fill="#9E9E9E"/>
</g>
<g filter="url(#filter5_f_7638_7081)">
<path d="M119.29 351.451H120.145V400.657C120.145 400.893 119.954 401.085 119.717 401.085C119.481 401.085 119.29 400.893 119.29 400.657V351.451Z" fill="#8B8B8B" fill-opacity="0.8"/>
</g>
<path d="M473.567 300.107C473.567 299.162 472.801 298.395 471.855 298.395H469.288V383.114H471.855C472.801 383.114 473.567 382.348 473.567 381.403V300.107Z" fill="#2F3233"/>
<path opacity="0.4" d="M473.567 300.107C473.567 299.162 472.801 298.395 471.855 298.395H469.288V383.114H471.855C472.801 383.114 473.567 382.348 473.567 381.403V300.107Z" fill="url(#paint9_linear_7638_7081)"/>
<path opacity="0.4" d="M473.567 300.107C473.567 299.162 472.801 298.395 471.855 298.395H469.288V383.114H471.855C472.801 383.114 473.567 382.348 473.567 381.403V300.107Z" fill="url(#paint10_linear_7638_7081)"/>
<path opacity="0.4" d="M473.567 300.107C473.567 299.162 472.801 298.395 471.855 298.395H469.288V383.114H471.855C472.801 383.114 473.567 382.348 473.567 381.403V300.107Z" fill="url(#paint11_linear_7638_7081)"/>
<g filter="url(#filter6_f_7638_7081)">
<path d="M472.711 300.535C472.711 300.298 472.519 300.107 472.283 300.107C472.046 300.107 471.855 300.298 471.855 300.535V301.818H472.711V300.535Z" fill="#9E9E9E"/>
</g>
<g filter="url(#filter7_f_7638_7081)">
<path d="M472.711 301.818H471.855V380.975C471.855 381.211 472.046 381.403 472.283 381.403C472.519 381.403 472.711 381.211 472.711 380.975V301.818Z" fill="#8B8B8B" fill-opacity="0.8"/>
</g>
<g clip-path="url(#clip1_7638_7081)">
<rect x="120.999" y="78.4685" width="350" height="721.394" rx="58.1907" fill="#717576"/>
<g filter="url(#filter8_f_7638_7081)">
<rect x="122.283" y="79.7521" width="347.433" height="718.826" rx="56.9071" stroke="#252726" stroke-width="2.56724"/>
</g>
<g filter="url(#filter9_f_7638_7081)">
<rect x="121.427" y="78.8964" width="349.144" height="720.538" rx="57.7628" stroke="#1F2120" stroke-width="0.855746"/>
</g>
<g filter="url(#filter10_f_7638_7081)">
<rect x="125.706" y="83.1751" width="340.587" height="711.125" rx="53.4841" stroke="#313234" stroke-width="0.855746"/>
</g>
<rect x="125.961" y="83.432" width="340.073" height="710.611" rx="53.2274" stroke="#343537" stroke-width="0.342298"/>
</g>
<g clip-path="url(#clip2_7638_7081)">
<rect x="126.133" y="83.6033" width="339.731" height="710.269" rx="53.0562" fill="#000100"/>
<g filter="url(#filter11_f_7638_7081)">
<rect x="127.845" y="85.3148" width="336.308" height="706.846" rx="51.3448" stroke="url(#paint12_radial_7638_7081)" stroke-width="3.42298"/>
</g>
</g>
<g clip-path="url(#clip3_7638_7081)">
<rect x="137.052" y="93.9904" width="317.021" height="688.555" rx="43.75" fill="#FAFAFA"/>
<path d="M172.439 110.931C174.909 110.931 177.058 112.687 177.058 116.857V116.873C177.058 120.771 175.302 123.081 172.391 123.081C170.265 123.081 168.678 121.822 168.309 120.049L168.293 119.961H170.33L170.354 120.041C170.658 120.851 171.372 121.381 172.391 121.381C174.227 121.381 175.005 119.584 175.093 117.371C175.093 117.282 175.101 117.194 175.101 117.106H174.941C174.516 118.02 173.505 118.83 171.918 118.83C169.696 118.83 168.14 117.21 168.14 115.013V114.997C168.14 112.647 169.929 110.931 172.439 110.931ZM172.431 117.242C173.738 117.242 174.741 116.296 174.741 114.989V114.973C174.741 113.649 173.738 112.615 172.455 112.615C171.18 112.615 170.161 113.633 170.161 114.925V114.941C170.161 116.28 171.116 117.242 172.431 117.242ZM180.305 115.294C179.575 115.294 179.03 114.732 179.03 114.026C179.03 113.313 179.575 112.759 180.305 112.759C181.043 112.759 181.58 113.313 181.58 114.026C181.58 114.732 181.043 115.294 180.305 115.294ZM180.305 121.244C179.575 121.244 179.03 120.691 179.03 119.977C179.03 119.263 179.575 118.71 180.305 118.71C181.043 118.71 181.58 119.263 181.58 119.977C181.58 120.691 181.043 121.244 180.305 121.244ZM189.166 122.792V120.571H183.504V118.878C185.004 116.272 186.648 113.609 188.22 111.219H191.147V118.862H192.703V120.571H191.147V122.792H189.166ZM185.429 118.91H189.198V112.872H189.078C187.891 114.684 186.551 116.825 185.429 118.79V118.91ZM197.104 122.792V113.256H196.968L194.089 115.294V113.345L197.112 111.219H199.173V122.792H197.104Z" fill="black"/>
<path opacity="0.35" d="M414.217 110.499H428.588C430.209 110.499 431.523 111.813 431.523 113.434V117.661C431.523 119.282 430.209 120.597 428.588 120.597H414.217C412.595 120.597 411.281 119.282 411.281 117.661V113.434C411.281 111.813 412.595 110.499 414.217 110.499Z" stroke="black" stroke-width="0.891959"/>
<path opacity="0.4" d="M432.815 114.28V117.847C433.533 117.545 434 116.842 434 116.063C434 115.285 433.533 114.582 432.815 114.28Z" fill="black"/>
<path d="M412.526 113.434C412.526 112.5 413.283 111.743 414.216 111.743H428.588C429.522 111.743 430.279 112.5 430.279 113.434V117.661C430.279 118.595 429.522 119.352 428.588 119.352H414.216C413.283 119.352 412.526 118.595 412.526 117.661V113.434Z" fill="black"/>
<path d="M395.715 118.579C396.916 117.543 398.674 117.543 399.874 118.579C399.935 118.635 399.969 118.714 399.971 118.797C399.973 118.88 399.941 118.96 399.883 119.018L398.003 120.954C397.948 121.011 397.873 121.043 397.794 121.043C397.716 121.043 397.641 121.011 397.586 120.954L395.706 119.018C395.648 118.96 395.616 118.88 395.618 118.797C395.619 118.714 395.655 118.635 395.715 118.579ZM393.174 116.192C395.76 113.737 399.765 113.737 402.351 116.192C402.409 116.25 402.443 116.328 402.444 116.411C402.445 116.494 402.413 116.574 402.356 116.633L401.269 117.754C401.157 117.868 400.976 117.87 400.862 117.759C400.013 116.974 398.908 116.539 397.762 116.539C396.617 116.539 395.513 116.974 394.664 117.759C394.55 117.87 394.368 117.868 394.256 117.754L393.17 116.633C393.113 116.574 393.081 116.494 393.081 116.411C393.082 116.328 393.116 116.25 393.174 116.192ZM390.636 113.808C394.603 109.928 400.86 109.928 404.827 113.808C404.884 113.866 404.917 113.945 404.917 114.027C404.918 114.109 404.886 114.189 404.829 114.247L403.742 115.367C403.63 115.482 403.447 115.483 403.333 115.37C401.822 113.904 399.817 113.086 397.732 113.086C395.647 113.086 393.641 113.903 392.129 115.37C392.016 115.483 391.833 115.482 391.721 115.367L390.633 114.247C390.577 114.189 390.545 114.109 390.545 114.027C390.546 113.945 390.579 113.866 390.636 113.808Z" fill="black"/>
<path d="M377.019 113.434C377.019 112.967 377.398 112.589 377.865 112.589H378.71C379.177 112.589 379.556 112.967 379.556 113.434V120.197C379.556 120.664 379.177 121.043 378.71 121.043H377.865C377.398 121.043 377.019 120.664 377.019 120.197V113.434Z" fill="black"/>
<path d="M381.246 111.744C381.246 111.277 381.625 110.898 382.092 110.898H382.937C383.404 110.898 383.782 111.277 383.782 111.744V120.197C383.782 120.664 383.404 121.043 382.937 121.043H382.092C381.625 121.043 381.246 120.664 381.246 120.197V111.744Z" fill="black"/>
<path d="M372.792 116.393C372.792 115.926 373.171 115.548 373.638 115.548H374.483C374.95 115.548 375.329 115.926 375.329 116.393V120.197C375.329 120.664 374.95 121.043 374.483 121.043H373.638C373.171 121.043 372.792 120.664 372.792 120.197V116.393Z" fill="black"/>
<path d="M368.565 118.507C368.565 118.04 368.944 117.661 369.411 117.661H370.256C370.723 117.661 371.102 118.04 371.102 118.507V120.197C371.102 120.664 370.723 121.043 370.256 121.043H369.411C368.944 121.043 368.565 120.664 368.565 120.197V118.507Z" fill="black"/>
<path d="M241.431 190.165H243.62C243.778 191.582 245.156 192.513 247.038 192.513C248.841 192.513 250.139 191.582 250.139 190.304C250.139 189.194 249.356 188.531 247.503 188.075L245.651 187.629C243.026 186.995 241.807 185.767 241.807 183.775C241.807 181.308 243.957 179.614 247.008 179.614C250.03 179.614 252.1 181.308 252.17 183.775H250.01C249.881 182.349 248.702 181.487 246.978 181.487C245.255 181.487 244.076 182.359 244.076 183.627C244.076 184.637 244.829 185.232 246.671 185.687L248.246 186.074C251.179 186.767 252.397 187.946 252.397 190.036C252.397 192.711 250.267 194.386 246.879 194.386C243.709 194.386 241.569 192.751 241.431 190.165ZM258.49 185.261C256.994 185.261 255.944 186.401 255.835 187.976H261.046C260.997 186.381 259.986 185.261 258.49 185.261ZM261.036 191.087H263.067C262.77 192.989 260.967 194.346 258.579 194.346C255.518 194.346 253.666 192.275 253.666 188.986C253.666 185.717 255.548 183.538 258.49 183.538C261.383 183.538 263.186 185.578 263.186 188.739V189.472H255.825V189.601C255.825 191.414 256.915 192.612 258.629 192.612C259.847 192.612 260.749 191.998 261.036 191.087ZM264.85 194.148V183.726H266.891V185.469H266.941C267.506 184.281 268.615 183.547 270.22 183.547C272.518 183.547 273.836 185.014 273.836 187.401V194.148H271.686V187.817C271.686 186.252 270.953 185.39 269.467 185.39C267.961 185.39 266.99 186.46 266.99 188.075V194.148H264.85ZM279.82 194.326C277.185 194.326 275.441 192.226 275.441 188.937C275.441 185.648 277.185 183.557 279.8 183.557C281.296 183.557 282.485 184.31 283.069 185.459H283.109V179.852H285.259V194.148H283.178V192.374H283.139C282.524 193.563 281.336 194.326 279.82 194.326ZM280.385 185.36C278.69 185.36 277.63 186.747 277.63 188.937C277.63 191.136 278.69 192.513 280.385 192.513C282.029 192.513 283.129 191.116 283.129 188.937C283.129 186.777 282.029 185.36 280.385 185.36ZM297.87 194.386C293.858 194.386 291.322 191.552 291.322 186.995C291.322 182.468 293.878 179.614 297.87 179.614C301.11 179.614 303.557 181.606 303.933 184.588H301.734C301.338 182.755 299.812 181.556 297.87 181.556C295.275 181.556 293.59 183.686 293.59 186.995C293.59 190.334 295.255 192.444 297.88 192.444C299.871 192.444 301.288 191.423 301.734 189.7H303.943C303.398 192.652 301.159 194.386 297.87 194.386ZM305.687 194.148V183.726H307.728V185.499H307.777C308.124 184.281 309.055 183.557 310.284 183.557C310.591 183.557 310.858 183.607 311.017 183.637V185.628C310.848 185.559 310.472 185.509 310.056 185.509C308.679 185.509 307.827 186.43 307.827 187.906V194.148H305.687ZM313.375 198.031C313.206 198.031 312.661 198.012 312.503 197.982V196.248C312.661 196.288 313.018 196.288 313.196 196.288C314.197 196.288 314.722 195.872 315.049 194.802C315.049 194.782 315.237 194.168 315.237 194.158L311.472 183.726H313.791L316.436 192.206H316.465L319.111 183.726H321.369L317.456 194.693C316.565 197.219 315.544 198.031 313.375 198.031ZM328.057 183.557C330.702 183.557 332.445 185.638 332.445 188.937C332.445 192.236 330.712 194.326 328.096 194.326C326.6 194.326 325.411 193.593 324.817 192.434H324.767V197.595H322.628V183.726H324.698V185.519H324.738C325.352 184.32 326.551 183.557 328.057 183.557ZM327.492 192.513C329.186 192.513 330.246 191.126 330.246 188.937C330.246 186.757 329.186 185.36 327.492 185.36C325.857 185.36 324.758 186.787 324.758 188.937C324.758 191.106 325.847 192.513 327.492 192.513ZM334.724 181.259H336.874V183.726H338.855V185.42H336.874V191.166C336.874 192.067 337.27 192.474 338.142 192.474C338.36 192.474 338.707 192.454 338.845 192.424V194.118C338.607 194.178 338.132 194.217 337.656 194.217C335.546 194.217 334.724 193.415 334.724 191.404V185.42H333.208V183.726H334.724V181.259ZM344.839 194.346C341.857 194.346 339.895 192.295 339.895 188.937C339.895 185.588 341.867 183.538 344.839 183.538C347.811 183.538 349.782 185.588 349.782 188.937C349.782 192.295 347.821 194.346 344.839 194.346ZM344.839 192.583C346.523 192.583 347.603 191.255 347.603 188.937C347.603 186.628 346.513 185.301 344.839 185.301C343.165 185.301 342.075 186.628 342.075 188.937C342.075 191.255 343.165 192.583 344.839 192.583Z" fill="#292D50"/>
<path d="M163.959 150.631H174.249V152.322H163.959L168.494 156.857L167.298 158.052L160.723 151.477L167.298 144.901L168.494 146.097L163.959 150.631Z" fill="black"/>
<rect x="157.763" y="227.139" width="275.597" height="40.444" rx="20.222" fill="#EFEFEF"/>
<rect x="157.763" y="227.139" width="275.597" height="40.444" rx="20.222" stroke="#EFEFEF" stroke-width="0.84539"/>
<g filter="url(#filter12_dd_7638_7081)">
<rect x="160.722" y="230.098" width="138.221" height="34.5262" rx="17.2631" fill="#292D50" shape-rendering="crispEdges"/>
<rect x="161.145" y="230.521" width="137.376" height="33.6809" rx="16.8404" stroke="#292D50" stroke-width="0.84539" shape-rendering="crispEdges"/>
<path d="M216.662 251C214.322 251 212.842 249.347 212.842 246.689C212.842 244.048 214.333 242.383 216.662 242.383C218.552 242.383 219.98 243.545 220.199 245.285H218.916C218.685 244.215 217.795 243.516 216.662 243.516C215.148 243.516 214.166 244.759 214.166 246.689C214.166 248.636 215.137 249.867 216.668 249.867C217.83 249.867 218.656 249.272 218.916 248.267H220.205C219.887 249.989 218.581 251 216.662 251ZM221.222 250.861V244.782H222.412V245.816H222.441C222.644 245.105 223.187 244.684 223.903 244.684C224.083 244.684 224.239 244.712 224.331 244.73V245.891C224.233 245.851 224.013 245.822 223.771 245.822C222.967 245.822 222.47 246.359 222.47 247.221V250.861H221.222ZM225.707 253.127C225.608 253.127 225.29 253.115 225.198 253.098V252.086C225.29 252.11 225.498 252.11 225.603 252.11C226.186 252.11 226.492 251.867 226.683 251.243C226.683 251.231 226.793 250.873 226.793 250.867L224.597 244.782H225.949L227.492 249.729H227.51L229.053 244.782H230.37L228.088 251.179C227.567 252.653 226.972 253.127 225.707 253.127ZM234.271 244.684C235.814 244.684 236.831 245.897 236.831 247.822C236.831 249.746 235.82 250.965 234.294 250.965C233.422 250.965 232.728 250.538 232.381 249.862H232.352V252.872H231.104V244.782H232.312V245.828H232.335C232.693 245.129 233.393 244.684 234.271 244.684ZM233.942 249.908C234.93 249.908 235.548 249.099 235.548 247.822C235.548 246.55 234.93 245.735 233.942 245.735C232.988 245.735 232.347 246.568 232.347 247.822C232.347 249.087 232.982 249.908 233.942 249.908ZM238.16 243.343H239.414V244.782H240.57V245.77H239.414V249.122C239.414 249.648 239.646 249.885 240.154 249.885C240.281 249.885 240.484 249.873 240.564 249.856V250.844C240.426 250.879 240.148 250.902 239.871 250.902C238.64 250.902 238.16 250.434 238.16 249.261V245.77H237.276V244.782H238.16V243.343ZM244.061 250.977C242.321 250.977 241.177 249.781 241.177 247.822C241.177 245.868 242.327 244.672 244.061 244.672C245.794 244.672 246.944 245.868 246.944 247.822C246.944 249.781 245.8 250.977 244.061 250.977ZM244.061 249.948C245.043 249.948 245.673 249.174 245.673 247.822C245.673 246.475 245.037 245.701 244.061 245.701C243.084 245.701 242.448 246.475 242.448 247.822C242.448 249.174 243.084 249.948 244.061 249.948Z" fill="white"/>
</g>
<path d="M359.218 250.861H357.924V242.522H363.131V243.638H359.218V246.279H362.801V247.371H359.218V250.861ZM364.148 250.861V244.782H365.396V250.861H364.148ZM364.772 243.892C364.373 243.892 364.049 243.574 364.049 243.181C364.049 242.782 364.373 242.464 364.772 242.464C365.176 242.464 365.5 242.782 365.5 243.181C365.5 243.574 365.176 243.892 364.772 243.892ZM368.8 249.977C369.672 249.977 370.354 249.376 370.354 248.584V248.105L368.858 248.197C368.112 248.249 367.69 248.579 367.69 249.099C367.69 249.63 368.129 249.977 368.8 249.977ZM368.453 250.965C367.263 250.965 366.43 250.226 366.43 249.133C366.43 248.07 367.245 247.417 368.69 247.336L370.354 247.238V246.77C370.354 246.094 369.898 245.689 369.135 245.689C368.413 245.689 367.962 246.036 367.852 246.579H366.673C366.742 245.481 367.679 244.672 369.181 244.672C370.655 244.672 371.597 245.452 371.597 246.672V250.861H370.401V249.862H370.372C370.019 250.538 369.251 250.965 368.453 250.965ZM373.174 243.343H374.429V244.782H375.584V245.77H374.429V249.122C374.429 249.648 374.66 249.885 375.168 249.885C375.295 249.885 375.498 249.873 375.579 249.856V250.844C375.44 250.879 375.162 250.902 374.885 250.902C373.654 250.902 373.174 250.434 373.174 249.261V245.77H372.29V244.782H373.174V243.343Z" fill="#868C98"/>
<path d="M160.882 299.585H159.773V293.393H157.583V292.437H163.067V293.393H160.882V299.585ZM164.745 299.684C163.254 299.684 162.273 298.658 162.273 296.979C162.273 295.305 163.259 294.279 164.745 294.279C166.231 294.279 167.216 295.305 167.216 296.979C167.216 298.658 166.236 299.684 164.745 299.684ZM164.745 298.802C165.587 298.802 166.127 298.138 166.127 296.979C166.127 295.825 165.582 295.161 164.745 295.161C163.908 295.161 163.363 295.825 163.363 296.979C163.363 298.138 163.908 298.802 164.745 298.802ZM169.102 296.608L171.208 294.374H172.466L170.306 296.617L172.55 299.585H171.307L169.538 297.271L169.092 297.712V299.585H168.022V292.437H169.092V296.608H169.102ZM174.976 295.141C174.228 295.141 173.703 295.711 173.648 296.499H176.254C176.229 295.701 175.724 295.141 174.976 295.141ZM176.249 298.054H177.264C177.116 299.005 176.214 299.684 175.02 299.684C173.49 299.684 172.563 298.648 172.563 297.004C172.563 295.369 173.505 294.279 174.976 294.279C176.422 294.279 177.324 295.3 177.324 296.88V297.247H173.643V297.311C173.643 298.217 174.188 298.817 175.045 298.817C175.654 298.817 176.105 298.51 176.249 298.054ZM178.095 299.585V294.374H179.115V295.245H179.14C179.422 294.651 179.977 294.284 180.78 294.284C181.929 294.284 182.588 295.018 182.588 296.211V299.585H181.513V296.419C181.513 295.637 181.146 295.206 180.403 295.206C179.65 295.206 179.165 295.741 179.165 296.548V299.585H178.095Z" fill="#0A0D14"/>
<g filter="url(#filter13_d_7638_7081)">
<rect x="157.341" y="307.966" width="276.443" height="50.7234" rx="8.4539" fill="white"/>
<rect x="157.763" y="308.389" width="275.597" height="49.878" rx="8.03121" stroke="#E2E4E9" stroke-width="0.84539"/>
<rect x="167.908" y="316.936" width="90.4012" height="32.7827" rx="6.34043" fill="#F7F7F7"/>
<rect x="167.908" y="316.936" width="90.4012" height="32.7827" rx="6.34043" stroke="#E2E4E9" stroke-width="0.84539"/>
<g clip-path="url(#clip4_7638_7081)">
<path d="M184.393 340.091C188.128 340.091 191.156 337.063 191.156 333.328C191.156 329.593 188.128 326.565 184.393 326.565C180.658 326.565 177.63 329.593 177.63 333.328C177.63 337.063 180.658 340.091 184.393 340.091Z" fill="#F3BA2F"/>
<path d="M182.751 332.653L184.393 331.011L186.036 332.654L186.991 331.699L184.393 329.101L181.796 331.698L182.751 332.653ZM180.166 333.328L181.122 332.372L182.077 333.328L181.122 334.283L180.166 333.328ZM182.751 334.002L184.393 335.644L186.036 334.002L186.991 334.956L184.393 337.555L181.796 334.958L181.795 334.956L182.751 334.002ZM186.71 333.328L187.665 332.372L188.62 333.328L187.665 334.283L186.71 333.328ZM185.362 333.327H185.363V333.328L184.393 334.297L183.425 333.329L183.423 333.328L183.425 333.327L183.594 333.157L183.677 333.074L184.393 332.358L185.362 333.327L185.362 333.327Z" fill="white"/>
</g>
<path d="M202.057 337.328H198.711V328.989H202.04C203.519 328.989 204.49 329.809 204.49 331.069C204.49 331.953 203.837 332.745 203.005 332.884V332.93C204.138 333.057 204.9 333.86 204.9 334.97C204.9 336.438 203.831 337.328 202.057 337.328ZM200.006 330.046V332.537H201.456C202.577 332.537 203.196 332.075 203.196 331.248C203.196 330.474 202.664 330.046 201.728 330.046H200.006ZM200.006 336.27H201.791C202.959 336.27 203.577 335.791 203.577 334.889C203.577 333.988 202.941 333.525 201.716 333.525H200.006V336.27ZM207.276 337.328H206.016V328.989H207.189L211.512 335.138H211.558V328.989H212.818V337.328H211.65L207.328 331.185H207.276V337.328ZM217.707 337.328H214.361V328.989H217.689C219.169 328.989 220.14 329.809 220.14 331.069C220.14 331.953 219.487 332.745 218.654 332.884V332.93C219.787 333.057 220.55 333.86 220.55 334.97C220.55 336.438 219.481 337.328 217.707 337.328ZM215.655 330.046V332.537H217.106C218.227 332.537 218.845 332.075 218.845 331.248C218.845 330.474 218.313 330.046 217.377 330.046H215.655ZM215.655 336.27H217.441C218.608 336.27 219.227 335.791 219.227 334.889C219.227 333.988 218.591 333.525 217.366 333.525H215.655V336.27Z" fill="#0A0D14"/>
<path d="M238.135 334.224L233.95 330.04L232.755 331.235L238.135 336.616L243.515 331.235L242.319 330.04L238.135 334.224Z" fill="#868C98"/>
</g>
<path d="M162.076 382.208L160.536 387.597H159.486L157.559 380.45H158.713L160.035 386.047H160.075L161.586 380.45H162.616L164.132 386.047H164.172L165.494 380.45H166.648L164.716 387.597H163.671L162.126 382.208H162.076ZM168.48 386.84C169.228 386.84 169.812 386.324 169.812 385.646V385.235L168.529 385.314C167.89 385.358 167.529 385.641 167.529 386.087C167.529 386.542 167.905 386.84 168.48 386.84ZM168.182 387.687C167.162 387.687 166.449 387.053 166.449 386.116C166.449 385.205 167.147 384.645 168.385 384.576L169.812 384.492V384.09C169.812 383.511 169.421 383.164 168.767 383.164C168.148 383.164 167.761 383.461 167.667 383.927H166.657C166.716 382.986 167.519 382.292 168.807 382.292C170.07 382.292 170.877 382.961 170.877 384.006V387.597H169.852V386.74H169.827C169.525 387.32 168.866 387.687 168.182 387.687ZM171.896 387.597V380.45H172.966V387.597H171.896ZM174.044 387.597V380.45H175.114V387.597H174.044ZM178.333 383.154C177.585 383.154 177.06 383.724 177.005 384.511H179.611C179.586 383.714 179.081 383.154 178.333 383.154ZM179.606 386.067H180.621C180.473 387.018 179.571 387.696 178.377 387.696C176.847 387.696 175.92 386.661 175.92 385.017C175.92 383.382 176.862 382.292 178.333 382.292C179.779 382.292 180.681 383.313 180.681 384.893V385.259H177V385.324C177 386.23 177.545 386.83 178.402 386.83C179.011 386.83 179.462 386.523 179.606 386.067ZM181.764 381.153H182.839V382.386H183.83V383.233H182.839V386.106C182.839 386.557 183.037 386.76 183.473 386.76C183.582 386.76 183.755 386.75 183.825 386.736V387.583C183.706 387.612 183.468 387.632 183.23 387.632C182.175 387.632 181.764 387.231 181.764 386.225V383.233H181.006V382.386H181.764V381.153ZM191.435 387.597L190.781 385.666H188.057L187.403 387.597H186.249L188.83 380.45H190.028L192.609 387.597H191.435ZM189.404 381.638L188.339 384.774H190.499L189.434 381.638H189.404ZM195.025 387.687C193.707 387.687 192.836 386.636 192.836 384.992C192.836 383.347 193.707 382.302 195.015 382.302C195.763 382.302 196.358 382.679 196.65 383.253H196.67V380.45H197.745V387.597H196.704V386.711H196.685C196.377 387.305 195.783 387.687 195.025 387.687ZM195.307 383.204C194.46 383.204 193.93 383.897 193.93 384.992C193.93 386.092 194.46 386.78 195.307 386.78C196.13 386.78 196.68 386.082 196.68 384.992C196.68 383.912 196.13 383.204 195.307 383.204ZM200.74 387.687C199.422 387.687 198.551 386.636 198.551 384.992C198.551 383.347 199.422 382.302 200.73 382.302C201.478 382.302 202.072 382.679 202.365 383.253H202.385V380.45H203.459V387.597H202.419V386.711H202.399C202.092 387.305 201.498 387.687 200.74 387.687ZM201.022 383.204C200.175 383.204 199.645 383.897 199.645 384.992C199.645 386.092 200.175 386.78 201.022 386.78C201.845 386.78 202.394 386.082 202.394 384.992C202.394 383.912 201.845 383.204 201.022 383.204ZM204.498 387.597V382.386H205.519V383.273H205.543C205.717 382.664 206.182 382.302 206.797 382.302C206.95 382.302 207.084 382.327 207.163 382.342V383.337C207.079 383.303 206.891 383.278 206.683 383.278C205.994 383.278 205.568 383.739 205.568 384.477V387.597H204.498ZM209.718 383.154C208.97 383.154 208.445 383.724 208.39 384.511H210.996C210.971 383.714 210.466 383.154 209.718 383.154ZM210.991 386.067H212.006C211.858 387.018 210.956 387.696 209.762 387.696C208.232 387.696 207.305 386.661 207.305 385.017C207.305 383.382 208.247 382.292 209.718 382.292C211.164 382.292 212.066 383.313 212.066 384.893V385.259H208.385V385.324C208.385 386.23 208.93 386.83 209.787 386.83C210.396 386.83 210.847 386.523 210.991 386.067ZM212.743 383.863C212.743 382.931 213.565 382.292 214.784 382.292C215.943 382.292 216.755 382.941 216.79 383.867H215.784C215.735 383.397 215.353 383.105 214.754 383.105C214.174 383.105 213.788 383.387 213.788 383.798C213.788 384.12 214.046 384.338 214.586 384.472L215.462 384.675C216.512 384.927 216.909 385.324 216.909 386.092C216.909 387.043 216.022 387.696 214.744 387.696C213.511 387.696 212.693 387.057 212.609 386.101H213.669C213.753 386.602 214.14 386.879 214.794 386.879C215.438 386.879 215.834 386.612 215.834 386.191C215.834 385.859 215.636 385.675 215.091 385.537L214.16 385.309C213.218 385.081 212.743 384.591 212.743 383.863ZM217.586 383.863C217.586 382.931 218.408 382.292 219.627 382.292C220.786 382.292 221.598 382.941 221.633 383.867H220.627C220.578 383.397 220.196 383.105 219.597 383.105C219.017 383.105 218.631 383.387 218.631 383.798C218.631 384.12 218.889 384.338 219.429 384.472L220.305 384.675C221.356 384.927 221.752 385.324 221.752 386.092C221.752 387.043 220.865 387.696 219.587 387.696C218.354 387.696 217.536 387.057 217.452 386.101H218.512C218.596 386.602 218.983 386.879 219.637 386.879C220.281 386.879 220.677 386.612 220.677 386.191C220.677 385.859 220.479 385.675 219.934 385.537L219.003 385.309C218.061 385.081 217.586 384.591 217.586 383.863Z" fill="#0A0D14"/>
<g filter="url(#filter14_d_7638_7081)">
<rect x="157.341" y="395.979" width="276.443" height="50.7234" rx="8.4539" fill="white"/>
<rect x="157.763" y="396.402" width="275.597" height="49.878" rx="8.03121" stroke="#E2E4E9" stroke-width="0.84539"/>
<path d="M173.357 424.904V425.841H168.294V417.502H169.335V424.904H173.357ZM176.662 425.945C174.998 425.945 173.877 424.748 173.877 422.836C173.877 420.917 174.998 419.726 176.662 419.726C178.321 419.726 179.442 420.917 179.442 422.836C179.442 424.748 178.321 425.945 176.662 425.945ZM176.662 425.061C177.726 425.061 178.419 424.251 178.419 422.836C178.419 421.42 177.726 420.611 176.662 420.611C175.599 420.611 174.9 421.42 174.9 422.836C174.9 424.251 175.599 425.061 176.662 425.061ZM180.459 425.841V419.831H181.407V420.79H181.43C181.765 420.143 182.407 419.726 183.337 419.726C184.655 419.726 185.418 420.576 185.418 421.94V425.841H184.412V422.119C184.412 421.148 183.956 420.616 183.031 420.616C182.083 420.616 181.465 421.287 181.465 422.304V425.841H180.459ZM189.145 425.003C190.191 425.003 190.89 424.136 190.89 422.812C190.89 421.489 190.191 420.611 189.145 420.611C188.111 420.611 187.435 421.466 187.435 422.812C187.435 424.159 188.111 425.003 189.145 425.003ZM189.18 428.106C187.856 428.106 186.81 427.361 186.643 426.338H187.677C187.874 426.887 188.469 427.251 189.22 427.251C190.261 427.251 190.89 426.65 190.89 425.754V424.806H190.867C190.497 425.459 189.787 425.887 188.943 425.887C187.411 425.887 186.406 424.679 186.406 422.812C186.406 420.929 187.411 419.726 188.966 419.726C189.816 419.726 190.521 420.143 190.919 420.842H190.937V419.831H191.896V425.719C191.896 427.153 190.838 428.106 189.18 428.106ZM198.553 419.726C200.085 419.726 201.125 420.952 201.125 422.836C201.125 424.72 200.091 425.945 198.577 425.945C197.715 425.945 197.022 425.523 196.664 424.864H196.641V427.846H195.635V419.831H196.589V420.848H196.612C196.982 420.171 197.681 419.726 198.553 419.726ZM198.357 425.061C199.426 425.061 200.096 424.199 200.096 422.836C200.096 421.478 199.426 420.611 198.357 420.611C197.328 420.611 196.635 421.501 196.635 422.836C196.635 424.176 197.328 425.061 198.357 425.061ZM202.142 425.841V419.831H203.09V420.813H203.113C203.31 420.148 203.864 419.726 204.569 419.726C204.743 419.726 204.893 419.755 204.974 419.767V420.744C204.893 420.715 204.679 420.686 204.437 420.686C203.656 420.686 203.148 421.246 203.148 422.096V425.841H202.142ZM207.915 420.599C206.973 420.599 206.315 421.321 206.251 422.321H209.516C209.493 421.316 208.863 420.599 207.915 420.599ZM209.493 424.119H210.481C210.308 425.17 209.291 425.945 207.979 425.945C206.257 425.945 205.211 424.748 205.211 422.859C205.211 420.992 206.274 419.726 207.933 419.726C209.557 419.726 210.556 420.905 210.556 422.726V423.107H206.245V423.165C206.245 424.315 206.921 425.072 208.002 425.072C208.765 425.072 209.326 424.685 209.493 424.119ZM211.47 421.489C211.47 420.46 212.388 419.726 213.712 419.726C214.954 419.726 215.867 420.466 215.914 421.483H214.954C214.885 420.905 214.417 420.547 213.677 420.547C212.943 420.547 212.458 420.911 212.458 421.437C212.458 421.853 212.776 422.131 213.458 422.304L214.388 422.529C215.602 422.836 216.041 423.275 216.041 424.159C216.041 425.205 215.053 425.945 213.648 425.945C212.331 425.945 211.412 425.228 211.308 424.165H212.313C212.423 424.789 212.897 425.124 213.712 425.124C214.527 425.124 215.029 424.777 215.029 424.234C215.029 423.806 214.781 423.575 214.105 423.396L213.047 423.125C211.99 422.853 211.47 422.31 211.47 421.489ZM216.983 421.489C216.983 420.46 217.902 419.726 219.225 419.726C220.468 419.726 221.381 420.466 221.427 421.483H220.468C220.398 420.905 219.93 420.547 219.19 420.547C218.456 420.547 217.971 420.911 217.971 421.437C217.971 421.853 218.289 422.131 218.971 422.304L219.901 422.529C221.115 422.836 221.554 423.275 221.554 424.159C221.554 425.205 220.566 425.945 219.161 425.945C217.844 425.945 216.925 425.228 216.821 424.165H217.827C217.936 424.789 218.41 425.124 219.225 425.124C220.04 425.124 220.543 424.777 220.543 424.234C220.543 423.806 220.294 423.575 219.618 423.396L218.56 423.125C217.503 422.853 216.983 422.31 216.983 421.489ZM225.351 418.38H226.356V419.831H227.524V420.657H226.356V424.228C226.356 424.777 226.588 425.026 227.102 425.026C227.217 425.026 227.449 425.009 227.518 424.997V425.841C227.397 425.87 227.119 425.887 226.882 425.887C225.778 425.887 225.351 425.436 225.351 424.28V420.657H224.455V419.831H225.351V418.38ZM230.916 425.945C229.252 425.945 228.131 424.748 228.131 422.836C228.131 420.917 229.252 419.726 230.916 419.726C232.575 419.726 233.696 420.917 233.696 422.836C233.696 424.748 232.575 425.945 230.916 425.945ZM230.916 425.061C231.979 425.061 232.673 424.251 232.673 422.836C232.673 421.42 231.979 420.611 230.916 420.611C229.853 420.611 229.153 421.42 229.153 422.836C229.153 424.251 229.853 425.061 230.916 425.061ZM240.058 419.726C241.59 419.726 242.63 420.952 242.63 422.836C242.63 424.72 241.596 425.945 240.082 425.945C239.221 425.945 238.527 425.523 238.169 424.864H238.146V427.846H237.14V419.831H238.094V420.848H238.117C238.487 420.171 239.186 419.726 240.058 419.726ZM239.862 425.061C240.931 425.061 241.601 424.199 241.601 422.836C241.601 421.478 240.931 420.611 239.862 420.611C238.833 420.611 238.14 421.501 238.14 422.836C238.14 424.176 238.833 425.061 239.862 425.061ZM245.629 425.089C246.577 425.089 247.305 424.425 247.305 423.558V423.067L245.699 423.165C244.89 423.217 244.427 423.575 244.427 424.142C244.427 424.714 244.907 425.089 245.629 425.089ZM245.404 425.945C244.208 425.945 243.405 425.222 243.405 424.142C243.405 423.113 244.196 422.466 245.583 422.385L247.305 422.287V421.784C247.305 421.05 246.82 420.611 245.988 420.611C245.213 420.611 244.728 420.975 244.601 421.564H243.63C243.699 420.524 244.589 419.726 246.011 419.726C247.421 419.726 248.311 420.489 248.311 421.686V425.841H247.357V424.806H247.334C246.976 425.494 246.213 425.945 245.404 425.945ZM249.484 421.489C249.484 420.46 250.403 419.726 251.726 419.726C252.969 419.726 253.882 420.466 253.928 421.483H252.969C252.899 420.905 252.431 420.547 251.692 420.547C250.958 420.547 250.472 420.911 250.472 421.437C250.472 421.853 250.79 422.131 251.472 422.304L252.402 422.529C253.616 422.836 254.055 423.275 254.055 424.159C254.055 425.205 253.067 425.945 251.663 425.945C250.345 425.945 249.426 425.228 249.322 424.165H250.328C250.438 424.789 250.911 425.124 251.726 425.124C252.541 425.124 253.044 424.777 253.044 424.234C253.044 423.806 252.795 423.575 252.119 423.396L251.062 423.125C250.004 422.853 249.484 422.31 249.484 421.489ZM255.425 418.38H256.43V419.831H257.598V420.657H256.43V424.228C256.43 424.777 256.662 425.026 257.176 425.026C257.292 425.026 257.523 425.009 257.592 424.997V425.841C257.471 425.87 257.193 425.887 256.956 425.887C255.853 425.887 255.425 425.436 255.425 424.28V420.657H254.529V419.831H255.425V418.38ZM260.909 420.599C259.967 420.599 259.308 421.321 259.245 422.321H262.51C262.487 421.316 261.857 420.599 260.909 420.599ZM262.487 424.119H263.475C263.302 425.17 262.285 425.945 260.973 425.945C259.251 425.945 258.205 424.748 258.205 422.859C258.205 420.992 259.268 419.726 260.927 419.726C262.55 419.726 263.55 420.905 263.55 422.726V423.107H259.239V423.165C259.239 424.315 259.915 425.072 260.996 425.072C261.759 425.072 262.319 424.685 262.487 424.119Z" fill="#868C98"/>
<path d="M421.103 424.722V428.949H405.886V424.722H407.577V427.259H419.412V424.722H421.103ZM405.886 420.495H421.103V422.186H405.886V420.495ZM421.103 417.959H419.412V415.423H407.577V417.959H405.886V413.732H421.103V417.959Z" fill="#868C98"/>
</g>
<path d="M161.016 475.729C159.01 475.729 157.742 474.312 157.742 472.034C157.742 469.77 159.02 468.343 161.016 468.343C162.636 468.343 163.859 469.339 164.048 470.83H162.948C162.75 469.914 161.987 469.314 161.016 469.314C159.718 469.314 158.876 470.379 158.876 472.034C158.876 473.703 159.708 474.758 161.021 474.758C162.017 474.758 162.725 474.248 162.948 473.386H164.053C163.78 474.862 162.661 475.729 161.016 475.729ZM164.903 475.61V468.462H165.963V471.271H165.988C166.275 470.662 166.845 470.31 167.638 470.31C168.782 470.31 169.465 471.073 169.465 472.252V475.61H168.39V472.46C168.39 471.692 168.004 471.231 167.251 471.231C166.459 471.231 165.973 471.776 165.973 472.598V475.61H164.903ZM172.263 474.852C173.011 474.852 173.595 474.337 173.595 473.658V473.247L172.312 473.327C171.673 473.371 171.312 473.653 171.312 474.099C171.312 474.555 171.688 474.852 172.263 474.852ZM171.965 475.699C170.945 475.699 170.232 475.065 170.232 474.129C170.232 473.218 170.93 472.658 172.168 472.588L173.595 472.504V472.103C173.595 471.524 173.204 471.177 172.55 471.177C171.931 471.177 171.544 471.474 171.45 471.94H170.44C170.499 470.998 171.302 470.305 172.59 470.305C173.853 470.305 174.66 470.974 174.66 472.019V475.61H173.635V474.753H173.61C173.308 475.333 172.649 475.699 171.965 475.699ZM175.674 475.61V470.399H176.744V475.61H175.674ZM176.209 469.636C175.867 469.636 175.59 469.364 175.59 469.027C175.59 468.685 175.867 468.413 176.209 468.413C176.556 468.413 176.833 468.685 176.833 469.027C176.833 469.364 176.556 469.636 176.209 469.636ZM177.778 475.61V470.399H178.798V471.271H178.823C179.105 470.676 179.66 470.31 180.463 470.31C181.612 470.31 182.271 471.043 182.271 472.237V475.61H181.196V472.445C181.196 471.662 180.829 471.231 180.086 471.231C179.333 471.231 178.848 471.766 178.848 472.574V475.61H177.778Z" fill="#0A0D14"/>
<g filter="url(#filter15_d_7638_7081)">
<rect x="157.341" y="483.992" width="276.443" height="50.7234" rx="8.4539" fill="white"/>
<rect x="157.763" y="484.414" width="275.597" height="49.878" rx="8.03121" stroke="#E2E4E9" stroke-width="0.84539"/>
<rect x="167.908" y="492.962" width="112.112" height="32.7827" rx="6.34043" fill="#F7F7F7"/>
<rect x="167.908" y="492.962" width="112.112" height="32.7827" rx="6.34043" stroke="#E2E4E9" stroke-width="0.84539"/>
<path d="M178.253 511.03H179.53C179.622 511.857 180.426 512.4 181.524 512.4C182.576 512.4 183.333 511.857 183.333 511.111C183.333 510.464 182.876 510.077 181.795 509.811L180.715 509.551C179.183 509.181 178.472 508.464 178.472 507.303C178.472 505.864 179.727 504.876 181.506 504.876C183.269 504.876 184.477 505.864 184.517 507.303H183.257C183.182 506.471 182.495 505.968 181.489 505.968C180.484 505.968 179.796 506.476 179.796 507.216C179.796 507.806 180.235 508.152 181.31 508.418L182.229 508.643C183.939 509.048 184.65 509.736 184.65 510.955C184.65 512.515 183.408 513.492 181.431 513.492C179.582 513.492 178.334 512.539 178.253 511.03ZM188.204 508.17C187.332 508.17 186.719 508.834 186.656 509.753H189.695C189.666 508.823 189.077 508.17 188.204 508.17ZM189.69 511.568H190.874C190.701 512.677 189.649 513.469 188.256 513.469C186.471 513.469 185.39 512.261 185.39 510.343C185.39 508.435 186.488 507.164 188.204 507.164C189.892 507.164 190.944 508.355 190.944 510.198V510.626H186.65V510.701C186.65 511.758 187.285 512.458 188.285 512.458C188.996 512.458 189.522 512.099 189.69 511.568ZM191.961 513.353V505.014H193.209V513.353H191.961ZM197.035 508.17C196.162 508.17 195.55 508.834 195.486 509.753H198.526C198.497 508.823 197.907 508.17 197.035 508.17ZM198.52 511.568H199.705C199.531 512.677 198.479 513.469 197.087 513.469C195.301 513.469 194.22 512.261 194.22 510.343C194.22 508.435 195.318 507.164 197.035 507.164C198.722 507.164 199.774 508.355 199.774 510.198V510.626H195.48V510.701C195.48 511.758 196.116 512.458 197.116 512.458C197.826 512.458 198.352 512.099 198.52 511.568ZM205.963 509.366H204.773C204.646 508.719 204.16 508.204 203.345 508.204C202.38 508.204 201.745 509.008 201.745 510.314C201.745 511.649 202.386 512.423 203.357 512.423C204.126 512.423 204.628 512.001 204.773 511.296H205.975C205.842 512.591 204.808 513.469 203.345 513.469C201.606 513.469 200.473 512.278 200.473 510.314C200.473 508.383 201.606 507.164 203.334 507.164C204.9 507.164 205.854 508.17 205.963 509.366ZM207.223 505.835H208.477V507.274H209.633V508.262H208.477V511.614C208.477 512.14 208.708 512.377 209.217 512.377C209.344 512.377 209.546 512.365 209.627 512.348V513.336C209.489 513.371 209.211 513.394 208.934 513.394C207.703 513.394 207.223 512.926 207.223 511.753V508.262H206.339V507.274H207.223V505.835ZM216.735 513.492C214.395 513.492 212.916 511.839 212.916 509.181C212.916 506.54 214.406 504.876 216.735 504.876C218.625 504.876 220.053 506.037 220.272 507.777H218.989C218.758 506.708 217.868 506.008 216.735 506.008C215.221 506.008 214.239 507.251 214.239 509.181C214.239 511.128 215.21 512.359 216.741 512.359C217.903 512.359 218.729 511.764 218.989 510.759H220.278C219.96 512.481 218.654 513.492 216.735 513.492ZM221.341 513.353V505.014H222.578V508.291H222.607C222.942 507.58 223.607 507.17 224.531 507.17C225.866 507.17 226.664 508.06 226.664 509.435V513.353H225.41V509.678C225.41 508.782 224.959 508.245 224.081 508.245C223.156 508.245 222.59 508.88 222.59 509.84V513.353H221.341ZM229.998 512.469C230.871 512.469 231.553 511.868 231.553 511.076V510.597L230.056 510.689C229.311 510.741 228.889 511.071 228.889 511.591C228.889 512.122 229.328 512.469 229.998 512.469ZM229.652 513.457C228.461 513.457 227.629 512.718 227.629 511.625C227.629 510.562 228.444 509.909 229.889 509.828L231.553 509.73V509.262C231.553 508.586 231.096 508.181 230.334 508.181C229.611 508.181 229.16 508.528 229.051 509.071H227.872C227.941 507.973 228.877 507.164 230.38 507.164C231.853 507.164 232.795 507.944 232.795 509.164V513.353H231.599V512.354H231.57C231.218 513.03 230.449 513.457 229.652 513.457ZM234.049 513.353V507.274H235.298V513.353H234.049ZM234.674 506.384C234.275 506.384 233.951 506.066 233.951 505.673C233.951 505.274 234.275 504.956 234.674 504.956C235.078 504.956 235.402 505.274 235.402 505.673C235.402 506.066 235.078 506.384 234.674 506.384ZM236.575 513.353V507.274H237.765V508.291H237.794C238.124 507.597 238.771 507.17 239.707 507.17C241.048 507.17 241.816 508.025 241.816 509.418V513.353H240.562V509.661C240.562 508.748 240.135 508.245 239.268 508.245C238.389 508.245 237.823 508.869 237.823 509.811V513.353H236.575Z" fill="#525866"/>
<path d="M259.845 510.25L255.661 506.065L254.465 507.261L259.845 512.641L265.225 507.261L264.03 506.065L259.845 510.25Z" fill="#868C98"/>
</g>
<path d="M162.656 563.623L162.002 561.691H159.278L158.624 563.623H157.469L160.05 556.475H161.249L163.83 563.623H162.656ZM160.625 557.664L159.56 560.799H161.72L160.655 557.664H160.625ZM164.428 563.623V558.412H165.448V559.289H165.473C165.706 558.709 166.251 558.323 166.954 558.323C167.677 558.323 168.202 558.694 168.41 559.343H168.435C168.703 558.709 169.317 558.323 170.06 558.323C171.09 558.323 171.764 559.006 171.764 560.042V563.623H170.689V560.299C170.689 559.625 170.327 559.239 169.693 559.239C169.059 559.239 168.618 559.71 168.618 560.369V563.623H167.568V560.22C167.568 559.621 167.187 559.239 166.582 559.239C165.948 559.239 165.498 559.734 165.498 560.403V563.623H164.428ZM174.977 563.722C173.486 563.722 172.505 562.697 172.505 561.017C172.505 559.343 173.491 558.318 174.977 558.318C176.463 558.318 177.449 559.343 177.449 561.017C177.449 562.697 176.468 563.722 174.977 563.722ZM174.977 562.84C175.819 562.84 176.359 562.177 176.359 561.017C176.359 559.863 175.814 559.199 174.977 559.199C174.14 559.199 173.595 559.863 173.595 561.017C173.595 562.177 174.14 562.84 174.977 562.84ZM182.683 558.412V563.623H181.658V562.741H181.633C181.346 563.365 180.816 563.717 180.018 563.717C178.884 563.717 178.19 562.979 178.19 561.785V558.412H179.26V561.577C179.26 562.37 179.637 562.796 180.375 562.796C181.148 562.796 181.613 562.261 181.613 561.448V558.412H182.683ZM183.682 563.623V558.412H184.703V559.284H184.728C185.01 558.689 185.565 558.323 186.367 558.323C187.516 558.323 188.175 559.056 188.175 560.25V563.623H187.1V560.458C187.1 559.675 186.734 559.244 185.991 559.244C185.238 559.244 184.752 559.779 184.752 560.586V563.623H183.682ZM189.462 557.178H190.537V558.412H191.527V559.259H190.537V562.132C190.537 562.583 190.735 562.786 191.171 562.786C191.28 562.786 191.453 562.776 191.522 562.761V563.608C191.403 563.638 191.166 563.658 190.928 563.658C189.873 563.658 189.462 563.256 189.462 562.251V559.259H188.704V558.412H189.462V557.178Z" fill="#0A0D14"/>
<g filter="url(#filter16_d_7638_7081)">
<rect x="157.341" y="572.005" width="276.443" height="50.7234" rx="8.4539" fill="white"/>
<rect x="157.763" y="572.427" width="275.597" height="49.878" rx="8.03121" stroke="#E2E4E9" stroke-width="0.84539"/>
<rect x="167.908" y="584.026" width="44.444" height="26.6809" rx="6.34043" fill="#F7F7F7"/>
<rect x="167.908" y="584.026" width="44.444" height="26.6809" rx="6.34043" stroke="#E2E4E9" stroke-width="0.84539"/>
<path d="M181.363 601.522C179.364 601.522 178.179 599.847 178.179 597.188C178.179 594.547 179.375 592.871 181.363 592.871C183.357 592.871 184.536 594.541 184.536 597.182C184.536 599.841 183.363 601.522 181.363 601.522ZM181.363 600.436C182.554 600.436 183.23 599.205 183.23 597.188C183.23 595.2 182.542 593.958 181.363 593.958C180.184 593.958 179.491 595.206 179.491 597.188C179.491 599.199 180.173 600.436 181.363 600.436ZM186.35 601.43C185.929 601.43 185.593 601.095 185.593 600.673C185.593 600.251 185.929 599.916 186.35 599.916C186.772 599.916 187.107 600.251 187.107 600.673C187.107 601.095 186.772 601.43 186.35 601.43ZM191.523 601.522C189.523 601.522 188.338 599.847 188.338 597.188C188.338 594.547 189.535 592.871 191.523 592.871C193.516 592.871 194.695 594.541 194.695 597.182C194.695 599.841 193.522 601.522 191.523 601.522ZM191.523 600.436C192.713 600.436 193.389 599.205 193.389 597.188C193.389 595.2 192.702 593.958 191.523 593.958C190.344 593.958 189.65 595.206 189.65 597.188C189.65 599.199 190.332 600.436 191.523 600.436ZM198.897 601.522C196.897 601.522 195.712 599.847 195.712 597.188C195.712 594.547 196.909 592.871 198.897 592.871C200.89 592.871 202.069 594.541 202.069 597.182C202.069 599.841 200.896 601.522 198.897 601.522ZM198.897 600.436C200.087 600.436 200.763 599.205 200.763 597.188C200.763 595.2 200.076 593.958 198.897 593.958C197.718 593.958 197.024 595.206 197.024 597.188C197.024 599.199 197.706 600.436 198.897 600.436Z" fill="#525866"/>
</g>
<path d="M371.236 563.998H368.536V556.85H371.246C372.469 556.85 373.296 557.563 373.296 558.633C373.296 559.376 372.752 560.069 372.063 560.193V560.233C373.034 560.357 373.658 561.04 373.658 561.991C373.658 563.25 372.756 563.998 371.236 563.998ZM369.428 557.637V559.931H370.765C371.82 559.931 372.395 559.51 372.395 558.737C372.395 558.029 371.909 557.637 371.043 557.637H369.428ZM369.428 563.21H371.102C372.177 563.21 372.742 562.774 372.742 561.947C372.742 561.12 372.157 560.699 371.018 560.699H369.428V563.21ZM376.173 563.354C376.985 563.354 377.609 562.784 377.609 562.041V561.62L376.232 561.704C375.539 561.749 375.143 562.056 375.143 562.541C375.143 563.032 375.554 563.354 376.173 563.354ZM375.98 564.087C374.954 564.087 374.266 563.468 374.266 562.541C374.266 561.66 374.944 561.105 376.133 561.035L377.609 560.951V560.52C377.609 559.891 377.193 559.515 376.48 559.515C375.816 559.515 375.4 559.827 375.291 560.332H374.459C374.518 559.44 375.281 558.757 376.5 558.757C377.709 558.757 378.471 559.411 378.471 560.436V563.998H377.654V563.111H377.634C377.327 563.7 376.673 564.087 375.98 564.087ZM379.55 563.998V556.85H380.412V563.998H379.55ZM383.214 563.354C384.026 563.354 384.65 562.784 384.65 562.041V561.62L383.273 561.704C382.58 561.749 382.184 562.056 382.184 562.541C382.184 563.032 382.595 563.354 383.214 563.354ZM383.021 564.087C381.995 564.087 381.307 563.468 381.307 562.541C381.307 561.66 381.985 561.105 383.174 561.035L384.65 560.951V560.52C384.65 559.891 384.234 559.515 383.521 559.515C382.857 559.515 382.441 559.827 382.332 560.332H381.5C381.559 559.44 382.322 558.757 383.541 558.757C384.749 558.757 385.512 559.411 385.512 560.436V563.998H384.695V563.111H384.675C384.368 563.7 383.714 564.087 383.021 564.087ZM386.546 563.998V558.846H387.359V559.668H387.378C387.666 559.113 388.215 558.757 389.013 558.757C390.142 558.757 390.796 559.485 390.796 560.654V563.998H389.934V560.808C389.934 559.975 389.543 559.52 388.75 559.52C387.938 559.52 387.408 560.094 387.408 560.966V563.998H386.546ZM396.115 560.535H395.273C395.149 559.975 394.713 559.515 393.955 559.515C393.063 559.515 392.459 560.253 392.459 561.422C392.459 562.62 393.073 563.329 393.965 563.329C394.668 563.329 395.129 562.957 395.278 562.338H396.125C395.991 563.364 395.129 564.087 393.96 564.087C392.533 564.087 391.582 563.081 391.582 561.422C391.582 559.797 392.529 558.757 393.95 558.757C395.238 558.757 396.006 559.609 396.115 560.535ZM398.922 559.505C398.115 559.505 397.55 560.124 397.495 560.981H400.294C400.274 560.119 399.734 559.505 398.922 559.505ZM400.274 562.521H401.121C400.973 563.423 400.101 564.087 398.976 564.087C397.5 564.087 396.604 563.061 396.604 561.442C396.604 559.842 397.515 558.757 398.937 558.757C400.329 558.757 401.186 559.767 401.186 561.328V561.655H397.49V561.704C397.49 562.69 398.07 563.339 398.996 563.339C399.65 563.339 400.131 563.007 400.274 562.521ZM402.725 564.047C402.408 564.047 402.16 563.799 402.16 563.482C402.16 563.165 402.408 562.918 402.725 562.918C403.042 562.918 403.29 563.165 403.29 563.482C403.29 563.799 403.042 564.047 402.725 564.047ZM402.725 560.401C402.408 560.401 402.16 560.154 402.16 559.837C402.16 559.52 402.408 559.272 402.725 559.272C403.042 559.272 403.29 559.52 403.29 559.837C403.29 560.154 403.042 560.401 402.725 560.401ZM409.052 564.116C407.383 564.116 406.417 562.68 406.417 560.421C406.417 558.182 407.393 556.731 409.052 556.731C410.712 556.731 411.678 558.172 411.678 560.416C411.678 562.675 410.717 564.116 409.052 564.116ZM409.052 563.339C410.167 563.339 410.781 562.204 410.781 560.421C410.781 558.663 410.157 557.513 409.052 557.513C407.948 557.513 407.314 558.673 407.314 560.416C407.314 562.199 407.933 563.339 409.052 563.339ZM417.475 563.998H414.776V556.85H417.485C418.709 556.85 419.536 557.563 419.536 558.633C419.536 559.376 418.991 560.069 418.303 560.193V560.233C419.274 560.357 419.898 561.04 419.898 561.991C419.898 563.25 418.996 563.998 417.475 563.998ZM415.667 557.637V559.931H417.005C418.06 559.931 418.635 559.51 418.635 558.737C418.635 558.029 418.149 557.637 417.282 557.637H415.667ZM415.667 563.21H417.342C418.417 563.21 418.981 562.774 418.981 561.947C418.981 561.12 418.397 560.699 417.258 560.699H415.667V563.21ZM421.729 563.998H420.847V556.85H421.714L425.627 562.462H425.672V556.85H426.554V563.998H425.687L421.774 558.405H421.729V563.998ZM430.579 563.998H427.88V556.85H430.589C431.813 556.85 432.64 557.563 432.64 558.633C432.64 559.376 432.095 560.069 431.407 560.193V560.233C432.378 560.357 433.002 561.04 433.002 561.991C433.002 563.25 432.1 563.998 430.579 563.998ZM428.771 557.637V559.931H430.109C431.164 559.931 431.739 559.51 431.739 558.737C431.739 558.029 431.253 557.637 430.386 557.637H428.771ZM428.771 563.21H430.446C431.521 563.21 432.085 562.774 432.085 561.947C432.085 561.12 431.501 560.699 430.362 560.699H428.771V563.21Z" fill="#525866"/>
</g>
<rect x="244.863" y="103.458" width="101.534" height="30.1857" rx="15.0928" fill="#030303"/>
<circle cx="328.101" cy="118.094" r="8.23246" fill="#0E0B0F"/>
<circle cx="328.103" cy="118.093" r="4.57359" fill="#161424"/>
<circle cx="328.102" cy="118.094" r="2.74415" fill="#0F0F2A"/>
<circle cx="328.103" cy="117.179" r="0.914717" fill="#393752"/>
<circle cx="310.723" cy="118.094" r="1.82943" fill="#30B94D"/>
</g>
<defs>
<filter id="filter0_f_7638_7081" x="118.434" y="227.368" width="2.5672" height="3.42304" filterUnits="userSpaceOnUse" color-interpolation-filters="sRGB">
<feFlood flood-opacity="0" result="BackgroundImageFix"/>
<feBlend mode="normal" in="SourceGraphic" in2="BackgroundImageFix" result="shape"/>
<feGaussianBlur stdDeviation="0.427873" result="effect1_foregroundBlur_7638_7081"/>
</filter>
<filter id="filter1_f_7638_7081" x="118.434" y="229.08" width="2.5672" height="23.9609" filterUnits="userSpaceOnUse" color-interpolation-filters="sRGB">
<feFlood flood-opacity="0" result="BackgroundImageFix"/>
<feBlend mode="normal" in="SourceGraphic" in2="BackgroundImageFix" result="shape"/>
<feGaussianBlur stdDeviation="0.427873" result="effect1_foregroundBlur_7638_7081"/>
</filter>
<filter id="filter2_f_7638_7081" x="118.434" y="280.425" width="2.5672" height="3.42304" filterUnits="userSpaceOnUse" color-interpolation-filters="sRGB">
<feFlood flood-opacity="0" result="BackgroundImageFix"/>
<feBlend mode="normal" in="SourceGraphic" in2="BackgroundImageFix" result="shape"/>
<feGaussianBlur stdDeviation="0.427873" result="effect1_foregroundBlur_7638_7081"/>
</filter>
<filter id="filter3_f_7638_7081" x="118.434" y="282.136" width="2.5672" height="51.3448" filterUnits="userSpaceOnUse" color-interpolation-filters="sRGB">
<feFlood flood-opacity="0" result="BackgroundImageFix"/>
<feBlend mode="normal" in="SourceGraphic" in2="BackgroundImageFix" result="shape"/>
<feGaussianBlur stdDeviation="0.427873" result="effect1_foregroundBlur_7638_7081"/>
</filter>
<filter id="filter4_f_7638_7081" x="118.434" y="348.884" width="2.5672" height="3.42304" filterUnits="userSpaceOnUse" color-interpolation-filters="sRGB">
<feFlood flood-opacity="0" result="BackgroundImageFix"/>
<feBlend mode="normal" in="SourceGraphic" in2="BackgroundImageFix" result="shape"/>
<feGaussianBlur stdDeviation="0.427873" result="effect1_foregroundBlur_7638_7081"/>
</filter>
<filter id="filter5_f_7638_7081" x="118.434" y="350.596" width="2.5672" height="51.3448" filterUnits="userSpaceOnUse" color-interpolation-filters="sRGB">
<feFlood flood-opacity="0" result="BackgroundImageFix"/>
<feBlend mode="normal" in="SourceGraphic" in2="BackgroundImageFix" result="shape"/>
<feGaussianBlur stdDeviation="0.427873" result="effect1_foregroundBlur_7638_7081"/>
</filter>
<filter id="filter6_f_7638_7081" x="470.999" y="299.251" width="2.5672" height="3.42304" filterUnits="userSpaceOnUse" color-interpolation-filters="sRGB">
<feFlood flood-opacity="0" result="BackgroundImageFix"/>
<feBlend mode="normal" in="SourceGraphic" in2="BackgroundImageFix" result="shape"/>
<feGaussianBlur stdDeviation="0.427873" result="effect1_foregroundBlur_7638_7081"/>
</filter>
<filter id="filter7_f_7638_7081" x="470.999" y="300.963" width="2.5672" height="81.2958" filterUnits="userSpaceOnUse" color-interpolation-filters="sRGB">
<feFlood flood-opacity="0" result="BackgroundImageFix"/>
<feBlend mode="normal" in="SourceGraphic" in2="BackgroundImageFix" result="shape"/>
<feGaussianBlur stdDeviation="0.427873" result="effect1_foregroundBlur_7638_7081"/>
</filter>
<filter id="filter8_f_7638_7081" x="117.576" y="75.0455" width="356.846" height="728.24" filterUnits="userSpaceOnUse" color-interpolation-filters="sRGB">
<feFlood flood-opacity="0" result="BackgroundImageFix"/>
<feBlend mode="normal" in="SourceGraphic" in2="BackgroundImageFix" result="shape"/>
<feGaussianBlur stdDeviation="1.71149" result="effect1_foregroundBlur_7638_7081"/>
</filter>
<filter id="filter9_f_7638_7081" x="119.288" y="76.757" width="353.423" height="724.817" filterUnits="userSpaceOnUse" color-interpolation-filters="sRGB">
<feFlood flood-opacity="0" result="BackgroundImageFix"/>
<feBlend mode="normal" in="SourceGraphic" in2="BackgroundImageFix" result="shape"/>
<feGaussianBlur stdDeviation="0.855746" result="effect1_foregroundBlur_7638_7081"/>
</filter>
<filter id="filter10_f_7638_7081" x="123.566" y="81.0357" width="344.865" height="715.403" filterUnits="userSpaceOnUse" color-interpolation-filters="sRGB">
<feFlood flood-opacity="0" result="BackgroundImageFix"/>
<feBlend mode="normal" in="SourceGraphic" in2="BackgroundImageFix" result="shape"/>
<feGaussianBlur stdDeviation="0.855746" result="effect1_foregroundBlur_7638_7081"/>
</filter>
<filter id="filter11_f_7638_7081" x="120.143" y="77.6131" width="351.712" height="722.249" filterUnits="userSpaceOnUse" color-interpolation-filters="sRGB">
<feFlood flood-opacity="0" result="BackgroundImageFix"/>
<feBlend mode="normal" in="SourceGraphic" in2="BackgroundImageFix" result="shape"/>
<feGaussianBlur stdDeviation="2.99511" result="effect1_foregroundBlur_7638_7081"/>
</filter>
<filter id="filter12_dd_7638_7081" x="159.031" y="229.253" width="141.603" height="37.9078" filterUnits="userSpaceOnUse" color-interpolation-filters="sRGB">
<feFlood flood-opacity="0" result="BackgroundImageFix"/>
<feColorMatrix in="SourceAlpha" type="matrix" values="0 0 0 0 0 0 0 0 0 0 0 0 0 0 0 0 0 0 127 0" result="hardAlpha"/>
<feMorphology radius="0.84539" operator="dilate" in="SourceAlpha" result="effect1_dropShadow_7638_7081"/>
<feOffset/>
<feComposite in2="hardAlpha" operator="out"/>
<feColorMatrix type="matrix" values="0 0 0 0 0.160784 0 0 0 0 0.176471 0 0 0 0 0.313726 0 0 0 1 0"/>
<feBlend mode="normal" in2="BackgroundImageFix" result="effect1_dropShadow_7638_7081"/>
<feColorMatrix in="SourceAlpha" type="matrix" values="0 0 0 0 0 0 0 0 0 0 0 0 0 0 0 0 0 0 127 0" result="hardAlpha"/>
<feOffset dy="0.84539"/>
<feGaussianBlur stdDeviation="0.84539"/>
<feComposite in2="hardAlpha" operator="out"/>
<feColorMatrix type="matrix" values="0 0 0 0 0.160784 0 0 0 0 0.176471 0 0 0 0 0.313726 0 0 0 0.48 0"/>
<feBlend mode="normal" in2="effect1_dropShadow_7638_7081" result="effect2_dropShadow_7638_7081"/>
<feBlend mode="normal" in="SourceGraphic" in2="effect2_dropShadow_7638_7081" result="shape"/>
</filter>
<filter id="filter13_d_7638_7081" x="155.65" y="307.121" width="279.824" height="54.1049" filterUnits="userSpaceOnUse" color-interpolation-filters="sRGB">
<feFlood flood-opacity="0" result="BackgroundImageFix"/>
<feColorMatrix in="SourceAlpha" type="matrix" values="0 0 0 0 0 0 0 0 0 0 0 0 0 0 0 0 0 0 127 0" result="hardAlpha"/>
<feOffset dy="0.84539"/>
<feGaussianBlur stdDeviation="0.84539"/>
<feComposite in2="hardAlpha" operator="out"/>
<feColorMatrix type="matrix" values="0 0 0 0 0.894118 0 0 0 0 0.898039 0 0 0 0 0.905882 0 0 0 0.24 0"/>
<feBlend mode="normal" in2="BackgroundImageFix" result="effect1_dropShadow_7638_7081"/>
<feBlend mode="normal" in="SourceGraphic" in2="effect1_dropShadow_7638_7081" result="shape"/>
</filter>
<filter id="filter14_d_7638_7081" x="155.65" y="395.134" width="279.824" height="54.1049" filterUnits="userSpaceOnUse" color-interpolation-filters="sRGB">
<feFlood flood-opacity="0" result="BackgroundImageFix"/>
<feColorMatrix in="SourceAlpha" type="matrix" values="0 0 0 0 0 0 0 0 0 0 0 0 0 0 0 0 0 0 127 0" result="hardAlpha"/>
<feOffset dy="0.84539"/>
<feGaussianBlur stdDeviation="0.84539"/>
<feComposite in2="hardAlpha" operator="out"/>
<feColorMatrix type="matrix" values="0 0 0 0 0.894118 0 0 0 0 0.898039 0 0 0 0 0.905882 0 0 0 0.24 0"/>
<feBlend mode="normal" in2="BackgroundImageFix" result="effect1_dropShadow_7638_7081"/>
<feBlend mode="normal" in="SourceGraphic" in2="effect1_dropShadow_7638_7081" result="shape"/>
</filter>
<filter id="filter15_d_7638_7081" x="155.65" y="483.146" width="279.824" height="54.1049" filterUnits="userSpaceOnUse" color-interpolation-filters="sRGB">
<feFlood flood-opacity="0" result="BackgroundImageFix"/>
<feColorMatrix in="SourceAlpha" type="matrix" values="0 0 0 0 0 0 0 0 0 0 0 0 0 0 0 0 0 0 127 0" result="hardAlpha"/>
<feOffset dy="0.84539"/>
<feGaussianBlur stdDeviation="0.84539"/>
<feComposite in2="hardAlpha" operator="out"/>
<feColorMatrix type="matrix" values="0 0 0 0 0.894118 0 0 0 0 0.898039 0 0 0 0 0.905882 0 0 0 0.24 0"/>
<feBlend mode="normal" in2="BackgroundImageFix" result="effect1_dropShadow_7638_7081"/>
<feBlend mode="normal" in="SourceGraphic" in2="effect1_dropShadow_7638_7081" result="shape"/>
</filter>
<filter id="filter16_d_7638_7081" x="155.65" y="571.159" width="279.824" height="54.1051" filterUnits="userSpaceOnUse" color-interpolation-filters="sRGB">
<feFlood flood-opacity="0" result="BackgroundImageFix"/>
<feColorMatrix in="SourceAlpha" type="matrix" values="0 0 0 0 0 0 0 0 0 0 0 0 0 0 0 0 0 0 127 0" result="hardAlpha"/>
<feOffset dy="0.84539"/>
<feGaussianBlur stdDeviation="0.84539"/>
<feComposite in2="hardAlpha" operator="out"/>
<feColorMatrix type="matrix" values="0 0 0 0 0.894118 0 0 0 0 0.898039 0 0 0 0 0.905882 0 0 0 0.24 0"/>
<feBlend mode="normal" in2="BackgroundImageFix" result="effect1_dropShadow_7638_7081"/>
<feBlend mode="normal" in="SourceGraphic" in2="effect1_dropShadow_7638_7081" result="shape"/>
</filter>
<linearGradient id="paint0_linear_7638_7081" x1="120.572" y1="227.369" x2="120.572" y2="230.161" gradientUnits="userSpaceOnUse">
<stop/>
<stop offset="1" stop-opacity="0"/>
</linearGradient>
<linearGradient id="paint1_linear_7638_7081" x1="122.712" y1="227.369" x2="119.717" y2="227.369" gradientUnits="userSpaceOnUse">
<stop/>
<stop offset="1" stop-color="#AEAEAE" stop-opacity="0"/>
</linearGradient>
<linearGradient id="paint2_linear_7638_7081" x1="120.572" y1="249.359" x2="120.572" y2="253.897" gradientUnits="userSpaceOnUse">
<stop stop-opacity="0"/>
<stop offset="1"/>
</linearGradient>
<linearGradient id="paint3_linear_7638_7081" x1="120.572" y1="279.569" x2="120.572" y2="282.992" gradientUnits="userSpaceOnUse">
<stop/>
<stop offset="1" stop-opacity="0"/>
</linearGradient>
<linearGradient id="paint4_linear_7638_7081" x1="122.712" y1="279.569" x2="119.717" y2="279.569" gradientUnits="userSpaceOnUse">
<stop/>
<stop offset="1" stop-color="#AEAEAE" stop-opacity="0"/>
</linearGradient>
<linearGradient id="paint5_linear_7638_7081" x1="120.572" y1="329.63" x2="120.572" y2="334.337" gradientUnits="userSpaceOnUse">
<stop stop-opacity="0"/>
<stop offset="1"/>
</linearGradient>
<linearGradient id="paint6_linear_7638_7081" x1="120.572" y1="348.028" x2="120.572" y2="351.451" gradientUnits="userSpaceOnUse">
<stop/>
<stop offset="1" stop-opacity="0"/>
</linearGradient>
<linearGradient id="paint7_linear_7638_7081" x1="122.712" y1="348.028" x2="119.717" y2="348.028" gradientUnits="userSpaceOnUse">
<stop/>
<stop offset="1" stop-color="#AEAEAE" stop-opacity="0"/>
</linearGradient>
<linearGradient id="paint8_linear_7638_7081" x1="120.572" y1="398.089" x2="120.572" y2="402.796" gradientUnits="userSpaceOnUse">
<stop stop-opacity="0"/>
<stop offset="1"/>
</linearGradient>
<linearGradient id="paint9_linear_7638_7081" x1="471.427" y1="298.395" x2="471.427" y2="301.818" gradientUnits="userSpaceOnUse">
<stop/>
<stop offset="1" stop-opacity="0"/>
</linearGradient>
<linearGradient id="paint10_linear_7638_7081" x1="469.288" y1="298.395" x2="472.283" y2="298.395" gradientUnits="userSpaceOnUse">
<stop/>
<stop offset="1" stop-color="#AEAEAE" stop-opacity="0"/>
</linearGradient>
<linearGradient id="paint11_linear_7638_7081" x1="471.427" y1="379.263" x2="471.427" y2="383.114" gradientUnits="userSpaceOnUse">
<stop stop-opacity="0"/>
<stop offset="1"/>
</linearGradient>
<radialGradient id="paint12_radial_7638_7081" cx="0" cy="0" r="1" gradientUnits="userSpaceOnUse" gradientTransform="translate(296.426 247.479) rotate(90) scale(290.954 324.602)">
<stop stop-color="#879194"/>
<stop offset="1"/>
</radialGradient>
<clipPath id="clip0_7638_7081">
<rect width="592" height="600" rx="30" fill="white"/>
</clipPath>
<clipPath id="clip1_7638_7081">
<rect x="121" y="78.4686" width="350" height="721.394" rx="58.1907" fill="white"/>
</clipPath>
<clipPath id="clip2_7638_7081">
<rect x="126.133" y="83.6033" width="339.731" height="710.269" rx="53.0562" fill="white"/>
</clipPath>
<clipPath id="clip3_7638_7081">
<rect x="137.052" y="93.9904" width="317.021" height="688.555" rx="43.75" fill="white"/>
</clipPath>
<clipPath id="clip4_7638_7081">
<rect width="13.5262" height="13.5262" fill="white" transform="translate(177.63 326.565)"/>
</clipPath>
</defs>
</svg>
